<?xml version="1.0" encoding="utf-8"?>
<!-- Generator: Adobe Illustrator 16.0.3, SVG Export Plug-In . SVG Version: 6.00 Build 0)  -->
<!DOCTYPE svg PUBLIC "-//W3C//DTD SVG 1.1//EN" "http://www.w3.org/Graphics/SVG/1.1/DTD/svg11.dtd">
<svg version="1.1" id="Layer_1" xmlns="http://www.w3.org/2000/svg" xmlns:xlink="http://www.w3.org/1999/xlink" x="0px" y="0px"
	 width="2927.567px" height="4285.268px" viewBox="0 0 2927.567 4285.268" enable-background="new 0 0 2927.567 4285.268"
	 xml:space="preserve">
<g>
	<path fill="#3E474D" d="M1380.571,1471.948c-75.077-3.256-88.875-77.787-84.742-172.739c4.193-94.994,24.502-167.948,99.58-164.651
		c75.033,3.308,88.883,77.796,84.741,172.74C1475.965,1402.239,1455.656,1475.254,1380.571,1471.948z"/>
	<path fill="#3E474D" d="M2233.707,1171.333c75.076,3.307,88.934,77.795,84.791,172.791c-4.193,94.943-24.502,167.949-99.58,164.649
		c-75.032-3.305-88.934-77.795-84.791-172.79C2138.32,1241.042,2158.679,1168.079,2233.707,1171.333z"/>
	<path fill="#3E474D" d="M48.477,1066.436c-1.185,1.866-119.796,190.482,18.435,398.217c0.639,0.987,1.526,1.772,2.369,2.616
		c12.665,145.815,47.719,295.432,119.541,430.9c36.775,69.607,82.969,134.626,136.653,191.473
		c53.684,56.932,114.52,105.537,178.994,145.176c129.358,79.569,270.691,124.126,410.498,147.4
		c70.099,11.633,140.301,17.941,210.205,19.765c46.483,1.031,92.182,0.298,138.426-2.657c-1.679,15.672-2.514,31.592-2.514,47.718
		l-40.423,624.536c0,132.709,84.34,158.045,204.775,162.332c-5.224,45.854-9.86,91.598-14.198,137.592
		c-8.429,90.018-15.332,180.18-20.701,270.494c-8.583,144.395-13.262,289.176-13.901,434.404
		c-267.98,25.586-286.125,162.63-281.881,200.541c0.495,4.678,4.978,8.326,9.665,8.326h539.403c4.628,0,8.966-3.742,9.366-8.38
		c2.959-30.271-5.078-127.431-54.869-175.54c-16.32-151.936-28.244-304.858-35.54-458.217
		c-4.192-88.492-6.954-177.129-8.139-265.809c-0.588-47.521-0.783-95.291-0.442-142.865c1.679,0,3.4-0.051,5.079-0.051h346.56
		c1.723,0,3.4,0.051,5.072,0.051c0.399,47.574,0.193,95.344-0.444,142.865c-1.184,88.68-3.938,177.316-8.131,265.809
		c-7.243,152.82-19.082,305.146-35.343,456.588c-76.705,47.616-66.503,147.197-63.647,177.169c0.399,4.638,4.738,8.38,9.366,8.38
		h348.681c4.681,0,9.171-3.648,9.708-8.326c3.802-34.562,14.097-137.242-82.569-181.859c-0.349-151.44-4.984-302.529-13.899-453.086
		c-5.429-90.314-12.281-180.477-20.711-270.494c-4.336-45.994-9.018-91.738-14.199-137.592
		c120.438-4.287,204.786-29.623,204.786-162.332l-37.22-574.849c7.491,18.144,14.199,37.609,20.207,56.745
		c23.709,76.012,48.81,161.291,57.878,243.57c15.376,143.898,19.518,288.094,5.224,435.29c-2.41,1.431-4.584,3.257-5.965,5.718
		c-58.32,101.31-76.406,218.686-77.146,223.61c-0.691,4.784,0.689,9.563,3.894,13.212c29.233,33.621,83.506,34.021,85.824,34.021
		c6.554,0,12.519-3.995,15.084-10.106l6.606-15.682c0.885,65.566-3.205,130.841-4.236,145.823c-0.35,1.382-0.545,2.854-0.545,4.389
		c0,9.07,7.346,16.417,16.713,16.417c143.455,0,265.51-53.191,270.64-55.458c3.987-1.782,7.149-5.081,8.675-9.171
		c70.756-185.949,3.164-335.421,0.248-341.675c-1.185-2.567-3.11-4.587-5.327-6.215c-19.321-161.99-58.712-329.599-111.759-487.595
		c-30.214-88.586-75.468-176.086-123.782-260.385c-24.351-42-51.266-82.722-85.724-120.281
		c-17.207-18.733-36.186-36.529-57.826-52.408c-10.85-7.883-22.33-15.28-34.899-21.938c-6.316-3.297-12.922-6.409-19.97-9.314
		c-0.886-0.35-1.917-0.689-2.812-1.039c-2.412-4.576-4.875-9.162-7.542-13.654c442.396-77.982,555.468-344.335,565.526-573.521
		l9.168-209.311c58.467-68.326,183.385-254.13,191.32-601.866c10.406-454.857-80.627-608.276-210.403-675.469
		C2475.904,86.032,1657.671-60.628,1185.502,26.159c-144.485,26.565-222.673,86.037-290.301,224.557
		c-66.75,136.654-272.472,771.402,4.679,1173.07l-8.48,192.801c-9.708,221.388,72.171,479.465,449.191,603.197
		c-20.651,22.329-36.725,46.977-48.853,73.354c-51.119-2.914-103.764-9.169-154.593-17.751c-63.545-10.842-126-25.73-186.392-44.854
		c-120.58-38.156-233.123-94.305-323.089-169.833c-90.357-75.224-155.633-169.434-192.307-274.381
		c-29.975-84.495-42.052-175.748-41.608-269.259c28.397-10.354,145.525-65.122,189.545-275.667l43.433-378.214
		c0.742-5.916-1.926-11.778-6.801-15.282c-2.123-1.473-52.849-36.869-112.646-36.869c-17.795,0-34.755,3.153-50.429,9.418
		c-4.781,1.866-8.387,5.956-9.758,10.891l-62.413,229.722c-30.417-8.377-99.136-24.452-178.602-24.452
		c-55.065,0-105.248,7.841-149.225,23.216C53.454,1061.058,50.496,1063.325,48.477,1066.436z M2309.968,3259.896
		c13.949-4.191,54.672-14.394,117.229-14.394c49.688,0,102.24,6.359,156.366,18.877c11.684,30.469,51.997,154.75-1.671,302.49
		c-25.047,10.057-122.164,46.184-233.521,49.738c2.318-39.483,6.748-135.717-0.35-208.133c-0.734-7.49-6.451-13.51-13.85-14.645
		c-7.44-1.131-14.693,2.958-17.601,9.914l-29.972,71.53c-12.029-1.479-31.646-5.522-45.25-16.856
		C2246.379,3431.104,2265.504,3339.757,2309.968,3259.896z M1877.685,2243.989c-32.933,0-67.389-0.845-102.34-2.422
		c-570.905-25.627-851.806-235.193-834.794-622.866l32.88-748.816c27.41-138.52,66.75-282.375,123.341-406.646
		c0,0,907.355,268.815,1327.858,266.787c196.586-0.928,261.732-65.215,261.732-65.215s13.554,131.131,19.441,375.596
		l-28.738,654.512C2661.093,2059.225,2392.143,2243.989,1877.685,2243.989z M73.32,1088.911
		c39.145-12.912,83.752-19.474,132.758-19.474c99.673,0,184.074,27.409,184.909,27.656c4.288,1.432,8.975,1.039,12.921-1.082
		c3.937-2.165,6.852-5.812,8.028-10.151l64.585-237.562c9.657-3.008,19.96-4.491,30.758-4.491c36.776,0,70.74,17.156,85.679,25.883
		l-42.051,366.468c-41.752,199.604-153.81,245.055-169.977,250.629c-169.978-3.701-268.177-36.674-289.517-44.617
		C-19.262,1271.408,57.297,1117.359,73.32,1088.911z"/>
	<path fill="#3E474D" d="M176.155,1254.448c0.835-13.211,3.153-26.123,6.605-38.497c3.451-12.376,7.985-24.351,13.508-35.693
		c5.565-11.387,11.881-22.279,19.517-32.242l2.268,1.482c-5.522,10.893-9.707,22.475-13.057,34.067
		c-3.256,11.685-5.523,23.565-6.614,35.292c-1.134,11.88-1.134,23.616,0.205,35.146c1.082,9.912,3.246,19.526,6.204,28.791
		l58.372,5.13l15.375-1.926l35.498-4.482l24.401-111.461l2.761,0.247l3.946,107.413l135.069-16.901l-176.285,55.108
		c1.091,4.935,2.021,9.811,3.009,14.745c1.823,10.253,3.596,20.505,5.028,30.81c1.483,10.304,2.864,20.649,4.091,30.954
		c0.886,7.986,1.679,15.972,2.319,23.958l98.692,29.087l-112.892-6.749l-7.1-0.401l-3.204-9.708
		c-3.298-9.963-6.255-19.969-9.067-29.974c-2.762-10.109-5.523-20.165-7.935-30.265c-2.617-10.108-4.833-20.215-7.006-30.418
		c-1.577-7.696-3.051-15.384-4.287-23.225l-209.557-42.052l0.392-2.71l120.035,10.407
		C175.712,1271.655,175.559,1262.928,176.155,1254.448z"/>
	<path fill="#3E474D" d="M1749.707,1962.942c-91.84-7.439-163.218-51.118-159.477-97.56c3.802-46.483,81.342-78.034,173.184-70.585
		c91.941,7.439,163.318,51.12,159.527,97.551C1919.139,1938.839,1841.6,1970.434,1749.707,1962.942z"/>
</g>
</svg>
