<?xml version="1.0" encoding="utf-8"?>
<!-- Generator: Adobe Illustrator 16.0.1, SVG Export Plug-In . SVG Version: 6.00 Build 0)  -->
<!DOCTYPE svg PUBLIC "-//W3C//DTD SVG 1.1//EN" "http://www.w3.org/Graphics/SVG/1.1/DTD/svg11.dtd">
<svg version="1.1" id="Layer_1" xmlns="http://www.w3.org/2000/svg" xmlns:xlink="http://www.w3.org/1999/xlink" x="0px" y="0px"
	 width="495.79px" height="382.719px" viewBox="0 0 495.79 382.719" enable-background="new 0 0 495.79 382.719"
	 xml:space="preserve">
<g>
	<ellipse opacity="0.11" fill="#231F20" enable-background="new    " cx="251.96" cy="373.16" rx="247.895" ry="12.059"/>
	<g>
		<linearGradient id="SVGID_1_" gradientUnits="userSpaceOnUse" x1="50.4995" y1="-11.2612" x2="453.4238" y2="315.0207">
			<stop  offset="0" style="stop-color:#FFFFFF;stop-opacity:0"/>
			<stop  offset="0.9104" style="stop-color:#FFFFFF;stop-opacity:0.9104"/>
			<stop  offset="1" style="stop-color:#FFFFFF"/>
		</linearGradient>
		<rect x="24.351" y="21.029" fill="url(#SVGID_1_)" width="455.22" height="261.7"/>
		<g>
			<g>
				<g>
					<path fill="#BFD530" d="M327.42,380.439H175.48c-8.34,0-10.83-1.4-9.87-3.85c1.29-3.33,8.91-8.61,16.82-15.011
						c8.73-7.05,17.82-15.46,19.18-24.1l1.28-32.13l0.89-22.62h95.34l0.899,22.62l1.28,32.13c1.36,8.63,10.44,17.03,19.16,24.09
						c7.92,6.4,15.54,11.68,16.84,15.021C338.25,379.039,335.76,380.439,327.42,380.439z"/>
					<path fill="#859E3C" d="M337.3,376.59c-0.729,1.39-3.7,2.159-9.88,2.159H175.48c-6.18,0-9.14-0.77-9.87-2.159
						c-1.49-2.811,6.07-8.181,14.66-14.98c9.33-7.38,19.87-16.47,21.34-25.82l1.21-30.439l0.9-22.62h95.471l0.899,22.62l1.21,30.439
						c1.47,9.351,11.99,18.42,21.32,25.811C331.21,368.409,338.781,373.77,337.3,376.59z"/>
				</g>
			</g>
		</g>
		<path fill="#859E3C" d="M485.52,2.5H18.4c-7.92,0-14.34,6.32-14.34,14.12v274.61c0,7.8,6.42,14.12,14.34,14.12h467.12
			c7.91,0,14.33-6.32,14.33-14.12V16.619C499.85,8.819,493.43,2.5,485.52,2.5z M479.571,282.729H24.351v-261.7h455.22V282.729z"/>
		<g>
			<g>
				<g>
					<defs>
						<rect id="SVGID_2_" x="246.974" y="287.852" width="9.049" height="11.816"/>
					</defs>
					<clipPath id="SVGID_3_">
						<use xlink:href="#SVGID_2_"  overflow="visible"/>
					</clipPath>
					<path clip-path="url(#SVGID_3_)" fill="#BFD530" d="M254.531,294.127c-0.014-1.494,1.147-2.211,1.203-2.246
						c-0.654-1.018-1.672-1.156-2.033-1.172c-0.865-0.096-1.69,0.541-2.128,0.541c-0.438,0-1.117-0.527-1.834-0.514
						c-0.944,0.014-1.815,0.584-2.3,1.479c-0.98,1.81-0.25,4.486,0.704,5.955c0.467,0.718,1.022,1.522,1.754,1.494
						c0.705-0.026,0.971-0.481,1.82-0.481c0.853,0,1.093,0.481,1.836,0.467c0.757-0.012,1.236-0.73,1.701-1.449
						c0.533-0.834,0.756-1.641,0.769-1.684C256.009,296.512,254.546,295.916,254.531,294.127"/>
				</g>
			</g>
			<path fill="#BFD530" d="M253.134,289.738c0.387-0.502,0.648-1.195,0.576-1.887c-0.559,0.022-1.234,0.395-1.638,0.893
				c-0.357,0.445-0.674,1.15-0.59,1.83C252.106,290.625,252.744,290.236,253.134,289.738L253.134,289.738z"/>
		</g>
		<circle fill="#BFD530" cx="251.454" cy="8.587" r="2.057"/>
	</g>
</g>
</svg>
