<?xml version="1.0" encoding="utf-8"?>
<!-- Generator: Adobe Illustrator 16.0.3, SVG Export Plug-In . SVG Version: 6.00 Build 0)  -->
<!DOCTYPE svg PUBLIC "-//W3C//DTD SVG 1.1//EN" "http://www.w3.org/Graphics/SVG/1.1/DTD/svg11.dtd">
<svg version="1.1" id="Layer_1" xmlns="http://www.w3.org/2000/svg" xmlns:xlink="http://www.w3.org/1999/xlink" x="0px" y="0px"
	 width="656.798px" height="68.298px" viewBox="0 0 656.798 68.298" enable-background="new 0 0 656.798 68.298"
	 xml:space="preserve">
<ellipse fill="#F4ED6D" cx="120.935" cy="33.695" rx="107.935" ry="33.696"/>
<ellipse fill="#406B33" cx="107.935" cy="33.695" rx="107.935" ry="33.696"/>
<ellipse fill="#032E21" cx="114.935" cy="33.695" rx="107.935" ry="33.696"/>
<path fill="#B5CD34" d="M21.736,41.375c0,0,19.864,11.946,53.872,12.93C109.622,55.29,59.443,55.759,21.736,41.375z"/>
<ellipse fill="#F4ED6D" cx="548.863" cy="34.603" rx="107.935" ry="33.696"/>
<ellipse fill="#406B33" cx="535.863" cy="34.603" rx="107.935" ry="33.696"/>
<ellipse fill="#032E21" cx="542.863" cy="34.603" rx="107.935" ry="33.696"/>
<path fill="#F4F9ED" d="M621.595,28.483c-5.729,0.815-14.822-0.708-20.309-3.401c-5.484-2.693-5.286-5.536,0.443-6.351
	c13.703-1.949,38.85,12.509,20.307,3.401C627.522,24.825,627.324,27.668,621.595,28.483z"/>
<path fill="#B5CD34" d="M449.663,42.283c0,0,19.865,11.946,53.873,12.929C537.55,56.196,487.372,56.667,449.663,42.283z"/>
<path fill="#F4F9ED" d="M186.603,28.483c-5.729,0.815-14.823-0.708-20.309-3.401c-5.485-2.693-5.287-5.536,0.443-6.351
	c13.703-1.949,38.85,12.509,20.307,3.401C192.53,24.825,192.332,27.668,186.603,28.483z"/>
</svg>
