<?xml version="1.0" encoding="utf-8"?>
<!-- Generator: Adobe Illustrator 16.0.3, SVG Export Plug-In . SVG Version: 6.00 Build 0)  -->
<!DOCTYPE svg PUBLIC "-//W3C//DTD SVG 1.1//EN" "http://www.w3.org/Graphics/SVG/1.1/DTD/svg11.dtd">
<svg version="1.1" id="Layer_1" xmlns="http://www.w3.org/2000/svg" xmlns:xlink="http://www.w3.org/1999/xlink" x="0px" y="0px"
	 width="702.588px" height="205.816px" viewBox="0 0 702.588 205.816" enable-background="new 0 0 702.588 205.816"
	 xml:space="preserve">
<path fill="#F4ED6D" d="M274.66,102.034c0,56.08-58.939,101.511-131.664,101.511c-72.648,0-114.283-44.569-114.283-100.635
	c0-56.066,41.634-102.381,114.283-102.381C215.69,0.528,274.66,45.964,274.66,102.034z"/>
<path fill="#406B33" d="M200.696,107.416c0,56.061,6.184,92.723-57.7,96.129C70.625,200.454,0,158.99,0,102.913
	C0,46.847,70.34,0.532,142.996,0.532C175.556,0.528,200.696,51.348,200.696,107.416z"/>
<path fill="#032E21" d="M138.285,0c60.522,0,109.583,47.328,109.583,102.91c0,55.581-49.061,102.907-109.583,102.907
	c-60.519,0-109.583-47.326-109.583-102.907C28.702,47.328,77.767,0,138.285,0z"/>
<path fill="#B5CD34" d="M58.79,146.885c0,0,42.365,60.472,109.802,37.615C236.041,161.654,137.041,207.842,58.79,146.885z"/>
<path fill="#F4ED6D" d="M702.588,102.034c0,56.08-58.939,101.511-131.663,101.511c-72.649,0-114.283-44.569-114.283-100.635
	c0-56.066,41.634-102.381,114.283-102.381C643.618,0.528,702.588,45.964,702.588,102.034z"/>
<path fill="#406B33" d="M628.625,107.416c0,56.061,6.185,92.723-57.7,96.129c-72.37-3.091-142.997-44.555-142.997-100.632
	c0-56.066,70.341-102.38,142.997-102.38C603.484,0.528,628.625,51.348,628.625,107.416z"/>
<path fill="#032E21" d="M566.215,0c60.522,0,109.582,47.328,109.582,102.91c0,55.581-49.06,102.907-109.582,102.907
	c-60.521,0-109.584-47.326-109.584-102.907C456.631,47.328,505.694,0,566.215,0z"/>
<path fill="#F4F9ED" d="M633.931,70.827c-13.314,3.397-34.448-2.953-47.195-14.18c-12.747-11.227-12.285-23.084,1.029-26.48
	c13.32-3.397,34.445,2.951,47.191,14.18C647.703,55.575,647.245,67.43,633.931,70.827z"/>
<path fill="#B5CD34" d="M486.718,146.885c0,0,42.366,60.472,109.802,37.615C663.969,161.654,564.969,207.842,486.718,146.885z"/>
<path fill="#F4F9ED" d="M199.848,70.827c-13.314,3.397-34.448-2.953-47.195-14.18c-12.747-11.227-12.285-23.084,1.029-26.48
	c13.32-3.397,34.446,2.951,47.192,14.18C213.621,55.575,213.162,67.43,199.848,70.827z"/>
</svg>
