<?xml version="1.0" encoding="utf-8"?>
<!-- Generator: Adobe Illustrator 16.0.3, SVG Export Plug-In . SVG Version: 6.00 Build 0)  -->
<!DOCTYPE svg PUBLIC "-//W3C//DTD SVG 1.1//EN" "http://www.w3.org/Graphics/SVG/1.1/DTD/svg11.dtd">
<svg version="1.1" id="Layer_1" xmlns="http://www.w3.org/2000/svg" xmlns:xlink="http://www.w3.org/1999/xlink" x="0px" y="0px"
	 width="702.588px" height="434.202px" viewBox="0 0 702.588 434.202" enable-background="new 0 0 702.588 434.202"
	 xml:space="preserve">
<g id="eye_1_">
	<path fill="#F4ED6D" d="M274.66,215.255c0,118.31-58.939,214.156-131.664,214.156c-72.648,0-114.283-94.028-114.283-212.308
		c0-118.28,41.634-215.988,114.283-215.988C215.69,1.115,274.66,96.968,274.66,215.255z"/>
	<path fill="#406B33" d="M200.696,226.61c0,118.27,6.184,195.611-57.7,202.801C70.625,422.888,0,335.413,0,217.11
		C0,98.83,70.34,1.122,142.996,1.122C175.556,1.115,200.696,108.327,200.696,226.61z"/>
	<path fill="#032E21" d="M138.285,0c60.522,0,109.583,99.846,109.583,217.103c0,117.256-49.061,217.099-109.583,217.099
		c-60.519,0-109.583-99.843-109.583-217.099C28.702,99.846,77.767,0,138.285,0z"/>
	<path fill="#F4F9ED" d="M203.412,138.575c-15.37,8.271-39.767-7.192-54.483-34.536c-14.715-27.344-14.182-56.219,1.189-64.489
		c15.375-8.275,39.764,7.188,54.479,34.532C219.312,101.43,218.783,130.301,203.412,138.575z"/>
	<path fill="#B5CD34" d="M58.79,309.876c0,0,42.365,127.573,109.802,79.355C236.041,341.036,137.041,438.474,58.79,309.876z"/>
</g>
<g id="eye_3_">
	<path fill="#F4ED6D" d="M702.588,215.255c0,118.31-58.939,214.156-131.663,214.156c-72.649,0-114.283-94.028-114.283-212.308
		c0-118.28,41.634-215.988,114.283-215.988C643.618,1.115,702.588,96.968,702.588,215.255z"/>
	<path fill="#406B33" d="M628.625,226.61c0,118.27,6.185,195.611-57.7,202.801c-72.37-6.523-142.997-93.998-142.997-212.301
		c0-118.28,70.341-215.988,142.997-215.988C603.484,1.115,628.625,108.327,628.625,226.61z"/>
	<path fill="#032E21" d="M566.215,0c60.522,0,109.582,99.846,109.582,217.103c0,117.256-49.06,217.099-109.582,217.099
		c-60.521,0-109.584-99.843-109.584-217.099C456.631,99.846,505.694,0,566.215,0z"/>
	<path fill="#F4F9ED" d="M631.341,138.575c-15.37,8.271-39.768-7.192-54.482-34.536c-14.716-27.344-14.183-56.219,1.188-64.489
		c15.377-8.275,39.765,7.188,54.479,34.532C647.24,101.43,646.711,130.301,631.341,138.575z"/>
	<path fill="#B5CD34" d="M486.718,309.876c0,0,42.366,127.573,109.802,79.355C663.969,341.036,564.969,438.474,486.718,309.876z"/>
</g>
</svg>
