<?xml version="1.0" encoding="utf-8"?>
<!-- Generator: Adobe Illustrator 16.0.3, SVG Export Plug-In . SVG Version: 6.00 Build 0)  -->
<!DOCTYPE svg PUBLIC "-//W3C//DTD SVG 1.1//EN" "http://www.w3.org/Graphics/SVG/1.1/DTD/svg11.dtd">
<svg version="1.1" id="Layer_1" xmlns="http://www.w3.org/2000/svg" xmlns:xlink="http://www.w3.org/1999/xlink" x="0px" y="0px"
	 width="702.588px" height="311.002px" viewBox="0 0 702.588 311.002" enable-background="new 0 0 702.588 311.002"
	 xml:space="preserve">
<g id="eye_4_">
	<path fill="#F4ED6D" d="M274.66,154.18c0,84.741-58.939,153.391-131.664,153.391c-72.648,0-114.283-67.348-114.283-152.068
		c0-84.72,41.634-154.705,114.283-154.705C215.69,0.798,274.66,69.455,274.66,154.18z"/>
	<path fill="#406B33" d="M200.696,162.313c0,84.712,6.184,140.109-57.7,145.258C70.625,302.899,0,240.245,0,155.508
		C0,70.789,70.34,0.804,142.996,0.804C175.556,0.798,200.696,77.59,200.696,162.313z"/>
	<path fill="#032E21" d="M138.285,0c60.522,0,109.583,71.516,109.583,155.503s-49.061,155.5-109.583,155.5
		c-60.519,0-109.583-71.513-109.583-155.5S77.767,0,138.285,0z"/>
	<path fill="#F4F9ED" d="M203.412,99.256c-15.37,5.924-39.767-5.151-54.483-24.737c-14.715-19.585-14.182-40.268,1.189-46.191
		c15.375-5.927,39.764,5.148,54.479,24.734C219.312,72.65,218.783,93.33,203.412,99.256z"/>
	<path fill="#B5CD34" d="M58.79,221.953c0,0,42.365,91.376,109.802,56.84C236.041,244.272,137.041,314.063,58.79,221.953z"/>
</g>
<g>
	<path fill="#F4ED6D" d="M702.588,154.18c0,84.741-58.939,153.391-131.663,153.391c-72.649,0-114.283-67.348-114.283-152.068
		c0-84.72,41.634-154.705,114.283-154.705C643.618,0.798,702.588,69.455,702.588,154.18z"/>
	<path fill="#406B33" d="M628.625,162.313c0,84.712,6.185,140.109-57.7,145.258c-72.37-4.672-142.997-67.326-142.997-152.062
		c0-84.72,70.341-154.705,142.997-154.705C603.484,0.798,628.625,77.59,628.625,162.313z"/>
	<path fill="#032E21" d="M566.215,0c60.522,0,109.582,71.516,109.582,155.503s-49.06,155.5-109.582,155.5
		c-60.521,0-109.584-71.513-109.584-155.5S505.694,0,566.215,0z"/>
	<path fill="#F4F9ED" d="M631.341,99.256c-15.37,5.924-39.768-5.151-54.482-24.737c-14.716-19.585-14.183-40.268,1.188-46.191
		c15.377-5.927,39.765,5.148,54.479,24.734C647.24,72.65,646.711,93.33,631.341,99.256z"/>
	<path fill="#B5CD34" d="M486.718,221.953c0,0,42.366,91.376,109.802,56.84C663.969,244.272,564.969,314.063,486.718,221.953z"/>
</g>
</svg>
