<?xml version="1.0" encoding="utf-8"?>
<!-- Generator: Adobe Illustrator 16.0.3, SVG Export Plug-In . SVG Version: 6.00 Build 0)  -->
<!DOCTYPE svg PUBLIC "-//W3C//DTD SVG 1.1//EN" "http://www.w3.org/Graphics/SVG/1.1/DTD/svg11.dtd">
<svg version="1.1" id="Layer_1" xmlns="http://www.w3.org/2000/svg" xmlns:xlink="http://www.w3.org/1999/xlink" x="0px" y="0px"
	 width="195.2px" height="160px" viewBox="0 0 195.2 160" enable-background="new 0 0 195.2 160" xml:space="preserve">
<g>
	<g id="eye_8_">
		<path fill="#F3ED6E" d="M189.235,86.04c0,36.611-18.242,66.279-40.74,66.279c-22.494,0-35.371-29.103-35.371-65.711
			c0-36.604,12.877-66.845,35.371-66.845C170.991,19.764,189.235,49.438,189.235,86.04z"/>
		<path fill="#89A43C" d="M166.341,89.553c0,36.604,5.16,64.849-17.848,62.767c-22.398-2.019-44.26-29.102-44.26-65.711
			c0-36.604,21.766-66.844,44.26-66.844C158.563,19.764,166.341,52.948,166.341,89.553z"/>
		<path fill="#032E23" d="M180.94,86.608c0,36.287-15.184,65.711-33.908,65.711s-33.908-29.424-33.908-65.711
			c0-36.292,15.186-65.713,33.908-65.713C165.757,20.896,180.94,50.317,180.94,86.608z"/>
		<path fill="#F4F9ED" d="M167.567,42.363c4.58,8.473,4.4,17.409-0.352,19.969c-4.758,2.567-12.303-2.219-16.865-10.685
			c-4.561-8.46-4.402-17.394,0.355-19.966C155.464,29.129,163.022,33.901,167.567,42.363z"/>
		<path fill="#B5CD34" d="M124.618,120.55c0,0,12.373,37.284,32.086,23.195C176.415,129.657,147.483,158.139,124.618,120.55z"/>
	</g>
	<g id="eye_7_">
		<path fill="#F3ED6E" d="M99.093,78.322c0,38.949-19.403,70.5-43.339,70.5c-23.922,0-37.628-30.955-37.628-69.897
			c0-38.937,13.706-71.109,37.628-71.109C79.689,7.815,99.093,39.379,99.093,78.322z"/>
		<path fill="#89A43C" d="M74.749,82.056c0,38.944,5.483,68.989-18.996,66.766C31.927,146.68,8.669,117.878,8.669,78.924
			c0-38.937,23.162-71.109,47.084-71.109C66.47,7.815,74.749,43.117,74.749,82.056z"/>
		<path fill="#032E23" d="M90.275,78.925c0,38.609-16.156,69.898-36.078,69.898c-19.917,0-36.071-31.289-36.071-69.898
			c0-38.605,16.155-69.905,36.071-69.905C74.117,9.02,90.275,40.32,90.275,78.925z"/>
		<path fill="#F4F9ED" d="M76.058,31.865c4.854,9.003,4.671,18.514-0.383,21.231c-5.063,2.729-13.092-2.355-17.948-11.37
			c-4.843-8.989-4.685-18.5,0.377-21.229C63.162,17.766,71.208,22.852,76.058,31.865z"/>
		<path fill="#B5CD34" d="M28.027,109.474c0,0,13.94,42.006,36.148,26.126C86.384,119.726,53.787,151.807,28.027,109.474z"/>
	</g>
</g>
</svg>
