<?xml version="1.0"?><svg width="659.84521" height="1124.22" xmlns="http://www.w3.org/2000/svg" xmlns:xlink="http://www.w3.org/1999/xlink">
 <title>Light bulb 5% lit</title>
 <defs>
  <filter id="filter3171">
   <feGaussianBlur id="feGaussianBlur3173" stdDeviation="24.270561"/>
  </filter>
  <filter height="2.613667" x="-0.022912" y="-0.806833" width="1.045825" id="filter3494">
   <feGaussianBlur id="feGaussianBlur3496" stdDeviation="3.629039"/>
  </filter>
  <filter height="1.867595" x="-0.025178" y="-0.433798" width="1.050357" id="filter3498">
   <feGaussianBlur id="feGaussianBlur3500" stdDeviation="3.629039"/>
  </filter>
  <filter height="2.026369" x="-0.025588" y="-0.513184" width="1.051176" id="filter3502">
   <feGaussianBlur id="feGaussianBlur3504" stdDeviation="3.629039"/>
  </filter>
  <filter height="2.025621" x="-0.02468" y="-0.512811" width="1.04936" id="filter3506">
   <feGaussianBlur id="feGaussianBlur3508" stdDeviation="3.629039"/>
  </filter>
  <filter height="1.890103" x="-0.024475" y="-0.445051" width="1.04895" id="filter3510">
   <feGaussianBlur id="feGaussianBlur3512" stdDeviation="3.629039"/>
  </filter>
  <filter height="1.832591" x="-0.023395" y="-0.416295" width="1.04679" id="filter3514">
   <feGaussianBlur id="feGaussianBlur3516" stdDeviation="3.629039"/>
  </filter>
  <filter height="2.626167" x="-0.176459" y="-0.813083" width="1.352919" id="filter3518">
   <feGaussianBlur id="feGaussianBlur3520" stdDeviation="3.629039"/>
  </filter>
  <filter height="2.377518" x="-0.080111" y="-0.688759" width="1.160223" id="filter3522">
   <feGaussianBlur id="feGaussianBlur3524" stdDeviation="3.629039"/>
  </filter>
  <filter height="2.625568" x="-0.079725" y="-0.812784" width="1.159451" id="filter3526">
   <feGaussianBlur id="feGaussianBlur3528" stdDeviation="3.629039"/>
  </filter>
  <filter height="2.011667" x="-0.102749" y="-0.505834" width="1.205498" id="filter3530">
   <feGaussianBlur id="feGaussianBlur3532" stdDeviation="3.629039"/>
  </filter>
  <filter height="1.686168" x="-0.048918" y="-0.343084" width="1.097837" id="filter3534">
   <feGaussianBlur id="feGaussianBlur3536" stdDeviation="3.629039"/>
  </filter>
  <filter height="1.581981" x="-0.049079" y="-0.29099" width="1.098159" id="filter3538">
   <feGaussianBlur id="feGaussianBlur3540" stdDeviation="3.629039"/>
  </filter>
  <filter height="1.56443" x="-0.044003" y="-0.282215" width="1.088005" id="filter3542">
   <feGaussianBlur id="feGaussianBlur3544" stdDeviation="3.629039"/>
  </filter>
  <filter height="1.778044" x="-0.058129" y="-0.389022" width="1.116259" id="filter3546">
   <feGaussianBlur id="feGaussianBlur3548" stdDeviation="3.629039"/>
  </filter>
  <filter height="1.749896" x="-0.057951" y="-0.374948" width="1.115903" id="filter3550">
   <feGaussianBlur id="feGaussianBlur3552" stdDeviation="3.629039"/>
  </filter>
  <filter height="1.766762" x="-0.065179" y="-0.383381" width="1.130359" id="filter3554">
   <feGaussianBlur id="feGaussianBlur3556" stdDeviation="3.629039"/>
  </filter>
  <filter height="1.239329" x="-0.071386" y="-0.119665" width="1.142771" id="filter3558">
   <feGaussianBlur id="feGaussianBlur3560" stdDeviation="3.629039"/>
  </filter>
  <filter id="filter3562">
   <feGaussianBlur id="feGaussianBlur3564" stdDeviation="3.629039"/>
  </filter>
  <filter height="1.542672" x="-0.038733" y="-0.271336" width="1.077466" id="filter3566">
   <feGaussianBlur id="feGaussianBlur3568" stdDeviation="3.629039"/>
  </filter>
  <filter height="1.54067" x="-0.036723" y="-0.270335" width="1.073445" id="filter3570">
   <feGaussianBlur id="feGaussianBlur3572" stdDeviation="3.629039"/>
  </filter>
  <filter height="2.215209" x="-0.035115" y="-0.607605" width="1.070229" id="filter3574">
   <feGaussianBlur id="feGaussianBlur3576" stdDeviation="3.629039"/>
  </filter>
  <filter id="filter3578">
   <feGaussianBlur id="feGaussianBlur3580" stdDeviation="3.629039"/>
  </filter>
  <filter height="1.63147" x="-0.432078" y="-0.315735" width="1.864156" id="filter3296">
   <feGaussianBlur id="feGaussianBlur3298" stdDeviation="2.631606"/>
  </filter>
  <filter height="1.579255" x="-0.33961" y="-0.289628" width="1.679219" id="filter3300">
   <feGaussianBlur id="feGaussianBlur3302" stdDeviation="2.631606"/>
  </filter>
  <filter height="1.593873" x="-0.304022" y="-0.296936" width="1.608045" id="filter3304">
   <feGaussianBlur id="feGaussianBlur3306" stdDeviation="2.631606"/>
  </filter>
  <filter height="1.591804" x="-0.404664" y="-0.295902" width="1.809329" id="filter3308">
   <feGaussianBlur id="feGaussianBlur3310" stdDeviation="2.631606"/>
  </filter>
  <linearGradient id="linearGradient3587">
   <stop stop-color="#020202" id="stop3589" offset="0"/>
   <stop stop-color="#020202" offset="0.934385" id="stop3595"/>
   <stop stop-color="#9e9c9a" id="stop3597" offset="0.968674"/>
   <stop stop-color="#b5a183" id="stop3591" offset="1"/>
  </linearGradient>
  <linearGradient id="linearGradient3576">
   <stop stop-color="#f8f8f8" stop-opacity="0.194969" id="stop3578" offset="0"/>
   <stop stop-color="#f8f8f8" stop-opacity="0.446541" offset="0.699115" id="stop3584"/>
   <stop stop-color="#f8f8f8" stop-opacity="0.238994" id="stop3580" offset="1"/>
  </linearGradient>
  <linearGradient id="linearGradient3265">
   <stop stop-color="#9c938b" id="stop3267" offset="0"/>
   <stop stop-color="#9c938b" id="stop3273" offset="0.150442"/>
   <stop stop-color="#eceae9" id="stop3275" offset="0.255697"/>
   <stop stop-color="#eceae9" id="stop3277" offset="0.71677"/>
   <stop stop-color="#766c64" id="stop3269" offset="1"/>
  </linearGradient>
  <linearGradient id="linearGradient3251">
   <stop stop-color="#686562" id="stop3253" offset="0"/>
   <stop stop-color="#53504d" id="stop3259" offset="0.18772"/>
   <stop stop-color="#8f8c88" id="stop3261" offset="0.309922"/>
   <stop stop-color="#bebcba" id="stop3255" offset="1"/>
  </linearGradient>
  <linearGradient id="linearGradient3304">
   <stop stop-color="#f3f0ed" stop-opacity="0.119497" id="stop3306" offset="0"/>
   <stop stop-color="#f3f0ed" stop-opacity="0.498039" id="stop3312" offset="0.5"/>
   <stop stop-color="#f3f0ed" stop-opacity="0" id="stop3308" offset="1"/>
  </linearGradient>
  <linearGradient id="linearGradient3219">
   <stop stop-color="#7e7d7e" id="stop3221" offset="0"/>
   <stop stop-color="#7e7d7e" id="stop3227" offset="0.79646"/>
   <stop stop-color="#505050" id="stop3223" offset="1"/>
  </linearGradient>
  <linearGradient y2="0.978682" y1="0.021302" xlink:href="#linearGradient3251" x2="0.500002" x1="0.500003" id="linearGradient3257"/>
  <linearGradient y2="0.525137" y1="0.525137" xlink:href="#linearGradient3265" x2="1.001652" x1="-0.000156" id="linearGradient3271"/>
  <linearGradient y2="0.500124" x2="1.015225" y1="0.500124" x1="-0.015225" id="linearGradient3554" xlink:href="#linearGradient3304"/>
  <linearGradient y2="0.510336" x2="1.00001" y1="0.510336" x1="-0.000005" id="linearGradient3573" xlink:href="#linearGradient3219"/>
  <linearGradient y2="0.500001" x2="1.002837" y1="0.500001" x1="-0.002863" id="linearGradient3582" xlink:href="#linearGradient3576"/>
  <linearGradient y2="0.912075" x2="0.500007" y1="0.08792" x1="0.500007" id="linearGradient3593" xlink:href="#linearGradient3587"/>
  <radialGradient r="0.757684" cy="0.5" cx="0.5" spreadMethod="reflect" id="svg_9">
   <stop offset="0.01862" stop-opacity="0.996094" stop-color="#ffff00"/>
   <stop offset="0.83112" stop-opacity="0.996094" stop-color="#ff7f00"/>
  </radialGradient>
 </defs>
 <metadata id="metadata7">image/svg+xmllightbulbwebmichl</metadata>
 <g>
  <title>Layer 1</title>
  <g display="inline" id="layer3">
   <path fill="#b3b3b3" fill-rule="evenodd" stroke="#666666" stroke-width="0.731024px" id="path2169" d="m459.658936,828.059875c0,0 6.540955,3.271729 18.454712,-3.849487c15.437195,-9.227539 35.348267,-46.965515 35.836121,-57.743958c2.053955,-45.378784 8.219543,-91.420654 20.795532,-122.055115c28.53363,-69.506531 124.741577,-174.163757 124.734436,-330.940063c-0.006592,-144.526459 -142.537415,-311.846863 -309.533936,-313.091675c-271.410126,-2.051636 -346.948303,220.817139 -349.519012,328.89856c-1.963989,82.573242 43.496429,172.698486 107.014587,280.486877c63.518158,107.788391 30.060913,119.983948 49.68689,167.950867c13.831268,33.804321 30.37085,48.399658 30.37085,48.399658l272.159821,1.944336z"/>
   <path fill="#ffffff" fill-rule="evenodd" stroke-width="0.953059px" filter="url(#filter3171)" d="m470.503967,826.76709c14.646057,-8.92865 33.1492,-63.114014 33.088165,-73.498474c-0.252441,-43.676819 7.756927,-87.991821 19.625092,-117.477295c26.927673,-66.899536 117.720703,-167.631409 117.713928,-318.527527c-0.006165,-139.105682 -134.514893,-300.150417 -292.112335,-301.348526c-256.13427,-1.974689 -327.420931,212.534943 -329.846933,316.562546c-1.853449,79.476166 41.048292,166.22113 100.991449,269.966705c59.943161,103.745544 28.368988,115.483765 46.890335,161.651489c13.052826,32.536499 27.930481,59.240967 27.930481,59.240967c0,0 264.416656,10.320618 275.719818,3.430115z" id="path2170"/>
  </g>
  <g display="inline" id="layer6">
   <path fill="url(#linearGradient3593)" fill-rule="evenodd" stroke="#000000" stroke-width="0.731024px" id="path3312" d="m248.231628,1080.959473c0,0 13.571655,16.286133 21.714661,23.072021c8.143005,6.785645 2.677063,7.105225 18.629395,12.043457c15.952393,4.938232 26.179749,8.313965 45.180054,7.709473c19.039124,-0.605469 22.084412,-4.337891 34.802185,-7.070801c12.717712,-2.732666 16.068909,-3.860596 16.068909,-3.860596l38.679199,-38.679199l-175.074402,6.785645z"/>
   <path fill="url(#linearGradient3573)" fill-rule="evenodd" stroke-width="1px" id="path2167" d="m479.58252,826.06073c0,0 -2.486145,1.786011 -8.734924,4.397217c-1.689087,0.705811 -1.622986,11.562744 -1.538574,19.859253c0.069763,6.685303 8.140015,10.677856 8.140015,21.314331c0,10.636597 -9.030945,6.270386 -10.964905,13.039185c-1.933899,6.768677 0.158386,11.837891 0.158386,11.837891c0,0 9.341309,5.110474 10.308289,12.846191c0.96698,7.735596 -8.76709,9.106812 -11.667969,14.908691c-2.900879,5.80188 2.484985,15.746948 2.484985,15.746948c0,0 8.767029,-0.796997 8.597107,10.285156c-0.133484,8.701538 -11.709106,9.511108 -12.676086,15.312988c-0.96698,5.801758 -1.650146,13.204102 8.403931,15.342529c2.009888,0.42749 6.387634,2.736206 2.848083,12.329834c-2.879211,7.803955 -12.27179,6.692749 -12.27179,13.461548c0,6.768677 -0.052795,9.798462 4.782043,11.7323c4.834839,1.93396 9.558655,6.032043 2.678162,13.227112c-6.534424,6.833252 -38.476501,41.044189 -48.412537,43.706543c-18.182373,4.87207 -58.931946,6.587158 -88.907837,6.587158c-29.97583,0 -75.198792,1.462646 -90.214722,-2.561035c-3.842896,-1.029541 -37.020111,-31.898193 -40.378082,-38.221436c-4.466675,-8.410889 -0.918976,-14.47168 -1.881134,-20.698792c-0.901001,-5.831055 -3.557495,-1.348145 -8.351135,-5.344849c-8.943237,-7.456299 -0.744232,-15.664551 3.123627,-17.598389c3.867828,-1.93396 6.674774,-13.449829 -0.093964,-20.218628c-6.768738,-6.768677 -9.791351,-11.687134 -4.019836,-17.223755c11.364685,-10.9021 7.65332,-16.280029 1.851563,-23.048828c-5.801788,-6.768677 -5.737122,-9.826294 -3.381195,-15.418579c2.355927,-5.592163 10.148956,0.665283 8.216003,-14.088623c-2.001129,-15.273682 -3.103607,-4.223999 -7.852875,-14.761963c-3.371246,-7.480225 2.602142,-46.701294 2.602142,-46.701294l-2.273834,-3.305176l-1.424042,-14.152954l-2.900909,-2.900879c0,0 140.686707,-7.011597 160.99292,-5.077637c20.306213,1.933838 134.692993,5.387939 132.759094,5.387939z"/>
   <path fill="#646460" fill-rule="evenodd" stroke-width="1px" filter="url(#filter3578)" id="path3175" d="m305.735626,829.661255c0,0 -4.763611,-0.680481 -4.083099,6.124634c0.680542,6.805176 2.722076,14.290833 2.722076,14.290833c0,0 -6.124634,-9.527222 -2.722076,4.08313c3.402588,13.610352 5.444153,13.610352 0,16.332397c-5.444122,2.722168 12.92981,14.971375 12.92981,14.971375c0,0 -87.10614,8.846802 -98.674927,8.846802c-11.568802,0 89.147705,5.444031 97.313904,4.763489c8.166229,-0.680481 -2.041534,2.722168 -5.444122,4.763733c-3.402588,2.041504 23.137604,4.083008 39.469971,2.041504c16.332397,-2.041504 6.124664,-6.124695 -3.402557,-6.805237c-9.527252,-0.680481 11.568756,-0.680481 29.262177,-2.041443c17.693481,-1.361023 -14.971344,-8.166199 -25.179077,-9.527222c-10.207764,-1.361145 -25.179108,-4.763733 -6.805176,-4.763733c18.373932,0 25.179108,2.722107 25.179108,-2.721985c0,-5.444214 2.722076,-24.498657 0,-26.540222c-2.722076,-2.041504 4.083099,0.680542 -0.680511,-6.805115c-4.763611,-7.485718 -22.457031,-7.485718 -22.457031,-7.485718c0,0 18.373932,-4.083069 33.345337,-6.124634c14.971344,-2.041565 -71.454315,-2.722046 -70.773804,-3.402588z"/>
   <path fill="#646460" fill-rule="evenodd" stroke-width="1px" filter="url(#filter3574)" id="path3177" d="m209.102249,918.128479c0,0 40.831009,2.041565 69.412735,-0.680542c28.581696,-2.722046 44.914063,-4.083069 66.010132,-2.722046c21.096008,1.360962 19.734955,0.68042 38.108948,-0.680542c18.373932,-1.361023 1.361023,-6.805237 -21.77655,-5.444214c-23.137573,1.361145 -46.955688,-1.361023 -66.010132,2.041687c-19.054474,3.402527 -36.747925,2.722046 -49.67775,2.722046c-12.92981,0 -36.747925,5.444092 -36.067383,4.763611z"/>
   <path fill="#646460" fill-rule="evenodd" stroke-width="1px" filter="url(#filter3570)" id="path3179" d="m216.587936,937.182922c2.722061,0 37.428421,-4.763611 61.927048,-5.444153c24.498596,-0.680481 38.789429,-6.805115 59.885468,-4.763611c21.096008,2.041565 27.901184,2.722107 43.553101,4.08313c15.651886,1.361023 6.124634,-0.680542 -9.527283,2.722046c-15.651855,3.402588 -38.108917,8.166199 -31.303741,8.166199c6.805176,0 29.942749,-0.680481 19.054443,2.041565c-10.888245,2.722046 -16.332367,6.124634 -39.469971,6.124634c-23.137573,0 -53.080322,-2.722046 -31.303741,-4.763611c21.77652,-2.041565 63.288055,-1.361023 38.108948,-4.083069c-25.179138,-2.722107 -51.719299,-2.722107 -66.690674,-2.041565c-14.971375,0.680481 -44.914124,0 -44.233597,-2.041565z"/>
   <path fill="#646460" fill-rule="evenodd" stroke-width="1px" filter="url(#filter3566)" id="path3181" d="m227.476196,975.97229c0,0 46.275177,0 63.288086,-1.361023c17.012909,-1.361023 18.373932,-6.805176 37.428436,-6.124634c19.054443,0.680542 39.46994,-2.041565 51.038757,0.680542c11.568787,2.722046 21.096008,2.041504 0.680542,3.402588c-20.415558,1.361023 -37.428467,3.402527 -34.025879,5.444275c3.402588,2.041382 20.415497,4.082947 15.651886,7.485657c-4.763611,3.402405 -3.402588,3.402405 -28.581696,4.082947c-25.179138,0.680542 -63.968628,4.083252 -44.914124,-0.680542c19.054474,-4.763611 64.649109,-8.166199 30.62323,-8.166199c-34.025818,0 -85.06459,-3.402405 -91.18924,-4.763611z"/>
   <path fill="#646460" fill-rule="evenodd" stroke-width="1px" filter="url(#filter3562)" id="path3183" d="m219.309998,1014.761902c4.083099,0 53.760864,0 64.649109,-0.680664c10.888275,-0.680542 18.373962,-6.804993 40.150482,-6.804993c21.77655,0 23.137573,0.680542 40.831024,3.402588c17.693451,2.721863 31.303772,1.361023 36.747925,1.361023c5.444122,0 0,-3.402588 -21.096008,3.402588c-6.370453,2.054932 -10.276459,8.915588 -7.00708,17.185364c0.942291,2.383423 4.790344,3.055542 7.049133,5.591187c2.880707,3.233521 6.104279,6.570068 7.815033,9.957275c7.706451,15.258179 -12.238098,33.218628 -27.582428,33.416382c-26.408203,0.340454 -42.114258,0.631714 -63.438385,0.747925c-1.453308,0.008057 -23.058899,-15.640259 -16.568237,-30.773071c1.593933,-3.716431 4.877655,-9.49646 7.553772,-12.783569c1.980194,-2.432007 3.511383,-2.452026 4.385406,-4.717529c2.754639,-7.140137 -0.090424,-12.982239 -1.35495,-13.17981c-21.776581,-3.402588 -73.495834,-5.444153 -72.134796,-6.124695z"/>
   <path fill="#f3f0ed" fill-rule="evenodd" stroke-width="1px" filter="url(#filter3558)" id="path3186" d="m337.71994,837.146912c19.054474,0 50.358246,-6.805115 66.010132,-1.361023c15.651886,5.444153 20.415497,-1.361023 22.457092,2.722107c2.041534,4.083069 -0.680511,10.888245 -3.402618,12.249268c-2.722076,1.361023 4.763611,13.610413 4.08313,22.457153c-0.680511,8.846619 -31.984314,14.290833 -58.524506,13.610291c-26.540131,-0.680603 -31.984253,-1.361084 -14.290833,-6.124634c17.693481,-4.763672 18.373932,-8.846741 17.693481,-17.013c-0.680542,-8.166199 -8.16626,-8.84668 -7.485748,-11.568787c0.680542,-2.722046 8.84671,0.680542 4.083099,-6.124634c-4.763611,-6.805176 -29.262177,-8.846741 -30.62323,-8.846741z"/>
   <path fill="#f3f0ed" fill-rule="evenodd" stroke-width="1px" filter="url(#filter3554)" id="path3188" d="m347.247162,897.713013c0,0 29.94278,-3.402588 48.316711,0c18.373932,3.402466 42.872589,0 14.290863,6.805115c-28.581696,6.805176 -54.441376,8.846741 -73.495819,8.166199c-19.054504,-0.680481 -12.249329,-0.680481 10.207733,-5.444214c22.457062,-4.763489 12.92981,-8.166199 5.444153,-8.166199c-7.485687,0 -2.722076,-0.680481 -4.763641,-1.360901z"/>
   <path fill="#5b5a58" fill-rule="evenodd" stroke-width="1px" filter="url(#filter3550)" id="path3190" d="m343.164093,937.182922c0,0 26.540131,-3.402588 52.39978,0.680542c25.859619,4.083069 55.121887,5.444092 4.763611,8.84668c-50.358246,3.402588 -82.34256,6.124634 -82.34256,6.124634c0,0 22.457092,0 38.108978,-6.805115c15.651917,-6.805176 -11.568787,-6.805176 -12.92981,-8.846741z"/>
   <path fill="#f3f0ed" fill-rule="evenodd" stroke-width="1px" filter="url(#filter3546)" id="path3192" d="m347.927704,979.375061c0,0 21.77652,-2.041565 47.636169,-1.361023c25.859619,0.680542 79.620514,-3.402771 35.386902,4.082947c-44.233612,7.485657 -69.41275,8.84668 -84.384125,10.888428c-14.971344,2.041565 -8.166199,0.680481 8.84671,-5.444153c17.012909,-6.124817 -7.485657,-6.124817 -7.485657,-8.166199z"/>
   <path fill="#938a85" fill-rule="evenodd" stroke-width="1px" filter="url(#filter3542)" id="path3205" d="m197.76355,893.509399c0,0 32.146164,-0.97406 74.033539,1.948242c41.887421,2.922485 104.231476,3.896484 48.706299,9.741272c-55.525146,5.844727 -117.869202,10.715454 -117.869202,10.715454l-4.870636,-22.404968z"/>
   <path fill="#938a85" fill-rule="evenodd" stroke-width="1px" filter="url(#filter3538)" id="path3207" d="m195.815292,939.293396c4.870636,-0.974243 37.990921,-4.870728 81.826553,0c43.835663,4.870605 69.162933,8.76709 24.35318,10.715271c-44.809814,1.948303 -101.309097,8.767212 -101.309097,8.767212l-4.870636,-19.482483z"/>
   <path fill="#938a85" fill-rule="evenodd" stroke-width="1px" filter="url(#filter3534)" id="path3209" d="m197.76355,977.284241c0,0 27.275528,8.767151 68.188782,5.844849c40.9133,-2.922485 66.24057,-1.948425 61.369934,-0.974304c-4.870605,0.974304 -23.378998,14.611938 -59.421692,13.637817c-36.042603,-0.974121 -70.137024,0 -70.137024,0l0,-18.508362z"/>
   <path fill="#f3f0ed" fill-rule="evenodd" stroke-width="1px" filter="url(#filter3530)" id="path3274" d="m359.263153,915.949402c7.657959,0 31.725861,-6.563843 53.605713,-4.375977c21.879883,2.18811 -3.281982,10.939941 -28.443878,12.033997c-25.161835,1.093994 -24.067841,-6.563965 -25.161835,-7.65802z"/>
   <path fill="#f3f0ed" fill-rule="evenodd" stroke-width="1px" filter="url(#filter3526)" id="path3276" d="m354.887177,960.803162c6.563965,0 16.409912,-2.187988 38.289795,-3.282043c21.879883,-1.093933 41.571777,-1.093933 41.571777,-1.093933c0,0 -17.503906,6.564026 -41.571777,7.657959c-24.067871,1.094055 -36.101807,-3.281982 -38.289795,-3.281982z"/>
   <path fill="#f3f0ed" fill-rule="evenodd" stroke-width="1px" filter="url(#filter3522)" id="path3278" d="m352.699219,1001.281006c4.375946,0 2.187958,-4.375977 32.819824,-5.470032c30.631805,-1.094055 45.947693,2.18811 45.947693,2.18811c0,0 7.65799,1.093811 -27.349823,5.469788c-35.007813,4.375977 -50.32373,-3.281921 -51.417694,-2.187866z"/>
   <path fill="#f3f0ed" fill-rule="evenodd" stroke-width="1px" filter="url(#filter3518)" id="path3280" d="m371.297089,1022.066833c6.563965,0 9.845978,-2.187927 27.349854,-2.187927c17.503906,0 3.281982,4.375977 3.281982,4.375977c0,0 -2.187988,2.187866 -17.503937,3.281982c-15.315887,1.093994 -10.939911,-3.281982 -13.127899,-5.470032z"/>
   <path fill="none" fill-rule="evenodd" stroke="url(#linearGradient3554)" stroke-width="11" stroke-miterlimit="4" stroke-opacity="0.53271" filter="url(#filter3514)" id="path3282" d="m201.261505,1036.21936c0,0 91.775177,2.512207 129.599335,2.512207c37.824127,0 134.509583,-7.253418 134.509583,-7.253418"/>
   <path fill="#e3dcd4" fill-opacity="0.257009" fill-rule="evenodd" stroke-width="1px" filter="url(#filter3296)" id="path2254" d="m466.868744,883.580872c0,0 1.223755,-4.838989 -7.597778,1.26825c-8.821594,6.107239 8.142975,11.53595 8.142975,11.53595l-0.545197,-12.804199z"/>
   <path fill="#e3dcd4" fill-opacity="0.257009" fill-rule="evenodd" stroke-width="1px" filter="url(#filter3300)" id="path2256" d="m463.703949,924.56842c0,0 -8.504486,-3.075806 -9.183105,3.709961c-0.678589,6.785889 13.571655,11.53595 13.571655,11.53595l-4.38855,-15.245911z"/>
   <path fill="#e3dcd4" fill-opacity="0.257009" fill-rule="evenodd" stroke-width="1px" filter="url(#filter3304)" id="path2258" d="m461.98526,963.564758c0,0 -9.500153,-3.392944 -11.535889,3.392883c-2.035767,6.785889 15.017761,11.307861 15.017761,11.307861l-3.481873,-14.700745z"/>
   <path fill="#e3dcd4" fill-opacity="0.257009" fill-rule="evenodd" stroke-width="1px" filter="url(#filter3308)" id="path2260" d="m460.133209,1003.283997c0,0 -4.933746,-3.754333 -6.290955,3.031555c-1.357147,6.785706 11.3078,11.535706 11.3078,11.535706l-5.016846,-14.567261z"/>
   <path fill="#5b5a58" fill-rule="evenodd" stroke-width="1px" filter="url(#filter3510)" id="path3197" d="m199.51535,891.503906c0,0 110.215363,-4.052002 140.200409,-6.483276c29.985077,-2.431213 119.940277,-0.810425 119.940277,-0.810425c0,0 -76.178284,13.776917 -115.888245,13.776917c-39.70993,0 -144.252441,-5.672852 -144.252441,-6.483215z"/>
   <path fill="#64625c" fill-rule="evenodd" stroke-width="1px" filter="url(#filter3506)" id="path3199" d="m201.946564,936.076294c0,0 107.784149,-8.91449 140.200439,-8.91449c32.41626,0 123.181885,-1.62085 117.509033,-0.810364c-5.672882,0.810364 -32.41629,9.724854 -84.282318,11.345642c-51.866089,1.62085 -175.047974,0.810486 -173.427155,-1.620789z"/>
   <path fill="#64625c" fill-rule="evenodd" stroke-width="1px" filter="url(#filter3502)" id="path3201" d="m207.619415,975.786194c0,0 85.903168,-5.672791 121.561066,-6.483215c35.657898,-0.810425 127.233917,-4.052063 127.233917,-4.052063c0,0 -12.966522,8.914551 -59.970123,10.535278c-47.003632,1.62085 -191.256088,3.241577 -188.82486,0z"/>
   <path fill="#64625c" fill-rule="evenodd" stroke-width="1px" filter="url(#filter3498)" id="path3203" d="m205.188187,1017.927307c0,0 97.248886,-5.672729 132.09639,-8.914368c34.847504,-3.241577 120.750641,-4.862488 120.750641,-4.862488c0,0 -8.91449,2.431335 -57.538879,8.914551c-48.624451,6.483215 -197.739365,6.483215 -195.308151,4.862305z"/>
   <path fill="none" fill-rule="evenodd" stroke="#4b4b48" stroke-width="6" stroke-miterlimit="4" filter="url(#filter3494)" id="path3272" d="m196.258087,843.745789c0,0 87.519531,-3.281921 125.809265,-2.187866c38.289795,1.093933 147.689178,3.281921 147.689178,3.281921"/>
  </g>
  <g display="inline" id="layer8">
   <path fill="#96948f" fill-rule="evenodd" stroke-width="1px" id="path2267" d="m311.936768,468.572876c-0.770691,0.007751 0.501709,89.548889 -0.310303,89.597839c0.002563,1.739563 0.022095,6.257385 0.022888,7.287354c0.009766,12.906128 -26.966431,19.035034 -31.456909,17.476074c-10.299316,-3.575745 -10.679443,11.378662 -11.148132,23.689758c-0.655457,17.21936 8.727844,57.258972 6.465027,64.147339c-0.133423,0.406189 -0.240234,0.73114 -0.36554,1.096558c2.590088,-1.706238 5.119324,-4.361694 7.241699,-8.429626c8.262146,-15.835754 10.33783,-13.069519 2.764221,-32.347839c-7.573608,-19.278259 -14.45813,-34.43042 4.82019,-38.561523c19.27832,-4.131042 21.339233,-12.400757 40.617493,-8.269714c19.27832,4.131104 41.988831,2.085083 46.808411,25.494507c4.81958,23.409302 -2.740112,38.543091 4.144958,50.936279c2.515991,4.528625 8.042236,5.167236 10.841003,8.642151c-0.899902,-4.953552 -1.758179,-9.451294 -2.101685,-13.569641c-1.694519,-20.317444 7.997742,-65.080994 2.695679,-72.371338c-5.302124,-7.290405 -13.23584,1.694702 -30.474548,-4.591797c-9.339722,-3.405884 -9.696899,-6.145569 -9.320557,-12.518799c-1.182068,-0.214844 1.317749,-103.302002 -4.000977,-103.182068c-13.128357,0.296082 -7.472168,102.600952 -17.507263,100.917725c-7.147766,-1.198914 -14.704041,-95.493469 -19.735657,-95.443237z"/>
   <path fill="url(#linearGradient3271)" fill-rule="evenodd" stroke-width="1px" id="path3263" d="m327.389221,609.730713c-23.413757,0.573181 -16.105286,39.915771 -18.13855,64.056946c-1.772827,21.048828 0.503479,122.675293 1.621948,152.841797c12.453186,0.560669 26.504211,0.53186 39.612366,0c-0.143677,-27.466187 -0.701599,-131.116089 -1.302124,-150.129395c-0.688538,-21.799438 4.134949,-66.065552 -20.651428,-66.746765c-0.387329,-0.01062 -0.770569,-0.031677 -1.142212,-0.022583z"/>
   <path fill="url(#linearGradient3257)" fill-rule="evenodd" stroke-width="1px" id="path3243" d="m322.637512,627.229614c-3.208496,0.107239 -5.963257,1.469299 -8.56665,4.546082c-7.573608,8.950623 -9.654297,13.080383 -16.539429,15.145874c-6.885132,2.065552 -6.881226,8.946777 -20.651428,20.651428c-0.359985,0.305969 -0.704895,0.627258 -1.050842,0.936646c-0.022156,0.476501 -0.058289,0.900024 -0.114258,1.279297c-0.02533,0.171631 -0.058655,0.329102 -0.09137,0.479736c-0.037109,0.180725 -0.065491,0.354248 -0.114197,0.502563c-0.427979,1.302734 -0.795349,2.335144 -1.142212,3.266785c-0.095215,0.255737 -0.207458,0.542175 -0.296997,0.776672c-0.467468,1.23407 -0.863342,2.225647 -1.187927,3.1297c-0.153259,0.426819 -0.285339,0.834412 -0.411194,1.25647c-0.125854,0.422058 -0.241333,0.863586 -0.342651,1.324951c-0.101318,0.461426 -0.194519,0.962952 -0.27417,1.507751c-0.07959,0.544861 -0.144775,1.132324 -0.205566,1.804749c0.681213,-0.498718 0.416321,2.629028 -0.342651,8.201172c-0.082092,5.290527 -0.09137,12.848816 -0.091431,24.375122c0,13.91803 -2.135437,76.487183 3.084045,105.107544c0.053711,0.294556 0.18512,0.568115 0.388367,0.845215c3.016602,1.839233 6.697327,2.444824 11.148071,1.507813c11.766357,-2.477539 -13.074219,-182.458618 33.05603,-152.852661c20.892029,13.408325 21.273315,-5.413025 33.718445,-6.190857c33.048584,-2.065552 27.557434,123.227478 31,156.964539c0.053162,0.520996 0.421814,2.059204 0.982361,3.974976c5.976501,-1.095825 10.166687,-2.426147 11.582153,-3.974976c0.039368,-0.664551 0.079834,-1.299805 0.114197,-2.010254c0.062317,-1.289063 0.15564,-2.681274 0.27417,-4.134766c-0.573242,-23.356812 -0.992615,-113.433044 -1.599121,-126.170288c-0.273682,-5.747192 -1.004272,-10.927063 -1.804749,-15.694153c-0.397339,-2.366455 -0.793274,-4.643555 -1.187927,-6.807678c-0.03833,-0.033386 -0.075745,-0.057922 -0.114197,-0.09137c-21.343811,-18.589783 -9.639038,-15.8255 -24.786255,-22.022095c-15.147278,-6.196655 -2.067993,1.366272 -19.280823,-7.584412c-11.295837,-5.87384 -19.026428,-10.256287 -25.151794,-10.051575z"/>
   <path fill="#2c2e2d" fill-rule="evenodd" stroke="#000000" stroke-width="0.731024px" id="path3283" d="m351.69574,447.991638c-12.64325,-0.042969 -39.316772,2.68158 -49.75531,2.101685c-11.929749,-0.66272 -16.787048,7.193542 -6.556396,14.072266c0.140564,0.094482 0.291199,0.185181 0.434082,0.274109c4.681885,1.253052 9.344727,2.184998 13.75238,2.581421c1.152649,-0.111206 1.896057,-0.228455 1.896057,-0.228455c0,0 0,0.36322 0,0.36554c0.405762,0.022217 0.810364,0.056396 1.210754,0.068542c18.285767,0.554077 23.664246,5.106262 39.772278,1.484863c0.090149,-0.622986 0.177917,-1.08844 0.296997,-1.302124c4.565857,-8.194397 15.836182,-1.215027 21.702271,-10.485657c3.380432,-5.342285 -8.253723,-7.521667 -18.275574,-8.726563c-1.145691,-0.137756 -2.671387,-0.199463 -4.477539,-0.205627z"/>
   <path fill="url(#linearGradient3582)" fill-rule="evenodd" stroke="#808080" stroke-width="0.726594px" id="path3314" d="m274.300354,822.638c0,-28.739746 -3.07959,-95.729553 -3.07959,-109.478882c0,-41.527344 -0.072021,-31.975403 4.291504,-45.097107c2.262878,-6.804871 -7.129456,-46.346191 -6.473999,-63.356934c0.468689,-12.161865 0.854004,-26.943848 11.153687,-23.411438c4.490601,1.5401 31.468567,-4.511597 31.458801,-17.261353c-0.010559,-13.776489 -0.194153,-97.475586 -0.194153,-97.475586c0,0 -9.406494,1.845032 -16.067688,-2.579163c-10.231018,-6.795288 -5.375793,-14.556152 6.554382,-13.901428c11.930176,0.654724 45.05542,-2.980164 54.221008,-1.891602c10.022156,1.190308 21.677795,3.346313 18.297241,8.62384c-5.866333,9.158325 -17.152039,2.268311 -21.718018,10.363403c-2.164063,3.83667 0.665344,78.112 0.743164,89.969421c0.080444,12.248108 -3.464539,15.573364 9.004517,20.065186c17.239319,6.210327 25.192749,-2.651794 30.495056,4.550232c5.302307,7.202026 -4.392822,51.42041 -2.698242,71.491699c0.75531,8.946472 4.016907,19.548889 4.679688,33.298279c0.662781,13.749329 1.754028,127.62439 1.754028,135.106445c0,7.482178 -122.421387,3.953613 -122.421387,0.984985z"/>
   <path fill="#96948f" fill-rule="evenodd" stroke-width="1px" d="m311.936768,468.572876c-0.770691,0.007751 0.501709,89.548889 -0.310303,89.597839c0.002563,1.739563 0.022095,6.257385 0.022888,7.287354c0.009766,12.906128 -26.966431,19.035034 -31.456909,17.476074c-10.299316,-3.575745 -10.679443,11.378662 -11.148132,23.689758c-0.655457,17.21936 8.727844,57.258972 6.465027,64.147339c-0.133423,0.406189 -0.240234,0.73114 -0.36554,1.096558c2.590088,-1.706238 5.119324,-4.361694 7.241699,-8.429626c8.262146,-15.835754 10.33783,-13.069519 2.764221,-32.347839c-7.573608,-19.278259 -14.45813,-34.43042 4.82019,-38.561523c19.27832,-4.131042 21.339233,-12.400757 40.617493,-8.269714c19.27832,4.131104 41.988831,2.085083 46.808411,25.494507c4.81958,23.409302 -2.740112,38.543091 4.144958,50.936279c2.515991,4.528625 8.042236,5.167236 10.841003,8.642151c-0.899902,-4.953552 -1.758179,-9.451294 -2.101685,-13.569641c-1.694519,-20.317444 7.997742,-65.080994 2.695679,-72.371338c-5.302124,-7.290405 -13.23584,1.694702 -30.474548,-4.591797c-9.339722,-3.405884 -9.696899,-6.145569 -9.320557,-12.518799c-1.182068,-0.214844 1.317749,-103.302002 -4.000977,-103.182068c-13.128357,0.296082 -7.472168,102.600952 -17.507263,100.917725c-7.147766,-1.198914 -14.704041,-95.493469 -19.735657,-95.443237z" id="path3285"/>
  </g>
  <g display="inline" id="layer2">
   <path fill="none" fill-rule="evenodd" stroke="#333333" stroke-width="7.310241" stroke-linecap="round" stroke-miterlimit="4" id="path3297" d="m277.391052,672.526917c0,0 4.470581,-39.490173 5.588196,-51.784302c1.117676,-12.294128 0,-19.372559 0,-29.058838c0,-9.686279 4.470642,-4.84314 0.372559,-20.862793c-4.098022,-16.019592 -33.529419,-92.764771 -40.607849,-106.921631c-7.07843,-14.15686 -33.901978,-77.862793 -40.235321,-92.019653c-6.333344,-14.15686 -18.254913,-39.490234 -18.254913,-39.490234"/>
   <path fill="none" fill-rule="evenodd" stroke="#333333" stroke-width="7.310241" stroke-linecap="round" stroke-miterlimit="4" id="path3299" d="m385.0578,657.252441c0,-3.725525 0,-40.980408 -1.490234,-47.313782c-1.490173,-6.333313 -6.333313,-10.803894 -6.333313,-10.803894c0,0 4.470581,-14.529419 4.098022,-17.137268c-0.372559,-2.607849 -3.352905,-9.313782 -0.372559,-21.980408c2.980408,-12.666687 24.588257,-65.196167 31.294128,-80.470642c6.705933,-15.274536 26.078491,-76.37262 33.52948,-92.392212c7.450928,-16.019653 20.490173,-53.274536 20.490173,-53.274536"/>
   <path fill="none" fill-rule="evenodd" stroke="#000000" stroke-width="0.731024px" id="path2288" d="m358.709351,450.7453c0,0 7.853699,-28.469788 13.253174,-49.57666c5.399414,-21.106934 22.579468,-61.848145 21.597717,-71.174438c-0.981689,-9.326294 -8.835449,-14.725769 -10.798828,-3.92688c-1.96344,10.798889 11.289734,18.161743 11.780579,4.417725c0.490845,-13.744019 0,-33.378357 0,-33.378357"/>
   <path fill="none" fill-rule="evenodd" stroke="#000000" stroke-width="0.731024px" id="path2290" d="m308.15094,456.63562c-0.981689,-2.454346 -7.853699,-22.088623 -11.289734,-42.704712c-3.435974,-20.616028 -11.289734,-43.195496 -16.689148,-55.957825c-5.399475,-12.762268 -7.362915,-18.161743 -11.289734,-29.942322c-3.92688,-11.780579 1.963379,-15.216614 6.872009,-3.436035c4.908569,11.78064 -1.472595,22.579468 -6.872009,9.326355c-5.399475,-13.253174 -10.308044,-29.942383 -10.308044,-29.942383"/>
   <path fill="none" fill-rule="evenodd" stroke="#000000" stroke-width="0.731024px" id="path2292" d="m184.454712,333.430176c0,0 10.798859,-7.853699 28.960632,-8.835449c18.161743,-0.981689 20.125153,-0.981689 38.286926,-0.490845c18.161743,0.490845 11.780579,1.472595 30.433228,0c18.652588,-1.472534 28.469727,-2.945129 53.012634,1.472595c24.542908,4.417725 26.506348,11.780579 45.158997,9.326294c18.652588,-2.454285 20.616028,-5.89032 40.250366,-6.872009c19.634277,-0.981689 40.250366,2.454285 43.68634,4.417725c3.436035,1.96344 3.92688,2.945129 3.92688,2.945129"/>
   <path fill="none" fill-rule="evenodd" stroke="#000000" stroke-width="0.310128px" id="path8972" d="m186.109406,335.86554c0,0 -3.2099,-4.968323 -1.537292,-3.482422c1.672638,1.485962 2.374481,2.939514 2.374481,2.939514m0.138123,-0.084778c0,0 -3.079987,-5.018921 -1.407349,-3.532959c1.672607,1.485901 2.274994,3.002808 2.274994,3.002808m0.141449,-0.079224c0,0 -2.876984,-5.13855 -1.265015,-3.586792c1.612,1.551819 2.179016,3.078796 2.179016,3.078796m0.143768,-0.07489c0,0 -2.720306,-5.223206 -1.155975,-3.623413c1.564301,1.599854 2.162445,3.099243 2.162445,3.099243m0.061523,-0.029236c0,0 -2.552185,-5.307312 -1.039734,-3.658386c1.512451,1.648926 2.062408,3.166626 2.062408,3.166626m0.146088,-0.070251c0,0 -2.466095,-5.357483 -1.01004,-3.658569c1.456055,1.698914 1.95462,3.234253 1.95462,3.234253m0.148376,-0.065247c0,0 -2.37204,-5.390259 -0.915985,-3.691345c1.456085,1.698914 1.861389,3.282104 1.861389,3.282104m0.150604,-0.059998c0,0 -2.179321,-5.470947 -0.784454,-3.721497c1.394897,1.749512 1.838654,3.301575 1.838654,3.301575m0.150604,-0.059998c0,0 -2.082153,-5.52478 -0.75354,-3.724487c1.328583,1.800293 1.714111,3.367859 1.714111,3.367859m0.15274,-0.054321c0,0 -1.973572,-5.548462 -0.644989,-3.748169c1.328583,1.800354 1.714111,3.367859 1.714111,3.367859m0.15274,-0.054321c0,0 -1.865875,-5.590515 -0.608917,-3.739502c1.256989,1.851013 1.580719,3.432434 1.580719,3.432434m0.154755,-0.048279c0,0 -1.754486,-5.621521 -0.497528,-3.770508c1.256989,1.851013 1.58075,3.432434 1.58075,3.432434m0.154724,-0.048279c0,0 -1.638733,-5.657104 -0.458923,-3.756042c1.17981,1.901123 1.438263,3.494507 1.438263,3.494507m0.156586,-0.04187c0,0 -1.521851,-5.688904 -0.342041,-3.787781c1.179779,1.901123 1.438232,3.494507 1.438232,3.494507m0.156616,-0.04187c0,0 -1.400085,-5.72406 -0.303162,-3.773987c1.096954,1.950073 1.286652,3.553101 1.286652,3.553101m0.158234,-0.035095c0,0 -1.275787,-5.749023 -0.178833,-3.79895c1.096924,1.950073 1.286621,3.553101 1.286621,3.553101m0.158264,-0.035095c0,0 -1.149414,-5.790894 -0.141083,-3.793579c1.008362,1.997314 1.125946,3.607239 1.125946,3.607239m0.159668,-0.028015c0,0 -1.016602,-5.800415 -0.00824,-3.803101c1.008362,1.997314 1.125946,3.607239 1.125946,3.607239m0.159668,-0.028015c0,0 -1.016602,-5.800415 -0.00827,-3.803101c1.008362,1.997314 0.992615,3.644287 0.992615,3.644287m0.160797,-0.020508c0,0 -0.744934,-5.841492 0.169159,-3.799316c0.914063,2.042114 0.956421,3.655823 0.956421,3.655823m0.160828,-0.020569c0,0 -0.744934,-5.841492 0.169128,-3.799316c0.914093,2.042175 0.956451,3.655823 0.956451,3.655823m0.160797,-0.020508c0,0 -0.603607,-5.858582 0.210724,-3.774658c0.814331,2.083923 0.778656,3.697754 0.778656,3.697754m0.161621,-0.012695c0,0 -0.461792,-5.870667 0.352539,-3.786743c0.814331,2.083923 0.778656,3.697754 0.778656,3.697754m0.161591,-0.012756c0,0 -0.461761,-5.870605 0.352539,-3.786682c0.814331,2.083923 0.69693,3.713074 0.69693,3.713074m0.161896,-0.008179c0,0 -0.296936,-5.881836 0.458679,-3.775696c0.755615,2.10614 0.674713,3.718506 0.674713,3.718506m0.161896,-0.008179c0,0 -0.296936,-5.881897 0.458679,-3.775696c0.755615,2.10614 0.674683,3.718445 0.674683,3.718445m0.161926,-0.008179c0,0 -0.296936,-5.881836 0.458679,-3.775696c0.755615,2.106201 0.674683,3.718506 0.674683,3.718506m0.161896,-0.008179c0,0 -0.296936,-5.881836 0.45871,-3.775696c0.755615,2.10614 0.674683,3.718445 0.674683,3.718445m0.161926,-0.008179c0,0 -0.296967,-5.881836 0.458649,-3.775635c0.755615,2.10614 0.674683,3.718445 0.674683,3.718445m0.161926,-0.008179c0,0 -0.296936,-5.881836 0.458679,-3.775696c0.755615,2.106201 0.674683,3.718506 0.674683,3.718506m0.161926,-0.008179c0,0 -0.296936,-5.881836 0.458679,-3.775696c0.755615,2.10614 0.674683,3.718445 0.674683,3.718445m0.161896,-0.008179c0,0 -0.296936,-5.881836 0.458679,-3.775635c0.755646,2.10614 0.674713,3.718445 0.674713,3.718445m0.161896,-0.008179c0,0 -0.235535,-5.888794 0.47583,-3.767334c0.711334,2.121399 0.59671,3.731628 0.59671,3.731628m0.162048,-0.004761c0,0 -0.173798,-5.886597 0.537537,-3.765137c0.711365,2.121399 0.596741,3.731628 0.596741,3.731628m0.162018,-0.004761c0,0 -0.173767,-5.886597 0.537567,-3.765137c0.711365,2.121399 0.59671,3.731628 0.59671,3.731628m0.162048,-0.004761c0,0 -0.173798,-5.886597 0.537567,-3.765137c0.711365,2.121399 0.59671,3.731628 0.59671,3.731628m0.162048,-0.004822c0,0 -0.173798,-5.886536 0.537567,-3.765076c0.711365,2.121399 0.59671,3.731628 0.59671,3.731628m0.162048,-0.004822c0,0 -0.173798,-5.886536 0.537567,-3.765076c0.711334,2.121399 0.59671,3.731628 0.59671,3.731628m0.162048,-0.004822c0,0 -0.07309,-5.904724 0.565125,-3.760193c0.638245,2.144592 0.468506,3.749939 0.468506,3.749939m0.162109,0.000732c0,0 0.028015,-5.889038 0.66626,-3.744446c0.638245,2.144531 0.468475,3.749878 0.468475,3.749878m0.162109,0.000793c0,0 0.028076,-5.889099 0.66629,-3.744507c0.638245,2.144531 0.468506,3.749878 0.468506,3.749878m0.162079,0.000793c0,0 0.028046,-5.889099 0.66629,-3.744507c0.638245,2.144592 0.468475,3.749878 0.468475,3.749878m0.162109,0.000793c0,0 0.028046,-5.889038 0.66629,-3.744507c0.638245,2.144592 0.468475,3.749939 0.468475,3.749939m0.162109,0.000732c0,0 0.028046,-5.889038 0.66629,-3.744507c0.638245,2.144592 0.468475,3.749939 0.468475,3.749939m0.162109,0.000732c0,0 0.028046,-5.889038 0.66626,-3.744446c0.638245,2.144531 0.411194,3.756287 0.411194,3.756287m0.162048,0.003967c0,0 0.142517,-5.887634 0.738953,-3.731018c0.596497,2.156677 0.395569,3.758484 0.395569,3.758484m0.162048,0.003906c0,0 0.142517,-5.887634 0.738953,-3.730957c0.596436,2.156616 0.395508,3.758423 0.395508,3.758423m0.162109,0.003906c0,0 0.142456,-5.887573 0.738953,-3.730957c0.596436,2.156616 0.395508,3.758423 0.395508,3.758423m0.162048,0.003906c0,0 0.142517,-5.887573 0.738953,-3.730957c0.596497,2.156677 0.395569,3.758423 0.395569,3.758423m0.162048,0.003906c0,0 0.142517,-5.887573 0.738953,-3.730957c0.596436,2.156677 0.395508,3.758423 0.395508,3.758423m0.162109,0.003967c0,0 0.142517,-5.887634 0.738953,-3.731018c0.596436,2.156677 0.395508,3.758484 0.395508,3.758484m0.162048,0.003906c0,0 0.142517,-5.887634 0.739014,-3.730957c0.596436,2.156616 0.395508,3.758423 0.395508,3.758423m0.162048,0.003906c0,0 0.142517,-5.887634 0.738953,-3.730957c0.596497,2.156616 0.395508,3.758423 0.395508,3.758423m0.162109,0.003906c0,0 0.174194,-5.888672 0.747437,-3.725769c0.573181,2.162964 0.355042,3.762451 0.355042,3.762451m0.162048,0.005676c0,0 0.205811,-5.885681 0.779053,-3.722778c0.573181,2.162903 0.355042,3.762451 0.355042,3.762451m0.162048,0.005676c0,0 0.205811,-5.885681 0.778992,-3.722778c0.573242,2.162903 0.355103,3.762451 0.355103,3.762451m0.161987,0.005615c0,0 0.205872,-5.885681 0.779053,-3.722778c0.573242,2.162903 0.355103,3.762451 0.355103,3.762451m0.161987,0.005676c0,0 0.205811,-5.885681 0.779053,-3.722778c0.573242,2.162903 0.302673,3.766785 0.302673,3.766785m0.161865,0.008545c0,0 0.310059,-5.881104 0.84491,-3.708435c0.53479,2.172729 0.28833,3.768188 0.28833,3.768188m0.161865,0.008484c0,0 0.310059,-5.881104 0.84491,-3.708374c0.53479,2.172729 0.28833,3.768127 0.28833,3.768127m0.161926,0.008545c0,0 0.310059,-5.881104 0.844849,-3.708374c0.534851,2.172729 0.262573,3.768433 0.262573,3.768433m0.161804,0.009949c0,0 0.36145,-5.877869 0.877197,-3.700684c0.515747,2.177246 0.255371,3.770325 0.255371,3.770325m0.161804,0.01001c0,0 0.36145,-5.87793 0.877258,-3.700745c0.515747,2.177246 0.255371,3.770386 0.255371,3.770386m0.161804,0.009949c0,0 0.36145,-5.87793 0.877197,-3.700684c0.515808,2.177185 0.255371,3.770325 0.255371,3.770325m0.161804,0.009949c0,0 0.36145,-5.87793 0.877258,-3.700684c0.515747,2.177185 0.38623,3.768188 0.38623,3.768188m0.162048,0.002747c0,0 0.100342,-5.887939 0.712158,-3.73584c0.611816,2.1521 0.422424,3.755188 0.422424,3.755188m0.162048,0.002747c0,0 0.100342,-5.887939 0.712158,-3.73584c0.611816,2.1521 0.558044,3.736389 0.558044,3.736389m0.162048,-0.004761c0,0 -0.171204,-5.886475 0.539246,-3.764771c0.710388,2.121704 0.595032,3.731812 0.595032,3.731812m0.162048,-0.0047c0,0 -0.171204,-5.886475 0.539185,-3.764832c0.710388,2.121704 0.68457,3.727478 0.68457,3.727478m0.161804,-0.009644c0,0 -0.35022,-5.878784 0.424438,-3.779602c0.774658,2.099182 0.708313,3.712158 0.708313,3.712158m0.161865,-0.009644c0,0 -0.35022,-5.878845 0.424438,-3.779663c0.774658,2.099182 0.708374,3.712158 0.708374,3.712158m0.161804,-0.009644c0,0 -0.35022,-5.878784 0.424438,-3.779602c0.774658,2.099182 0.708313,3.712158 0.708313,3.712158m0.161865,-0.009644c0,0 -0.394775,-5.874512 0.411682,-3.787354c0.806519,2.087219 0.764709,3.70105 0.764709,3.70105m0.161682,-0.012085c0,0 -0.439575,-5.872925 0.366943,-3.785706c0.806458,2.087158 0.764709,3.700989 0.764709,3.700989m0.161682,-0.012085c0,0 -0.439575,-5.872925 0.366943,-3.785706c0.806458,2.087158 0.764709,3.700989 0.764709,3.700989m0.161621,-0.012085c0,0 -0.439514,-5.872925 0.366943,-3.785706c0.806519,2.087219 0.764709,3.700989 0.764709,3.700989m0.161682,-0.012085c0,0 -0.439575,-5.872925 0.366943,-3.785706c0.806458,2.087219 0.778809,3.698425 0.778809,3.698425m0.16156,-0.012878c0,0 -0.467957,-5.870605 0.348633,-3.787354c0.816589,2.083252 0.782593,3.697205 0.782593,3.697205m0.161621,-0.012878c0,0 -0.467957,-5.870667 0.348633,-3.787415c0.816528,2.083252 0.782593,3.697205 0.782593,3.697205m0.16156,-0.012878c0,0 -0.467957,-5.870605 0.348633,-3.787354c0.816589,2.083252 0.782593,3.697205 0.782593,3.697205m0.161621,-0.012878c0,0 -0.467957,-5.870667 0.348633,-3.787415c0.816528,2.083252 0.782593,3.697266 0.782593,3.697266m0.16156,-0.012878c0,0 -0.467896,-5.870667 0.348633,-3.787415c0.816589,2.083252 0.782593,3.697205 0.782593,3.697205m0.161621,-0.012878c0,0 -0.467957,-5.870605 0.348633,-3.787354c0.816528,2.083252 0.782593,3.697205 0.782593,3.697205m0.16156,-0.012878c0,0 -0.467896,-5.870667 0.348633,-3.787415c0.816589,2.083252 0.782593,3.697266 0.782593,3.697266m0.161621,-0.012878c0,0 -0.467957,-5.870667 0.348633,-3.787415c0.816528,2.083252 0.782593,3.697205 0.782593,3.697205m0.16156,-0.012878c0,0 -0.467957,-5.870667 0.348633,-3.787415c0.816589,2.083313 0.782593,3.697266 0.782593,3.697266m0.161621,-0.012878c0,0 -0.404053,-5.888428 0.366333,-3.78772c0.770386,2.100708 0.700806,3.713501 0.700806,3.713501m0.161865,-0.009277c0,0 -0.338318,-5.879456 0.432129,-3.778748c0.770386,2.100769 0.700806,3.713501 0.700806,3.713501m0.161804,-0.009277c0,0 -0.338257,-5.879456 0.432129,-3.778687c0.770386,2.100708 0.700806,3.713501 0.700806,3.713501m0.161865,-0.009338c0,0 -0.338318,-5.879395 0.432068,-3.778687c0.770386,2.100708 0.700806,3.713501 0.700806,3.713501m0.161865,-0.009277c0,0 -0.338318,-5.879456 0.432068,-3.778748c0.770386,2.100769 0.700806,3.713562 0.700806,3.713562m0.088257,-0.004272c0,0 -0.190918,-5.886169 0.526611,-3.766785c0.717529,2.119446 0.607605,3.72998 0.607605,3.72998m0.162048,-0.005249c0,0 -0.190979,-5.886169 0.52655,-3.766724c0.71759,2.119385 0.607605,3.72998 0.607605,3.72998m0.162048,-0.00531c0,0 -0.128967,-5.892151 0.543762,-3.758118c0.672668,2.134094 0.528809,3.741943 0.528809,3.741943m0.162048,-0.001831c0,0 -0.066772,-5.888855 0.605957,-3.754822c0.672668,2.134094 0.528809,3.741943 0.528809,3.741943m0.162109,-0.001831c0,0 0.002075,-5.90155 0.624634,-3.75238c0.622681,2.149231 0.441223,3.753296 0.441223,3.753296m0.162109,0.001953c0,0 0.070923,-5.888794 0.693542,-3.739624c0.62262,2.14917 0.441162,3.753296 0.441162,3.753296m0.162109,0.001953c0,0 0.070862,-5.888794 0.693481,-3.739624c0.622681,2.14917 0.368347,3.756409 0.368347,3.756409m0.161987,0.005981c0,0 0.216431,-5.885254 0.785706,-3.721313c0.569336,2.163879 0.348328,3.763 0.348328,3.763m0.161987,0.00592c0,0 0.216431,-5.885193 0.785767,-3.721313c0.569275,2.16394 0.348267,3.763062 0.348267,3.763062m0.161987,0.00592c0,0 0.290466,-5.884949 0.805237,-3.707458c0.514832,2.177551 0.253723,3.770569 0.253723,3.770569m0.161804,0.01001c0,0 0.364075,-5.87793 0.878906,-3.700378c0.514832,2.17749 0.253723,3.770569 0.253723,3.770569m0.161804,0.01001c0,0 0.364075,-5.87793 0.878906,-3.700439c0.514832,2.177551 0.180725,3.774048 0.180725,3.774048m0.161499,0.014038c0,0 0.508789,-5.867249 0.969788,-3.677673c0.460999,2.189514 0.160767,3.775696 0.160767,3.775696m0.161499,0.013977c0,0 0.508789,-5.867188 0.969788,-3.677612c0.460999,2.189514 0.160767,3.775696 0.160767,3.775696m0.161499,0.013977c0,0 0.578308,-5.867371 0.987793,-3.667603c0.409424,2.199768 0.07196,3.778442 0.07196,3.778442m0.161133,0.017761c0,0 0.646484,-5.853577 1.055969,-3.653809c0.409424,2.199768 0.07196,3.778442 0.07196,3.778442m0.161133,0.017761c0,0 0.646545,-5.853638 1.055969,-3.65387c0.409424,2.199829 0.07196,3.778442 0.07196,3.778442m0.161133,0.017822c0,0 0.710571,-5.846619 1.071777,-3.638428c0.361206,2.208252 -0.010742,3.779114 -0.010742,3.779114m0.160706,0.021362c0,0 0.774536,-5.838135 1.135681,-3.629944c0.361206,2.208252 -0.010681,3.779175 -0.010681,3.779175m0.160706,0.021301c0,0 0.774475,-5.838135 1.13562,-3.629883c0.361206,2.208191 -0.010681,3.779114 -0.010681,3.779114m0.160706,0.021301c0,0 0.832825,-5.830322 1.14978,-3.615295c0.316956,2.215027 -0.086304,3.778137 -0.086304,3.778137m0.160278,0.024536c0,0 0.891052,-5.821411 1.208008,-3.606445c0.316956,2.215027 -0.086304,3.778137 -0.086304,3.778137m0.160278,0.024597c0,0 0.891052,-5.821472 1.208008,-3.606506c0.317017,2.215027 -0.086304,3.778198 -0.086304,3.778198m0.160278,0.024475c0,0 0.944214,-5.81842 1.221313,-3.598083c0.2771,2.220337 -0.154236,3.776001 -0.154236,3.776001m0.15979,0.027405c0,0 0.995605,-5.804504 1.272705,-3.584167c0.277039,2.220398 -0.154236,3.776062 -0.154236,3.776062m0.15979,0.027405c0,0 0.995605,-5.804565 1.272705,-3.584167c0.277039,2.220337 -0.154236,3.776001 -0.154236,3.776001m0.159729,0.027405c0,0 0.995667,-5.804504 1.272766,-3.584167c0.277039,2.220398 -0.22876,3.767761 -0.22876,3.767761m0.158997,0.031433c0,0 1.142639,-5.7771 1.36322,-3.550537c0.220642,2.226624 -0.25,3.770752 -0.25,3.770752m0.159058,0.031433c0,0 1.142578,-5.777161 1.36322,-3.550537c0.220581,2.226563 -0.250061,3.770691 -0.250061,3.770691m0.159058,0.031494c0,0 1.142578,-5.777161 1.36322,-3.550598c0.220581,2.226624 -0.250061,3.770752 -0.250061,3.770752m0.159058,0.031433c0,0 1.245667,-5.760681 1.387329,-3.527649c0.141663,2.233032 -0.383301,3.759521 -0.383301,3.759521m0.157776,0.037048c0,0 1.346436,-5.733093 1.488037,-3.500061c0.141724,2.232971 -0.383301,3.759521 -0.383301,3.759521m0.157776,0.037048c0,0 1.346436,-5.733093 1.488098,-3.500061c0.141663,2.232971 -0.383362,3.75946 -0.383362,3.75946m0.157776,0.037109c0,0 1.448486,-5.716309 1.511902,-3.479675c0.063477,2.236572 -0.514648,3.743774 -0.514648,3.743774m0.156433,0.042542c0,0 1.546143,-5.682434 1.609619,-3.445862c0.063416,2.236633 -0.514648,3.743835 -0.514648,3.743835m0.156433,0.042542c0,0 1.546143,-5.682495 1.609558,-3.445862c0.063477,2.236572 -0.514648,3.743774 -0.514648,3.743774m0.063538,0.017517c0,0 1.731018,-5.628967 1.721313,-3.391479c-0.009644,2.237488 -0.636658,3.725037 -0.636658,3.725037m0.154907,0.047607c0,0 1.731018,-5.628967 1.721375,-3.391479c-0.009644,2.237549 -0.636719,3.725037 -0.636719,3.725037m0.154968,0.047668c0,0 1.814148,-5.619751 1.742188,-3.383362c-0.071899,2.236389 -0.740112,3.705933 -0.740112,3.705933m0.153564,0.051941c0,0 1.887024,-5.578674 1.815125,-3.342346c-0.07196,2.23645 -0.740173,3.705933 -0.740173,3.705933m0.153564,0.051941c0,0 1.887024,-5.578674 1.815125,-3.342285c-0.07196,2.236389 -0.796631,3.689758 -0.796631,3.689758m0.152527,0.054993c0,0 1.997742,-5.5401 1.881287,-3.305542c-0.116455,2.234558 -0.813782,3.690491 -0.813782,3.690491m0.152527,0.054993c0,0 1.997742,-5.5401 1.881287,-3.305542c-0.116455,2.234558 -0.829834,3.684875 -0.829834,3.684875m0.152222,0.055847c0,0 2.029663,-5.528442 1.90033,-3.294617c-0.129333,2.233826 -0.835083,3.68573 -0.835083,3.68573m0.152161,0.055847c0,0 2.029724,-5.528442 1.900391,-3.294617c-0.129333,2.233826 -0.835083,3.68573 -0.835083,3.68573m0.152161,0.055847c0,0 2.029724,-5.528381 1.90033,-3.294617c-0.129333,2.233887 -0.835022,3.68573 -0.835022,3.68573m0.152161,0.055908c0,0 2.029663,-5.528442 1.90033,-3.294617c-0.129333,2.233826 -0.761475,3.703735 -0.761475,3.703735m0.153564,0.051941c0,0 1.887451,-5.57843 1.815308,-3.342102c-0.072083,2.236389 -0.740417,3.705811 -0.740417,3.705811m0.153564,0.051941c0,0 1.768738,-5.592468 1.785828,-3.355103c0.017151,2.237305 -0.59198,3.732117 -0.59198,3.732117m0.155457,0.045837c0,0 1.663452,-5.648987 1.680542,-3.411682c0.017151,2.237366 -0.592041,3.732178 -0.592041,3.732178m0.155518,0.045776c0,0 1.502563,-5.678162 1.643433,-3.445374c0.14093,2.232788 -0.384521,3.758972 -0.384521,3.758972m0.157776,0.037109c0,0 1.348145,-5.731995 1.489075,-3.499207c0.140869,2.232788 -0.384583,3.758972 -0.384583,3.758972m0.299255,0.062866c0,0 1.066895,-5.791626 1.31665,-3.568115c0.249756,2.223511 -0.098083,3.788696 -0.098083,3.788696m0.160339,0.023743c0,0 0.862488,-5.8255 1.190308,-3.612183c0.327759,2.213318 0.038574,3.786255 0.038574,3.786255m0.161133,0.017883c0,0 0.651245,-5.852844 1.058838,-3.652832c0.407654,2.200012 0.176392,3.779785 0.176392,3.779785m0.161682,0.012085c0,0 0.437866,-5.872742 0.925293,-3.689026c0.487427,2.183777 0.312439,3.769958 0.312439,3.769958m0.161987,0.006226c0,0 0.226685,-5.884705 0.792236,-3.719849c0.565491,2.164856 0.44458,3.757385 0.44458,3.757385m0.162109,0.00061c0,0 0.021301,-5.889038 0.661987,-3.745239c0.640686,2.143799 0.570923,3.74292 0.570923,3.74292m0.162048,-0.004822c0,0 -0.175171,-5.886475 0.536682,-3.765198c0.711853,2.121216 0.597595,3.731445 0.597595,3.731445m0.254517,-0.014099c0,0 -0.360657,-5.878052 0.417725,-3.780273c0.778381,2.097778 0.714905,3.710815 0.714905,3.710815m0.161804,-0.009949c0,0 -0.44696,-5.869385 0.392883,-3.79541c0.839844,2.073914 0.823914,3.68811 0.823914,3.68811m0.161438,-0.014648c0,0 -0.612488,-5.845947 0.28363,-3.795715c0.896179,2.050293 0.924316,3.664368 0.924316,3.664368m0.161011,-0.019104c0,0 -0.693542,-5.848206 0.202576,-3.797974c0.896118,2.050293 0.991211,3.647949 0.991211,3.647949m0.160522,-0.022827c0,0 -0.829346,-5.830505 0.114197,-3.801636c0.943604,2.02887 1.009277,3.641846 1.009277,3.641846m0.160522,-0.022827c0,0 -0.829346,-5.830566 0.114197,-3.801697c0.943604,2.02887 1.009277,3.641907 1.009277,3.641907m0.160522,-0.022827c0,0 -0.892151,-5.815186 0.095581,-3.807373c0.987671,2.007751 1.088623,3.618896 1.088623,3.618896m0.159973,-0.026306c0,0 -0.956665,-5.811035 0.031067,-3.803284c0.987732,2.007751 1.088623,3.618896 1.088623,3.618896m0.159973,-0.026306c0,0 -0.956604,-5.811035 0.031067,-3.803284c0.987732,2.007813 1.150696,3.597778 1.150696,3.597778m0.159363,-0.029846c0,0 -1.084229,-5.788574 -0.052612,-3.802979c1.031677,1.985535 1.16803,3.594116 1.16803,3.594116m0.159302,-0.029907c0,0 -1.084167,-5.788574 -0.052551,-3.802979c1.031616,1.985535 1.226929,3.575439 1.226929,3.575439m0.158691,-0.033142c0,0 -1.204773,-5.764709 -0.131958,-3.801086c1.072876,1.963562 1.242737,3.56897 1.242737,3.56897m0.158691,-0.033203c0,0 -1.204773,-5.764709 -0.131897,-3.801086c1.072815,1.963562 1.310913,3.54303 1.310913,3.54303m0.157776,-0.037048c0,0 -1.345703,-5.733398 -0.225037,-3.796692c1.120605,1.936707 1.329834,3.537354 1.329834,3.537354m0.157776,-0.037048c0,0 -1.345642,-5.733337 -0.225037,-3.796631c1.120667,1.936646 1.329834,3.537354 1.329834,3.537354m0.157837,-0.037048c0,0 -1.345703,-5.733337 -0.225098,-3.796692c1.120667,1.936707 1.329834,3.537415 1.329834,3.537415m0.194946,-0.046021c0,0 -1.419983,-5.715576 -0.274292,-3.793518c1.145691,1.921997 1.375671,3.519897 1.375671,3.519897m0.157288,-0.039063c0,0 -1.419983,-5.715576 -0.274292,-3.793579c1.145691,1.922058 1.375671,3.519958 1.375671,3.519958m0.157288,-0.039124c0,0 -1.419983,-5.715576 -0.274292,-3.793518c1.145691,1.922058 1.375671,3.519897 1.375671,3.519897m0.157288,-0.039063c0,0 -1.367065,-5.732483 -0.257751,-3.789307c1.109314,1.943176 1.309143,3.544983 1.309143,3.544983m0.15802,-0.036072c0,0 -1.312195,-5.741028 -0.202881,-3.797852c1.109253,1.943115 1.309082,3.544983 1.309082,3.544983m0.158081,-0.036133c0,0 -1.312195,-5.740967 -0.202942,-3.797852c1.109314,1.943176 1.309143,3.544983 1.309143,3.544983m0.15802,-0.036072c0,0 -1.224854,-5.77533 -0.177124,-3.798218c1.047668,1.977112 1.197083,3.584473 1.197083,3.584473m0.159119,-0.031128c0,0 -1.131165,-5.779541 -0.083496,-3.802429c1.047729,1.977112 1.197144,3.584473 1.197144,3.584473m0.159119,-0.031128c0,0 -1.054443,-5.796265 -0.059814,-3.791992c0.994629,2.004333 1.101135,3.615112 1.101135,3.615112m0.159851,-0.026917c0,0 -0.976685,-5.807556 0.017944,-3.803284c0.994629,2.004333 1.101135,3.615112 1.101135,3.615112m0.078613,-0.010742c0,0 -0.813049,-5.832764 0.124817,-3.80127c0.937866,2.031494 0.999084,3.644592 0.999084,3.644592m0.160522,-0.022339c0,0 -0.812988,-5.832764 0.124878,-3.801331c0.937866,2.031494 0.999084,3.644653 0.999084,3.644653m0.079956,-0.007935c0,0 -0.650818,-5.853088 0.230347,-3.796387c0.881104,2.056763 0.897461,3.671021 0.897461,3.671021m0.161133,-0.017944c0,0 -0.650818,-5.853088 0.230347,-3.796387c0.881104,2.056763 0.897522,3.670959 0.897522,3.670959m0.161133,-0.017883c0,0 -0.574402,-5.862549 0.252686,-3.783447c0.827026,2.079041 0.801208,3.693176 0.801208,3.693176m0.16156,-0.013733c0,0 -0.49762,-5.868103 0.329468,-3.789063c0.827087,2.079102 0.80127,3.693176 0.80127,3.693176m0.161499,-0.013672c0,0 -0.428772,-5.887695 0.348633,-3.789551c0.777344,2.098206 0.713135,3.711243 0.713135,3.711243m0.161804,-0.009827c0,0 -0.357788,-5.878357 0.419556,-3.780212c0.777405,2.098206 0.713135,3.711243 0.713135,3.711243m0.161804,-0.009827c0,0 -0.357788,-5.878418 0.419556,-3.780212c0.777405,2.098206 0.713196,3.711243 0.713196,3.711243m0.161804,-0.009888c0,0 -0.285889,-5.886902 0.439758,-3.770264c0.725586,2.116577 0.621826,3.727539 0.621826,3.727539m0.161987,-0.005859c0,0 -0.213379,-5.885315 0.512207,-3.768677c0.725647,2.116577 0.621826,3.727539 0.621826,3.727539m0.162048,-0.005859c0,0 -0.21344,-5.885315 0.512207,-3.768677c0.725586,2.116577 0.621826,3.727539 0.621826,3.727539m0.161987,-0.005859c0,0 -0.137756,-5.887329 0.533264,-3.752747c0.670959,2.134583 0.525757,3.742371 0.525757,3.742371m0.162109,-0.001709c0,0 -0.062012,-5.888855 0.608948,-3.754333c0.670959,2.134583 0.525818,3.742371 0.525818,3.742371m0.162109,-0.001709c0,0 -0.062073,-5.888855 0.608887,-3.754333c0.670959,2.134644 0.456543,3.743164 0.456543,3.743164m0.162109,0.002075c0,0 0.076477,-5.888733 0.697083,-3.738953c0.620544,2.14978 0.437622,3.753662 0.437622,3.753662m0.162109,0.002136c0,0 0.076477,-5.888733 0.697021,-3.738953c0.620605,2.14978 0.437683,3.753662 0.437683,3.753662m0.162048,0.002136c0,0 0.076477,-5.888733 0.697083,-3.738953c0.620605,2.14978 0.373413,3.758057 0.373413,3.758057m0.161987,0.005615c0,0 0.204712,-5.885681 0.77832,-3.7229c0.573669,2.162781 0.355835,3.762329 0.355835,3.762329m0.161987,0.005676c0,0 0.204651,-5.885681 0.77832,-3.7229c0.573669,2.162781 0.355835,3.762329 0.355835,3.762329m0.161987,0.005615c0,0 0.265259,-5.894653 0.794617,-3.720642c0.529358,2.174072 0.278931,3.76886 0.278931,3.76886m0.161865,0.008911c0,0 0.324768,-5.880249 0.854126,-3.706238c0.529358,2.174072 0.278931,3.76886 0.278931,3.76886m0.161865,0.008911c0,0 0.324829,-5.880249 0.854187,-3.706238c0.529358,2.174072 0.27887,3.76886 0.27887,3.76886m0.161865,0.008911c0,0 0.382202,-5.880493 0.869202,-3.696594c0.487,2.18396 0.205566,3.77356 0.205566,3.77356m0.161682,0.012085c0,0 0.439087,-5.872864 0.926086,-3.688904c0.486938,2.183899 0.205566,3.77356 0.205566,3.77356m0.161621,0.012085c0,0 0.439087,-5.872925 0.926086,-3.688965c0.487,2.18396 0.150146,3.770996 0.150146,3.770996m0.161377,0.015137c0,0 0.549622,-5.863586 0.995422,-3.670837c0.44574,2.192688 0.13446,3.776733 0.13446,3.776733m0.161377,0.015137c0,0 0.549622,-5.863586 0.995422,-3.670837c0.44574,2.192688 0.13446,3.776733 0.13446,3.776733m0.161377,0.015137c0,0 0.60498,-5.865601 1.009827,-3.664978c0.404846,2.200623 0.064087,3.778625 0.064087,3.778625m0.161133,0.018127c0,0 0.658691,-5.852356 1.063538,-3.651672c0.404907,2.200623 0.064148,3.778564 0.064148,3.778564m0.161072,0.018188c0,0 0.658752,-5.852356 1.063599,-3.651733c0.404846,2.200684 0.008484,3.775452 0.008484,3.775452m0.160706,0.021179c0,0 0.769104,-5.838806 1.132324,-3.63092c0.36322,2.207886 -0.007263,3.779114 -0.007263,3.779114m0.160767,0.021179c0,0 0.769104,-5.838806 1.132324,-3.63092c0.36322,2.207886 -0.007263,3.779114 -0.007263,3.779114m0.103088,0.013123c0,0 0.884338,-5.822449 1.203857,-3.607849c0.319519,2.214661 -0.081909,3.778259 -0.081909,3.778259m0.160278,0.024353c0,0 0.884338,-5.82251 1.203857,-3.607849c0.319519,2.214661 -0.081909,3.778259 -0.081909,3.778259m0.160217,0.024353c0,0 0.947266,-5.815063 1.219116,-3.594055c0.271912,2.220947 -0.163086,3.775574 -0.163086,3.775574m0.159729,0.027771c0,0 1.009277,-5.802063 1.281128,-3.581116c0.271851,2.221008 -0.163147,3.775635 -0.163147,3.775635m0.159729,0.027771c0,0 1.080444,-5.78949 1.297668,-3.5625c0.217285,2.226929 -0.255737,3.770386 -0.255737,3.770386m0.158997,0.031677c0,0 1.151367,-5.775513 1.368652,-3.548523c0.217224,2.226929 -0.342834,3.757019 -0.342834,3.757019m0.157959,0.036377c0,0 1.323364,-5.738464 1.473999,-3.506042c0.150635,2.232422 -0.368225,3.761047 -0.368225,3.761047m0.157959,0.036438c0,0 1.439026,-5.721619 1.501343,-3.485107c0.062378,2.236511 -0.516418,3.743408 -0.516418,3.743408m0.156372,0.042603c0,0 1.724792,-5.666199 1.655945,-3.430176c-0.068787,2.236023 -0.734863,3.706177 -0.734863,3.706177m0.153625,0.051758c0,0 2.088379,-5.548218 1.862305,-3.322388c-0.226013,2.22583 -1.189758,3.555237 -1.189758,3.555237m0.144592,0.073181c0,0 2.847839,-5.169373 2.30603,-2.998535c-0.541748,2.170898 -1.5047,3.466492 -1.5047,3.466492m0.13916,0.08313c0,0 3.137329,-4.997375 2.500549,-2.852478c-0.636841,2.144836 -1.655823,3.396729 -1.655823,3.396729m0.135315,0.089233c0,0 3.365356,-4.835449 2.620544,-2.725769c-0.744873,2.109741 -1.969604,3.210388 -1.969604,3.210388m0.124817,0.103455c0,0 3.922363,-4.413879 2.915771,-2.416077c-1.006531,1.997864 -2.589722,2.696655 -2.589722,2.696655"/>
   <path opacity="0.05" fill="url(#svg_9)" fill-rule="evenodd" stroke="#666666" stroke-width="0.731024px" d="m459.658997,828.059998c0,0 6.541016,3.271973 18.455017,-3.849976c15.436981,-9.227051 35.347961,-46.965027 35.835999,-57.744019c2.054016,-45.377991 8.218994,-91.419983 20.794983,-122.054993c28.533997,-69.505981 124.742004,-174.163025 124.734985,-330.940002c-0.006958,-144.526001 -142.537964,-311.846618 -309.533966,-313.09143c-271.410316,-2.051638 -346.948514,220.817428 -349.519226,328.898437c-1.963988,82.572998 43.496411,172.698975 107.014214,280.487c63.519005,107.787964 30.060997,119.984009 49.687004,167.950989c13.832001,33.804016 30.370987,48.400024 30.370987,48.400024" id="path2562"/>
  </g>
 </g>
</svg>