<?xml version="1.0" encoding="utf-8"?>
<!-- Generator: Adobe Illustrator 16.0.1, SVG Export Plug-In . SVG Version: 6.00 Build 0)  -->
<!DOCTYPE svg PUBLIC "-//W3C//DTD SVG 1.1//EN" "http://www.w3.org/Graphics/SVG/1.1/DTD/svg11.dtd">
<svg version="1.1" id="Layer_1" xmlns="http://www.w3.org/2000/svg" xmlns:xlink="http://www.w3.org/1999/xlink" x="0px" y="0px"
	 width="186.304px" height="219.201px" viewBox="0 0 186.304 219.201" enable-background="new 0 0 186.304 219.201"
	 xml:space="preserve">
<g>
	<path fill="#FFFFFF" d="M17.64,157.768c-9.73,0.006-17.634-7.908-17.635-17.637L0,86.134c-0.004-9.718,7.899-17.631,17.615-17.632
		c4.725-0.004,9.147,1.829,12.482,5.158c3.335,3.332,5.169,7.761,5.172,12.47l-0.005,54.002c0.012,4.701-1.816,9.132-5.147,12.458
		C26.791,155.93,22.356,157.766,17.64,157.768"/>
	<path fill="#FFFFFF" d="M17.625,73.24c-7.119-0.003-12.891,5.779-12.893,12.894l0.01,53.994
		c0.002,7.139,5.783,12.899,12.895,12.906c7.126-0.008,12.897-5.771,12.891-12.905l0.001-54.002
		C30.525,79.014,24.747,73.235,17.625,73.24"/>
	<path fill="#FFFFFF" d="M155.939,75.914l-4.74-0.002L35.052,75.928l-4.742,0.001l-0.001-4.742
		c-0.011-19.463,10.593-37.565,27.959-48.26l-6.752-12.325c-0.826-1.445-1.032-3.273-0.553-4.947
		c0.488-1.672,1.642-3.109,3.188-3.932c0.894-0.507,1.985-0.789,3.09-0.787c2.391,0,4.583,1.298,5.737,3.396l7.066,12.874
		c7.314-2.684,15.034-4.051,23.01-4.048c8.092-0.004,15.852,1.366,23.195,4.06l7.057-12.896c1.135-2.093,3.343-3.397,5.73-3.395
		c1.076-0.001,2.146,0.262,3.094,0.771c1.587,0.87,2.694,2.259,3.182,3.943c0.485,1.674,0.29,3.442-0.561,4.976l-6.748,12.318
		c17.34,10.717,27.932,28.807,27.93,48.235L155.939,75.914z"/>
	<path fill="#FFFFFF" d="M121.604,24.753l8.999-16.435c0.48-0.858,0.166-1.958-0.702-2.435c-0.88-0.474-1.966-0.15-2.431,0.713
		l-9.093,16.6c-7.647-3.394-16.21-5.306-25.262-5.297c-9.034-0.007-17.581,1.895-25.206,5.279l-9.1-16.562
		c-0.47-0.874-1.566-1.193-2.422-0.712c-0.876,0.467-1.196,1.564-0.71,2.421l9.004,16.421C46.991,33.872,35.04,51.244,35.049,71.19
		l116.146-0.012C151.198,51.235,139.268,33.899,121.604,24.753 M66.7,50.148c-2.675-0.005-4.854-2.18-4.854-4.866
		c0.001-2.676,2.179-4.875,4.858-4.875c2.692-0.002,4.871,2.199,4.875,4.874C71.58,47.965,69.396,50.147,66.7,50.148
		 M119.585,50.139c-2.685,0.003-4.875-2.17-4.87-4.869c0-2.669,2.182-4.87,4.873-4.879c2.67,0.008,4.861,2.209,4.858,4.882
		C124.448,47.962,122.27,50.14,119.585,50.139"/>
	<path fill="#FFFFFF" d="M71.566,219.311c-9.72-0.001-17.631-7.907-17.633-17.633l-0.005-23.832l-4.631,0.005
		c-4.949,0.001-9.594-1.922-13.085-5.415c-3.496-3.49-5.422-8.139-5.415-13.092l-0.017-83.663l-0.001-4.744l4.741,0.001
		l115.275-0.018l4.742-0.003l0.001,4.741l0.013,83.674c0.001,10.203-8.3,18.506-18.502,18.504l-4.662,0.006l0.006,23.822
		c-0.001,9.721-7.908,17.635-17.624,17.635c-4.71,0.011-9.132-1.82-12.469-5.159c-3.341-3.329-5.18-7.757-5.178-12.464v-23.834
		l-7.924-0.001v23.83C89.198,211.395,81.29,219.312,71.566,219.311"/>
	<path fill="#FFFFFF" d="M35.545,159.344c-0.007,7.62,6.143,13.771,13.755,13.768l9.369,0.001l0.011,28.569
		c-0.003,7.112,5.776,12.895,12.884,12.896c7.125,0,12.896-5.788,12.891-12.905l0.001-28.562l17.408-0.004l-0.002,28.568
		c0.007,7.113,5.792,12.901,12.897,12.889c7.124,0.006,12.899-5.782,12.899-12.9l-0.008-28.561l9.402-0.002
		c7.586,0.002,13.757-6.163,13.757-13.766l-0.014-83.68L35.523,75.675L35.545,159.344z"/>
	<path fill="#FFFFFF" d="M168.681,157.746c-9.726,0.002-17.635-7.9-17.633-17.629l-0.013-53.997
		c0.002-9.726,7.9-17.637,17.621-17.638c9.732-0.001,17.646,7.908,17.645,17.632l0.005,53.994
		C186.309,149.828,178.404,157.748,168.681,157.746"/>
	<path fill="#FFFFFF" d="M168.665,73.223c-7.119-0.005-12.891,5.776-12.889,12.897l0.005,53.995
		c0.004,7.129,5.771,12.896,12.897,12.893c7.119-0.001,12.884-5.765,12.89-12.897l-0.015-53.993
		C181.553,78.994,175.786,73.221,168.665,73.223"/>
	<path fill="#A4C439" d="M17.625,73.24c-7.119-0.003-12.891,5.779-12.893,12.894l0.01,53.994
		c0.002,7.139,5.774,12.899,12.896,12.897c7.125,0.001,12.896-5.763,12.89-12.896l0.001-54.002
		C30.525,79.014,24.747,73.235,17.625,73.24 M121.604,24.753l8.999-16.435c0.48-0.858,0.165-1.952-0.706-2.438
		c-0.878-0.465-1.962-0.149-2.427,0.716l-9.089,16.606c-7.651-3.403-16.209-5.313-25.266-5.304
		c-9.034-0.007-17.589,1.895-25.206,5.279l-9.1-16.562c-0.475-0.874-1.562-1.19-2.422-0.714c-0.876,0.472-1.196,1.567-0.71,2.424
		l9.003,16.422C46.991,33.872,35.04,51.244,35.049,71.19l116.146-0.012C151.198,51.235,139.268,33.899,121.604,24.753 M66.7,50.148
		c-2.675-0.005-4.854-2.18-4.854-4.866c0.001-2.676,2.175-4.875,4.858-4.875c2.692-0.002,4.871,2.199,4.875,4.874
		C71.58,47.965,69.396,50.147,66.7,50.148 M119.585,50.139c-2.685,0.003-4.87-2.174-4.87-4.869c0.009-2.667,2.182-4.87,4.873-4.879
		c2.67,0.008,4.861,2.209,4.858,4.882C124.452,47.962,122.27,50.14,119.585,50.139 M35.523,75.675l0.02,83.677
		c-0.005,7.612,6.15,13.756,13.757,13.757l9.369,0.004l0.011,28.569c-0.003,7.112,5.78,12.896,12.884,12.896
		c7.125,0,12.896-5.788,12.899-12.904l-0.008-28.563l17.408-0.004l0.007,28.568c-0.002,7.109,5.783,12.901,12.889,12.889
		c7.124,0.006,12.899-5.782,12.899-12.9l-0.008-28.561l9.399-0.007c7.59,0.003,13.763-6.149,13.765-13.761L150.8,75.655
		L35.523,75.675z M181.559,86.114c0-7.121-5.772-12.893-12.894-12.891c-7.119-0.005-12.891,5.776-12.889,12.897l0.009,53.995
		c0,7.129,5.768,12.891,12.894,12.893c7.119-0.001,12.888-5.764,12.89-12.897L181.559,86.114z"/>
</g>
</svg>
