<?xml version="1.0" encoding="utf-8"?>
<!-- Generator: Adobe Illustrator 16.0.1, SVG Export Plug-In . SVG Version: 6.00 Build 0)  -->
<!DOCTYPE svg PUBLIC "-//W3C//DTD SVG 1.1//EN" "http://www.w3.org/Graphics/SVG/1.1/DTD/svg11.dtd">
<svg version="1.1" id="Layer_1" xmlns="http://www.w3.org/2000/svg" xmlns:xlink="http://www.w3.org/1999/xlink" x="0px" y="0px"
	 width="156.552px" height="219.201px" viewBox="0 0 156.552 219.201" enable-background="new 0 0 156.552 219.201"
	 xml:space="preserve">
<g>
	<polygon fill="#E44F26" points="15.388,201.596 1.256,43.079 156.552,43.079 142.403,201.57 78.809,219.201 	"/>
	<polygon fill="#F1662A" points="78.904,205.725 130.292,191.479 142.382,56.039 78.904,56.039 	"/>
	<polygon fill="#EBEBEB" points="78.904,114.831 53.178,114.831 51.401,94.923 78.904,94.923 78.904,75.481 78.837,75.481 
		30.153,75.481 30.62,80.697 35.397,134.272 78.904,134.272 	"/>
	<polygon fill="#EBEBEB" points="78.904,165.322 78.818,165.346 57.167,159.499 55.782,143.994 45.261,143.994 36.266,143.994 
		38.989,174.52 78.814,185.575 78.904,185.55 	"/>
	<path fill="#010101" d="M15.704,0h9.88v9.761h9.038V0h9.881v29.56h-9.881v-9.898h-9.037v9.898h-9.879V0H15.704z"/>
	<path fill="#010101" d="M57.495,9.802h-8.698V0h27.281v9.802h-8.702V29.56h-9.881V9.802L57.495,9.802z"/>
	<path fill="#010101" d="M80.407,0h10.302l6.338,10.386L103.377,0h10.307v29.56h-9.84V14.908l-6.797,10.51h-0.171l-6.802-10.51
		V29.56h-9.667V0z"/>
	<path fill="#010101" d="M118.601,0h9.883v19.789h13.894v9.771h-23.776V0z"/>
	<polygon fill="#FFFFFF" points="78.837,114.831 78.837,134.272 102.776,134.272 100.52,159.486 78.837,165.339 78.837,185.566 
		118.692,174.52 118.985,171.234 123.554,120.052 124.028,114.831 118.789,114.831 	"/>
	<polygon fill="#FFFFFF" points="78.837,75.481 78.837,87.556 78.837,94.875 78.837,94.923 125.735,94.923 125.735,94.923 
		125.797,94.923 126.187,90.553 127.072,80.697 127.538,75.481 	"/>
</g>
</svg>
