<?xml version="1.0" encoding="utf-8"?>
<!-- Generator: Adobe Illustrator 16.0.1, SVG Export Plug-In . SVG Version: 6.00 Build 0)  -->
<!DOCTYPE svg PUBLIC "-//W3C//DTD SVG 1.1//EN" "http://www.w3.org/Graphics/SVG/1.1/DTD/svg11.dtd">
<svg version="1.1" id="Layer_1" xmlns="http://www.w3.org/2000/svg" xmlns:xlink="http://www.w3.org/1999/xlink" x="0px" y="0px"
	 width="150.646px" height="192.057px" viewBox="0 0 150.646 192.057" enable-background="new 0 0 150.646 192.057"
	 xml:space="preserve">
<g>
	<path fill="#80132B" d="M0,20.017v170.854c0,0.399,0.036,0.791,0.06,1.186h130.568c11.012,0,20.018-9.008,20.018-20.017V1.187
		c0-0.4-0.038-0.792-0.06-1.187H20.017C9.006,0,0,9.007,0,20.017z"/>
	<path fill="#B42839" d="M3.443,22.731v164.582c0,0.384,0.036,0.762,0.058,1.142H128.1c11.417,0,19.102-7.793,19.102-19.281V4.591
		c0-0.385-0.035-0.762-0.058-1.142H22.545C9.537,3.449,3.443,10.443,3.443,22.731z"/>
	<g>
		<path fill="#FFFFFF" d="M25.536,108.701c-4.469-0.713-8.448-1.417-11.758-2.137c-1.16,3.893-2.265,7.9-3.185,12.081
			c3.201,0.542,7.393,1.002,12.269,1.45C23.67,116.16,24.579,112.373,25.536,108.701z"/>
		<path fill="#FFFFFF" d="M99.625,127.799c-1.066-2.424-2.085-4.841-3.029-7.243c-3.604-0.651-6.898-1.376-11.07-2.153
			c0.873,2.737,1.859,5.518,2.958,8.348C92.745,127.193,96.01,127.533,99.625,127.799z"/>
		<path fill="#FFFFFF" d="M54.374,39.815c-2.694-2.05-5.405-4.076-8.12-6.076c-1.951,2.414-3.832,4.963-5.633,7.629
			c2.91,1.872,5.832,3.777,8.764,5.709C50.979,44.545,52.647,42.121,54.374,39.815z"/>
		<path fill="#FFFFFF" d="M100.012,53.366c-1.366-2.2-2.752-4.406-4.175-6.62c-1.285,1.349-2.494,2.794-3.625,4.333
			c1.641,2.241,3.243,4.48,4.813,6.712C97.946,56.239,98.947,54.761,100.012,53.366z"/>
		<path fill="#FFFFFF" d="M134.601,24.607c0.082-0.864,0.167-1.727,0.258-2.592c-2.402-1.966-4.899-3.764-7.486-5.37
			c0.027,1.174,0.057,2.347,0.093,3.515C129.91,21.467,132.296,22.954,134.601,24.607z"/>
		<path fill="#FFFFFF" d="M78.872,19.769c-1.663-2.234-3.372-4.464-5.135-6.69c-2.558,1.226-5.018,2.645-7.395,4.238
			c2.064,2.207,4.077,4.426,6.048,6.654C74.479,22.408,76.639,21.003,78.872,19.769z"/>
		<path fill="#FFFFFF" d="M105.339,15.114c-0.583-1.851-1.165-3.712-1.749-5.586c-2.891-0.414-5.797-0.593-8.693-0.535
			c0.873,2.039,1.735,4.068,2.59,6.091C100.089,14.886,102.714,14.896,105.339,15.114z"/>
		<path fill="#FFFFFF" d="M35.912,70.624c-3.476-1.513-6.86-2.992-10.115-4.43c-1.264,3.244-2.332,6.547-3.465,10.089
			c3.271,1.288,6.717,2.601,10.33,3.933C33.732,76.925,34.784,73.686,35.912,70.624z"/>
		<path fill="#FFFFFF" d="M81.512,70.481c0.441-1.62,0.9-3.223,1.381-4.796c-0.542,1.516-1.068,3.056-1.56,4.643
			C81.395,70.38,81.454,70.431,81.512,70.481z"/>
		<path fill="#FFFFFF" d="M78.817,95.99c0.023,0.008,0.044,0.018,0.067,0.025c-0.142-2.39-0.191-4.801-0.139-7.217
			c-0.092-0.048-0.184-0.095-0.277-0.142C78.461,91.058,78.581,93.5,78.817,95.99z"/>
		<path fill="#FFFFFF" d="M106.535,38.191c0.788,1.95,1.564,3.893,2.337,5.824c1.429-0.892,2.911-1.68,4.457-2.352
			c-0.562-1.764-1.121-3.538-1.688-5.319C109.889,36.832,108.186,37.45,106.535,38.191z"/>
		<path fill="#FFFFFF" d="M61.754,37.101c-24.886,28.248-34.267,65.79-35.494,102.136c20.973,0,41.104,0,63.067,0
			c-5.759-14.028-8.588-28.482-10.442-43.221c-0.023-0.01-0.044-0.018-0.067-0.025c-0.236-2.49-0.356-4.931-0.349-7.333
			c0.094,0.047,0.186,0.094,0.277,0.142c0.141-6.183,1.159-12.396,2.766-18.317c-0.058-0.05-0.117-0.101-0.179-0.153
			c0.491-1.587,1.018-3.127,1.56-4.643c6.386-23.04,27.387-45.719,58.561-27.329c0.539-1.233,1.094-2.456,1.667-3.677
			C120.603,11.154,82.04,13.452,61.754,37.101z"/>
		<path fill="#FFFFFF" d="M81.982,96.262c3.37,1.44,6.361,2.883,9.597,4.311c-0.459-2.271-0.812-4.52-1.054-6.73
			c-2.952-1.601-5.711-3.208-8.709-4.806C81.771,91.455,81.836,93.866,81.982,96.262z"/>
		<path fill="#FFFFFF" d="M126.901,38.778c1.773-0.025,3.58,0.077,5.406,0.304c0.044-0.857,0.093-1.715,0.148-2.573
			c-1.934-0.524-3.863-0.911-5.782-1.161C126.742,36.496,126.822,37.64,126.901,38.778z"/>
		<path fill="#FFFFFF" d="M85.221,67.574c-0.483,1.575-0.943,3.176-1.383,4.797c2.258,2,4.401,4.011,6.62,6.016
			c0.412-1.994,0.973-3.942,1.565-5.834c-2.042-2.149-4.131-4.3-6.275-6.445C85.564,66.588,85.398,67.086,85.221,67.574z"/>
	</g>
	<linearGradient id="SVGID_1_" gradientUnits="userSpaceOnUse" x1="75.9482" y1="236" x2="77.3564" y2="115.8371">
		<stop  offset="0" style="stop-color:#FFFFFF"/>
		<stop  offset="0.1729" style="stop-color:#D6A06D"/>
		<stop  offset="0.5374" style="stop-color:#9C1C31"/>
		<stop  offset="1" style="stop-color:#161924"/>
	</linearGradient>
	<polygon opacity="0.53" fill="url(#SVGID_1_)" points="76.195,146.167 118.353,188.432 34.66,188.425 	"/>
	<linearGradient id="SVGID_2_" gradientUnits="userSpaceOnUse" x1="12.4141" y1="202.7129" x2="171.2966" y2="-84.4529">
		<stop  offset="0" style="stop-color:#FFFFFF"/>
		<stop  offset="0.1729" style="stop-color:#D6A06D"/>
		<stop  offset="0.5374" style="stop-color:#9C1C31"/>
		<stop  offset="1" style="stop-color:#161924"/>
	</linearGradient>
	<polygon opacity="0.42" fill="url(#SVGID_2_)" points="76.195,146.167 34.602,128.887 17.411,87.258 34.691,45.667 76.318,28.477 
		117.912,45.757 135.103,87.386 117.822,128.977 	"/>
	<linearGradient id="SVGID_3_" gradientUnits="userSpaceOnUse" x1="106.3838" y1="66.5654" x2="178.3032" y2="215.6353">
		<stop  offset="0" style="stop-color:#FFFFFF"/>
		<stop  offset="0.1729" style="stop-color:#D6A06D"/>
		<stop  offset="0.5374" style="stop-color:#9C1C31"/>
		<stop  offset="1" style="stop-color:#161924"/>
	</linearGradient>
	<polygon fill="url(#SVGID_3_)" points="117.822,128.977 135.103,87.386 147.215,118.551 	"/>
	<linearGradient id="SVGID_4_" gradientUnits="userSpaceOnUse" x1="126.5508" y1="91.1924" x2="192.2539" y2="78.6194">
		<stop  offset="0" style="stop-color:#FFFFFF"/>
		<stop  offset="0.1729" style="stop-color:#D6A06D"/>
		<stop  offset="0.5374" style="stop-color:#9C1C31"/>
		<stop  offset="1" style="stop-color:#161924"/>
	</linearGradient>
	<polygon opacity="0.75" fill="url(#SVGID_4_)" points="135.103,87.386 147.15,55.937 147.215,118.551 	"/>
	<linearGradient id="SVGID_5_" gradientUnits="userSpaceOnUse" x1="135.877" y1="187.4033" x2="48.2392" y2="75.0463">
		<stop  offset="0" style="stop-color:#FFFFFF"/>
		<stop  offset="0.1729" style="stop-color:#D6A06D"/>
		<stop  offset="0.5374" style="stop-color:#9C1C31"/>
		<stop  offset="1" style="stop-color:#161924"/>
	</linearGradient>
	<polygon opacity="0.45" fill="url(#SVGID_5_)" points="76.195,146.167 118.353,188.432 117.822,128.977 	"/>
	<linearGradient id="SVGID_6_" gradientUnits="userSpaceOnUse" x1="190.0889" y1="282.7607" x2="102.7483" y2="85.7361">
		<stop  offset="0" style="stop-color:#FFFFFF"/>
		<stop  offset="0.1729" style="stop-color:#D6A06D"/>
		<stop  offset="0.5374" style="stop-color:#9C1C31"/>
		<stop  offset="1" style="stop-color:#161924"/>
	</linearGradient>
	<polygon opacity="0.55" fill="url(#SVGID_6_)" points="147.215,118.551 118.353,188.432 117.841,129.248 	"/>
	<linearGradient id="SVGID_7_" gradientUnits="userSpaceOnUse" x1="97.7363" y1="36.4326" x2="180.5231" y2="-36.5127">
		<stop  offset="0" style="stop-color:#FFFFFF"/>
		<stop  offset="0.1729" style="stop-color:#D6A06D"/>
		<stop  offset="0.5374" style="stop-color:#9C1C31"/>
		<stop  offset="1" style="stop-color:#161924"/>
	</linearGradient>
	<polygon opacity="0.79" fill="url(#SVGID_7_)" points="76.195,28.477 118.344,3.563 117.822,45.667 	"/>
	<linearGradient id="SVGID_8_" gradientUnits="userSpaceOnUse" x1="120.2598" y1="37.4351" x2="162.9041" y2="11.193">
		<stop  offset="0" style="stop-color:#FFFFFF"/>
		<stop  offset="0.1729" style="stop-color:#D6A06D"/>
		<stop  offset="0.5374" style="stop-color:#9C1C31"/>
		<stop  offset="1" style="stop-color:#161924"/>
	</linearGradient>
	<polygon opacity="0.62" fill="url(#SVGID_8_)" points="147.15,55.937 118.344,3.563 117.822,45.667 	"/>
	<linearGradient id="SVGID_9_" gradientUnits="userSpaceOnUse" x1="135.1025" y1="87.3862" x2="135.1025" y2="87.3862">
		<stop  offset="0" style="stop-color:#FFFFFF"/>
		<stop  offset="1" style="stop-color:#9C1C31"/>
	</linearGradient>
	<path fill="url(#SVGID_9_)" d="M135.103,87.386"/>
	<linearGradient id="SVGID_10_" gradientUnits="userSpaceOnUse" x1="99.1992" y1="42.0381" x2="197.8067" y2="5.7955">
		<stop  offset="0" style="stop-color:#FFFFFF"/>
		<stop  offset="0.1729" style="stop-color:#D6A06D"/>
		<stop  offset="0.5374" style="stop-color:#9C1C31"/>
		<stop  offset="1" style="stop-color:#161924"/>
	</linearGradient>
	<polygon fill="url(#SVGID_10_)" points="147.144,3.477 118.344,3.477 147.15,55.937 	"/>
	<linearGradient id="SVGID_11_" gradientUnits="userSpaceOnUse" x1="-26.7979" y1="187.7031" x2="4.5452" y2="164.5011">
		<stop  offset="0" style="stop-color:#FFFFFF"/>
		<stop  offset="0.1729" style="stop-color:#D6A06D"/>
		<stop  offset="0.5374" style="stop-color:#9C1C31"/>
		<stop  offset="1" style="stop-color:#161924"/>
	</linearGradient>
	<polygon opacity="0.27" fill="url(#SVGID_11_)" points="3.512,188.469 34.66,188.425 3.48,119.069 	"/>
	<linearGradient id="SVGID_12_" gradientUnits="userSpaceOnUse" x1="111.6611" y1="75.8325" x2="228.0201" y2="1.7856">
		<stop  offset="0" style="stop-color:#FFFFFF"/>
		<stop  offset="0.1729" style="stop-color:#D6A06D"/>
		<stop  offset="0.5374" style="stop-color:#9C1C31"/>
		<stop  offset="1" style="stop-color:#161924"/>
	</linearGradient>
	<polygon fill="url(#SVGID_12_)" points="135.091,87.165 117.822,45.667 147.15,55.937 	"/>
	<linearGradient id="SVGID_13_" gradientUnits="userSpaceOnUse" x1="-50.7031" y1="169.4209" x2="53.156" y2="87.0498">
		<stop  offset="0" style="stop-color:#FFFFFF"/>
		<stop  offset="0.1729" style="stop-color:#D6A06D"/>
		<stop  offset="0.5374" style="stop-color:#9C1C31"/>
		<stop  offset="1" style="stop-color:#161924"/>
	</linearGradient>
	<polygon opacity="0.27" fill="url(#SVGID_13_)" points="35.15,128.977 17.871,87.386 3.48,119.069 	"/>
	<linearGradient id="SVGID_14_" gradientUnits="userSpaceOnUse" x1="-53.3223" y1="84.6494" x2="40.6728" y2="89.3707">
		<stop  offset="0" style="stop-color:#FFFFFF"/>
		<stop  offset="0.1729" style="stop-color:#D6A06D"/>
		<stop  offset="0.5374" style="stop-color:#9C1C31"/>
		<stop  offset="1" style="stop-color:#161924"/>
	</linearGradient>
	<polygon opacity="0.63" fill="url(#SVGID_14_)" points="17.871,87.386 3.742,55.949 3.48,119.069 	"/>
	<linearGradient id="SVGID_15_" gradientUnits="userSpaceOnUse" x1="32.6465" y1="203.1973" x2="67.8394" y2="102.7671">
		<stop  offset="0" style="stop-color:#FFFFFF"/>
		<stop  offset="0.1729" style="stop-color:#D6A06D"/>
		<stop  offset="0.5374" style="stop-color:#9C1C31"/>
		<stop  offset="1" style="stop-color:#161924"/>
	</linearGradient>
	<polygon opacity="0.35" fill="url(#SVGID_15_)" points="76.195,146.167 34.645,188.414 35.078,129.014 	"/>
	<linearGradient id="SVGID_16_" gradientUnits="userSpaceOnUse" x1="-14.5405" y1="179.5742" x2="26.2311" y2="148.2444">
		<stop  offset="0" style="stop-color:#FFFFFF"/>
		<stop  offset="0.1729" style="stop-color:#D6A06D"/>
		<stop  offset="0.5374" style="stop-color:#9C1C31"/>
		<stop  offset="1" style="stop-color:#161924"/>
	</linearGradient>
	<polygon opacity="0.24" fill="url(#SVGID_16_)" points="3.48,119.069 34.66,188.425 34.934,128.956 	"/>
	<linearGradient id="SVGID_17_" gradientUnits="userSpaceOnUse" x1="89.8311" y1="17.3174" x2="-109.8598" y2="43.843">
		<stop  offset="0" style="stop-color:#FFFFFF"/>
		<stop  offset="0.1729" style="stop-color:#D6A06D"/>
		<stop  offset="0.5374" style="stop-color:#9C1C31"/>
		<stop  offset="1" style="stop-color:#161924"/>
	</linearGradient>
	<polygon opacity="0.47" fill="url(#SVGID_17_)" points="76.778,28.477 34.629,3.563 35.15,45.667 	"/>
	<linearGradient id="SVGID_18_" gradientUnits="userSpaceOnUse" x1="-46.6523" y1="29.7559" x2="-19.5848" y2="29.7559">
		<stop  offset="0" style="stop-color:#FFFFFF"/>
		<stop  offset="0.1729" style="stop-color:#D6A06D"/>
		<stop  offset="0.5374" style="stop-color:#9C1C31"/>
		<stop  offset="1" style="stop-color:#161924"/>
	</linearGradient>
	<polygon opacity="0.8" fill="url(#SVGID_18_)" points="3.742,55.949 34.629,3.563 35.15,45.667 	"/>
	<linearGradient id="SVGID_19_" gradientUnits="userSpaceOnUse" x1="92.0752" y1="16.2529" x2="-49.1406" y2="112.3583">
		<stop  offset="0" style="stop-color:#FFFFFF"/>
		<stop  offset="0.1729" style="stop-color:#D6A06D"/>
		<stop  offset="0.5374" style="stop-color:#9C1C31"/>
		<stop  offset="1" style="stop-color:#161924"/>
	</linearGradient>
	<polygon opacity="0.63" fill="url(#SVGID_19_)" points="17.883,87.165 35.15,45.667 3.742,55.949 	"/>
	<linearGradient id="SVGID_20_" gradientUnits="userSpaceOnUse" x1="73.1509" y1="27.9829" x2="84.8099" y2="-57.6849">
		<stop  offset="0" style="stop-color:#FFFFFF"/>
		<stop  offset="0.1729" style="stop-color:#D6A06D"/>
		<stop  offset="0.5374" style="stop-color:#9C1C31"/>
		<stop  offset="1" style="stop-color:#161924"/>
	</linearGradient>
	<polygon opacity="0.66" fill="url(#SVGID_20_)" points="76.778,28.477 118.344,3.477 34.629,3.477 	"/>
	<linearGradient id="SVGID_21_" gradientUnits="userSpaceOnUse" x1="179.9961" y1="225.0117" x2="96.0655" y2="97.917">
		<stop  offset="0" style="stop-color:#FFFFFF"/>
		<stop  offset="0.1729" style="stop-color:#D6A06D"/>
		<stop  offset="0.5374" style="stop-color:#9C1C31"/>
		<stop  offset="1" style="stop-color:#161924"/>
	</linearGradient>
	<path opacity="0.51" fill="url(#SVGID_21_)" d="M147.201,158.043v-39.461l-28.849,69.85l11.053,0.019
		c8.165,0,17.793-6.253,17.793-19.667L147.201,158.043z"/>
	<linearGradient id="SVGID_22_" gradientUnits="userSpaceOnUse" x1="-64.3008" y1="-46.4951" x2="69.745" y2="76.2986">
		<stop  offset="0" style="stop-color:#FFFFFF"/>
		<stop  offset="0.1729" style="stop-color:#D6A06D"/>
		<stop  offset="0.5374" style="stop-color:#9C1C31"/>
		<stop  offset="1" style="stop-color:#161924"/>
	</linearGradient>
	<path opacity="0.63" fill="url(#SVGID_22_)" d="M3.44,33.979l0.113,22.338l31.075-52.84L19.732,3.673
		c-9.76,0-16.288,6.229-16.288,19.566L3.44,33.979z"/>
	<linearGradient id="SVGID_23_" gradientUnits="userSpaceOnUse" x1="74.1177" y1="90.6787" x2="250.6562" y2="-186.4868">
		<stop  offset="0" style="stop-color:#FFFFFF"/>
		<stop  offset="0.1729" style="stop-color:#D6A06D"/>
		<stop  offset="0.5374" style="stop-color:#9C1C31"/>
		<stop  offset="1" style="stop-color:#161924"/>
	</linearGradient>
	<polygon opacity="0.67" fill="url(#SVGID_23_)" points="76.253,146.075 34.659,128.795 17.469,87.167 34.748,45.576 76.376,28.385 
		117.97,45.665 135.16,87.294 117.88,128.885 	"/>
	<linearGradient id="SVGID_24_" gradientUnits="userSpaceOnUse" x1="53.5684" y1="254.6953" x2="85.6106" y2="162.132">
		<stop  offset="0" style="stop-color:#FFFFFF"/>
		<stop  offset="0.1729" style="stop-color:#D6A06D"/>
		<stop  offset="0.5374" style="stop-color:#9C1C31"/>
		<stop  offset="1" style="stop-color:#161924"/>
	</linearGradient>
	<polygon opacity="0.34" fill="url(#SVGID_24_)" points="76.508,146.204 118.353,188.432 34.66,188.425 	"/>
	<g>
		<rect x="52.342" y="157.783" fill="none" width="6.836" height="7.531"/>
		<rect x="22.586" y="157.783" fill="none" width="6.88" height="5.672"/>
		<path fill="#FFFFFF" d="M36.906,161.642v-3.858c0-4.139-3.35-7.439-7.487-7.439H15.191v27.896h7.44v-8.183l6.184,8.183h8.881
			l-6.977-9.252C34.256,168.385,36.906,165.363,36.906,161.642z M29.466,163.455h-6.88v-5.672h6.88V163.455z"/>
		<path fill="#FFFFFF" d="M59.129,150.344h-6.787c-4.138,0-7.438,3.301-7.438,7.439v20.457h7.438v-5.484h6.836v5.484h7.438v-20.409
			C66.616,153.691,63.27,150.344,59.129,150.344z M59.178,165.314h-6.836v-7.531h6.836V165.314z"/>
		<rect x="74.752" y="150.344" fill="#FFFFFF" width="7.486" height="27.896"/>
		<polygon fill="#FFFFFF" points="97.859,150.344 90.375,150.344 90.375,178.24 108.972,178.24 108.972,170.803 97.859,170.803 		
			"/>
		<path fill="#FFFFFF" d="M127.663,160.341h-6.789v-3.022h12.879v-6.975h-12.879c-4.138,0-7.487,3.348-7.487,7.487v2.556
			c0,4.138,3.396,7.393,7.535,7.393h6.788v3.486h-13.808v6.975h13.808c4.139,0,7.438-3.301,7.438-7.438v-3.023
			C135.148,163.642,131.802,160.341,127.663,160.341z"/>
	</g>
</g>
</svg>
