<?xml version="1.0" encoding="utf-8"?>
<!-- Generator: Adobe Illustrator 16.0.3, SVG Export Plug-In . SVG Version: 6.00 Build 0)  -->
<!DOCTYPE svg PUBLIC "-//W3C//DTD SVG 1.1//EN" "http://www.w3.org/Graphics/SVG/1.1/DTD/svg11.dtd">
<svg version="1.1" id="Layer_1" xmlns="http://www.w3.org/2000/svg" xmlns:xlink="http://www.w3.org/1999/xlink" x="0px" y="0px"
	 width="154.895px" height="292.329px" viewBox="0 0 154.895 292.329" enable-background="new 0 0 154.895 292.329"
	 xml:space="preserve">
<g>
	<g>
		<g>
			<path fill="#859E3C" d="M113.098,49.834c0,9.262-3.088,12.789-12.347,12.789h-47.63c-9.262,0-12.792-3.527-12.792-12.789V13.231
				C40.329,3.969,43.859,0,53.121,0h47.63c9.259,0,12.347,3.969,12.347,13.231V49.834z"/>
		</g>
	</g>
	<g>
		<polygon fill="#859E3C" points="0,116.475 42.565,155.823 42.58,142.441 20.979,117.801 47.444,92.57 47.444,292.329 
			60.978,292.329 76.951,171.676 96.433,291.527 108.076,291.527 108.351,93.641 135.668,116.802 112.107,142.544 112.107,156.134 
			154.895,116.515 107.349,70.815 46.816,70.815 		"/>
	</g>
</g>
</svg>
