<?xml version="1.0" encoding="utf-8"?>
<!-- Generator: Adobe Illustrator 16.0.3, SVG Export Plug-In . SVG Version: 6.00 Build 0)  -->
<!DOCTYPE svg PUBLIC "-//W3C//DTD SVG 1.1//EN" "http://www.w3.org/Graphics/SVG/1.1/DTD/svg11.dtd">
<svg version="1.1" id="Layer_1" xmlns="http://www.w3.org/2000/svg" xmlns:xlink="http://www.w3.org/1999/xlink" x="0px" y="0px"
	 width="153.891px" height="528.574px" viewBox="0 0 153.891 528.574" enable-background="new 0 0 153.891 528.574"
	 xml:space="preserve">
<g>
	<g>
		<polygon fill="#859E3C" points="153.891,284.063 107.35,328.854 107.35,329.894 107.07,527.773 95.43,527.773 75.95,407.924 
			59.98,528.574 46.439,528.574 46.439,329.623 0,284.023 36.54,244.403 36.54,257.994 19.23,283.733 46.54,306.894 46.54,307.063 
			107.35,307.063 107.35,307.104 132.91,282.733 116.449,258.094 116.449,244.713 		"/>
	</g>
	<g>
		<g>
			<path fill="#859E3C" d="M112.387,287.082c0,9.261-3.084,12.789-12.348,12.789H52.413c-9.259,0-12.79-3.528-12.79-12.789V250.48
				c0-9.26,3.531-13.229,12.79-13.229h47.626c9.264,0,12.348,3.969,12.348,13.229V287.082z M106.215,202.854
				c-0.883,9.261-3.088,13.23-12.35,13.23H59.91c-9.258,0-11.906-3.97-12.789-13.23l-7.055-74.967V13.231
				C40.066,3.971,43.594,0,52.856,0h48.065c9.26,0,12.348,3.971,12.348,13.231v114.656L106.215,202.854z"/>
		</g>
	</g>
</g>
</svg>
