<?xml version="1.0" encoding="utf-8"?>
<!-- Generator: Adobe Illustrator 16.0.3, SVG Export Plug-In . SVG Version: 6.00 Build 0)  -->
<!DOCTYPE svg PUBLIC "-//W3C//DTD SVG 1.1//EN" "http://www.w3.org/Graphics/SVG/1.1/DTD/svg11.dtd">
<svg version="1.1" id="Layer_1" xmlns="http://www.w3.org/2000/svg" xmlns:xlink="http://www.w3.org/1999/xlink" x="0px" y="0px"
	 width="213.451px" height="533.12px" viewBox="0 0 213.451 533.12" enable-background="new 0 0 213.451 533.12"
	 xml:space="preserve">
<g>
	<g>
		<g>
			<path fill="#859E3C" d="M213.451,75.41v15c0,45.42-22.93,64.39-42.781,73.21l-26.02,11.46c-13.67,6.18-16.75,9.26-16.75,22.05
				v9.71c0,9.26-3.09,12.79-12.35,12.79H67.92c-9.26,0-12.79-3.53-12.79-12.79v-28.67c0-23.82,11.91-31.31,26.9-38.81l45.42-22.93
				c7.061-3.53,14.119-8.82,14.119-23.38v-6.17c0-20.29-15-28.67-35.73-28.67c-20.719,0-35.279,8.38-35.279,28.67v15.88
				c0,9.26-3.08,13.23-12.351,13.23H12.79C3.53,115.99,0,112.02,0,102.76V75.41C0,37.49,26.46,0,105.839,0
				C185.23,0,213.011,37.49,213.451,75.41z"/>
			<path fill="#859E3C" d="M127.9,254.03v36.6c0,9.26-3.09,12.791-12.35,12.791H67.92c-9.26,0-12.79-3.531-12.79-12.791v-36.6
				c0-9.27,3.53-13.24,12.79-13.24h47.63C124.81,240.79,127.9,244.761,127.9,254.03z"/>
		</g>
	</g>
	<g>
		<polygon fill="#859E3C" points="170.589,287.771 123.15,333.431 123.15,334.44 122.871,532.32 111.23,532.32 91.75,412.47 
			75.77,533.12 62.24,533.12 62.24,333.36 35.78,358.601 57.38,383.24 57.359,396.62 14.801,357.271 61.609,311.61 123.15,311.61 
			123.15,311.671 149.611,286.44 133.15,261.8 133.15,248.421 		"/>
	</g>
</g>
</svg>
