<?xml version="1.0" encoding="utf-8"?>
<!-- Generator: Adobe Illustrator 16.0.1, SVG Export Plug-In . SVG Version: 6.00 Build 0)  -->
<!DOCTYPE svg PUBLIC "-//W3C//DTD SVG 1.1//EN" "http://www.w3.org/Graphics/SVG/1.1/DTD/svg11.dtd">
<svg version="1.1" id="Layer_1" xmlns="http://www.w3.org/2000/svg" xmlns:xlink="http://www.w3.org/1999/xlink" x="0px" y="0px"
	 width="235.02px" height="460.797px" viewBox="0 0 235.02 460.797" enable-background="new 0 0 235.02 460.797"
	 xml:space="preserve">
<g>
	<path fill="#BFD530" d="M231.32,41.139c-0.02-0.91-0.069-1.81-0.149-2.7c-0.061-0.59-0.13-1.17-0.21-1.75
		c0-0.04-0.01-0.09-0.021-0.13c-2.08-14.53-12.439-24.83-26.449-27.23c-0.4-0.08-0.811-0.14-1.221-0.2
		c-1.55-0.23-3.14-0.35-4.75-0.35H40.45c-18.05,0-32.82,14.77-32.82,32.82v382.22c0,18.05,14.77,32.82,32.82,32.82h158.07
		c18.04,0,32.811-14.771,32.811-32.82V42.059C231.33,41.749,231.33,41.448,231.32,41.139z M103.26,41.198h32.44
		c2.51,0,4.55,2.04,4.55,4.54s-2.04,4.54-4.55,4.54h-32.44c-2.5,0-4.54-2.03-4.54-4.54C98.72,43.238,100.76,41.198,103.26,41.198z
		 M218.85,378.988H20.11v-295.8h198.74V378.988z"/>
	<g>
		<path fill="#BFD530" d="M200.83,4.158h-5.33v-1.02h0.01c0,0-0.37-1.96-1.63-1.96h-33.3c-1.34,0-1.41,1.96-1.41,1.96v1.02H38.14
			c-19.32,0-35.13,15.8-35.13,35.12v6.83H1.97c0,0-1.34,0.06-1.34,1.25v19.31c0,1.52,1.34,1.52,1.34,1.52v-0.01h1.04v26.19H1.89
			c0,0-1.42,0-1.42,1.3v13.45c0,1.57,1.42,1.57,1.42,1.57v-0.01h1.12v27.74H2.72c0,0-1.42,0-1.42,1.3v13.45
			c0,0.79,0.35,1.18,0.71,1.37c0.36,0.2,0.71,0.2,0.71,0.2h0.29v270.93c0,19.32,15.81,35.131,35.13,35.131h162.69
			c19.319,0,35.12-15.811,35.12-35.131V39.278C235.95,19.958,220.15,4.158,200.83,4.158z M231.33,423.818
			c0,18.05-14.771,32.82-32.811,32.82H40.45c-18.05,0-32.82-14.771-32.82-32.82V41.599c0-18.05,14.77-32.82,32.82-32.82h158.07
			c1.61,0,3.2,0.12,4.75,0.35c0.41,0.06,0.82,0.12,1.221,0.2c14.01,2.4,24.369,12.7,26.449,27.23c0.011,0.04,0.021,0.09,0.021,0.13
			c0.08,0.58,0.149,1.16,0.21,1.75c0.08,0.89,0.13,1.79,0.149,2.7c0.011,0.31,0.011,0.61,0.011,0.92V423.818z"/>
	</g>
	<path fill="#859E3C" d="M231.32,41.139c-0.02-0.91-0.069-1.81-0.149-2.7c-0.061-0.59-0.13-1.17-0.21-1.75
		c0-0.04-0.01-0.09-0.021-0.13c-2.14-13.72-12.859-24.71-26.449-27.23c-0.4-0.08-0.811-0.14-1.221-0.2
		c-1.55-0.23-3.14-0.35-4.75-0.35H40.45c-18.05,0-32.82,14.77-32.82,32.82v382.22c0,18.05,14.77,32.82,32.82,32.82h158.07
		c18.04,0,32.811-14.771,32.811-32.82V42.059C231.33,41.749,231.33,41.448,231.32,41.139z M103.26,41.198h32.44
		c2.51,0,4.55,2.04,4.55,4.54s-2.04,4.54-4.55,4.54h-32.44c-2.5,0-4.54-2.03-4.54-4.54C98.72,43.238,100.76,41.198,103.26,41.198z
		 M218.85,378.988H20.11v-295.8h198.74V378.988z"/>
	<path fill="#BFD530" d="M139.602,420.385c0,11.107-9.008,20.113-20.119,20.113c-11.109,0-20.12-9.006-20.12-20.113
		c0-11.112,9.011-20.119,20.12-20.119C130.594,400.266,139.602,409.271,139.602,420.385z"/>
	<g>
		<path fill="#859E3C" d="M123.26,413.309h-7.56c-1.81,0-3.29,1.479-3.29,3.29v7.56c0,1.82,1.48,3.3,3.29,3.3h7.56
			c1.82,0,3.3-1.479,3.3-3.3v-7.56C126.56,414.788,125.08,413.309,123.26,413.309z M125.24,424.158c0,1.101-0.891,1.98-1.98,1.98
			h-7.56c-1.09,0-1.97-0.88-1.97-1.98v-7.55c0-1.09,0.88-1.979,1.97-1.979h7.56c1.09,0,1.98,0.89,1.98,1.979V424.158z"/>
	</g>
	<g>
		<circle fill="#BFD530" cx="81.155" cy="45.739" r="5.019"/>
		<g>
			<circle opacity="0.69" fill="#859E3C" enable-background="new    " cx="81.154" cy="45.739" r="2.586"/>
			<path opacity="0.19" fill="#859E3C" enable-background="new    " d="M81.16,43.218c-1.4,0-2.52,1.13-2.52,2.52
				c0,1.39,1.12,2.52,2.52,2.52c1.39,0,2.51-1.13,2.51-2.52C83.67,44.349,82.55,43.218,81.16,43.218z M81.16,47.349
				c-0.23,0-0.45-0.05-0.65-0.14c-0.57-0.24-0.97-0.81-0.97-1.47c0-0.66,0.4-1.23,0.97-1.47c0.2-0.09,0.42-0.14,0.65-0.14
				c0.55,0,1.03,0.27,1.31,0.69c0.18,0.26,0.29,0.58,0.29,0.92c0,0.34-0.11,0.66-0.29,0.92C82.19,47.079,81.71,47.349,81.16,47.349z
				"/>
			<path opacity="0.5" fill="#859E3C" enable-background="new    " d="M82.113,45.739c0,0.53-0.43,0.956-0.957,0.956
				c-0.53,0-0.959-0.426-0.959-0.956c0-0.532,0.429-0.959,0.959-0.959C81.684,44.78,82.113,45.207,82.113,45.739z"/>
			<path opacity="0.25" fill="#859E3C" enable-background="new    " d="M81.031,45.739c0,0.952-0.479,1.722-1.075,1.723
				c-0.59,0-1.076-0.771-1.072-1.723c-0.004-0.952,0.477-1.724,1.072-1.725S81.031,44.788,81.031,45.739z"/>
			<path opacity="0.25" fill="#859E3C" enable-background="new    " d="M83.471,45.739c0,0.694-0.27,1.258-0.602,1.262
				c-0.33,0-0.603-0.567-0.601-1.262c0-0.698,0.271-1.261,0.601-1.262C83.205,44.479,83.471,45.041,83.471,45.739z"/>
		</g>
	</g>
	<g>
		<g>
			<path fill="#BFD530" d="M122.38,50.278h-19.12c-2.5,0-4.54-2.03-4.54-4.54c0-2.5,2.04-4.54,4.54-4.54h16.38l0.32,1.05l0.46,1.54
				l1.18,3.9l0.46,1.54L122.38,50.278z"/>
		</g>
		<g>
			<path fill="#BFD530" d="M140.25,45.738c0,2.5-2.04,4.54-4.55,4.54h-13.32l-0.32-1.05l-0.46-1.54l-1.18-3.9l-0.46-1.54l-0.32-1.05
				H135.7C138.21,41.198,140.25,43.238,140.25,45.738z"/>
		</g>
	</g>
</g>
</svg>
