<?xml version="1.0" encoding="utf-8"?>
<!-- Generator: Adobe Illustrator 16.0.3, SVG Export Plug-In . SVG Version: 6.00 Build 0)  -->
<!DOCTYPE svg PUBLIC "-//W3C//DTD SVG 1.1//EN" "http://www.w3.org/Graphics/SVG/1.1/DTD/svg11.dtd">
<svg version="1.1" id="Layer_1" xmlns="http://www.w3.org/2000/svg" xmlns:xlink="http://www.w3.org/1999/xlink" x="0px" y="0px"
	 width="227.509px" height="171.374px" viewBox="26.046 36.413 227.509 171.374"
	 enable-background="new 26.046 36.413 227.509 171.374" xml:space="preserve">
<g>
	
		<path fill="#A4CA39" stroke="#3B5024" stroke-width="10" stroke-linecap="round" stroke-linejoin="round" stroke-miterlimit="10" d="
		M248.555,202.787c-38.695-70.528-81.596-114.15-96.768-128.311c-1.545-14.868-4.779-26.219-8.765-30.293
		c-0.399-0.417-0.778-0.76-1.196-1.033l-2.029-1.737l-2.041,1.737c-0.4,0.273-0.801,0.615-1.178,1.034
		c-4.002,4.093-7.228,15.429-8.785,30.291c-15.152,14.182-58.051,57.784-96.748,128.312
		C102.954,190.818,176.616,190.819,248.555,202.787z"/>
	
		<radialGradient id="SVGID_1_" cx="-1282.4834" cy="3739.5371" r="87.1311" gradientTransform="matrix(1 0 0 1 1422 -3616.0645)" gradientUnits="userSpaceOnUse">
		<stop  offset="0" style="stop-color:#EDE823"/>
		<stop  offset="1" style="stop-color:#EDE823;stop-opacity:0"/>
	</radialGradient>
	<path opacity="0.3" fill="url(#SVGID_1_)" enable-background="new    " d="M238.555,196.787
		c-38.695-70.528-74.596-104.15-89.768-118.311c-1.545-14.868-7.906-22.345-6.836-28.318c-3.242,6.37-1.752,0.669-2.17,0.396l0,0
		l0,0c-0.4,0.273-3.005,1.576-3.382,1.995c0.271,5.354-0.187,11.699-5.138,25.339c-15.153,14.182-52.088,48.14-90.784,118.667
		C112.386,184.586,166.616,184.819,238.555,196.787z"/>
</g>
</svg>
