<?xml version="1.0" encoding="utf-8"?>
<!-- Generator: Adobe Illustrator 16.0.3, SVG Export Plug-In . SVG Version: 6.00 Build 0)  -->
<!DOCTYPE svg PUBLIC "-//W3C//DTD SVG 1.1//EN" "http://www.w3.org/Graphics/SVG/1.1/DTD/svg11.dtd">
<svg version="1.1" id="Layer_1" xmlns="http://www.w3.org/2000/svg" xmlns:xlink="http://www.w3.org/1999/xlink" x="0px" y="0px"
	 width="522.26px" height="1054.723px" viewBox="39.63 36.413 522.26 1054.723"
	 enable-background="new 39.63 36.413 522.26 1054.723" xml:space="preserve">
<path fill="#A4CA39" stroke="#3B5024" stroke-width="10" stroke-linecap="round" stroke-linejoin="round" stroke-miterlimit="10" d="
	M300.286,747.667c-22.056,0-44.072-1.559-65.946-4.455c-7.896-1.07-15.793-2.246-23.649-3.678
	c4.346,14.18,9.526,28.158,15.862,41.756l2.155,4.617l4.94,1.25c14.977,3.73,30.278,5.758,45.667,6.953
	c6.994,0.525,13.982,1.287,21.004,1.287c7.027,0,14-0.762,21.009-1.287c15.389-1.195,30.709-3.205,45.666-6.953l4.943-1.25
	l2.153-4.635c6.318-13.617,11.498-27.598,15.861-41.756c-7.838,1.43-15.752,2.59-23.65,3.656
	C344.414,746.089,322.34,747.667,300.286,747.667z"/>
<path fill="#A4CA39" stroke="#3B5024" stroke-width="10" stroke-linecap="round" stroke-linejoin="round" stroke-miterlimit="10" d="
	M160.89,719.126l-16.33,4.9l-99.93,29.959v-160.33l61.51-91.85c0.56,10.83,1.43,21.61,2.59,32.341c0.07,0.649,0.14,1.289,0.21,1.931
	c6.27,55.989,20.86,110.639,43.32,163.299c2.64,6.17,5.18,12.4,8.06,18.521L160.89,719.126z"/>
<path fill="#A4CA39" stroke="#3B5024" stroke-width="10" stroke-linecap="round" stroke-linejoin="round" stroke-miterlimit="10" d="
	M409.076,202.787c-38.695-70.528-81.594-114.15-96.767-128.31c-1.545-14.868-4.778-26.219-8.765-30.293
	c-0.4-0.417-0.778-0.76-1.196-1.033l-2.029-1.738l-2.042,1.738c-0.4,0.273-0.801,0.615-1.178,1.034
	c-4.001,4.093-7.227,15.428-8.784,30.291c-15.153,14.181-58.052,57.784-96.748,128.312
	C263.476,190.818,337.137,190.819,409.076,202.787z"/>
<path fill="#A4CA39" stroke="#3B5024" stroke-width="10" stroke-linecap="round" stroke-linejoin="round" stroke-miterlimit="10" d="
	M424.848,233.506c-1.938-4.074-3.91-7.948-5.889-11.877c-78.275-14.65-159.052-14.65-237.314,0
	c-1.954,3.929-3.963,7.803-5.865,11.877c-35.42,74.911-53.382,154.854-53.382,237.696c0,82.858,18.001,163.418,53.437,239.489
	l1.935,4.184l4.512,1.121c38.53,9.688,78.239,14.576,118.005,14.576c0.017,0,0.017,0,0.017,0c39.765,0,79.508-4.906,118.079-14.596
	l4.49-1.123l1.955-4.182c35.418-76.016,53.383-156.576,53.383-239.47C478.209,388.36,460.266,308.398,424.848,233.506z"/>
<radialGradient id="SVGID_1_" cx="296.8223" cy="350.1152" r="63.216" gradientTransform="matrix(1 0 0 -1 0 1116.6084)" gradientUnits="userSpaceOnUse">
	<stop  offset="0" style="stop-color:#EDE823"/>
	<stop  offset="1" style="stop-color:#EDE823;stop-opacity:0"/>
</radialGradient>
<path opacity="0.3" fill="url(#SVGID_1_)" enable-background="new    " d="M300.286,752.667c-22.056,0-44.072-1.559-65.946-4.455
	c-7.896-1.07-15.793-4.246-23.649-5.678c4.346,14.18,9.526,25.158,15.862,38.756l3.155,1.617l3.94,0.25
	c15.036,3.746,30.215,4.752,45.667,5.953c6.994,0.525,13.982,1.287,21.004,1.287c7.027,0,14,0.238,21.009-0.287
	c15.389-1.195,22.709-2.205,37.666-5.953l8.943-2.25l6.515-14.303c6.317-13.615,4.138-8.93,8.501-23.088
	c-8.306,1.516-8.895,2.607-16.65,3.656C344.414,751.089,322.34,752.667,300.286,752.667z"/>
<radialGradient id="SVGID_2_" cx="300.0381" cy="993.1362" r="87.1308" gradientTransform="matrix(1 0 0 -1 0 1116.6084)" gradientUnits="userSpaceOnUse">
	<stop  offset="0" style="stop-color:#EDE823"/>
	<stop  offset="1" style="stop-color:#EDE823;stop-opacity:0"/>
</radialGradient>
<path opacity="0.3" fill="url(#SVGID_2_)" enable-background="new    " d="M399.076,196.787
	c-38.695-70.528-74.594-104.15-89.767-118.31c-1.545-14.868-7.907-22.345-6.835-28.319c-3.242,6.371-1.753,0.669-2.171,0.396l0,0
	l0,0c-0.4,0.273-3.004,1.576-3.381,1.995c0.27,5.354-0.186,11.699-5.138,25.339C276.631,92.069,239.696,126.026,201,196.554
	C272.908,184.586,327.137,184.819,399.076,196.787z"/>
<radialGradient id="SVGID_3_" cx="300.3047" cy="646.0015" r="222.7475" gradientTransform="matrix(1 0 0 -1 0 1116.6084)" gradientUnits="userSpaceOnUse">
	<stop  offset="0" style="stop-color:#EDE823"/>
	<stop  offset="1" style="stop-color:#EDE823;stop-opacity:0"/>
</radialGradient>
<path opacity="0.3" fill="url(#SVGID_3_)" enable-background="new    " d="M424.848,233.506c-1.938-4.074-3.91-7.948-5.889-11.877
	c-78.275-14.65-159.052-14.65-237.314,0c-1.954,3.929-3.963,7.803-5.865,11.877c-35.42,74.911-53.382,154.854-53.382,237.696
	c0,82.858,18.001,163.418,53.437,239.489l1.935,4.184l4.512,1.121c38.53,9.688,78.239,14.576,118.005,14.576
	c0.017,0,0.017,0,0.017,0c39.765,0,79.508-4.906,118.079-14.596l4.49-1.123l1.955-4.182c35.418-76.016,53.383-156.576,53.383-239.47
	C478.209,388.36,460.266,308.398,424.848,233.506z"/>
<g>
	<g id="eye_8_">
		<path fill="#F4ED6C" d="M401.436,395.509c0,36.611-18.243,66.279-40.741,66.279c-22.494,0-35.371-29.103-35.371-65.711
			c0-36.604,12.877-66.844,35.371-66.844C383.191,329.233,401.436,358.907,401.436,395.509z"/>
		<path fill="#89A43C" d="M378.541,399.022c0,36.604,5.16,64.848-17.848,62.767c-22.398-2.02-44.259-29.102-44.259-65.711
			c0-36.604,21.765-66.844,44.259-66.844C370.764,329.233,378.541,362.417,378.541,399.022z"/>
		<path fill="#012E22" d="M393.141,396.077c0,36.288-15.184,65.711-33.909,65.711c-18.724,0-33.908-29.423-33.908-65.711
			c0-36.292,15.186-65.712,33.908-65.712C377.957,330.365,393.141,359.786,393.141,396.077z"/>
		<path fill="#F4FAED" d="M379.768,351.832c4.58,8.473,4.4,17.409-0.352,19.969c-4.758,2.567-12.303-2.219-16.865-10.685
			c-4.561-8.46-4.403-17.394,0.355-19.966C367.664,338.598,375.223,343.37,379.768,351.832z"/>
		<path fill="#B5CE34" d="M336.818,430.02c0,0,12.373,37.284,32.086,23.196C388.615,439.127,359.684,467.608,336.818,430.02z"/>
	</g>
	<g id="eye_7_">
		<path fill="#F4ED6C" d="M311.293,387.791c0,38.949-19.404,70.5-43.339,70.5c-23.922,0-37.628-30.955-37.628-69.898
			c0-38.937,13.706-71.109,37.628-71.109C291.889,317.284,311.293,348.848,311.293,387.791z"/>
		<path fill="#89A43C" d="M286.949,391.525c0,38.944,5.484,68.989-18.996,66.766c-23.826-2.142-47.084-30.944-47.084-69.898
			c0-38.937,23.162-71.109,47.084-71.109C278.67,317.284,286.949,352.586,286.949,391.525z"/>
		<path fill="#012E22" d="M302.475,388.394c0,38.61-16.156,69.898-36.078,69.898c-19.916,0-36.071-31.288-36.071-69.898
			c0-38.605,16.155-69.905,36.071-69.905C286.318,318.489,302.475,349.789,302.475,388.394z"/>
		<path fill="#F4FAED" d="M288.258,341.334c4.854,9.003,4.67,18.514-0.383,21.231c-5.064,2.729-13.092-2.355-17.948-11.37
			c-4.843-8.989-4.685-18.5,0.377-21.229C275.363,327.235,283.408,332.321,288.258,341.334z"/>
		<path fill="#B5CE34" d="M240.227,418.943c0,0,13.94,42.005,36.148,26.126C298.584,429.195,265.988,461.276,240.227,418.943z"/>
	</g>
</g>
<path fill="#A4CA39" stroke="#3B5024" stroke-width="10" stroke-linecap="round" stroke-linejoin="round" stroke-miterlimit="10" d="
	M347.936,803.777c7.836,10.5,12.685,24.352,12.685,41.65c-0.002,0.76-0.323,1.588-0.37,2.348
	c-2.064,41.541-59.917,97.32-59.917,97.32s-57.852-55.781-59.918-97.32c-0.049-0.76-0.392-1.588-0.39-2.348
	c-0.002-17.318,4.845-31.15,12.68-41.648c-28.418,14.428-45.904,42.203-45.902,78.361c0,51.93,74.531,173.439,83.03,187.137
	l10.498,16.859l10.478-16.865c8.5-13.693,83.033-135.201,83.033-187.131C393.839,846.003,376.354,818.208,347.936,803.777z"/>
<path fill="#89A43C" d="M184.645,225.628c0,0-105.994,299.467,36.225,493.397l-39.589-8.031
	C181.281,710.996,57.667,490.554,184.645,225.628z"/>
<polyline fill="#89A43C" points="213.079,744.955 228.708,781.908 254.172,786.255 240.227,748.955 "/>
<radialGradient id="SVGID_4_" cx="98.1499" cy="484.7969" r="92.2077" gradientTransform="matrix(0.9539 0 0 -0.9774 7.1188 1106.6476)" gradientUnits="userSpaceOnUse">
	<stop  offset="0" style="stop-color:#EDE823"/>
	<stop  offset="1" style="stop-color:#EDE823;stop-opacity:0"/>
</radialGradient>
<path opacity="0.3" fill="url(#SVGID_4_)" enable-background="new    " d="M152.821,716.554l-14.629,4.496l-89.524,27.504V596.376
	l55.105-79.316c0.501,9.941,1.281,19.838,2.32,29.688c0.062,0.597,0.125,1.184,0.188,1.771
	c5.617,51.396,18.688,101.564,38.809,149.904c2.365,5.664,4.641,11.383,7.221,17L152.821,716.554z"/>
<path fill="#89A43C" d="M154.89,716.126l-16.33,3.9c0,0-52.48-72.824-42.64-192.825l6.852-11.143
	c0.07,0.65,1.098,16.376,1.168,17.018c6.27,55.989,19.86,110.639,42.32,163.299c2.64,6.17,5.18,12.4,8.06,18.521L154.89,716.126z"/>
<path fill="#A4CA39" stroke="#3B5024" stroke-width="10" stroke-linecap="round" stroke-linejoin="round" stroke-miterlimit="10" d="
	M440.629,719.126l16.33,4.9l99.931,29.959v-160.33l-61.511-91.85c-0.56,10.83-1.43,21.61-2.59,32.341
	c-0.069,0.649-0.14,1.289-0.209,1.931c-6.271,55.989-20.86,110.639-43.32,163.299c-2.641,6.17-5.18,12.4-8.061,18.521
	L440.629,719.126z"/>
<radialGradient id="SVGID_5_" cx="-315.9395" cy="484.7969" r="92.2075" gradientTransform="matrix(-0.9539 0 0 -0.9774 199.4008 1106.6476)" gradientUnits="userSpaceOnUse">
	<stop  offset="0" style="stop-color:#EDE823"/>
	<stop  offset="1" style="stop-color:#EDE823;stop-opacity:0"/>
</radialGradient>
<path opacity="0.3" fill="url(#SVGID_5_)" enable-background="new    " d="M448.699,716.554l14.629,4.496l89.523,27.504V597.376
	l-55.104-80.316c-0.502,9.941-1.281,19.838-2.32,29.688c-0.062,0.597-0.126,1.184-0.188,1.771
	c-5.617,51.396-18.688,101.564-38.811,149.904c-2.363,5.664-4.641,11.383-7.221,17L448.699,716.554z"/>
<path fill="#89A43C" d="M446.629,716.126l16.33,3.9c0,0,52.48-72.824,42.641-192.825l-6.852-11.143
	c-0.07,0.65-1.099,16.376-1.168,17.018c-6.271,55.989-19.86,110.639-42.32,163.299c-2.641,6.17-5.18,12.4-8.061,18.521
	L446.629,716.126z"/>
</svg>
