<?xml version="1.0" encoding="utf-8"?>
<!-- Generator: Adobe Illustrator 16.0.3, SVG Export Plug-In . SVG Version: 6.00 Build 0)  -->
<!DOCTYPE svg PUBLIC "-//W3C//DTD SVG 1.1//EN" "http://www.w3.org/Graphics/SVG/1.1/DTD/svg11.dtd">
<svg version="1.1" id="Layer_1" xmlns="http://www.w3.org/2000/svg" xmlns:xlink="http://www.w3.org/1999/xlink" x="0px" y="0px"
	 width="522.26px" height="1436.097px" viewBox="51.047 11.399 522.26 1436.097"
	 enable-background="new 51.047 11.399 522.26 1436.097" xml:space="preserve">
<path fill="#A4CA39" stroke="#3B5024" stroke-width="10" stroke-linecap="round" stroke-linejoin="round" stroke-miterlimit="10" d="
	M311.704,1104.03c-22.059,0-44.073-1.561-65.946-4.455c-7.896-1.068-15.793-2.246-23.649-3.679
	c4.347,14.181,9.526,28.158,15.862,41.757l2.154,4.616l4.94,1.25c14.978,3.729,30.278,5.759,45.667,6.953
	c6.994,0.522,13.98,1.286,21.005,1.286c7.025,0,14-0.764,21.01-1.286c15.389-1.194,30.709-3.205,45.666-6.953l4.943-1.25l2.15-4.636
	c6.316-13.616,11.498-27.6,15.859-41.758c-7.838,1.433-15.752,2.592-23.648,3.656C355.833,1102.452,333.758,1104.03,311.704,1104.03
	z"/>
<path fill="#A4CA39" stroke="#3B5024" stroke-width="10" stroke-linecap="round" stroke-linejoin="round" stroke-miterlimit="10" d="
	M172.308,1075.489l-16.33,4.899l-99.931,29.959v-160.33l61.511-91.853c0.56,10.83,1.43,21.608,2.59,32.344
	c0.07,0.646,0.14,1.287,0.21,1.931c6.27,55.989,20.86,110.64,43.32,163.3c2.64,6.17,5.18,12.399,8.062,18.521L172.308,1075.489z"/>
<path fill="#A4CA39" stroke="#3B5024" stroke-width="10" stroke-linecap="round" stroke-linejoin="round" stroke-miterlimit="10" d="
	M420.495,177.774c-38.695-70.528-81.594-114.15-96.769-128.311c-1.546-14.868-4.776-26.219-8.767-30.293
	c-0.399-0.417-0.777-0.76-1.195-1.033l-2.027-1.738l-2.043,1.738c-0.398,0.272-0.803,0.615-1.18,1.034
	c-4.002,4.093-7.227,15.428-8.783,30.291c-15.151,14.181-58.053,57.784-96.75,128.312
	C274.894,165.805,348.555,165.807,420.495,177.774z"/>
<path fill="#A4CA39" stroke="#3B5024" stroke-width="10" stroke-linecap="round" stroke-linejoin="round" stroke-miterlimit="10" d="
	M436.266,209.87c-1.938-4.074-3.91-7.948-5.889-11.877c-78.275-14.65-159.054-14.65-237.316,0
	c-1.954,3.929-3.963,7.803-5.865,11.877c-35.42,74.911-53.382,534.854-53.382,617.696c0,82.857,18.001,163.416,53.438,239.49
	l1.935,4.184l4.512,1.121c38.53,9.688,78.239,14.576,118.005,14.576c0.018,0,0.018,0,0.018,0c39.768,0,79.511-4.906,118.08-14.598
	l4.488-1.123l1.955-4.184c35.418-76.018,53.385-156.576,53.385-239.471C489.627,744.723,471.684,284.762,436.266,209.87z"/>
<radialGradient id="SVGID_1_" cx="-5379.7598" cy="1508.749" r="63.2161" gradientTransform="matrix(1 0 0 -1 5688 2631.6035)" gradientUnits="userSpaceOnUse">
	<stop  offset="0" style="stop-color:#EDE823"/>
	<stop  offset="1" style="stop-color:#EDE823;stop-opacity:0"/>
</radialGradient>
<path opacity="0.3" fill="url(#SVGID_1_)" enable-background="new    " d="M311.704,1109.03c-22.059,0-44.073-1.561-65.946-4.455
	c-7.896-1.068-15.793-4.246-23.649-5.679c4.347,14.181,9.526,25.158,15.862,38.757l3.154,1.616l3.94,0.25
	c15.036,3.746,30.215,4.752,45.667,5.953c6.994,0.522,13.98,1.286,21.005,1.286c7.025,0,14,0.236,21.01-0.286
	c15.389-1.194,22.709-2.205,37.666-5.953l8.943-2.25l6.514-14.304c6.318-13.614,4.139-8.932,8.502-23.09
	c-8.307,1.519-8.895,2.607-16.65,3.656C355.833,1107.452,333.758,1109.03,311.704,1109.03z"/>
<radialGradient id="SVGID_2_" cx="-5376.5454" cy="2533.1445" r="87.1322" gradientTransform="matrix(1 0 0 -1 5688 2631.6035)" gradientUnits="userSpaceOnUse">
	<stop  offset="0" style="stop-color:#EDE823"/>
	<stop  offset="1" style="stop-color:#EDE823;stop-opacity:0"/>
</radialGradient>
<path opacity="0.3" fill="url(#SVGID_2_)" enable-background="new    " d="M410.495,171.774
	c-38.695-70.528-74.594-104.15-89.769-118.311c-1.546-14.868-7.907-22.345-6.837-28.319c-3.241,6.371-1.752,0.669-2.17,0.396l0,0
	l0,0c-0.398,0.273-3.004,1.576-3.383,1.995c0.271,5.354-0.186,11.699-5.139,25.339c-15.153,14.182-52.087,48.138-90.784,118.666
	C284.325,159.573,338.555,159.807,410.495,171.774z"/>
<radialGradient id="SVGID_3_" cx="-5379.0449" cy="1995.4414" r="342.1401" gradientTransform="matrix(1 0 0 -1 5688 2631.6035)" gradientUnits="userSpaceOnUse">
	<stop  offset="0" style="stop-color:#EDE823"/>
	<stop  offset="1" style="stop-color:#EDE823;stop-opacity:0"/>
</radialGradient>
<path opacity="0.3" fill="url(#SVGID_3_)" enable-background="new    " d="M433.499,209.062c-1.938-4.074-3.91-7.948-5.889-11.877
	c-78.275-14.65-159.053-14.65-237.315,0c-1.955,3.929-3.963,7.803-5.865,11.877c-35.42,74.911-53.383,534.854-53.383,617.697
	c0,82.857,18.002,163.417,53.438,239.488l1.936,4.187l4.512,1.121c38.529,9.688,78.238,14.573,118.006,14.573
	c0.016,0,0.016,0,0.016,0c39.766,0,79.51-4.903,118.08-14.596l4.488-1.123l1.955-4.185c35.418-76.017,53.385-156.576,53.385-239.469
	C486.86,743.916,468.917,283.955,433.499,209.062z"/>
<path fill="#A4CA39" stroke="#3B5024" stroke-width="10" stroke-linecap="round" stroke-linejoin="round" stroke-miterlimit="10" d="
	M359.354,1160.143c7.836,10.5,12.688,24.353,12.688,41.646c-0.002,0.762-0.322,1.59-0.369,2.354
	c-2.062,41.541-59.918,97.314-59.918,97.314s-57.853-55.779-59.918-97.314c-0.049-0.764-0.393-1.592-0.391-2.354
	c-0.002-17.312,4.846-31.146,12.68-41.646c-28.418,14.429-45.903,42.203-45.901,78.359c0,51.932,74.53,173.439,83.031,187.139
	l10.498,16.855l10.479-16.863c8.5-13.691,83.032-135.199,83.032-187.131C405.256,1202.366,387.771,1174.571,359.354,1160.143z"/>
<polyline fill="#89A43C" points="224.496,1101.318 240.125,1138.271 265.588,1142.618 251.645,1105.318 "/>
<radialGradient id="SVGID_4_" cx="-5571.7158" cy="1664.0508" r="92.2066" gradientTransform="matrix(0.9539 0 0 -0.9774 5427.0215 2615.6133)" gradientUnits="userSpaceOnUse">
	<stop  offset="0" style="stop-color:#EDE823"/>
	<stop  offset="1" style="stop-color:#EDE823;stop-opacity:0"/>
</radialGradient>
<path opacity="0.3" fill="url(#SVGID_4_)" enable-background="new    " d="M164.238,1072.917l-14.629,4.496l-89.523,27.504V952.739
	l55.104-79.314c0.501,9.939,1.281,19.838,2.32,29.688c0.062,0.596,0.125,1.184,0.188,1.771
	c5.617,51.396,18.688,101.562,38.81,149.902c2.365,5.664,4.641,11.383,7.221,17L164.238,1072.917z"/>
<path fill="#89A43C" d="M166.308,1072.489l-16.33,3.899c0,0-52.479-72.824-42.64-192.824l6.852-11.146
	c0.07,0.648,1.098,16.375,1.168,17.021c6.27,55.987,19.86,110.64,42.32,163.3c2.64,6.17,5.18,12.399,8.062,18.521L166.308,1072.489z
	"/>
<path fill="#A4CA39" stroke="#3B5024" stroke-width="10" stroke-linecap="round" stroke-linejoin="round" stroke-miterlimit="10" d="
	M452.047,1075.489l16.33,4.899l99.93,29.959v-160.33l-61.51-91.853c-0.561,10.83-1.432,21.608-2.59,32.344
	c-0.07,0.646-0.141,1.287-0.209,1.931c-6.271,55.989-20.861,110.64-43.32,163.3c-2.643,6.17-5.18,12.399-8.062,18.521
	L452.047,1075.489z"/>
<radialGradient id="SVGID_5_" cx="-6277.2017" cy="1664.0508" r="92.2065" gradientTransform="matrix(-0.9539 0 0 -0.9774 -5475.6284 2615.6133)" gradientUnits="userSpaceOnUse">
	<stop  offset="0" style="stop-color:#EDE823"/>
	<stop  offset="1" style="stop-color:#EDE823;stop-opacity:0"/>
</radialGradient>
<path opacity="0.3" fill="url(#SVGID_5_)" enable-background="new    " d="M460.118,1072.917l14.629,4.496l89.522,27.504V953.739
	l-55.104-80.314c-0.504,9.939-1.281,19.838-2.32,29.688c-0.062,0.596-0.127,1.184-0.188,1.771
	c-5.615,51.396-18.688,101.562-38.812,149.902c-2.361,5.664-4.643,11.383-7.221,17L460.118,1072.917z"/>
<path fill="#89A43C" d="M458.047,1072.489l16.33,3.899c0,0,52.479-72.824,42.641-192.824l-6.852-11.146
	c-0.07,0.648-1.102,16.375-1.17,17.021c-6.27,55.987-19.859,110.64-42.318,163.3c-2.643,6.17-5.182,12.399-8.062,18.521
	L458.047,1072.489z"/>
<path fill="#89A43C" d="M182.984,239.356c0,0-92.917,641.102,49.303,835.035l-39.589-8.031c0,0-37.876-33.562-53.786-205.188
	c-8.258-89.088,6.229-218.25,16.783-391.815C160.984,382.356,165.397,340.048,182.984,239.356z"/>
<g>
	<g id="eye_2_">
		<path fill="#F4ED6C" d="M404.991,433.212c0,36.611-18.24,66.279-40.738,66.279c-22.494,0-35.371-29.104-35.371-65.711
			c0-36.604,12.877-66.843,35.371-66.843S404.991,396.612,404.991,433.212z"/>
		<path fill="#89A43C" d="M382.096,436.725c0,36.604,5.16,64.851-17.848,62.771c-22.398-2.021-44.26-29.104-44.26-65.711
			c0-36.604,21.766-66.844,44.26-66.844C374.319,366.938,382.096,400.121,382.096,436.725z"/>
		<path fill="#012E22" d="M396.696,433.781c0,36.289-15.186,65.711-33.908,65.711s-33.906-29.422-33.906-65.711
			c0-36.291,15.188-65.71,33.906-65.71C381.512,368.071,396.696,397.491,396.696,433.781z"/>
		<path fill="#F4FAED" d="M383.323,389.537c4.58,8.473,4.398,17.408-0.354,19.969c-4.758,2.566-12.303-2.219-16.864-10.686
			c-4.562-8.459-4.401-17.396,0.354-19.966C371.219,376.303,378.778,381.075,383.323,389.537z"/>
		<path fill="#B5CE34" d="M340.375,467.723c0,0,12.371,37.283,32.086,23.195C392.17,476.832,363.239,505.311,340.375,467.723z"/>
	</g>
	<g id="eye_1_">
		<path fill="#F4ED6C" d="M314.848,425.496c0,38.949-19.403,70.5-43.339,70.5c-23.923,0-37.628-30.955-37.628-69.896
			c0-38.938,13.705-71.108,37.628-71.108C295.442,354.989,314.848,386.553,314.848,425.496z"/>
		<path fill="#89A43C" d="M290.504,429.229c0,38.943,5.483,68.988-18.996,66.769c-23.826-2.146-47.084-30.945-47.084-69.896
			c0-38.938,23.162-71.109,47.084-71.109C282.226,354.989,290.504,390.291,290.504,429.229z"/>
		<path fill="#012E22" d="M306.03,426.098c0,38.609-16.155,69.896-36.077,69.896c-19.918,0-36.072-31.287-36.072-69.896
			c0-38.604,16.154-69.905,36.072-69.905C289.873,356.194,306.03,387.495,306.03,426.098z"/>
		<path fill="#F4FAED" d="M291.812,379.039c4.854,9.002,4.67,18.514-0.384,21.23c-5.062,2.729-13.092-2.355-17.948-11.371
			c-4.843-8.99-4.685-18.5,0.377-21.23C278.918,364.94,286.963,370.026,291.812,379.039z"/>
		<path fill="#B5CE34" d="M243.781,456.648c0,0,13.938,42.004,36.146,26.125C302.14,466.9,269.543,498.979,243.781,456.648z"/>
	</g>
</g>
</svg>
