<?xml version="1.0" encoding="utf-8"?>
<!-- Generator: Adobe Illustrator 16.0.3, SVG Export Plug-In . SVG Version: 6.00 Build 0)  -->
<!DOCTYPE svg PUBLIC "-//W3C//DTD SVG 1.1//EN" "http://www.w3.org/Graphics/SVG/1.1/DTD/svg11.dtd">
<svg version="1.1" id="Layer_1" xmlns="http://www.w3.org/2000/svg" xmlns:xlink="http://www.w3.org/1999/xlink" x="0px" y="0px"
	 width="522.26px" height="594.754px" viewBox="39.63 37.373 522.26 594.754" enable-background="new 39.63 37.373 522.26 594.754"
	 xml:space="preserve">
<path fill="#A4CA39" stroke="#3B5024" stroke-width="10" stroke-linecap="round" stroke-linejoin="round" stroke-miterlimit="10" d="
	M300.286,579.396c-22.056,0-44.072-1.559-65.946-4.454c-7.896-1.069-15.793-2.246-23.649-3.679
	c4.346,14.181,9.526,28.158,15.862,41.758l2.155,4.616l4.94,1.249c14.977,3.732,30.278,5.758,45.667,6.953
	c6.994,0.527,13.982,1.287,21.004,1.287c7.027,0,14-0.76,21.009-1.287c15.389-1.195,30.709-3.205,45.666-6.953l4.943-1.249
	l2.153-4.636c6.318-13.616,11.498-27.596,15.861-41.755c-7.838,1.43-15.752,2.589-23.65,3.657
	C344.414,577.821,322.34,579.396,300.286,579.396z"/>
<path fill="#A4CA39" stroke="#3B5024" stroke-width="10" stroke-linecap="round" stroke-linejoin="round" stroke-miterlimit="10" d="
	M160.89,550.858l-16.33,4.898l-99.93,29.96v-160.33l61.51-91.85c0.56,10.83,1.43,21.61,2.59,32.34c0.07,0.649,0.14,1.29,0.21,1.931
	c6.27,55.989,20.86,110.641,43.32,163.301c2.64,6.17,5.18,12.398,8.06,18.52L160.89,550.858z"/>
<path fill="#A4CA39" stroke="#3B5024" stroke-width="10" stroke-linecap="round" stroke-linejoin="round" stroke-miterlimit="10" d="
	M424.848,65.237c-1.938-4.074-3.91-7.948-5.889-11.877c-78.275-14.65-159.052-14.65-237.314,0
	c-1.954,3.929-3.963,7.803-5.865,11.877c-35.42,74.911-53.382,154.854-53.382,237.696c0,82.859,18.001,163.418,53.437,239.489
	l1.935,4.184l4.512,1.12c38.53,9.688,78.239,14.577,118.005,14.577c0.017,0,0.017,0,0.017,0c39.765,0,79.508-4.906,118.079-14.595
	l4.49-1.123l1.955-4.182c35.418-76.017,53.383-156.576,53.383-239.471C478.209,220.091,460.266,140.129,424.848,65.237z"/>
<radialGradient id="SVGID_1_" cx="296.8223" cy="61.1113" r="63.2161" gradientTransform="matrix(1 0 0 -1 0 659.334)" gradientUnits="userSpaceOnUse">
	<stop  offset="0" style="stop-color:#EDE823"/>
	<stop  offset="1" style="stop-color:#EDE823;stop-opacity:0"/>
</radialGradient>
<path opacity="0.3" fill="url(#SVGID_1_)" enable-background="new    " d="M300.286,584.396c-22.056,0-44.072-1.559-65.946-4.454
	c-7.896-1.069-15.793-4.246-23.649-5.679c4.346,14.181,9.526,25.158,15.862,38.758l3.155,1.616l3.94,0.249
	c15.036,3.747,30.215,4.753,45.667,5.953c6.994,0.527,13.982,1.287,21.004,1.287c7.027,0,14,0.24,21.009-0.287
	c15.389-1.195,22.709-2.205,37.666-5.953l8.943-2.249l6.515-14.303c6.317-13.616,4.138-8.929,8.501-23.088
	c-8.306,1.516-8.895,2.608-16.65,3.657C344.414,582.821,322.34,584.396,300.286,584.396z"/>
<radialGradient id="SVGID_2_" cx="300.3047" cy="356.9971" r="222.7469" gradientTransform="matrix(1 0 0 -1 0 659.334)" gradientUnits="userSpaceOnUse">
	<stop  offset="0" style="stop-color:#EDE823"/>
	<stop  offset="1" style="stop-color:#EDE823;stop-opacity:0"/>
</radialGradient>
<path opacity="0.3" fill="url(#SVGID_2_)" enable-background="new    " d="M424.848,65.237c-1.938-4.074-3.91-7.948-5.889-11.877
	c-78.275-14.65-159.052-14.65-237.314,0c-1.954,3.929-3.963,7.803-5.865,11.877c-35.42,74.911-53.382,154.854-53.382,237.696
	c0,82.859,18.001,163.418,53.437,239.489l1.935,4.184l4.512,1.12c38.53,9.688,78.239,14.577,118.005,14.577c0.017,0,0.017,0,0.017,0
	c39.765,0,79.508-4.906,118.079-14.595l4.49-1.123l1.955-4.182c35.418-76.017,53.383-156.576,53.383-239.471
	C478.209,220.091,460.266,140.129,424.848,65.237z"/>
<g>
	<g id="eye_8_">
		<path fill="#F4ED6C" d="M401.436,227.24c0,36.611-18.243,66.279-40.741,66.279c-22.494,0-35.371-29.102-35.371-65.711
			c0-36.604,12.877-66.844,35.371-66.844C383.191,160.964,401.436,190.638,401.436,227.24z"/>
		<path fill="#89A43C" d="M378.541,230.753c0,36.604,5.16,64.848-17.848,62.767c-22.398-2.019-44.259-29.102-44.259-65.711
			c0-36.604,21.765-66.844,44.259-66.844C370.764,160.964,378.541,194.148,378.541,230.753z"/>
		<path fill="#012E22" d="M393.141,227.808c0,36.288-15.184,65.711-33.909,65.711c-18.724,0-33.908-29.423-33.908-65.711
			c0-36.292,15.186-65.712,33.908-65.712C377.957,162.096,393.141,191.517,393.141,227.808z"/>
		<path fill="#F4FAED" d="M379.768,183.563c4.58,8.473,4.4,17.409-0.352,19.969c-4.758,2.567-12.303-2.219-16.865-10.685
			c-4.561-8.46-4.403-17.394,0.355-19.966C367.664,170.329,375.223,175.101,379.768,183.563z"/>
		<path fill="#B5CE34" d="M336.818,261.75c0,0,12.373,37.284,32.086,23.196C388.615,270.858,359.684,299.339,336.818,261.75z"/>
	</g>
	<g id="eye_7_">
		<path fill="#F4ED6C" d="M311.293,219.522c0,38.949-19.404,70.5-43.339,70.5c-23.922,0-37.628-30.955-37.628-69.898
			c0-38.937,13.706-71.109,37.628-71.109C291.889,149.015,311.293,180.579,311.293,219.522z"/>
		<path fill="#89A43C" d="M286.949,223.256c0,38.944,5.484,68.989-18.996,66.766c-23.826-2.142-47.084-30.944-47.084-69.898
			c0-38.937,23.162-71.109,47.084-71.109C278.67,149.015,286.949,184.317,286.949,223.256z"/>
		<path fill="#012E22" d="M302.475,220.125c0,38.61-16.156,69.898-36.078,69.898c-19.916,0-36.071-31.288-36.071-69.898
			c0-38.605,16.155-69.905,36.071-69.905C286.318,150.22,302.475,181.52,302.475,220.125z"/>
		<path fill="#F4FAED" d="M288.258,173.065c4.854,9.003,4.67,18.514-0.383,21.231c-5.064,2.729-13.092-2.355-17.948-11.37
			c-4.843-8.989-4.685-18.5,0.377-21.229C275.363,158.966,283.408,164.052,288.258,173.065z"/>
		<path fill="#B5CE34" d="M240.227,250.674c0,0,13.94,42.005,36.148,26.126C298.584,260.926,265.988,293.007,240.227,250.674z"/>
	</g>
</g>
<path fill="#89A43C" d="M184.645,57.359c0,0-105.994,299.467,36.225,493.396l-39.589-8.03
	C181.281,542.726,57.667,322.285,184.645,57.359z"/>
<polyline fill="#89A43C" points="213.079,576.686 228.708,613.639 254.172,617.986 240.227,580.686 "/>
<radialGradient id="SVGID_3_" cx="98.1499" cy="190.5049" r="92.2074" gradientTransform="matrix(0.9539 0 0 -0.9774 7.1188 650.7376)" gradientUnits="userSpaceOnUse">
	<stop  offset="0" style="stop-color:#EDE823"/>
	<stop  offset="1" style="stop-color:#EDE823;stop-opacity:0"/>
</radialGradient>
<path opacity="0.3" fill="url(#SVGID_3_)" enable-background="new    " d="M152.821,548.285l-14.629,4.497l-89.524,27.503V428.107
	l55.105-79.315c0.501,9.941,1.281,19.837,2.32,29.688c0.062,0.598,0.125,1.185,0.188,1.771
	c5.617,51.396,18.688,101.563,38.809,149.904c2.365,5.664,4.641,11.382,7.221,17L152.821,548.285z"/>
<path fill="#89A43C" d="M154.89,547.858l-16.33,3.898c0,0-52.48-72.824-42.64-192.824l6.852-11.142
	c0.07,0.649,1.098,16.376,1.168,17.017c6.27,55.989,19.86,110.641,42.32,163.301c2.64,6.17,5.18,12.398,8.06,18.52L154.89,547.858z"
	/>
<path fill="#A4CA39" stroke="#3B5024" stroke-width="10" stroke-linecap="round" stroke-linejoin="round" stroke-miterlimit="10" d="
	M440.629,550.858l16.33,4.898l99.931,29.96v-160.33l-61.511-91.85c-0.56,10.83-1.43,21.61-2.59,32.34
	c-0.069,0.649-0.14,1.29-0.209,1.931c-6.271,55.989-20.86,110.641-43.32,163.301c-2.641,6.17-5.18,12.398-8.061,18.52
	L440.629,550.858z"/>
<radialGradient id="SVGID_4_" cx="-315.9395" cy="190.5049" r="92.2072" gradientTransform="matrix(-0.9539 0 0 -0.9774 199.4008 650.7376)" gradientUnits="userSpaceOnUse">
	<stop  offset="0" style="stop-color:#EDE823"/>
	<stop  offset="1" style="stop-color:#EDE823;stop-opacity:0"/>
</radialGradient>
<path opacity="0.3" fill="url(#SVGID_4_)" enable-background="new    " d="M448.699,548.285l14.629,4.497l89.523,27.503V429.107
	l-55.104-80.315c-0.502,9.941-1.281,19.837-2.32,29.688c-0.062,0.598-0.126,1.185-0.188,1.771
	c-5.617,51.396-18.688,101.563-38.811,149.904c-2.363,5.664-4.641,11.382-7.221,17L448.699,548.285z"/>
<path fill="#89A43C" d="M446.629,547.858l16.33,3.898c0,0,52.48-72.824,42.641-192.824l-6.852-11.142
	c-0.07,0.649-1.099,16.376-1.168,17.017c-6.271,55.989-19.86,110.641-42.32,163.301c-2.641,6.17-5.18,12.398-8.061,18.52
	L446.629,547.858z"/>
</svg>
