<?xml version="1.0" encoding="utf-8"?>
<!-- Generator: Adobe Illustrator 16.0.3, SVG Export Plug-In . SVG Version: 6.00 Build 0)  -->
<!DOCTYPE svg PUBLIC "-//W3C//DTD SVG 1.1//EN" "http://www.w3.org/Graphics/SVG/1.1/DTD/svg11.dtd">
<svg version="1.1" id="Layer_1" xmlns="http://www.w3.org/2000/svg" xmlns:xlink="http://www.w3.org/1999/xlink" x="0px" y="0px"
	 width="522.259px" height="1436.098px" viewBox="35.693 15.905 522.259 1436.098"
	 enable-background="new 35.693 15.905 522.259 1436.098" xml:space="preserve">
<path fill="#A4CA39" stroke="#3B5024" stroke-width="10" stroke-linecap="round" stroke-linejoin="round" stroke-miterlimit="10" d="
	M296.349,1108.535c-22.057,0-44.072-1.559-65.946-4.455c-7.896-1.068-15.793-2.246-23.649-3.678
	c4.346,14.18,9.526,28.158,15.862,41.756l2.155,4.617l4.94,1.25c14.977,3.729,30.278,5.758,45.667,6.953
	c6.994,0.524,13.981,1.287,21.003,1.287c7.027,0,14-0.763,21.01-1.287c15.389-1.195,30.709-3.205,45.666-6.953l4.943-1.25
	l2.152-4.635c6.316-13.617,11.498-27.599,15.859-41.757c-7.838,1.431-15.752,2.591-23.648,3.656
	C340.477,1106.957,318.403,1108.535,296.349,1108.535z"/>
<path fill="#A4CA39" stroke="#3B5024" stroke-width="10" stroke-linecap="round" stroke-linejoin="round" stroke-miterlimit="10" d="
	M156.953,1079.994l-16.33,4.9l-99.93,29.959v-160.33l61.51-91.851c0.56,10.83,1.43,21.609,2.59,32.343
	c0.07,0.647,0.14,1.288,0.21,1.93c6.27,55.99,20.86,110.639,43.32,163.299c2.64,6.17,5.18,12.4,8.06,18.521L156.953,1079.994z"/>
<path fill="#A4CA39" stroke="#3B5024" stroke-width="10" stroke-linecap="round" stroke-linejoin="round" stroke-miterlimit="10" d="
	M405.139,182.279c-38.695-70.528-81.594-114.15-96.768-128.311c-1.545-14.868-4.777-26.219-8.766-30.293
	c-0.4-0.417-0.777-0.76-1.195-1.033l-2.029-1.738l-2.043,1.738c-0.398,0.272-0.801,0.615-1.178,1.034
	c-4,4.093-7.227,15.428-8.783,30.291c-15.153,14.181-58.053,57.784-96.749,128.312C259.538,170.31,333.2,170.312,405.139,182.279z"
	/>
<path fill="#A4CA39" stroke="#3B5024" stroke-width="10" stroke-linecap="round" stroke-linejoin="round" stroke-miterlimit="10" d="
	M420.911,214.375c-1.939-4.074-3.91-7.948-5.889-11.877c-78.275-14.65-159.053-14.65-237.315,0
	c-1.954,3.929-3.963,7.803-5.865,11.877c-35.42,74.911-53.382,534.854-53.382,617.696c0,82.858,18.001,163.418,53.437,239.489
	l1.935,4.185l4.512,1.121c38.53,9.688,78.239,14.575,118.005,14.575c0.017,0,0.017,0,0.017,0c39.766,0,79.51-4.905,118.08-14.596
	l4.488-1.123l1.955-4.184c35.418-76.016,53.385-156.576,53.385-239.469C474.272,749.229,456.329,289.267,420.911,214.375z"/>
<radialGradient id="SVGID_1_" cx="-2551.1147" cy="859.1455" r="63.2159" gradientTransform="matrix(1 0 0 -1 2844 1986.5059)" gradientUnits="userSpaceOnUse">
	<stop  offset="0" style="stop-color:#EDE823"/>
	<stop  offset="1" style="stop-color:#EDE823;stop-opacity:0"/>
</radialGradient>
<path opacity="0.3" fill="url(#SVGID_1_)" enable-background="new    " d="M296.349,1113.535c-22.057,0-44.072-1.559-65.946-4.455
	c-7.896-1.068-15.793-4.246-23.649-5.678c4.346,14.18,9.526,25.158,15.862,38.756l3.155,1.617l3.94,0.25
	c15.036,3.746,30.215,4.752,45.667,5.953c6.994,0.524,13.981,1.287,21.003,1.287c7.027,0,14,0.237,21.01-0.287
	c15.389-1.195,22.709-2.205,37.666-5.953l8.943-2.25l6.514-14.303c6.318-13.615,4.139-8.931,8.502-23.089
	c-8.307,1.517-8.895,2.607-16.65,3.656C340.477,1111.957,318.403,1113.535,296.349,1113.535z"/>
<radialGradient id="SVGID_2_" cx="-2547.8994" cy="1883.542" r="87.1311" gradientTransform="matrix(1 0 0 -1 2844 1986.5059)" gradientUnits="userSpaceOnUse">
	<stop  offset="0" style="stop-color:#EDE823"/>
	<stop  offset="1" style="stop-color:#EDE823;stop-opacity:0"/>
</radialGradient>
<path opacity="0.3" fill="url(#SVGID_2_)" enable-background="new    " d="M395.139,176.279
	c-38.695-70.528-74.594-104.15-89.768-118.311c-1.545-14.868-7.908-22.345-6.836-28.319c-3.242,6.371-1.752,0.669-2.17,0.396l0,0
	l0,0c-0.4,0.273-3.004,1.576-3.382,1.995c0.271,5.354-0.187,11.699-5.138,25.339c-15.153,14.182-52.088,48.138-90.784,118.666
	C268.971,164.078,323.2,164.312,395.139,176.279z"/>
<radialGradient id="SVGID_3_" cx="-2550.4004" cy="1345.8379" r="342.1404" gradientTransform="matrix(1 0 0 -1 2844 1986.5059)" gradientUnits="userSpaceOnUse">
	<stop  offset="0" style="stop-color:#EDE823"/>
	<stop  offset="1" style="stop-color:#EDE823;stop-opacity:0"/>
</radialGradient>
<path opacity="0.3" fill="url(#SVGID_3_)" enable-background="new    " d="M418.143,213.568c-1.939-4.074-3.91-7.948-5.889-11.877
	c-78.275-14.65-159.053-14.65-237.314,0c-1.954,3.929-3.963,7.803-5.865,11.877c-35.42,74.911-53.382,534.854-53.382,617.697
	c0,82.857,18.001,163.418,53.437,239.488l1.935,4.186l4.512,1.121c38.53,9.688,78.239,14.574,118.006,14.574
	c0.016,0,0.016,0,0.016,0c39.766,0,79.51-4.904,118.08-14.596l4.488-1.123l1.955-4.184c35.418-76.016,53.385-156.576,53.385-239.469
	C471.504,748.421,453.561,288.46,418.143,213.568z"/>
<path fill="#A4CA39" stroke="#3B5024" stroke-width="10" stroke-linecap="round" stroke-linejoin="round" stroke-miterlimit="10" d="
	M343.999,1164.646c7.836,10.5,12.686,24.352,12.686,41.647c-0.002,0.762-0.322,1.59-0.369,2.351
	c-2.064,41.541-59.918,97.317-59.918,97.317s-57.852-55.779-59.918-97.317c-0.049-0.761-0.392-1.589-0.39-2.351
	c-0.002-17.315,4.845-31.147,12.68-41.646c-28.418,14.428-45.904,42.203-45.902,78.36c0,51.931,74.531,173.438,83.03,187.138
	l10.498,16.856l10.479-16.863c8.5-13.692,83.033-135.2,83.033-187.131C389.901,1206.871,372.417,1179.076,343.999,1164.646z"/>
<polyline fill="#89A43C" points="209.142,1105.824 224.771,1142.777 250.234,1147.123 236.29,1109.824 "/>
<radialGradient id="SVGID_4_" cx="-2747.1982" cy="998.585" r="92.2074" gradientTransform="matrix(0.9539 0 0 -0.9774 2717.3589 1969.6943)" gradientUnits="userSpaceOnUse">
	<stop  offset="0" style="stop-color:#EDE823"/>
	<stop  offset="1" style="stop-color:#EDE823;stop-opacity:0"/>
</radialGradient>
<path opacity="0.3" fill="url(#SVGID_4_)" enable-background="new    " d="M148.884,1077.422l-14.629,4.496l-89.524,27.504V957.244
	l55.105-79.314c0.501,9.939,1.281,19.838,2.32,29.688c0.062,0.596,0.125,1.184,0.188,1.771
	c5.617,51.396,18.688,101.562,38.809,149.902c2.365,5.664,4.641,11.383,7.221,17L148.884,1077.422z"/>
<path fill="#89A43C" d="M150.953,1076.994l-16.33,3.9c0,0-52.48-72.824-42.64-192.824l6.852-11.144
	c0.07,0.648,1.098,16.375,1.168,17.019c6.27,55.988,19.86,110.639,42.32,163.299c2.64,6.17,5.18,12.4,8.06,18.521L150.953,1076.994z
	"/>
<path fill="#A4CA39" stroke="#3B5024" stroke-width="10" stroke-linecap="round" stroke-linejoin="round" stroke-miterlimit="10" d="
	M436.692,1079.994l16.33,4.9l99.93,29.959v-160.33l-61.51-91.851c-0.561,10.83-1.432,21.609-2.59,32.343
	c-0.07,0.647-0.141,1.288-0.209,1.93c-6.271,55.99-20.861,110.639-43.32,163.299c-2.643,6.17-5.18,12.4-8.062,18.521
	L436.692,1079.994z"/>
<radialGradient id="SVGID_5_" cx="-3273.6284" cy="998.585" r="92.2072" gradientTransform="matrix(-0.9539 0 0 -0.9774 -2625.8752 1969.6943)" gradientUnits="userSpaceOnUse">
	<stop  offset="0" style="stop-color:#EDE823"/>
	<stop  offset="1" style="stop-color:#EDE823;stop-opacity:0"/>
</radialGradient>
<path opacity="0.3" fill="url(#SVGID_5_)" enable-background="new    " d="M444.762,1077.422l14.629,4.496l89.523,27.504V958.244
	l-55.104-80.314c-0.504,9.939-1.281,19.838-2.32,29.688c-0.062,0.596-0.127,1.184-0.189,1.771
	c-5.615,51.396-18.688,101.562-38.811,149.902c-2.363,5.664-4.643,11.383-7.221,17L444.762,1077.422z"/>
<path fill="#89A43C" d="M442.692,1076.994l16.33,3.9c0,0,52.479-72.824,42.641-192.824l-6.852-11.144
	c-0.07,0.648-1.102,16.375-1.17,17.019c-6.27,55.988-19.859,110.639-42.318,163.299c-2.643,6.17-5.182,12.4-8.062,18.521
	L442.692,1076.994z"/>
<g>
	<g id="eye_8_">
		<path fill="#F4ED6C" d="M389.635,437.718c0,36.611-18.24,66.279-40.738,66.279c-22.494,0-35.371-29.103-35.371-65.711
			c0-36.603,12.877-66.843,35.371-66.843S389.635,401.117,389.635,437.718z"/>
		<path fill="#89A43C" d="M366.741,441.23c0,36.604,5.16,64.849-17.848,62.769c-22.398-2.021-44.26-29.103-44.26-65.711
			c0-36.604,21.766-66.844,44.26-66.844C358.963,371.443,366.741,404.626,366.741,441.23z"/>
		<path fill="#012E22" d="M381.34,438.286c0,36.289-15.184,65.711-33.908,65.711c-18.723,0-33.906-29.422-33.906-65.711
			c0-36.291,15.186-65.71,33.906-65.71C366.157,372.576,381.34,401.996,381.34,438.286z"/>
		<path fill="#F4FAED" d="M367.967,394.042c4.58,8.473,4.4,17.408-0.352,19.969c-4.758,2.566-12.303-2.219-16.865-10.686
			c-4.561-8.459-4.402-17.396,0.355-19.966C355.864,380.808,363.422,385.58,367.967,394.042z"/>
		<path fill="#B5CE34" d="M325.02,472.229c0,0,12.371,37.283,32.086,23.195C376.815,481.337,347.883,509.816,325.02,472.229z"/>
	</g>
	<g id="eye_7_">
		<path fill="#F4ED6C" d="M299.493,430.001c0,38.949-19.403,70.5-43.338,70.5c-23.922,0-37.628-30.955-37.628-69.897
			c0-38.938,13.706-71.109,37.628-71.109C280.09,359.494,299.493,391.058,299.493,430.001z"/>
		<path fill="#89A43C" d="M275.149,433.734c0,38.943,5.483,68.988-18.996,66.767c-23.826-2.144-47.084-30.945-47.084-69.897
			c0-38.938,23.162-71.109,47.084-71.109C266.87,359.494,275.149,394.796,275.149,433.734z"/>
		<path fill="#012E22" d="M290.676,430.604c0,38.609-16.156,69.896-36.078,69.896c-19.917,0-36.071-31.287-36.071-69.896
			c0-38.604,16.154-69.905,36.071-69.905C274.518,360.699,290.676,392,290.676,430.604z"/>
		<path fill="#F4FAED" d="M276.458,383.544c4.854,9.002,4.67,18.514-0.383,21.23c-5.063,2.729-13.092-2.355-17.948-11.369
			c-4.843-8.99-4.685-18.5,0.377-21.23C263.563,369.445,271.608,374.531,276.458,383.544z"/>
		<path fill="#B5CE34" d="M228.427,461.153c0,0,13.94,42.004,36.148,26.125C286.784,471.405,254.188,503.484,228.427,461.153z"/>
	</g>
</g>
<path fill="#89A43C" d="M167.63,244.861c0,0-92.917,641.102,49.303,835.033l-39.589-8.031c0,0.001-37.876-33.561-53.786-205.189
	c-8.258-89.088,6.229-218.249,16.783-391.816C145.63,387.861,150.043,345.554,167.63,244.861z"/>
</svg>
