<?xml version="1.0" encoding="utf-8"?>
<!-- Generator: Adobe Illustrator 16.0.3, SVG Export Plug-In . SVG Version: 6.00 Build 0)  -->
<!DOCTYPE svg PUBLIC "-//W3C//DTD SVG 1.1//EN" "http://www.w3.org/Graphics/SVG/1.1/DTD/svg11.dtd">
<svg version="1.1" id="Layer_1" xmlns="http://www.w3.org/2000/svg" xmlns:xlink="http://www.w3.org/1999/xlink" x="0px" y="0px"
	 width="197.039px" height="292.36px" viewBox="19.417 21.021 197.039 292.36"
	 enable-background="new 19.417 21.021 197.039 292.36" xml:space="preserve">
<g>
	
		<path fill="#A4C939" stroke="#3C5024" stroke-width="10" stroke-linecap="round" stroke-linejoin="round" stroke-miterlimit="10" d="
		M165.55,26.021c7.835,10.5,12.685,24.353,12.685,41.651c-0.002,0.761-0.323,1.587-0.37,2.347
		c-2.064,41.541-59.917,97.321-59.917,97.321s-57.852-55.779-59.918-97.32c-0.049-0.76-0.392-1.586-0.39-2.347
		c-0.002-17.319,4.845-31.151,12.68-41.648c-28.418,14.428-45.904,42.202-45.902,78.36c0,51.93,74.531,173.44,83.03,187.136
		l10.498,16.86l10.478-16.864c8.5-13.695,83.033-135.203,83.033-187.132C211.453,68.25,193.968,40.454,165.55,26.021z"/>
</g>
</svg>
