<?xml version="1.0" encoding="utf-8"?>
<!-- Generator: Adobe Illustrator 16.0.3, SVG Export Plug-In . SVG Version: 6.00 Build 0)  -->
<!DOCTYPE svg PUBLIC "-//W3C//DTD SVG 1.1//EN" "http://www.w3.org/Graphics/SVG/1.1/DTD/svg11.dtd">
<svg version="1.1" id="Layer_1" xmlns="http://www.w3.org/2000/svg" xmlns:xlink="http://www.w3.org/1999/xlink" x="0px" y="0px"
	 width="227.512px" height="171.375px" viewBox="494.983 640.4 227.512 171.375"
	 enable-background="new 494.983 640.4 227.512 171.375" xml:space="preserve">
<path fill="#A4CA39" stroke="#3B5024" stroke-width="10" stroke-linecap="round" stroke-linejoin="round" stroke-miterlimit="10" d="
	M717.495,806.774c-38.695-70.528-81.594-114.15-96.768-128.311c-1.545-14.868-4.777-26.219-8.766-30.293
	c-0.4-0.417-0.777-0.76-1.195-1.033l-2.029-1.738l-2.043,1.738c-0.398,0.272-0.801,0.615-1.178,1.034
	c-4.002,4.093-7.227,15.428-8.783,30.291c-15.152,14.181-58.053,57.784-96.75,128.312
	C571.893,794.805,645.555,794.807,717.495,806.774z"/>
<radialGradient id="SVGID_1_" cx="-2235.5444" cy="1259.0459" r="87.1318" gradientTransform="matrix(1 0 0 -1 2844 1986.5059)" gradientUnits="userSpaceOnUse">
	<stop  offset="0" style="stop-color:#EDE823"/>
	<stop  offset="1" style="stop-color:#EDE823;stop-opacity:0"/>
</radialGradient>
<path opacity="0.3" fill="url(#SVGID_1_)" enable-background="new    " d="M707.495,800.774
	c-38.695-70.528-74.594-104.15-89.768-118.311c-1.545-14.868-7.908-22.345-6.836-28.319c-3.242,6.371-1.752,0.669-2.17,0.396l0,0
	l0,0c-0.4,0.273-3.004,1.576-3.383,1.995c0.271,5.354-0.186,11.699-5.139,25.339c-15.152,14.182-52.088,48.138-90.783,118.666
	C581.325,788.573,635.555,788.807,707.495,800.774z"/>
</svg>
