<?xml version="1.0" encoding="utf-8"?>
<!-- Generator: Adobe Illustrator 16.0.3, SVG Export Plug-In . SVG Version: 6.00 Build 0)  -->
<!DOCTYPE svg PUBLIC "-//W3C//DTD SVG 1.1//EN" "http://www.w3.org/Graphics/SVG/1.1/DTD/svg11.dtd">
<svg version="1.1" id="Layer_1" xmlns="http://www.w3.org/2000/svg" xmlns:xlink="http://www.w3.org/1999/xlink" x="0px" y="0px"
	 width="233.971px" height="242.589px" viewBox="11.326 -11.996 233.971 242.589"
	 enable-background="new 11.326 -11.996 233.971 242.589" xml:space="preserve">
<path id="Outline_1_" fill="#384F0E" d="M160.602,230.594c-5.01,0-10.039-1.552-14.954-4.613
	c-3.256-1.196-21.679-9.181-29.978-39.093c-2.155-7.77-5.686-7.77-7.015-7.77c-8.452,0-22.3,13.142-32.411,22.737
	c-5.33,5.059-9.942,9.438-13.34,11.596c-1.775,1.349-18.222,13.555-31.566,13.555c-3.899,0-7.255-1.019-9.975-3.027
	c-6.373-4.713-10.031-11.738-10.038-19.279c-0.006-9.173,5.061-17.985,14.271-24.815c2.557-1.899,5.698-3.978,9.022-6.176
	c18.963-12.551,44.934-29.736,37.887-57.503c-2.508-9.884-10.469-30.797-10.55-31.008l-0.044-0.125
	c-1.95-5.777-3.314-11.021-4.169-16.029c-1.061-6.938-3.408-30.839,10.536-49.569c8.958-12.036,22.79-19.44,41.111-22.008
	l0.336-0.031c1.809-0.073,3.603-0.109,5.33-0.109c45.956,0,51.958,25.521,54.519,36.418c0.257,1.094,0.479,2.039,0.69,2.72
	c3.505,11.366-1.363,44.315-1.93,48.035l-0.439,2.88h-0.219c-0.747,6.415-1.681,12.975-2.776,19.546
	c-5.111,30.683,4.979,37.894,13.879,44.253c1.594,1.14,3.1,2.217,4.533,3.412c2.527,2.103,8.414,5.385,15.229,9.188
	c18.106,10.104,42.906,23.938,46.255,38.165c1.378,5.857-0.125,12.111-4.123,17.157c-4.29,5.415-10.795,8.521-17.853,8.523
	c-0.003,0-0.003,0-0.005,0c-7.487-0.004-22.268-3.692-37.102-28.383c-15.09-25.109-23.098-26.38-24.551-26.38
	c-0.526,0-0.864,0.13-1,0.386c-0.123,0.229-0.083,0.476-0.047,0.531c4.783,1.341,19.081,14.033,23.374,27.092
	c2.509,7.623,1.5,14.658-2.914,20.342C180.194,221.68,172.651,230.594,160.602,230.594z M108.656,172.336
	c4.57,0,10.629,2.21,13.551,12.736c7.95,28.662,25.757,34.54,25.936,34.598l0.431,0.136l0.379,0.24
	c3.918,2.496,7.837,3.763,11.648,3.763c8.478,0,14.205-6.293,14.67-6.819c2.881-3.752,3.535-8.112,1.991-13.325
	c-3.389-11.451-16.282-22.43-18.975-23.365c-3.327-0.937-5.408-4.197-4.918-7.743c0.527-3.815,3.735-6.479,7.797-6.479
	c8.198,0,18.697,10.26,30.363,29.671c13.115,21.83,25.235,25.091,31.289,25.093c0.003,0,0.003,0,0.005,0
	c4.971,0,9.541-2.169,12.536-5.949c2.662-3.363,3.724-7.622,2.835-11.395c-2.663-11.313-26.911-24.844-42.958-33.796
	c-7.408-4.131-13.253-7.393-16.265-9.903c-1.241-1.033-2.647-2.037-4.135-3.103c-9.467-6.761-22.435-16.027-16.625-50.886
	c1.247-7.483,2.278-14.949,3.063-22.188l0.33-3.024h0.441c1.577-11.332,4.095-34.49,1.735-42.134
	c-0.279-0.902-0.524-1.952-0.812-3.167c-2.379-10.123-7.332-31.189-47.916-31.189c-1.583,0-3.228,0.032-4.891,0.097
	c-16.375,2.33-28.638,8.827-36.446,19.317c-12.374,16.622-10.232,38.215-9.281,44.438c0.783,4.579,2.054,9.467,3.879,14.881
	c0.579,1.517,8.204,21.606,10.764,31.696c8.23,32.432-21.228,51.927-40.719,64.826c-3.246,2.146-6.312,4.175-8.724,5.965
	c-7.439,5.521-11.534,12.396-11.529,19.364c0.004,5.449,2.592,10.359,7.288,13.83c1.548,1.146,3.492,1.701,5.942,1.701
	c9.574,0,23.14-8.84,27.56-12.247l0.277-0.19c2.827-1.762,7.478-6.177,12.401-10.851C83.126,185.977,97.499,172.336,108.656,172.336
	z"/>
<path id="Body_1_" fill="#A4CA39" d="M241.494,202.723c-4.235-18.002-50.822-37.586-60.352-45.528
	c-9.527-7.943-25.938-12.706-19.585-50.827c1.31-7.863,2.321-15.318,3.089-22.379h0.333c0,0,5.422-35.573,2.042-46.524
	c-2.542-8.248-4.019-38.778-57.161-36.64C56.953,8.242,59.053,55.176,61.085,68.473c0.924,5.414,2.218,10.831,4.039,15.515
	c0,0,8.085,21.206,10.668,31.382c9.001,35.471-31.765,55.058-48.176,67.237c-16.413,12.174-16.413,29.643-4.236,38.643
	c12.178,9,37.59-10.588,37.59-10.588c12.681-7.905,49.434-55.454,57.969-24.683s28.191,36.927,28.191,36.927
	c18.066,11.515,30.771-3.775,30.771-3.775c13.106-16.873-13.836-40.728-18.662-42.088c-7.743-2.181,2.186-24.813,29.385,20.451
	C215.818,242.757,245.732,220.721,241.494,202.723z"/>
<radialGradient id="Light_on_body_2_" cx="158.8477" cy="212.4512" r="113.308" gradientTransform="matrix(1 0 0 -1 0 233.6289)" gradientUnits="userSpaceOnUse">
	<stop  offset="0" style="stop-color:#EEE824"/>
	<stop  offset="1" style="stop-color:#EEE824;stop-opacity:0"/>
</radialGradient>
<path id="Light_on_body_1_" opacity="0.3" fill="url(#Light_on_body_2_)" enable-background="new    " d="M241.494,202.723
	c-4.235-18.002-50.822-37.586-60.352-45.528c-9.527-7.943-25.938-12.706-19.585-50.827c1.31-7.863,2.321-15.318,3.089-22.379h0.333
	c0,0,5.422-35.573,2.042-46.524c-2.542-8.248-4.019-38.778-57.161-36.64C56.953,8.242,59.053,55.176,61.085,68.473
	c0.924,5.414,2.218,10.831,4.039,15.515c0,0,8.085,21.206,10.668,31.382c9.001,35.471-31.765,55.058-48.176,67.237
	c-16.413,12.174-16.413,29.643-4.236,38.643c12.178,9,37.59-10.588,37.59-10.588c12.681-7.905,49.434-55.454,57.969-24.683
	s28.191,36.927,28.191,36.927c18.066,11.515,30.771-3.775,30.771-3.775c13.106-16.873-13.836-40.728-18.662-42.088
	c-7.743-2.181,2.186-24.813,29.385,20.451C215.818,242.757,245.732,220.721,241.494,202.723z"/>
<path id="smile_1_" fill="#002E21" d="M94.776,88.155c3.344,3.541,7.251,6.924,11.321,9.829c4.096,2.899,8.503,5.417,13.24,6.929
	c4.697,1.511,9.867,1.879,14.528-0.002c4.677-1.831,8.422-5.737,11.124-10.14c-2.256,4.635-5.619,9.036-10.48,11.541
	c-2.401,1.251-5.097,1.976-7.82,2.185c-2.728,0.219-5.471-0.043-8.126-0.6c-5.324-1.137-10.293-3.37-14.948-6.011
	c-4.666-2.694-8.989-5.719-13.16-9.335c-1.289-1.115-1.43-3.066-0.312-4.354c1.118-1.291,3.067-1.429,4.357-0.312
	c0.077,0.064,0.15,0.135,0.219,0.21L94.776,88.155z"/>
<g id="Shadows_1_">
	<path id="Right_Leg_shadow_1_" fill="#89A43C" d="M240.105,212.088c-1.056,0.373-1.977,0.646-2.72,0.79
		c-0.024,0.008-2.681,0.706-6.943,0.706c-8.905,0-26.157-3.09-41.605-23.742c-0.539-0.868-13.351-21.276-26.174-21.276
		c-0.468,0-0.936,0.023-1.392,0.081c0,0-2.724,0.842-2.905,1.607c-0.018,0.061,0,0.11,0.016,0.162
		c3.844-2.573,13.922,0.254,30.153,27.271c22.722,37.811,47.334,28.655,52.352,14.122L240.105,212.088z"/>
	<path id="Middle_Leg_shadow_1_" fill="#89A43C" d="M147.13,222.907c6.526,4.157,12.348,4.809,17.128,3.958
		c-6.232-0.913-13.71-5.508-23.553-25.768c-11.021-22.692-22.829-26.422-31.084-25.317c4.119,0.389,7.417,3.348,9.318,10.199
		C127.474,216.751,147.13,222.907,147.13,222.907z"/>
	<path id="Left_Leg_shadow_and_body_shadow_1_" fill="#89A43C" d="M41.289,214.706c-11.92-4.653-12.244-15.827-10.301-22.794
		c4.546-16.303,58.803-42.282,53.666-88.206c-2.622-23.438-29.916-73.47-0.263-94.338h0.002
		C57.792,25.584,59.457,57.819,61.085,68.473c0.924,5.414,2.218,10.831,4.039,15.515c0,0,8.085,21.206,10.668,31.382
		c9.001,35.471-31.765,55.058-48.176,67.237c-16.413,12.174-16.413,29.643-4.236,38.643c12.178,9,37.59-10.588,37.59-10.588
		c8.092-5.044,25.985-26.228,40.093-32.904C86.037,181.488,53.208,219.357,41.289,214.706z"/>
	<path id="tie_shadow_1_" opacity="0.18" fill="#384F0E" enable-background="new    " d="M136.807,153.699l6.277-15.569
		c0.278-0.976-0.705-1.839-2.146-1.946l-17.913-0.48c-1.442-0.112-2.099,1.135-1.426,2.734l9.958,14.399
		c0.599,8.488,2.912,28.083,11.789,45.07l23.745,10.989l-0.207-12.124C166.885,196.771,139.188,178.939,136.807,153.699z"/>
</g>
<path id="tie_1_" fill="#00421C" d="M169.005,196.149l-1.913,12.747l-20.733-11.61c-8.541-16.985-10.767-36.582-11.344-45.068
	l-9.575-14.404c-0.648-1.598-0.019-2.846,1.37-2.735l17.232,0.483c1.385,0.106,2.328,0.968,2.063,1.946l-6.034,15.563
	C142.359,178.316,169.005,196.149,169.005,196.149z"/>
<g id="eye_1_">
	<path fill="#F5EE6A" d="M116.759,58.634c0,9.588-4.776,17.355-10.67,17.355c-5.888,0-9.262-7.62-9.262-17.206
		s3.374-17.504,9.262-17.504C111.981,41.279,116.759,49.048,116.759,58.634z"/>
	<path fill="#3E6A27" d="M110.765,59.554c0,9.585,1.351,16.982-4.676,16.436C100.224,75.462,94.5,68.372,94.5,58.784
		c0-9.586,5.7-17.504,11.589-17.504C108.728,41.279,110.765,49.968,110.765,59.554z"/>
	<ellipse fill="#002E21" cx="105.707" cy="58.783" rx="8.881" ry="17.206"/>
	
		<ellipse transform="matrix(-0.4738 -0.8806 0.8806 -0.4738 117.7634 167.1924)" fill="#F4FAED" cx="108.834" cy="48.412" rx="4.557" ry="2.562"/>
	<path fill="#B5CE2F" d="M99.265,66.302c0,0,3.433,10.339,8.898,6.431C113.63,68.827,105.607,76.724,99.265,66.302z"/>
</g>
<g id="eye_2_">
	<path fill="#F5EE6A" d="M144.76,58.634c0,9.588-4.777,17.355-10.67,17.355c-5.889,0-9.262-7.62-9.262-17.206
		s3.373-17.504,9.262-17.504C139.982,41.279,144.76,49.048,144.76,58.634z"/>
	<path fill="#3E6A27" d="M138.766,59.554c0,9.585,1.35,16.982-4.676,16.436c-5.865-0.528-11.59-7.618-11.59-17.206
		c0-9.586,5.7-17.504,11.59-17.504C136.729,41.279,138.766,49.968,138.766,59.554z"/>
	<ellipse fill="#002E21" cx="133.707" cy="58.783" rx="8.881" ry="17.206"/>
	
		<ellipse transform="matrix(-0.4738 -0.8806 0.8806 -0.4738 159.0306 191.8513)" fill="#F4FAED" cx="136.835" cy="48.412" rx="4.557" ry="2.561"/>
	<path fill="#B5CE2F" d="M127.266,66.302c0,0,3.432,10.339,8.898,6.431C141.631,68.827,133.607,76.724,127.266,66.302z"/>
</g>
<radialGradient id="SVGID_1_" cx="117.1396" cy="71.6162" r="57.3912" gradientTransform="matrix(1 0 0 4 0 -214.8486)" gradientUnits="userSpaceOnUse">
	<stop  offset="0" style="stop-color:#FFFFFF;stop-opacity:0.2"/>
	<stop  offset="0.669" style="stop-color:#98D5FF;stop-opacity:0.7352"/>
	<stop  offset="1" style="stop-color:#6AC2FF"/>
</radialGradient>
<path fill-rule="evenodd" clip-rule="evenodd" fill="url(#SVGID_1_)" fill-opacity="0.7" d="M176.696,63.007
	c-0.649-8.745-2.136-17.083-4.097-24.583c-0.518-1.939-1.068-3.8-1.74-5.452c-0.671-1.664-1.883-2.941-3.128-3.998
	c-5.044-4.285-11.993-7.137-19.627-9.064c-5.782-1.454-11.971-2.291-18.701-2.798c-2.226-0.165-4.527-0.22-6.895-0.331
	c-4.681-0.22-9.692-0.066-14.075,0.287c-15.607,1.267-28.604,4.703-39.519,10.65c-0.716,0.386-1.465,0.826-2.27,1.354
	c-0.726,0.474-1.575,0.98-1.982,1.586c-0.892,1.344-1.563,3.194-2.257,4.923c-2.126,5.209-3.471,10.562-4.396,17.06
	c-0.297,2.148-0.462,4.307-0.572,6.608c-0.099,2.203,0,4.494,0,6.939c0,12.281,1.156,22.755,3.668,32.194
	c0.264,1.002,0.483,1.905,0.958,2.654c2.279,3.613,5.176,6.553,8.393,9.494c4.9,4.517,11.091,8.15,17.832,10.85
	c8.491,3.393,18.646,5.385,30.563,5.154c2.312-0.045,4.68,0.033,6.982-0.188c2.213-0.221,4.405-0.43,6.564-0.627
	c2.104-0.199,4.152-0.672,6.112-1.014c4.075-0.705,7.776-1.885,11.278-3.084c3.535-1.211,6.663-2.941,9.647-4.682
	c2.27-1.321,4.285-2.907,6.169-4.625c1.816-1.652,3.48-3.668,4.912-5.828c0.969-1.464,1.86-3.04,2.411-4.724
	c0.606-1.817,0.815-3.954,1.157-6.025c1.014-6.135,1.993-12.369,2.456-18.999C176.885,71.928,177.028,67.479,176.696,63.007z
	 M176.696,63.007c-0.649-8.745-2.136-17.083-4.097-24.583c-0.518-1.939-1.068-3.8-1.74-5.452c-0.671-1.664-1.883-2.941-3.128-3.998
	c-5.044-4.285-11.993-7.137-19.627-9.064c-5.782-1.454-11.971-2.291-18.701-2.798c-2.226-0.165-4.527-0.22-6.895-0.331
	c-4.681-0.22-9.692-0.066-14.075,0.287c-15.607,1.267-28.604,4.703-39.519,10.65c-0.716,0.386-1.465,0.826-2.27,1.354
	c-0.726,0.474-1.575,0.98-1.982,1.586c-0.892,1.344-1.563,3.194-2.257,4.923c-2.126,5.209-3.471,10.562-4.396,17.06
	c-0.297,2.148-0.462,4.307-0.572,6.608c-0.099,2.203,0,4.494,0,6.939c0,12.281,1.156,22.755,3.668,32.194
	c0.264,1.002,0.483,1.905,0.958,2.654c2.279,3.613,5.176,6.553,8.393,9.494c4.9,4.517,11.091,8.15,17.832,10.85
	c8.491,3.393,18.646,5.385,30.563,5.154c2.312-0.045,4.68,0.033,6.982-0.188c2.213-0.221,4.405-0.43,6.564-0.627
	c2.104-0.199,4.152-0.672,6.112-1.014c4.075-0.705,7.776-1.885,11.278-3.084c3.535-1.211,6.663-2.941,9.647-4.682
	c2.27-1.321,4.285-2.907,6.169-4.625c1.816-1.652,3.48-3.668,4.912-5.828c0.969-1.464,1.86-3.04,2.411-4.724
	c0.606-1.817,0.815-3.954,1.157-6.025c1.014-6.135,1.993-12.369,2.456-18.999C176.885,71.928,177.028,67.479,176.696,63.007z
	 M176.696,63.007c-0.649-8.745-2.136-17.083-4.097-24.583c-0.518-1.939-1.068-3.8-1.74-5.452c-0.671-1.664-1.883-2.941-3.128-3.998
	c-5.044-4.285-11.993-7.137-19.627-9.064c-5.782-1.454-11.971-2.291-18.701-2.798c-2.226-0.165-4.527-0.22-6.895-0.331
	c-4.681-0.22-9.692-0.066-14.075,0.287c-15.607,1.267-28.604,4.703-39.519,10.65c-0.716,0.386-1.465,0.826-2.27,1.354
	c-0.726,0.474-1.575,0.98-1.982,1.586c-0.892,1.344-1.563,3.194-2.257,4.923c-2.126,5.209-3.471,10.562-4.396,17.06
	c-0.297,2.148-0.462,4.307-0.572,6.608c-0.099,2.203,0,4.494,0,6.939c0,12.281,1.156,22.755,3.668,32.194
	c0.264,1.002,0.483,1.905,0.958,2.654c2.279,3.613,5.176,6.553,8.393,9.494c4.9,4.517,11.091,8.15,17.832,10.85
	c8.491,3.393,18.646,5.385,30.563,5.154c2.312-0.045,4.68,0.033,6.982-0.188c2.213-0.221,4.405-0.43,6.564-0.627
	c2.104-0.199,4.152-0.672,6.112-1.014c4.075-0.705,7.776-1.885,11.278-3.084c3.535-1.211,6.663-2.941,9.647-4.682
	c2.27-1.321,4.285-2.907,6.169-4.625c1.816-1.652,3.48-3.668,4.912-5.828c0.969-1.464,1.86-3.04,2.411-4.724
	c0.606-1.817,0.815-3.954,1.157-6.025c1.014-6.135,1.993-12.369,2.456-18.999C176.885,71.928,177.028,67.479,176.696,63.007z"/>
<g>
	<radialGradient id="SVGID_2_" cx="117.498" cy="60.5371" r="74.8532" gradientUnits="userSpaceOnUse">
		<stop  offset="0" style="stop-color:#FEFEFE"/>
		<stop  offset="0.1183" style="stop-color:#FEFEFE"/>
		<stop  offset="0.1378" style="stop-color:#FEFEFE"/>
		<stop  offset="0.4863" style="stop-color:#FCFCFC"/>
		<stop  offset="0.6119" style="stop-color:#F5F5F5"/>
		<stop  offset="0.7014" style="stop-color:#EAEAEA"/>
		<stop  offset="0.7738" style="stop-color:#D9D9D9"/>
		<stop  offset="0.8358" style="stop-color:#C3C3C3"/>
		<stop  offset="0.8907" style="stop-color:#A7A7A7"/>
		<stop  offset="0.9403" style="stop-color:#878787"/>
		<stop  offset="0.9845" style="stop-color:#636363"/>
		<stop  offset="1" style="stop-color:#545454"/>
	</radialGradient>
	<path fill-rule="evenodd" clip-rule="evenodd" fill="url(#SVGID_2_)" d="M193.422,19.305c0.02-1.36-1.11-1.94-1.931-2.41
		c-2.18-1.25-4.6-2.01-7.18-2.67c-3.16-0.81-6.78-0.99-10.5-0.7c-0.51,0.04-1.24,0.23-1.53,0.13c-0.229-0.07-0.729-1.02-1.01-1.4
		c-0.38-0.52-0.7-0.98-1.01-1.4c-2.051-2.84-4.36-5.51-6.87-7.66c-0.87-0.75-1.72-1.5-2.58-2.23c-0.87-0.74-1.89-1.36-2.851-2.01
		c-1.93-1.33-3.97-2.45-6.079-3.59c-3.2-1.74-6.721-2.95-10.33-4.16c-1.24-0.42-2.53-0.68-3.851-1.01
		c-5.08-1.26-10.77-2.07-17.16-2.19h-3.37c-3.2,0.08-6.3,0.44-9.32,0.75c-4.51,0.46-8.77,1.23-12.82,2.27
		c-4,1.03-7.82,2.18-11.25,3.81c-1.17,0.56-2.31,1.09-3.41,1.62c-1.11,0.54-2.13,1.24-3.15,1.88c-1.04,0.65-2.1,1.27-3.02,2.02
		c-1.85,1.49-3.68,2.95-5.34,4.72c-0.81,0.87-1.69,1.71-2.41,2.63c-1.46,1.86-2.88,3.81-4.07,5.95c-3.93-0.39-8.37-0.36-11.9,0.61
		c-2.44,0.67-4.93,1.48-7.05,2.67c-0.95,0.54-1.88,1.11-1.84,2.45c-0.98,0.92-1.18,2.41-1.18,4.12v15.8c0,1.95-0.14,3.63,0.39,4.9
		c0.48,1.13,1.42,2.12,2.72,2.54c1.37,0.43,3.32,0.17,5.12,0.17c1.79,0,3.51,0.04,5.21-0.04c-0.01,1.48-0.18,2.8-0.18,4.29
		c-0.93,0.3-2.92-0.23-3.72,0.35c-0.55,0.4-0.88,1.92-1.14,2.84c-0.86,3.11-1.32,6.77-1.05,10.73c0.25,3.69,0.83,7.06,1.71,10.24
		c0.26,0.96,0.55,2.68,1.27,2.89c0.99,0.28,3.07-0.22,4.11-0.09c0.49,4.33,0.93,8.7,1.62,12.82c-0.68,0.04-1.36,0.12-2.06,0.18
		c-0.76,0.06-1.65,0.08-2.1,0.43c-1.26,1.02-0.8,4.83-0.52,6.74c0.22,1.52,0.56,3.34,1.31,4.56c0.26,0.41,0.63,0.89,0.92,1
		c0.24,0.09,0.53,0.02,0.92,0.05c0.33,0.02,0.48,0.19,0.7,0.17c0.32-0.03,0.64-0.28,1.01-0.35c1.13-0.2,2.34-0.13,3.59-0.35
		c4.02,5.73,8.66,11.11,15.01,14.709c6.2,3.511,13.18,6.57,20.61,9.101c3.57,1.21,7.66,2.39,11.95,2.93
		c6.51,0.82,14.44,0.69,21.27,0.22c2.311-0.159,4.74-0.409,7.091-0.13c3.71,0.431,7.199,1.42,10.55,2.45
		c0.59,0.18,1.12,0.51,1.62,0.391c0.729-0.171,1.489-0.57,2.229-0.87c4.32-1.78,8.86-3.63,13.22-5.431
		c0.73-0.3,1.511-0.55,2.19-0.92c0.37-0.2,0.51-0.319,0.61-0.779c0.239-1.171,0.319-2.601,0.479-3.94
		c0.08-0.68,0.14-1.36,0.22-2.021c0.08-0.68,0.07-1.399,0.221-1.97c0.14-0.55,1-1.53,1.35-2.05c1.35-1.97,2.82-4.18,3.99-6.26
		c1.25-2.24,2.38-4.37,3.149-7.09c0.23-0.85,0.591-1.77,0.431-2.76c2.71-5.66,3.83-12.92,4.34-20.79c1.05-0.18,2.84,0.46,3.63-0.13
		c0.54-0.41,0.85-1.94,1.09-2.89c1.3-5.01,2.26-11.56,1.271-17.64c-0.181-1.1-0.37-2.15-0.7-3.28c-0.26-0.9-0.601-2.41-1.18-2.76
		c-0.931-0.56-2.971,0.03-3.98-0.3h-0.09c-0.11-1.4-0.16-2.87-0.26-4.29c1.319-0.08,2.83,0.04,4.37,0.04h4.56
		c3.06,0,4.61-1.43,5.12-3.98v-21.05C194.441,20.794,193.972,20.004,193.422,19.305z M53.412,94.975c0.28,1.52,0.67,3.17,0.57,4.94
		C53.691,98.395,53.321,96.714,53.412,94.975z M174.251,79.344c-0.859,7.47-2.42,14.17-3.77,20.88c-0.28,1.41-1.021,2.65-1.7,3.76
		c-4.09,6.65-10.66,11.53-18.21,14.62c-2.62,1.07-5.27,2.03-8.14,2.8c-8.431,2.271-19.21,3.3-29.81,2.54
		c-13.52-0.97-24.31-4.77-33.26-10.5c-3.31-2.12-6.42-4.54-9.15-7.27c-0.91-0.91-2.05-1.92-2.58-2.93
		c-0.48-0.92-0.78-2.03-1.18-3.06c-0.59-1.56-1.17-3.09-1.75-4.6c-0.2-0.52-0.5-0.96-0.66-1.49c-1.41-4.83-2.34-10.47-3.02-16.1
		c-0.07-0.65-0.25-1.39-0.22-1.93c0.03-0.42,0.3-0.88,0.44-1.4c0.13-0.49,0.17-1.05,0.31-1.36c0.16-0.37,0.58-0.35,0.7-0.87
		c0.13-0.58,0.04-1.42,0.04-2.15c0-3.7,0.18-7.08,0.18-10.76c0-1.24,0.32-3.56-0.13-4.2c-0.29-0.42-0.76-0.34-1.23-0.4
		c-0.07-0.35-0.29-0.79-0.26-1.09c0.51,0.19,0.88,0.42,1.53,0.3c1.22-0.22,1.27-1.89,1.36-3.23c0.06-0.93,0.11-1.9,0.17-2.72
		c0.36-4.62,1.25-8.28,2.58-11.86c0.27-0.72,0.46-1.55,0.84-2.1c0.47-0.71,1.34-1.41,2.1-2.1c2.26-2.06,4.78-3.83,7.39-5.34
		c11.62-6.71,27.13-9.9,45.61-9.32c14.069,0.44,26.189,3.29,35.529,8.53c2.461,1.38,5.03,3.05,7.141,4.9
		c0.72,0.64,1.57,1.34,2.01,2.02c0.82,1.24,1.271,2.96,1.75,4.42c1.23,3.7,2.01,7.85,2.24,12.51c0.09,2,0.12,4.43,2.45,3.72
		c0.02,0.5,0.18,0.87,0.17,1.41c-1.62-0.26-1.36,1.03-1.36,2.58c0,4.35,0.18,8.51,0.18,12.73c0,0.73-0.08,1.59,0.04,2.15
		c0.11,0.46,0.57,0.46,0.7,0.83c0.2,0.53,0.271,1.26,0.48,1.93c0.21,0.65,0.64,1.2,0.699,1.66
		C174.552,77.504,174.342,78.544,174.251,79.344z"/>
</g>
<path fill-rule="evenodd" clip-rule="evenodd" fill="#333333" d="M54.201,23.895c-0.44-0.94-0.97-1.71-2.01-2.41
	c-0.87-0.58-1.94-1.05-3.46-1.05c-1.7-0.01-3.28,0.68-4.25,1.57c-1.07,1-2.15,2.59-1.97,4.95c0.2,2.57,2.05,4.27,3.94,4.94
	C51.171,33.574,56.582,29.035,54.201,23.895z M47.151,29.574c0.12,0.25,0.42,0.5,0.4,0.75c-1.72-0.54-3.07-1.62-3.2-3.63
	c-0.16-2.48,1.63-4.05,3.85-4.38c0-0.02,0.04-0.05,0.05,0C46.432,23.555,46.091,27.404,47.151,29.574z M190.791,22.094
	c-0.869-0.87-2.109-1.58-3.85-1.75c-2.63-0.25-4.63,1.11-5.6,2.5c-0.601,0.85-1.04,1.95-1.051,3.28c-0.02,3.34,2.62,5.8,5.69,6.04
	c3.31,0.25,6.3-1.99,6.56-5.39C192.711,24.665,191.762,23.064,190.791,22.094z M187.512,30.145c0.569-0.84,0.949-1.96,1.01-3.23
	c0.08-1.94-0.6-3.47-1.49-4.38c-0.12-0.12-0.35-0.29-0.26-0.35c2.2,0.27,3.93,1.83,3.93,4.11
	C190.701,28.265,189.371,29.765,187.512,30.145z M54.201,23.895c-0.44-0.94-0.97-1.71-2.01-2.41c-0.87-0.58-1.94-1.05-3.46-1.05
	c-1.7-0.01-3.28,0.68-4.25,1.57c-1.07,1-2.15,2.59-1.97,4.95c0.2,2.57,2.05,4.27,3.94,4.94
	C51.171,33.574,56.582,29.035,54.201,23.895z M47.151,29.574c0.12,0.25,0.42,0.5,0.4,0.75c-1.72-0.54-3.07-1.62-3.2-3.63
	c-0.16-2.48,1.63-4.05,3.85-4.38c0-0.02,0.04-0.05,0.05,0C46.432,23.555,46.091,27.404,47.151,29.574z M190.791,22.094
	c-0.869-0.87-2.109-1.58-3.85-1.75c-2.63-0.25-4.63,1.11-5.6,2.5c-0.601,0.85-1.04,1.95-1.051,3.28c-0.02,3.34,2.62,5.8,5.69,6.04
	c3.31,0.25,6.3-1.99,6.56-5.39C192.711,24.665,191.762,23.064,190.791,22.094z M187.512,30.145c0.569-0.84,0.949-1.96,1.01-3.23
	c0.08-1.94-0.6-3.47-1.49-4.38c-0.12-0.12-0.35-0.29-0.26-0.35c2.2,0.27,3.93,1.83,3.93,4.11
	C190.701,28.265,189.371,29.765,187.512,30.145z M193.422,19.294c0.029-1.35-1.101-1.94-1.931-2.41c-2.17-1.24-4.6-2.01-7.17-2.67
	c-3.17-0.81-6.79-0.99-10.51-0.7c-0.5,0.04-1.24,0.23-1.53,0.13c-0.229-0.07-0.729-1.01-1.01-1.4c-0.38-0.52-0.7-0.98-1-1.4
	c-2.061-2.84-4.37-5.5-6.87-7.66c-0.88-0.74-1.72-1.49-2.59-2.23c-0.87-0.74-1.89-1.35-2.84-2.01c-1.931-1.33-3.98-2.45-6.09-3.59
	c-3.2-1.74-6.721-2.95-10.32-4.16c-1.24-0.41-2.54-0.68-3.86-1c-5.08-1.27-10.76-2.08-17.15-2.19h-3.37
	c-3.21,0.07-6.3,0.43-9.32,0.74c-4.52,0.47-8.78,1.24-12.83,2.28c-4,1.02-7.81,2.17-11.25,3.81c-1.17,0.55-2.31,1.08-3.41,1.61
	c-1.11,0.54-2.12,1.24-3.15,1.89c-1.03,0.64-2.09,1.26-3.02,2.01c-1.85,1.5-3.68,2.96-5.34,4.73c-0.81,0.86-1.69,1.7-2.41,2.62
	c-1.45,1.86-2.88,3.81-4.07,5.95c-3.93-0.38-8.37-0.35-11.9,0.62c-2.44,0.67-4.93,1.48-7.05,2.67c-0.95,0.53-1.88,1.1-1.84,2.45
	c-0.98,0.91-1.18,2.41-1.18,4.11v15.8c0,1.96-0.14,3.64,0.4,4.9c0.47,1.14,1.41,2.13,2.71,2.54c1.37,0.44,3.32,0.18,5.12,0.18
	c1.79,0,3.51,0.03,5.21-0.05c-0.01,1.48-0.18,2.8-0.18,4.29c-0.93,0.3-2.91-0.23-3.72,0.35c-0.55,0.4-0.88,1.93-1.13,2.85
	c-0.87,3.11-1.32,6.76-1.05,10.72c0.25,3.69,0.83,7.06,1.7,10.24c0.27,0.96,0.56,2.68,1.27,2.89c0.99,0.28,3.07-0.21,4.12-0.09
	c0.48,4.33,0.93,8.7,1.62,12.82c-0.68,0.05-1.36,0.12-2.06,0.18c-0.77,0.07-1.66,0.08-2.1,0.44c-1.27,1.01-0.8,4.83-0.53,6.74
	c0.22,1.52,0.56,3.34,1.32,4.55c0.25,0.41,0.62,0.89,0.91,1.01c0.24,0.08,0.53,0.01,0.92,0.04c0.33,0.02,0.48,0.19,0.7,0.17
	c0.33-0.02,0.64-0.28,1.01-0.35c1.13-0.2,2.34-0.13,3.59-0.35c4.02,5.74,8.66,11.12,15.01,14.71c6.2,3.51,13.18,6.57,20.61,9.101
	c3.57,1.22,7.66,2.39,11.95,2.939c6.51,0.82,14.44,0.681,21.27,0.21c2.311-0.149,4.74-0.399,7.091-0.13
	c3.71,0.44,7.199,1.42,10.55,2.45c0.59,0.18,1.13,0.52,1.62,0.4c0.729-0.181,1.5-0.57,2.229-0.881c4.32-1.779,8.86-3.619,13.22-5.43
	c0.74-0.3,1.521-0.54,2.19-0.91c0.37-0.21,0.51-0.33,0.61-0.79c0.25-1.16,0.319-2.6,0.479-3.939c0.08-0.67,0.14-1.36,0.22-2.011
	c0.08-0.689,0.07-1.409,0.221-1.97c0.14-0.55,1-1.54,1.359-2.06c1.351-1.97,2.811-4.18,3.98-6.26c1.26-2.24,2.39-4.37,3.149-7.09
	c0.24-0.85,0.601-1.77,0.44-2.76c2.71-5.66,3.82-12.92,4.33-20.79c1.05-0.17,2.85,0.46,3.63-0.13c0.54-0.4,0.85-1.94,1.1-2.88
	c1.301-5.02,2.261-11.57,1.271-17.64c-0.18-1.1-0.38-2.15-0.71-3.28c-0.26-0.9-0.601-2.41-1.18-2.76
	c-0.931-0.57-2.971,0.02-3.98-0.31h-0.09c-0.11-1.4-0.16-2.87-0.26-4.29c1.319-0.08,2.83,0.05,4.38,0.05h4.55
	c3.07,0,4.61-1.44,5.12-3.99v-21.05C194.441,20.785,193.972,19.995,193.422,19.294z M53.412,94.964c0.29,1.52,0.68,3.18,0.57,4.95
	C53.691,98.395,53.332,96.714,53.412,94.964z M153.241,1.174c1.021,0.62,2.11,1.14,3.07,1.8c1.91,1.31,3.71,2.53,5.42,4.02
	c0.85,0.74,1.75,1.46,2.5,2.23c1.54,1.59,3.13,3.19,4.42,4.99c0.66,0.92,1.3,1.84,1.97,2.76c0.66,0.91,1.13,1.97,1.7,3.02
	c0.55,1,1.18,1.96,1.62,3.06c0.9,2.24,1.79,4.46,2.45,7.01c0.33,1.25,0.74,2.54,0.92,3.8c0.399,2.69,0.78,5.46,1.01,8.41
	c0.22,2.83,0.48,5.78,0.61,8.84c-0.9-0.02-2.061-0.22-2.84,0.04c-0.271-4.96-0.42-10.22-1.141-14.88
	c-0.37-2.39-0.819-4.5-2.359-5.64c-1.341-1-4.23-1.55-6.44-0.62c-3.21-2.91-7.13-5.12-11.2-7.17c1.37-7.45-0.01-15.69-1.75-21.63
	C153.201,1.194,153.201,1.165,153.241,1.174z M176.521,57.765c-0.1-0.75-0.14-1.67-0.34-2.01c-0.13-0.22-0.54-0.34-0.66-0.53
	c0.24-0.71,0.41-1.49,0.79-2.06c0.67,1.35,0.96,3.37,1.13,5.35c0.18,2.03,0.32,4.13,0.22,6.12c-0.189,4.13-0.45,8.21-1.79,10.86
	c-0.319-0.58-0.479-1.31-0.66-2.02c1.49,0.3,1.37-1.15,1.49-2.4C177.142,66.634,177.081,61.924,176.521,57.765z M58.231,71.464
	c0.11,1.25,0.15,2.25,1.4,2.01c-0.16,0.77-0.33,1.52-0.7,2.06c-1.3-2.77-1.57-6.88-1.76-10.9c-0.18-4.12,0.24-8.33,1.32-11.33
	c0-0.03,0-0.06,0.04-0.05c0.4,0.54,0.54,1.33,0.79,2.02c-0.8,0.36-0.82,1.38-0.96,2.58C57.821,62.205,57.801,66.995,58.231,71.464z
	 M59.631,77.895c0.52,4.44,1.21,8.71,2.1,12.78c-0.91-0.35-2.23,0.06-3.29,0.09c-0.69-4.09-1.23-8.34-1.66-12.69
	C57.701,77.984,58.801,78.084,59.631,77.895z M61.031,77.984c-0.08-0.64-0.26-1.39-0.22-1.93c0.03-0.42,0.3-0.88,0.43-1.4
	c0.14-0.48,0.17-1.04,0.31-1.35c0.17-0.37,0.59-0.36,0.7-0.88c0.13-0.57,0.05-1.41,0.05-2.14c0-3.71,0.17-7.08,0.17-10.77
	c0-1.23,0.32-3.55-0.13-4.2c-0.29-0.41-0.76-0.34-1.23-0.39c-0.07-0.35-0.28-0.8-0.26-1.1c0.51,0.19,0.89,0.42,1.53,0.31
	c1.23-0.22,1.27-1.9,1.36-3.24c0.06-0.93,0.11-1.9,0.17-2.71c0.36-4.62,1.25-8.28,2.59-11.87c0.27-0.71,0.46-1.54,0.83-2.1
	c0.47-0.7,1.34-1.41,2.1-2.1c2.26-2.06,4.78-3.83,7.4-5.34c11.61-6.7,27.13-9.9,45.6-9.32c14.08,0.44,26.2,3.3,35.54,8.54
	c2.45,1.37,5.02,3.04,7.13,4.9c0.72,0.63,1.57,1.34,2.01,2.01c0.82,1.24,1.271,2.96,1.76,4.42c1.221,3.7,2.011,7.85,2.23,12.52
	c0.09,2,0.12,4.42,2.45,3.72c0.02,0.5,0.189,0.86,0.17,1.4c-1.62-0.25-1.351,1.04-1.351,2.58c0,4.36,0.17,8.51,0.17,12.74
	c0,0.73-0.08,1.58,0.051,2.14c0.1,0.46,0.56,0.46,0.699,0.83c0.19,0.54,0.271,1.26,0.48,1.93c0.2,0.65,0.63,1.2,0.7,1.66
	c0.09,0.65-0.13,1.69-0.221,2.5c-0.85,7.46-2.42,14.16-3.77,20.87c-0.28,1.42-1.01,2.65-1.7,3.77
	c-4.09,6.64-10.66,11.52-18.21,14.61c-2.61,1.08-5.27,2.029-8.14,2.8c-8.431,2.28-19.21,3.3-29.8,2.54
	c-13.53-0.96-24.32-4.76-33.27-10.5c-3.3-2.12-6.42-4.54-9.14-7.26c-0.92-0.92-2.06-1.92-2.58-2.94c-0.48-0.92-0.79-2.02-1.19-3.06
	c-0.59-1.55-1.17-3.09-1.75-4.6c-0.2-0.52-0.5-0.96-0.65-1.48C62.631,89.265,61.701,83.614,61.031,77.984z M60.151,51.904
	c0.16-4.5,0.46-10.18,1.09-14.54c0.24-1.58,0.42-3.21,1.01-4.24c0.8-1.4,2.9-1.95,4.82-1.62c-2.57,5.05-4.3,11.11-4.64,18.34
	c-0.05,0.99-0.04,2.03-0.4,2.93C61.321,52.564,60.662,52.314,60.151,51.904z M172.762,52.254c-0.391-1.98-0.36-4.05-0.57-6
	c-0.58-5.41-2.01-10.14-3.89-14.18c-0.19-0.39-0.46-0.75-0.44-1.05c1.95-0.27,3.61,0.13,4.51,1.27c0.761,0.97,0.98,2.81,1.221,4.46
	c0.67,4.5,0.909,10.24,1.14,14.71C174.081,51.734,173.602,52.174,172.762,52.254z M148.512-1.146c0.989,0.48,2.09,0.83,2.979,1.4
	c1.82,6.07,3.44,14.07,2.19,21.88c-1.26-0.45-2.471-0.97-3.721-1.44c0.16-3.74,0.44-7.79,0.44-11.69c0-3.97-0.83-7.32-1.97-10.15
	H148.512z M105.062-5.956c2.29-0.33,4.74-0.51,7.26-0.79c1.2-0.13,2.54-0.12,3.85-0.18c2.78-0.11,5.25-0.13,7.88,0.05
	c8.51,0.57,16.069,2.3,22.54,4.9c1.18,2.85,2.38,6.16,2.449,10.2c0.07,3.99-0.319,8.22-0.479,12.16
	c-8.271-2.7-18.21-4.37-29.24-4.37c-11.02,0-21.32,1.2-29.76,3.85c-0.25-4.13-0.44-8.38-0.44-12.61c0-4.13,1.55-7.42,2.67-10.37
	C95.801-4.166,100.241-5.266,105.062-5.956z M90.042-2.456c-0.03,0.01-0.05,0.04-0.04,0.09c-1.12,2.85-2.28,6.14-2.28,10.19
	c0,3.95,0.25,8.15,0.44,12.04c-1.21,0.6-2.42,1.19-3.72,1.71c-1.32-8.4,0.58-16.71,2.58-23.02
	C88.051-1.735,89.071-2.255,90.042-2.456z M63.082,18.415c0.42-0.74,0.78-1.47,1.23-2.14c0.9-1.34,1.85-2.65,2.8-3.9
	c0.48-0.63,1.06-1.16,1.62-1.75c1.11-1.16,2.14-2.36,3.37-3.37c1.22-0.99,2.44-2.07,3.81-2.93c1.37-0.86,2.7-1.87,4.11-2.62
	c1.75-0.94,3.55-1.58,5.34-2.54c0.03,0,0.05,0,0.04,0.04c-2,6.27-3.66,14.85-2.27,22.89c-5.34,2.31-10.27,5.02-14.27,8.67
	c-0.21-0.28-0.37-0.39-0.7-0.48c-2.47-0.69-4.86-0.06-6.13,1c-1.39,1.17-1.83,3.37-2.14,5.56c-0.65,4.52-0.9,9.65-1.1,14.31
	c-0.77-0.27-2.22-0.04-3.28-0.04c-0.01-0.8,0.09-1.62,0.13-2.5c0.04-0.8-0.09-1.78,0.13-2.49c0.12-0.36,0.66-0.78,0.84-1.01
	c0.88-1.13,0.96-2.54,0.96-4.64v-3.72c0-1.27-0.12-2.48,0-3.72c0.08-0.84,0.39-1.78,0.66-2.67c0.25-0.87,0.54-1.75,0.78-2.58
	c0.53-1.78,1.21-3.37,1.84-4.9C61.511,21.274,62.292,19.844,63.082,18.415z M48.991,45.074c-1.4,0-3.79,0.26-4.94-0.13
	c-1.58-0.54-2.03-2.07-1.75-4.42c0.79,2.9,3.93,4.93,7.39,4.07c2.33-0.59,4.39-2.54,4.6-5.34c0.24-3.46-2.18-5.7-4.82-6.22
	c-3.58-0.7-6.37,1.6-7.22,4.29v-11.9c0-1.21-0.19-2.84,0.13-3.85c0.25-0.77,0.99-1.55,1.88-1.76c1.18-0.26,2.93-0.04,4.38-0.04
	c1.63,0,3.05-0.14,4.42-0.04c1.21,0.08,2.22,0.8,2.54,1.84c0.2,0.64,0.09,1.7,0.09,2.62v13.7c0,1.77,0.24,3.88-0.13,5.38
	c-0.2,0.79-0.99,1.46-1.62,1.67C52.781,45.324,50.491,45.074,48.991,45.074z M47.631,42.625c0.08,0.08,0.29,0.15,0.27,0.3
	c-2.38-0.25-4.26-1.81-3.99-4.46c0.2-1.91,1.55-3.06,3.29-3.55c0-0.02,0.03-0.04,0.04,0C45.582,37.084,46.051,40.975,47.631,42.625z
	 M51.662,76.364c-2.05-6.26-3.19-16.7-0.52-23.24c1.81-0.08,3.66-0.13,5.47-0.22c-1.89,6.38-1.74,17.36,0.56,23.29
	C55.361,76.274,53.531,76.334,51.662,76.364z M61.771,101.395c-2.01,0.18-4.02,0.36-6,0.57c0.36-3.24-0.25-6.5-1.05-9.01
	c1.94-0.2,3.88-0.39,5.87-0.53C61.852,94.334,62.131,98.145,61.771,101.395z M137.661,128.574c2.45-0.68,5.101-1.17,7.66-1.75
	c0.67,1.33,1.271,2.73,1.93,4.07C144.161,130.015,141.111,129.095,137.661,128.574z M148.781,130.895
	c-0.729-1.521-1.439-3.05-2.149-4.59c5.02-2.13,10.06-4.24,15.1-6.351c0.89,1.49,1.7,3.061,2.5,4.641
	C159.052,126.675,153.941,128.805,148.781,130.895z M164.932,122.935c-0.62-1.23-1.29-2.42-1.931-3.64
	c0.891-0.511,1.69-1.11,2.58-1.61C165.371,119.435,165.241,121.274,164.932,122.935z M166.281,115.574
	c-1.54,0.84-2.88,2.01-4.42,2.811c-0.92,0.47-1.95,0.859-2.93,1.26c-3.04,1.27-5.99,2.52-8.971,3.77
	c-1.989,0.83-3.96,1.83-6.13,2.32c-3.31,0.74-6.989,1.57-10.37,2.32c-0.6,0.13-1.17,0.27-1.8,0.3c-8.529,0.41-18.18,1.02-26.08-0.48
	c-4.57-0.859-8.97-2.26-13.09-3.85c-4.1-1.58-8.1-3.29-11.81-5.16c-1.91-0.96-3.76-1.91-5.47-2.98c-5.22-3.26-9.37-7.69-12.78-12.69
	c0.43-0.03,0.79-0.22,0.96-0.61c0.6-1.36,0.25-4.01,0.35-5.65c0.42,1.16,0.85,2.3,1.31,3.5c0.44,1.14,0.82,2.35,1.32,3.42
	c0.38,0.82,1.41,1.81,2.18,2.58c2.46,2.46,4.95,4.68,7.75,6.61c7.67,5.28,16.32,9.04,27.22,11.11c8.07,1.54,18,1.87,26.74,0.88
	c8.71-0.989,16.16-2.96,22.76-6c6.45-2.97,12.09-7.27,15.93-12.82c1.34-1.93,2.71-4.01,3.021-6.57h2.63
	C173.121,106.245,169.441,110.654,166.281,115.574z M176.132,92.995c-0.71,1.77-1.53,3.31-1.881,5.25h-1.97
	c1.36-6.55,2.82-13.02,3.5-20.26c1.03,0.04,2.04,0.09,3.11,0.09C178.461,83.674,177.842,88.745,176.132,92.995z M183.791,53.125
	c2.62,6.64,1.53,17.01-0.569,23.24c-1.891-0.02-3.73-0.09-5.561-0.17c1.74-4.07,2.141-11.65,1.62-17.82
	c-0.14-1.73-0.399-3.51-0.87-4.94c-0.08-0.23-0.229-0.47-0.05-0.53c0.14-0.04,0.18,0.04,0.271,0.05
	C180.201,53.094,182.191,52.995,183.791,53.125z M192.722,37.104c-0.83-2.71-3.7-4.91-7.181-4.2c-2.659,0.55-5.1,2.84-4.77,6.39
	c0.27,2.9,2.67,5,5.43,5.34c3.311,0.41,5.561-1.53,6.561-4.11c0.149,2.35-0.12,3.89-1.79,4.42c-0.7,0.22-1.71,0.15-2.67,0.13
	c-0.9-0.03-1.87-0.05-2.801-0.05c-2.04,0-4.119,0.26-5.119-0.52c-0.141-1.75-0.25-3.52-0.4-5.38c-0.13-1.68-0.54-3.43-0.65-5.08
	c-0.189-2.84,0-6.1,0-8.97c0-1.04-0.109-2.1,0-3.02c0.12-1.08,0.971-2.05,2.011-2.28c0.619-0.14,1.439-0.04,2.229-0.04h2.28
	c1.58,0,3.16-0.17,4.55,0c0.97,0.11,1.85,0.8,2.19,1.62c0.42,1.04,0.17,2.94,0.17,4.42
	C192.762,29.495,192.802,33.654,192.722,37.104z M188.821,37.805c-0.09-1.22-0.58-2.31-1.13-3.06h0.08
	c1.81,0.51,3.22,1.79,3.37,3.76c0.18,2.38-1.48,4.03-3.891,4.29C188.241,41.864,188.991,39.955,188.821,37.805z M186.941,20.344
	c-2.63-0.25-4.63,1.11-5.6,2.5c-0.601,0.85-1.04,1.95-1.051,3.28c-0.02,3.34,2.62,5.8,5.69,6.04c3.31,0.25,6.3-1.99,6.56-5.39
	c0.17-2.11-0.779-3.71-1.75-4.68C189.922,21.225,188.682,20.515,186.941,20.344z M187.512,30.145c0.569-0.84,0.949-1.96,1.01-3.23
	c0.08-1.94-0.6-3.47-1.49-4.38c-0.12-0.12-0.35-0.29-0.26-0.35c2.2,0.27,3.93,1.83,3.93,4.11
	C190.701,28.265,189.371,29.765,187.512,30.145z M54.201,23.895c-0.44-0.94-0.97-1.71-2.01-2.41c-0.87-0.58-1.94-1.05-3.46-1.05
	c-1.7-0.01-3.28,0.68-4.25,1.57c-1.07,1-2.15,2.59-1.97,4.95c0.2,2.57,2.05,4.27,3.94,4.94
	C51.171,33.574,56.582,29.035,54.201,23.895z M47.151,29.574c0.12,0.25,0.42,0.5,0.4,0.75c-1.72-0.54-3.07-1.62-3.2-3.63
	c-0.16-2.48,1.63-4.05,3.85-4.38c0-0.02,0.04-0.05,0.05,0C46.432,23.555,46.091,27.404,47.151,29.574z"/>
<linearGradient id="SVGID_3_" gradientUnits="userSpaceOnUse" x1="119.4985" y1="19.8062" x2="119.4985" y2="-7.5879">
	<stop  offset="0" style="stop-color:#FF2300"/>
	<stop  offset="1" style="stop-color:#6A000E"/>
</linearGradient>
<path fill-rule="evenodd" clip-rule="evenodd" fill="url(#SVGID_3_)" d="M105.475-6.534c2.29-0.33,4.739-0.51,7.26-0.79
	c1.2-0.13,2.54-0.12,3.851-0.18c2.779-0.11,5.25-0.13,7.88,0.05c8.51,0.57,16.069,2.3,22.54,4.9c1.18,2.85,2.38,6.16,2.449,10.2
	c0.07,3.99-0.319,8.22-0.479,12.16c-8.271-2.7-18.21-4.37-29.24-4.37c-11.021,0-21.319,1.2-29.76,3.85
	c-0.25-4.13-0.44-8.38-0.44-12.61c0-4.13,1.551-7.42,2.67-10.37C96.214-4.744,100.654-5.844,105.475-6.534z"/>
<path fill-rule="evenodd" clip-rule="evenodd" fill="#2651DD" d="M148.64-1.724h0.08c0.989,0.48,2.09,0.83,2.979,1.4
	c1.82,6.07,3.44,14.07,2.19,21.88c-1.26-0.45-2.471-0.97-3.721-1.44c0.16-3.74,0.44-7.79,0.44-11.69
	C150.609,4.457,149.779,1.106,148.64-1.724"/>
<path fill-rule="evenodd" clip-rule="evenodd" fill="#2651DD" d="M90.21-2.944c-1.121,2.85-2.281,6.14-2.281,10.19
	c0,3.95,0.25,8.15,0.441,12.04c-1.211,0.6-2.421,1.19-3.721,1.71c-1.32-8.4,0.58-16.71,2.58-23.02c1.029-0.29,2.05-0.81,3.02-1.01
	C90.22-3.023,90.199-2.994,90.21-2.944"/>
<linearGradient id="SVGID_4_" gradientUnits="userSpaceOnUse" x1="151.4854" y1="21.5562" x2="151.4854" y2="-1.7236">
	<stop  offset="0" style="stop-color:#FFFFFF"/>
	<stop  offset="1" style="stop-color:#000000"/>
</linearGradient>
<path fill-rule="evenodd" clip-rule="evenodd" fill="url(#SVGID_4_)" d="M148.64-1.724h0.08c0.989,0.48,2.09,0.83,2.979,1.4
	c1.82,6.07,3.44,14.07,2.19,21.88c-1.26-0.45-2.471-0.97-3.721-1.44c0.16-3.74,0.44-7.79,0.44-11.69
	C150.609,4.457,149.779,1.106,148.64-1.724"/>
<linearGradient id="SVGID_5_" gradientUnits="userSpaceOnUse" x1="87.23" y1="20.9961" x2="87.23" y2="-3.0337">
	<stop  offset="0" style="stop-color:#FFFFFF"/>
	<stop  offset="1" style="stop-color:#000000"/>
</linearGradient>
<path fill-rule="evenodd" clip-rule="evenodd" fill="url(#SVGID_5_)" d="M90.21-2.944c-1.121,2.85-2.281,6.14-2.281,10.19
	c0,3.95,0.25,8.15,0.441,12.04c-1.211,0.6-2.421,1.19-3.721,1.71c-1.32-8.4,0.58-16.71,2.58-23.02c1.029-0.29,2.05-0.81,3.02-1.01
	C90.22-3.023,90.199-2.994,90.21-2.944"/>
<g>
	<linearGradient id="SVGID_6_" gradientUnits="userSpaceOnUse" x1="151.4854" y1="21.5562" x2="151.4854" y2="-1.7236">
		<stop  offset="0" style="stop-color:#2A79FF"/>
		<stop  offset="1" style="stop-color:#0B0094"/>
	</linearGradient>
	<path fill-rule="evenodd" clip-rule="evenodd" fill="url(#SVGID_6_)" d="M148.64-1.724h0.08c0.989,0.48,2.09,0.83,2.979,1.4
		c1.82,6.07,3.44,14.07,2.19,21.88c-1.26-0.45-2.471-0.97-3.721-1.44c0.16-3.74,0.44-7.79,0.44-11.69
		C150.609,4.457,149.779,1.106,148.64-1.724"/>
	<linearGradient id="SVGID_7_" gradientUnits="userSpaceOnUse" x1="87.23" y1="20.9961" x2="87.23" y2="-3.0337">
		<stop  offset="0" style="stop-color:#2A79FF"/>
		<stop  offset="1" style="stop-color:#0B0094"/>
	</linearGradient>
	<path fill-rule="evenodd" clip-rule="evenodd" fill="url(#SVGID_7_)" d="M90.21-2.944c-1.121,2.85-2.281,6.14-2.281,10.19
		c0,3.95,0.25,8.15,0.441,12.04c-1.211,0.6-2.421,1.19-3.721,1.71c-1.32-8.4,0.58-16.71,2.58-23.02c1.029-0.29,2.05-0.81,3.02-1.01
		C90.22-3.023,90.199-2.994,90.21-2.944"/>
	<linearGradient id="SVGID_8_" gradientUnits="userSpaceOnUse" x1="63.8193" y1="52.1963" x2="63.8193" y2="30.8335">
		<stop  offset="0" style="stop-color:#2A79FF"/>
		<stop  offset="1" style="stop-color:#0B0094"/>
	</linearGradient>
	<path fill-rule="evenodd" clip-rule="evenodd" fill="url(#SVGID_8_)" d="M60.359,51.326c0.16-4.5,0.46-10.18,1.09-14.54
		c0.24-1.58,0.421-3.21,1.011-4.24c0.799-1.4,2.899-1.95,4.819-1.62c-2.569,5.05-4.3,11.11-4.64,18.34
		c-0.051,0.99-0.04,2.03-0.4,2.93C61.529,51.986,60.869,51.736,60.359,51.326z"/>
	<linearGradient id="SVGID_9_" gradientUnits="userSpaceOnUse" x1="171.5039" y1="51.6763" x2="171.5039" y2="30.3652">
		<stop  offset="0" style="stop-color:#2A79FF"/>
		<stop  offset="1" style="stop-color:#0B0094"/>
	</linearGradient>
	<path fill-rule="evenodd" clip-rule="evenodd" fill="url(#SVGID_9_)" d="M172.97,51.676c-0.391-1.98-0.36-4.05-0.57-6
		c-0.58-5.41-2.01-10.14-3.89-14.18c-0.19-0.39-0.46-0.75-0.44-1.05c1.95-0.27,3.61,0.13,4.51,1.27c0.761,0.97,0.98,2.81,1.221,4.46
		c0.67,4.5,0.909,10.24,1.14,14.71C174.289,51.156,173.81,51.596,172.97,51.676z"/>
</g>
</svg>
