<?xml version="1.0" encoding="utf-8"?>
<!-- Generator: Adobe Illustrator 16.0.3, SVG Export Plug-In . SVG Version: 6.00 Build 0)  -->
<!DOCTYPE svg PUBLIC "-//W3C//DTD SVG 1.1//EN" "http://www.w3.org/Graphics/SVG/1.1/DTD/svg11.dtd">
<svg version="1.1" id="svg2997" xmlns:svg="http://www.w3.org/2000/svg"
	 xmlns="http://www.w3.org/2000/svg" xmlns:xlink="http://www.w3.org/1999/xlink" x="0px" y="0px" width="180.993px"
	 height="67.742px" viewBox="9.004 116.562 180.993 67.742" enable-background="new 9.004 116.562 180.993 67.742"
	 xml:space="preserve">
<path id="path2343" fill="#808080" d="M10.063,170.061c2.903,0.027,5.809-0.039,8.712,0.015l-0.375,2.293l-5.096,0.02l-0.021,3.24
	h4.088v2.342h-4.088v6.334h-3.22V170.061z"/>
<path id="path3315" fill="#808080" d="M30.648,184.227c-2.242-0.338-3.854-1.586-4.75-3.68c-0.511-1.191-0.656-2.105-0.596-3.748
	c0.062-1.664,0.254-2.451,0.886-3.604c0.814-1.488,1.881-2.345,3.555-2.847c0.877-0.266,1.065-0.291,2.274-0.293
	c1.095-0.004,1.446,0.029,2.078,0.201c2.303,0.627,3.802,2.172,4.426,4.559c0.288,1.105,0.265,3.765-0.042,4.847
	c-0.697,2.463-2.385,4.098-4.674,4.526C33.093,184.322,31.412,184.342,30.648,184.227z M32.991,181.963
	c0.926-0.281,1.579-1.137,1.876-2.463c0.205-0.91,0.238-3.596,0.058-4.547c-0.335-1.762-1.328-2.654-2.957-2.656
	c-1.589-0.002-2.456,0.793-2.912,2.67c-0.214,0.883-0.238,3.438-0.041,4.396c0.279,1.356,0.877,2.211,1.761,2.512
	C31.381,182.082,32.455,182.123,32.991,181.963z"/>
<path id="flowRoot5258" fill="#808080" d="M47.563,170.053h3.446v8.381c0,1.154,0.179,1.98,0.537,2.48
	c0.364,0.492,0.955,0.883,1.772,0.883c0.823,0,1.414-0.391,1.772-0.883c0.364-0.5,0.546-1.326,0.546-2.48v-8.381h3.445v8.381
	c0,1.979-0.474,3.451-1.423,4.418c-0.948,0.968-2.396,1.451-4.34,1.451c-1.939,0-3.383-0.483-4.331-1.451
	c-0.949-0.967-1.423-2.438-1.423-4.418L47.563,170.053"/>
<path id="path6262" fill="#808080" d="M68.606,170.053l3.509,0.051c1.381,2.793,2.899,5.531,4.078,8.41l0.197,0.504l-0.049-1.01
	l-0.18-7.951h2.948v14.246h-3.182l-0.363-0.758c-1.15-2.398-3.13-6.629-3.602-7.697c-0.302-0.684-0.524-1.137-0.495-1.012
	c0.029,0.127,0.083,2.309,0.119,4.848l0.065,4.619h-3.047v-14.25H68.606z"/>
<path id="text8203" fill="#808080" d="M92.398,182.191l0.931,0.002c0.986,0,1.843-1.076,2.366-1.844
	c0.522-0.767,0.977-1.873,0.977-3.322c0-1.424-0.431-2.496-0.905-3.213c-0.469-0.726-1.17-1.425-2.104-1.425l-1.265-0.002v9.806
	 M88.878,184.303v-14.25h4.209c1.173,0,2.12,0.104,2.84,0.312c0.72,0.2,1.357,0.528,1.912,0.985c0.8,0.65,1.393,1.455,1.776,2.41
	c0.39,0.949,0.584,2.084,0.584,3.404c0,1.223-0.2,2.328-0.6,3.314c-0.4,0.985-0.981,1.812-1.744,2.481
	c-0.544,0.476-1.155,0.818-1.832,1.031c-0.678,0.207-1.558,0.311-2.641,0.311L88.878,184.303"/>
<path id="path9182" fill="#808080" d="M106.307,184.277l5.092-14.226h3.457c1.617,4.746,3.281,9.478,4.886,14.226l-3.457,0.022
	l-1.084-3.391l-4.433,0.002l-1.084,3.389C108.559,184.289,107.432,184.324,106.307,184.277z M113.051,173.643l-1.51,4.888h2.873
	C113.82,176.934,113.57,175.254,113.051,173.643z"/>
<path id="path10154" fill="#808080" d="M127.924,172.535h-3.867v-2.48c3.799,0,7.601-0.004,11.4,0c-0.002,0-0.529,2.479-0.529,2.479
	l-3.748,0.002v11.768h-3.256V172.535z"/>
<path id="path11126" fill="#808080" d="M142.326,170.053h3.471v14.242h-3.471V170.053z"/>
<path id="path14040" fill="#808080" d="M159.949,184.227c-2.24-0.338-3.854-1.586-4.748-3.68c-0.512-1.191-0.656-2.105-0.598-3.748
	c0.061-1.664,0.254-2.451,0.885-3.604c0.815-1.488,1.883-2.345,3.557-2.847c0.877-0.266,1.064-0.291,2.275-0.293
	c1.094-0.004,1.445,0.029,2.076,0.201c2.305,0.627,3.803,2.172,4.426,4.559c0.289,1.105,0.266,3.765-0.041,4.847
	c-0.697,2.463-2.387,4.098-4.676,4.526C162.395,184.322,160.713,184.342,159.949,184.227z M162.293,181.963
	c0.926-0.281,1.578-1.137,1.875-2.463c0.205-0.91,0.24-3.596,0.059-4.547c-0.336-1.762-1.328-2.654-2.957-2.656
	c-1.59-0.002-2.457,0.793-2.912,2.67c-0.215,0.883-0.237,3.438-0.041,4.396c0.279,1.356,0.877,2.211,1.763,2.512
	C160.682,182.082,161.756,182.123,162.293,181.963z"/>
<path id="path2224" fill="#808080" d="M176.656,170.053l3.562,0.051c1.402,2.793,2.945,5.531,4.144,8.41l0.198,0.504l-0.049-1.01
	l-0.182-7.951h2.992v14.246h-3.23l-0.369-0.758c-1.168-2.398-3.178-6.629-3.658-7.697c-0.305-0.684-0.53-1.137-0.502-1.012
	c0.031,0.127,0.086,2.309,0.121,4.848l0.066,4.619h-3.094V170.053z"/>
<g id="g3173" transform="translate(-0.4495808,1251.722)">
	<path id="path2320" fill="#808080" d="M185.373-1089.164c-1.527-0.85-2.496-1.666-3.189-2.688l-0.402-0.596l-0.586,0.516
		c-0.815,0.726-1.141,0.966-1.887,1.406c-1.727,1.021-4.043,1.438-6.92,1.252c-5.955-0.385-9.082-3.238-9.49-8.66
		c-0.182-2.412,0.223-4.606,1.158-6.289c1.281-2.305,3.789-3.913,7.312-4.694c1.804-0.398,3.267-0.545,5.978-0.594l2.517-0.05
		l-0.05-1.311c-0.026-0.724-0.09-1.543-0.137-1.824c-0.25-1.478-0.871-2.224-2.035-2.444c-0.901-0.171-1.319-0.181-2.356-0.054
		c-2.006,0.246-4.099,1.066-6.679,2.623c-0.69,0.416-1.297,0.744-1.346,0.726c-0.097-0.037-3.463-5.683-3.461-5.799
		c0.008-0.166,2.094-1.316,3.582-1.974c4.022-1.774,6.543-2.377,9.953-2.377c3.17,0,5.358,0.533,7.127,1.735
		c0.692,0.474,1.735,1.552,2.114,2.187c0.351,0.586,0.777,1.646,1.013,2.511l0.188,0.69l-0.041,4.767
		c-0.021,2.618-0.041,6.43-0.041,8.467c0,4.178,0,4.18,0.633,5.414c0.273,0.537,0.498,0.813,1.267,1.569
		c0.854,0.843,0.922,0.931,0.81,1.06c-0.068,0.076-1.029,1.184-2.138,2.461c-1.108,1.274-2.057,2.328-2.106,2.338
		C186.108-1088.787,185.756-1088.953,185.373-1089.164z M175.903-1095.453c1.229-0.154,2.246-0.642,3.182-1.519l0.509-0.477
		l0.055-3.168l0.054-3.168l-1.316,0.057c-4.154,0.179-5.707,0.843-6.377,2.729c-0.213,0.596-0.295,2.16-0.146,2.787
		c0.334,1.418,1.457,2.532,2.769,2.748c0.245,0.039,0.485,0.078,0.53,0.082C175.203-1095.375,175.539-1095.408,175.903-1095.453z
		 M137.623-1089.718c-1.318-0.205-2.459-0.68-3.502-1.459c-1.109-0.826-1.763-1.803-2.238-3.348
		c-0.445-1.441-0.436-1.025-0.49-18.475c-0.051-15.838-0.057-16.158-0.236-18.187c-0.102-1.135-0.162-2.086-0.137-2.11
		c0.074-0.074,8.055-1.892,8.154-1.857c0.098,0.037,0.248,1.135,0.361,2.654c0.162,10.801,0.012,21.604,0.155,32.405
		c0.063,2.619,0.086,2.937,0.24,3.373c0.379,1.078,0.901,1.47,1.963,1.466c0.336,0,0.662-0.019,0.728-0.039
		c0.104-0.033,0.479,1.133,1.371,4.289l0.162,0.577l-1.271,0.334C141.034-1089.607,139.186-1089.476,137.623-1089.718z
		 M154.555-1089.644c-1.066-0.125-1.982-0.391-2.85-0.822c-2.164-1.08-3.22-2.633-3.713-5.475c-0.066-0.375-0.109-5.193-0.146-16.57
		c-0.053-15.979-0.055-16.049-0.25-18.383c-0.117-1.43-0.164-2.367-0.119-2.408c0.102-0.088,8.1-1.91,8.152-1.857
		c0.088,0.089,0.268,1.712,0.348,3.148c0.213,11.125-0.035,22.258,0.162,33.383c0.055,1.181,0.107,1.611,0.238,1.984
		c0.221,0.625,0.524,1.014,0.945,1.199c0.457,0.203,1.182,0.281,1.516,0.166c0.174-0.063,0.283-0.066,0.316-0.014
		c0.077,0.129,1.401,4.815,1.368,4.85c-0.016,0.018-0.504,0.164-1.084,0.328C158.041-1089.722,155.75-1089.501,154.555-1089.644z
		 M67.676-1089.716c-0.134-0.018-0.61-0.076-1.059-0.127c-0.447-0.053-1.237-0.215-1.756-0.363
		c-5.568-1.582-9.046-6.182-9.853-13.021c-0.124-1.047-0.123-3.987,0.001-5.09c0.362-3.213,1.4-6.119,2.997-8.387
		c1.083-1.537,2.861-3.087,4.462-3.89c2.021-1.016,3.78-1.401,6.368-1.401c2.149,0,3.536,0.219,5.156,0.815
		c3.931,1.449,7.106,5.004,8.254,9.238c0.922,3.398,0.905,8.645-0.037,12.051c-0.744,2.691-2.024,4.861-3.966,6.726
		s-4.086,2.918-6.7,3.297C70.775-1089.757,68.143-1089.654,67.676-1089.716z M70.77-1096.027c1.815-0.824,2.693-2.672,3.095-6.512
		c0.153-1.465,0.177-5.111,0.041-6.512c-0.375-3.88-1.335-5.748-3.356-6.531c-1.055-0.41-2.505-0.303-3.577,0.262
		c-1.823,0.959-2.647,2.99-2.926,7.207c-0.158,2.404-0.013,5.633,0.343,7.572c0.475,2.602,1.225,3.77,2.859,4.457
		c0.768,0.322,1.166,0.387,2.144,0.344C70.09-1095.769,70.293-1095.812,70.77-1096.027z M10.314-1116.746
		c-0.13-1.062-0.376-2.028-0.667-2.62c-0.147-0.302-0.224-0.548-0.182-0.584c0.09-0.078,7.021-1.966,7.22-1.966
		c0.204,0,0.671,0.98,0.915,1.921c0.112,0.432,0.204,0.854,0.204,0.938c0,0.086,0.027,0.152,0.061,0.152
		c0.034-0.002,0.391-0.277,0.794-0.615c1.52-1.27,3.532-2.127,5.465-2.324c2.115-0.217,4.02,0.101,5.551,0.92
		c0.98,0.527,2.146,1.513,2.768,2.336l0.488,0.646l0.314-0.326c0.76-0.789,2.256-1.92,3.307-2.496
		c0.898-0.494,2.17-0.893,3.413-1.074c1.114-0.159,3.312-0.062,4.384,0.197c1.185,0.287,2.204,0.719,2.971,1.26
		c1.574,1.109,2.172,2.082,2.584,4.207c0.172,0.886,0.174,1.025,0.203,13.373l0.029,12.479H42.15v-10.934
		c0-7.029-0.03-11.181-0.084-11.623c-0.198-1.623-0.574-2.097-1.798-2.269c-1.429-0.199-3.438,0.574-5.267,2.025l-0.667,0.529v22.27
		h-7.729c-0.473-7.383,0.652-15.438-0.186-22.727c-0.296-1.432-0.807-1.955-2.059-2.107c-1.462-0.178-3.452,0.498-5.153,1.75
		l-0.664,0.488l-0.005,22.596h-7.979C10.282-1099.062,11.051-1108.048,10.314-1116.746z M86.536-1095.492l14.458-19.949
		l-13.248-0.043v-5.779h23.042v5.578c-4.502,6.535-9.129,12.986-13.598,19.545l14.18,0.037l-0.06,0.182l-1.888,5.56l-22.899,0.041
		L86.536-1095.492z M116.735-1120.853l0.184-0.041c2.589-0.43,5.187-0.809,7.775-1.227l0.266-0.045v31.844h-8.225V-1120.853z
		 M120.276-1124.939c-1.963-0.195-3.682-1.678-4.188-3.611c-0.703-2.688,0.707-5.36,3.272-6.201c0.484-0.157,0.755-0.19,1.593-0.19
		c1.578,0,2.481,0.356,3.508,1.381c0.986,0.985,1.412,2.067,1.418,3.586c0.004,1.563-0.406,2.584-1.457,3.638
		C123.332-1125.246,121.934-1124.773,120.276-1124.939z"/>
</g>
</svg>
