<?xml version="1.0" encoding="utf-8"?>
<!-- Generator: Adobe Illustrator 16.0.3, SVG Export Plug-In . SVG Version: 6.00 Build 0)  -->
<!DOCTYPE svg PUBLIC "-//W3C//DTD SVG 1.1//EN" "http://www.w3.org/Graphics/SVG/1.1/DTD/svg11.dtd">
<svg version="1.1" id="Layer_1" xmlns="http://www.w3.org/2000/svg" xmlns:xlink="http://www.w3.org/1999/xlink" x="0px" y="0px"
	 width="433.778px" height="56.296px" viewBox="0 0 433.778 56.296" enable-background="new 0 0 433.778 56.296"
	 xml:space="preserve">
<path fill-rule="evenodd" clip-rule="evenodd" fill="#808080" d="M0,21.472c0.396-0.602,0.623-1.111,0.991-1.48
	C7.351,13.603,13.723,7.227,20.104,0.863c1.171-1.167,1.893-1.134,3.072,0.043c3.315,3.304,6.625,6.618,9.937,9.928
	c1.642,1.64,1.922,1.65,3.527,0.051c3.244-3.236,6.478-6.482,9.721-9.72c1.545-1.543,2.117-1.546,3.613-0.051
	c6.124,6.125,12.248,12.251,18.37,18.377c1.704,1.705,1.651,2.25-0.047,3.949C57.753,33.974,47.23,44.528,36.703,55.079
	c-1.622,1.625-2.003,1.633-3.67-0.035C22.468,44.46,11.902,33.876,1.35,23.278C0.845,22.771,0.48,22.124,0,21.472z M34.898,48.05
	c0.562-0.423,1.12-0.746,1.564-1.188c3.575-3.549,7.135-7.115,10.689-10.686c1.188-1.191,1.213-1.674,0.01-2.891
	c-3.65-3.688-7.338-7.34-10.994-11.021c-0.832-0.84-1.603-0.928-2.463-0.064c-3.734,3.748-7.472,7.488-11.22,11.221
	c-0.946,0.943-0.906,1.767,0.047,2.706c3.654,3.613,7.268,7.267,10.914,10.888C33.824,47.39,34.321,47.642,34.898,48.05z
	 M30.592,16.917c-0.147-0.268-0.179-0.372-0.246-0.438c-1.77-1.787-3.523-3.591-5.318-5.353c-3.597-3.529-2.953-3.897-6.787-0.04
	c-3.015,3.031-6.04,6.052-9.064,9.076c-0.708,0.709-1.151,1.434-0.259,2.322c2.315,2.309,4.622,4.624,6.939,6.932
	c0.734,0.732,1.497,0.754,2.242,0.008C22.257,25.266,26.41,21.104,30.592,16.917z M39.139,16.749
	c0.296,0.355,0.413,0.519,0.553,0.658c3.875,3.883,7.749,7.764,11.626,11.64c0.802,0.804,1.589,1.423,2.67,0.312
	c2.175-2.234,4.397-4.428,6.61-6.624c0.889-0.885,0.883-1.725,0-2.606c-3.704-3.696-7.405-7.394-11.092-11.106
	c-0.833-0.838-1.678-0.893-2.5-0.086C44.39,11.503,41.803,14.098,39.139,16.749z"/>
<g>
	<path fill="#808080" d="M86.375,3.308c-0.438-0.95,0.146-1.899,1.242-1.899h7.453c0.658,0,1.096,0.438,1.242,0.803l14.028,31.42
		h0.512l14.029-31.42c0.146-0.364,0.584-0.803,1.242-0.803h7.453c1.096,0,1.68,0.95,1.242,1.899l-22.65,49.173
		c-0.22,0.439-0.584,0.805-1.242,0.805h-0.73c-0.658,0-1.022-0.365-1.242-0.805L86.375,3.308z"/>
	<path fill="#808080" d="M151.691,2.797c0-0.731,0.657-1.388,1.389-1.388h6.941c0.804,0,1.388,0.657,1.388,1.388V32.68
		c0,6.212,4.238,11.106,10.595,11.106s10.668-4.895,10.668-11.032V2.797c0-0.731,0.584-1.388,1.389-1.388h6.94
		c0.731,0,1.389,0.657,1.389,1.388v30.396c0,11.105-8.841,20.094-20.386,20.094c-11.472,0-20.312-8.988-20.312-20.094V2.797z"/>
	<path fill="#808080" d="M215.91,2.797c0-0.731,0.585-1.388,1.389-1.388h6.723c0.73,0,1.389,0.657,1.389,1.388v40.989h18.631
		c0.804,0,1.388,0.658,1.388,1.389v5.992c0,0.73-0.584,1.388-1.388,1.388h-26.742c-0.804,0-1.389-0.657-1.389-1.388V2.797z"/>
	<path fill="#808080" d="M262.305,2.797c0-0.731,0.658-1.388,1.388-1.388h6.941c0.805,0,1.389,0.657,1.389,1.388V32.68
		c0,6.212,4.238,11.106,10.594,11.106c6.357,0,10.67-4.895,10.67-11.032V2.797c0-0.731,0.582-1.388,1.388-1.388h6.94
		c0.731,0,1.389,0.657,1.389,1.388v30.396c0,11.105-8.84,20.094-20.387,20.094c-11.471,0-20.312-8.988-20.312-20.094V2.797z"/>
	<path fill="#808080" d="M331.858,1.773c0.072-0.584,0.511-1.096,1.313-1.096h1.17c0.584,0,1.022,0.293,1.241,0.731l16.076,34.487
		c0.146,0,0.146,0,0.218,0l16.075-34.487c0.219-0.438,0.585-0.731,1.242-0.731h1.169c0.805,0,1.241,0.511,1.315,1.096l8.621,49.101
		c0.221,1.023-0.365,1.681-1.313,1.681h-6.65c-0.657,0-1.242-0.584-1.388-1.096l-4.311-27.693c-0.073,0-0.221,0-0.221,0
		l-12.786,28.716c-0.146,0.439-0.584,0.805-1.242,0.805h-1.314c-0.657,0-1.022-0.365-1.242-0.805l-12.933-28.716c0,0-0.146,0-0.22,0
		l-4.237,27.693c-0.073,0.512-0.658,1.096-1.315,1.096h-6.576c-0.95,0-1.534-0.657-1.388-1.681L331.858,1.773z"/>
	<path fill="#808080" d="M401.263,2.797c0-0.731,0.585-1.388,1.389-1.388h29.738c0.803,0,1.389,0.657,1.389,1.388v5.99
		c0,0.731-0.586,1.389-1.389,1.389h-21.627v11.983h18.047c0.729,0,1.389,0.656,1.389,1.389v6.064c0,0.804-0.659,1.388-1.389,1.388
		h-18.047v12.786h21.627c0.803,0,1.389,0.658,1.389,1.389v5.992c0,0.73-0.586,1.388-1.389,1.388h-29.738
		c-0.804,0-1.389-0.657-1.389-1.388V2.797z"/>
</g>
</svg>
