<?xml version="1.0" encoding="utf-8"?>
<!-- Generator: Adobe Illustrator 16.0.1, SVG Export Plug-In . SVG Version: 6.00 Build 0)  -->
<!DOCTYPE svg PUBLIC "-//W3C//DTD SVG 1.1//EN" "http://www.w3.org/Graphics/SVG/1.1/DTD/svg11.dtd">
<svg version="1.1" id="Layer_1" xmlns="http://www.w3.org/2000/svg" xmlns:xlink="http://www.w3.org/1999/xlink" x="0px" y="0px"
	 width="505.278px" height="339.836px" viewBox="0 0 505.278 339.836" enable-background="new 0 0 505.278 339.836"
	 xml:space="preserve">
<path fill="#BBBBBC" d="M504.322,129.018v7.78v7.205v71.014c0,68.93-112.892,124.819-252.176,124.819
	c-139.247,0-252.138-55.89-252.138-124.819c0-0.278-0.019-0.539,0-0.817v-85.181H504.322z"/>
<ellipse fill="#BBBBBC" cx="252.642" cy="123.958" rx="252.599" ry="123.962"/>
<ellipse fill="#C6C5C5" cx="252.641" cy="118.064" rx="246.475" ry="118.067"/>
<path fill="#BBBBBC" d="M16.286,153.469c13.005-10.348,26.629-19.833,40.806-28.423c57.522-34.862,124.097-54.792,195.057-54.792
	c70.977,0,137.565,19.93,195.091,54.792c14.173,8.59,27.797,18.075,40.802,28.403l2.615-5.98
	c-10.114-7.993-20.59-15.465-31.409-22.422c-60.434-38.867-131.305-61.252-207.099-61.252c-75.776,0-146.649,22.385-207.081,61.252
	c-10.821,6.957-21.299,14.43-31.412,22.422L16.286,153.469z"/>
<path fill="#989898" d="M490.371,149.972c-28.562,50.056-124.195,86.849-237.746,86.849c-113.535,0-209.116-36.773-237.729-86.813
	c13.022-10.383,26.668-19.933,40.854-28.579c58.06-35.385,125.255-55.596,196.876-55.596c71.638,0,138.847,20.211,196.91,55.596
	C463.719,130.074,477.348,139.606,490.371,149.972z"/>
<path fill="#C6C5C5" d="M0.234,123.275c0,68.459,113.1,123.952,252.593,123.952c136.625,0,247.902-53.217,252.451-119.715
	l-0.053,6.181l-0.067,7.206l-0.645,71.012c0,68.931-112.891,124.821-252.175,124.821c-139.247,0-252.157-55.891-252.157-124.821
	c0-0.277,0-0.537,0.017-0.814L0.234,123.275z"/>
</svg>
