<?xml version="1.0" encoding="utf-8"?>
<!-- Generator: Adobe Illustrator 16.0.0, SVG Export Plug-In . SVG Version: 6.00 Build 0)  -->
<!DOCTYPE svg PUBLIC "-//W3C//DTD SVG 1.1//EN" "http://www.w3.org/Graphics/SVG/1.1/DTD/svg11.dtd">
<svg version="1.1" id="Layer_1" xmlns="http://www.w3.org/2000/svg" xmlns:xlink="http://www.w3.org/1999/xlink" x="0px" y="0px"
	 width="307.275px" height="82.386px" viewBox="0.34 0.576 307.275 82.386" enable-background="new 0.34 0.576 307.275 82.386"
	 xml:space="preserve">
<linearGradient id="SVGID_1_" gradientUnits="userSpaceOnUse" x1="153.979" y1="-624.6533" x2="153.979" y2="-698.8975" gradientTransform="matrix(1 0 0 -1 0 -624.0771)">
	<stop  offset="0.0207" style="stop-color:#7A9A20"/>
	<stop  offset="0.0691" style="stop-color:#90AD26"/>
	<stop  offset="0.1306" style="stop-color:#A4BF2B"/>
	<stop  offset="0.1914" style="stop-color:#B1CA2E"/>
	<stop  offset="0.25" style="stop-color:#A6CB3D"/>
	<stop  offset="0.75" style="stop-color:#A6CB3D"/>
	<stop  offset="0.8444" style="stop-color:#98B528"/>
	<stop  offset="0.9393" style="stop-color:#82A122"/>
	<stop  offset="1" style="stop-color:#7A9A20"/>
</linearGradient>
<path fill="url(#SVGID_1_)" d="M284.188,65.843c-3.631,0-7.263,0-10.894,0c-42.319,0-168.375,0-232.056-0.012
	c-9.309-0.002-17.284-0.004-23.471-0.006c-0.039,0.002-0.076,0.002-0.117,0.004c-1.585,0.076-3.168,0.207-4.735,0.457
	c-4.874,0.775-11.6,2.822-12.492,8.533c-0.09-0.568-0.08-0.934-0.08-0.934c0-2.109,0-4.219,0-6.324c0-0.236,0-0.479,0-0.717
	c0-16.277,0-32.557,0-48.833c0-2.544,0-5.087,0-7.631c0.354-5.907,6.864-8.285,11.797-9.209c1.695-0.314,3.42-0.526,5.144-0.584
	c0.1-0.006,0.195-0.008,0.295-0.012c0.062,0,0.127,0,0.232,0c6.024,0,212.958,0,255.397,0c3.658,0,7.315,0,10.979,0
	c1.864,2.564,3.729,5.129,5.595,7.695c5.938,8.184,11.889,16.357,17.832,24.537c-5.89,8.305-11.779,16.609-17.671,24.917
	C289.772,57.968,285.937,63.38,284.188,65.843z"/>
<path opacity="0.5" fill="#A6CB3D" enable-background="new    " d="M284.188,65.843c-3.631,0-7.263,0-10.894,0
	c-42.319,0-168.375,0-232.056-0.012c-9.309-0.002-17.284-0.004-23.471-0.006c-0.039,0.002-0.076,0.002-0.117,0.004
	c-1.585,0.076-3.168,0.207-4.735,0.457c-4.874,0.775-11.6,2.822-12.492,8.533c-0.09-0.568-0.08-0.934-0.08-0.934
	c0-2.109,0-4.219,0-6.324c0-0.236,0-0.479,0-0.717c0-16.277,0-32.557,0-48.833c0-2.544,0-5.087,0-7.631
	c0.354-5.907,6.864-8.285,11.797-9.209c1.695-0.314,3.42-0.526,5.144-0.584c0.1-0.006,0.195-0.008,0.295-0.012
	c0.062,0,0.127,0,0.232,0c6.024,0,212.958,0,255.397,0c3.658,0,7.315,0,10.979,0c1.864,2.564,3.729,5.129,5.595,7.695
	c5.938,8.184,11.889,16.357,17.832,24.537c-5.89,8.305-11.779,16.609-17.671,24.917C289.772,57.968,285.937,63.38,284.188,65.843z"
	/>
<path fill="#002E21" d="M10.123,66.681c-4.356,1.068-9.049,3.285-9.783,7.988l0.088-0.25c-0.217,1.113-0.047,2.287,0.654,3.479
	c0.406,0.688,1.006,1.432,1.896,2.146c0.738,0.596,1.674,1.168,2.863,1.678c0.518,0.223,1.086,0.428,1.709,0.615
	c0.779,0.238,1.643,0.449,2.596,0.625c0-0.838,0-1.678,0-2.52c0-1.854,0-3.707,0-5.562c0-2.838,0-5.08,0-7.916L10.123,66.681z"/>
</svg>
