<?xml version="1.0" encoding="utf-8"?>
<!-- Generator: Adobe Illustrator 16.0.0, SVG Export Plug-In . SVG Version: 6.00 Build 0)  -->
<!DOCTYPE svg PUBLIC "-//W3C//DTD SVG 1.1//EN" "http://www.w3.org/Graphics/SVG/1.1/DTD/svg11.dtd">
<svg version="1.1" id="Layer_1" xmlns="http://www.w3.org/2000/svg" xmlns:xlink="http://www.w3.org/1999/xlink" x="0px" y="0px"
	 width="307.961px" height="83.537px" viewBox="0 0 307.961 83.537" enable-background="new 0 0 307.961 83.537"
	 xml:space="preserve">
<linearGradient id="SVGID_1_" gradientUnits="userSpaceOnUse" x1="153.98" y1="0.5771" x2="153.98" y2="74.8218">
	<stop  offset="0.0207" style="stop-color:#7A9A20"/>
	<stop  offset="0.0691" style="stop-color:#90AD26"/>
	<stop  offset="0.1306" style="stop-color:#A4BF2B"/>
	<stop  offset="0.1914" style="stop-color:#B1CA2E"/>
	<stop  offset="0.25" style="stop-color:#B5CE2F"/>
	<stop  offset="0.75" style="stop-color:#B5CE2F"/>
	<stop  offset="0.8444" style="stop-color:#98B528"/>
	<stop  offset="0.9393" style="stop-color:#82A122"/>
	<stop  offset="1" style="stop-color:#7A9A20"/>
</linearGradient>
<path fill="url(#SVGID_1_)" d="M284.19,65.843c-3.631,0-7.262,0-10.893,0c-42.32,0-168.375,0-232.056-0.012
	c-9.309-0.002-17.284-0.004-23.471-0.006c-0.039,0.002-0.076,0.002-0.117,0.004c-1.585,0.076-3.168,0.207-4.735,0.457
	C8.043,67.063,1.317,69.11,0.425,74.821c-0.09-0.57-0.08-0.934-0.08-0.934c0-2.109,0-4.217,0-6.324c0-0.238,0-0.479,0-0.717
	c0-16.277,0-32.556,0-48.833c0-2.544,0-5.087,0-7.631c0.354-5.907,6.864-8.285,11.797-9.209c1.695-0.314,3.42-0.526,5.144-0.584
	c0.1-0.006,0.195-0.008,0.295-0.012c0.062,0,0.127,0,0.232,0c6.024,0,212.956,0,255.397,0c3.658,0,7.318,0,10.979,0
	c1.865,2.564,3.73,5.129,5.594,7.695c5.938,8.184,11.889,16.357,17.832,24.537c-5.889,8.305-11.779,16.611-17.67,24.916
	C289.774,57.968,285.936,63.38,284.19,65.843z"/>
<g>
	<path fill="#002E21" d="M42.343,31.461h7.28v-7.364c0-0.392,0.14-0.56,0.504-0.56h1.736c0.363,0,0.504,0.168,0.504,0.56v17.919
		c0,0.393-0.141,0.561-0.504,0.561h-1.736c-0.364,0-0.504-0.168-0.504-0.561v-8.231h-7.28v8.231c0,0.393-0.111,0.561-0.504,0.561
		h-1.708c-0.364,0-0.504-0.168-0.504-0.561V24.098c0-0.392,0.14-0.56,0.504-0.56h1.708c0.393,0,0.504,0.168,0.504,0.56V31.461z"/>
	<path fill="#002E21" d="M56.343,32.302c0-2.296,1.652-3.836,5.601-3.836c3.947,0,5.6,1.54,5.6,3.836v6.666
		c0,2.295-1.652,3.834-5.6,3.834c-3.948,0-5.601-1.539-5.601-3.834V32.302z M64.883,32.526c0-1.204-0.84-1.876-2.939-1.876
		c-2.101,0-2.94,0.672-2.94,1.876v6.215c0,1.205,0.84,1.877,2.94,1.877c2.1,0,2.939-0.672,2.939-1.877V32.526z"/>
	<path fill="#002E21" d="M84.259,42.073c-0.113,0.363-0.197,0.504-0.561,0.504h-1.932c-0.364,0-0.476-0.168-0.56-0.504l-2.101-8.26
		c-0.14-0.448-0.28-1.26-0.28-1.4l-0.336,1.4l-2.38,8.26c-0.083,0.336-0.167,0.504-0.53,0.504h-1.904
		c-0.364,0-0.477-0.141-0.561-0.504L69.642,29.25c-0.112-0.364,0.14-0.56,0.504-0.56h1.568c0.364,0,0.532,0.224,0.616,0.56
		l2.323,8.708c0.112,0.477,0.196,1.178,0.225,1.262l0.308-1.262l2.408-8.708c0.084-0.336,0.252-0.56,0.616-0.56h1.624
		c0.363,0,0.504,0.224,0.588,0.56l2.184,8.708c0.168,0.7,0.225,1.12,0.252,1.204c0-0.084,0.168-0.811,0.28-1.204l2.324-8.708
		c0.084-0.336,0.224-0.56,0.588-0.56h1.344c0.364,0,0.588,0.196,0.476,0.56L84.259,42.073z"/>
	<path fill="#002E21" d="M108.562,38.489c0,2.297-1.372,4.312-6.188,4.312c-4.815,0-6.188-2.016-6.188-4.312V27.625
		c0-2.296,1.372-4.312,6.188-4.312s6.188,2.016,6.188,4.312v1.372c0,0.392-0.141,0.56-0.504,0.56h-1.624
		c-0.393,0-0.532-0.168-0.532-0.56v-0.924c0-1.512-0.98-2.436-3.5-2.436c-2.521,0-3.472,0.924-3.472,2.436v9.968
		c0,1.514,0.951,2.438,3.472,2.438c2.52,0,3.5-0.924,3.5-2.438v-1.315c0-0.364,0.14-0.532,0.532-0.532h1.624
		c0.363,0,0.504,0.168,0.504,0.532V38.489z"/>
	<path fill="#002E21" d="M111.727,32.246c0-2.24,1.456-3.78,5.292-3.78c3.948,0,5.292,1.54,5.292,3.78v9.771
		c0,0.393-0.14,0.561-0.504,0.561h-1.456c-0.392,0-0.504-0.168-0.532-0.561l-0.056-0.812c-0.812,0.645-2.296,1.598-4.424,1.598
		c-2.604,0-3.948-1.568-3.948-3.389v-1.344c0-1.821,1.288-3.389,3.892-3.389h4.424v-2.156c0-1.148-0.588-1.904-2.716-1.904
		s-2.771,0.672-2.771,1.82v0.224c0,0.392-0.141,0.56-0.532,0.56h-1.456c-0.364,0-0.504-0.168-0.504-0.56L111.727,32.246
		L111.727,32.246z M119.706,39.161v-2.408h-3.863c-1.4,0-1.849,0.616-1.849,1.708v0.561c0,1.092,0.616,1.568,2.017,1.568
		C117.719,40.591,119.062,39.665,119.706,39.161z"/>
	<path fill="#002E21" d="M128.134,28.689c0.392,0,0.504,0.168,0.532,0.532l0.056,0.896c0.784-0.672,2.324-1.652,4.648-1.652
		c2.604,0,3.947,1.512,3.947,3.584v9.967c0,0.393-0.14,0.561-0.504,0.561h-1.624c-0.363,0-0.531-0.168-0.531-0.561v-9.323
		c0-1.148-0.532-1.848-2.072-1.848c-1.792,0-3.192,0.952-3.808,1.428v9.743c0,0.393-0.141,0.561-0.505,0.561h-1.624
		c-0.392,0-0.531-0.168-0.531-0.561V29.222c0-0.364,0.14-0.532,0.531-0.532H128.134z"/>
	<path fill="#002E21" d="M160.95,35.718c0.279,1.148,0.42,2.295,0.447,2.436c0.027-0.141,0.252-1.624,0.477-2.436l2.969-11.648
		c0.084-0.336,0.252-0.532,0.615-0.532h1.512c0.363,0,0.477,0.168,0.393,0.532l-4.535,17.976c-0.084,0.363-0.309,0.531-0.672,0.531
		h-1.682c-0.336,0-0.531-0.193-0.615-0.531l-2.996-11.872c-0.225-0.812-0.336-1.988-0.363-2.184
		c-0.027,0.196-0.225,1.512-0.393,2.212l-3.023,11.844c-0.084,0.363-0.28,0.531-0.645,0.531h-1.68c-0.336,0-0.532-0.193-0.616-0.531
		l-4.563-17.976c-0.084-0.364,0.027-0.532,0.42-0.532h1.735c0.364,0,0.561,0.196,0.645,0.532l2.912,11.648
		c0.196,0.812,0.448,2.184,0.448,2.184s0.14-0.896,0.476-2.184l2.967-11.648c0.084-0.336,0.252-0.532,0.615-0.532h1.598
		c0.393,0,0.561,0.196,0.645,0.532L160.95,35.718z"/>
	<path fill="#002E21" d="M180.295,35.718c0,0.336-0.139,0.504-0.475,0.504h-7.617V38.8c0,1.146,0.561,1.875,2.801,1.875
		s2.801-0.729,2.801-1.875v-0.311c0-0.363,0.141-0.532,0.531-0.532h1.428c0.363,0,0.531,0.168,0.531,0.532v0.479
		c0,2.295-1.371,3.834-5.348,3.834s-5.348-1.539-5.348-3.834v-6.666c0-2.296,1.428-3.836,5.402-3.836
		c3.949,0,5.293,1.54,5.293,3.836V35.718L180.295,35.718z M172.204,34.234h5.602V32.47c0-1.12-0.701-1.876-2.801-1.876
		c-2.129,0-2.801,0.756-2.801,1.876V34.234z"/>
	<path fill="#002E21" d="M192.7,31.461h7.281v-7.364c0-0.392,0.139-0.56,0.504-0.56h1.736c0.361,0,0.504,0.168,0.504,0.56v17.919
		c0,0.393-0.143,0.561-0.504,0.561h-1.736c-0.365,0-0.504-0.168-0.504-0.561v-8.231H192.7v8.231c0,0.393-0.111,0.561-0.504,0.561
		h-1.707c-0.365,0-0.504-0.168-0.504-0.561V24.098c0-0.392,0.139-0.56,0.504-0.56h1.707c0.393,0,0.504,0.168,0.504,0.56V31.461z"/>
	<path fill="#002E21" d="M217.395,35.718c0,0.336-0.141,0.504-0.477,0.504h-7.615V38.8c0,1.146,0.561,1.875,2.801,1.875
		s2.799-0.729,2.799-1.875v-0.311c0-0.363,0.141-0.532,0.533-0.532h1.428c0.363,0,0.531,0.168,0.531,0.532v0.479
		c0,2.295-1.371,3.834-5.348,3.834s-5.35-1.539-5.35-3.834v-6.666c0-2.296,1.43-3.836,5.404-3.836c3.949,0,5.293,1.54,5.293,3.836
		V35.718L217.395,35.718z M209.305,34.234h5.6V32.47c0-1.12-0.701-1.876-2.801-1.876c-2.127,0-2.799,0.756-2.799,1.876V34.234z"/>
	<path fill="#002E21" d="M223.528,42.017c0,0.393-0.141,0.561-0.504,0.561h-1.625c-0.393,0-0.531-0.168-0.531-0.561V23.565
		c0-0.392,0.141-0.56,0.531-0.56h1.625c0.363,0,0.504,0.168,0.504,0.56V42.017z"/>
	<path fill="#002E21" d="M229.52,28.689c0.391,0,0.504,0.168,0.531,0.56l0.057,0.868c0.783-0.616,2.295-1.652,4.646-1.652
		c2.717,0,3.947,1.512,3.947,3.808v6.72c0,2.297-1.23,3.809-3.947,3.809c-2.268,0-3.779-0.951-4.592-1.566v6.523
		c0,0.363-0.141,0.531-0.504,0.531h-1.625c-0.391,0-0.531-0.168-0.531-0.531V29.25c0-0.392,0.141-0.56,0.531-0.56H229.52z
		 M236.043,32.694c0-0.98-0.477-1.82-2.07-1.82c-1.82,0-3.193,0.98-3.809,1.456v6.638c0.615,0.445,1.986,1.428,3.809,1.428
		c1.596,0,2.07-0.84,2.07-1.82V32.694z"/>
	<path fill="#002E21" d="M246.403,35.186c0-1.624,1.064-2.24,1.793-2.604l2.24-1.148c0.447-0.252,1.26-0.784,1.26-1.96v-1.428
		c0-1.54-0.951-2.436-3.416-2.436c-2.492,0-3.416,0.896-3.416,2.436v1.204c0,0.392-0.141,0.56-0.504,0.56h-1.625
		c-0.391,0-0.531-0.168-0.531-0.56v-1.624c0-2.296,1.4-4.312,6.076-4.312s6.104,2.016,6.133,4.312v1.764
		c0,2.408-1.457,3.472-2.438,3.948l-1.539,0.728c-0.701,0.336-1.289,0.756-1.289,1.792v1.399c0,0.393-0.141,0.532-0.504,0.532
		h-1.734c-0.365,0-0.506-0.14-0.506-0.532V35.186z M249.147,42.046c0,0.393-0.141,0.531-0.504,0.531h-1.734
		c-0.365,0-0.506-0.141-0.506-0.531v-2.238c0-0.365,0.141-0.533,0.506-0.533h1.734c0.363,0,0.504,0.168,0.504,0.533V42.046z"/>
</g>
<path fill="#002E21" d="M10.123,66.68c-4.356,1.069-9.049,3.287-9.783,7.99l0.088-0.25c-0.217,1.113-0.047,2.287,0.654,3.477
	c0.406,0.688,1.006,1.432,1.896,2.148c0.738,0.594,1.674,1.168,2.863,1.676c0.518,0.223,1.086,0.428,1.709,0.617
	c0.779,0.238,1.643,0.449,2.596,0.625c0-0.838,0-1.678,0-2.518c0-1.854,0-3.707,0-5.561c0-2.838,0-5.08,0-7.916L10.123,66.68z"/>
</svg>
