<?xml version="1.0" encoding="utf-8"?>
<!-- Generator: Adobe Illustrator 16.0.1, SVG Export Plug-In . SVG Version: 6.00 Build 0)  -->
<!DOCTYPE svg PUBLIC "-//W3C//DTD SVG 1.1//EN" "http://www.w3.org/Graphics/SVG/1.1/DTD/svg11.dtd">
<svg version="1.1" id="Layer_1" xmlns="http://www.w3.org/2000/svg" xmlns:xlink="http://www.w3.org/1999/xlink" x="0px" y="0px"
	 width="83px" height="90px" viewBox="0 0 83 90" enable-background="new 0 0 83 90" xml:space="preserve">
<path fill-rule="evenodd" clip-rule="evenodd" fill="#7A9B20" d="M58.29,65.77H23.26c0,0-5.12-25.18,17.52-25.18
	C63.42,40.59,58.29,65.77,58.29,65.77z M40.78,10.38c6.94,0,12.57,5.64,12.57,12.59c0,6.95-5.63,12.59-12.57,12.59
	c-6.95,0-12.58-5.64-12.58-12.59C28.2,16.02,33.83,10.38,40.78,10.38z M76.08,0H6.92C3.1,0,0,3.1,0,6.92v62.31
	c0,3.82,3.1,6.92,6.92,6.92h20.74L41.5,90l13.83-13.85h20.75c3.82,0,6.92-3.1,6.92-6.92V6.92C83,3.1,79.9,0,76.08,0z"/>
</svg>
