<?xml version="1.0" encoding="utf-8"?>
<!-- Generator: Adobe Illustrator 16.0.1, SVG Export Plug-In . SVG Version: 6.00 Build 0)  -->
<!DOCTYPE svg PUBLIC "-//W3C//DTD SVG 1.1//EN" "http://www.w3.org/Graphics/SVG/1.1/DTD/svg11.dtd">
<svg version="1.1" id="Layer_1" xmlns="http://www.w3.org/2000/svg" xmlns:xlink="http://www.w3.org/1999/xlink" x="0px" y="0px"
	 width="181.92px" height="120.72px" viewBox="0 0 181.92 120.72" enable-background="new 0 0 181.92 120.72" xml:space="preserve">
<g>
	<path fill="none" stroke="#A5CB39" stroke-width="3" stroke-linecap="round" stroke-linejoin="round" stroke-miterlimit="10" d="
		M56.561,28.414c0,13.758-11.158,24.915-24.915,24.915c-13.759,0-24.914-11.156-24.914-24.915C6.731,14.656,17.888,3.5,31.646,3.5
		C45.402,3.498,56.561,14.653,56.561,28.414z M59.636,80.716c0-12.51-13.09-22.469-28.503-22.469
		C15.719,58.248,3.5,68.557,3.5,81.073v34.031h56.136V80.716z M114.922,28.414c0,13.758-11.158,24.915-24.918,24.915
		c-13.759,0-24.911-11.156-24.911-24.915C65.093,14.656,76.246,3.5,90.004,3.5C103.764,3.498,114.922,14.653,114.922,28.414z
		 M117.995,80.716c0-12.51-13.09-22.469-28.505-22.469c-15.412,0-27.632,10.31-27.632,22.825v34.031h56.137V80.716z M173.282,28.414
		c0,13.758-11.159,24.915-24.917,24.915c-13.76,0-24.912-11.156-24.912-24.915c0-13.758,11.154-24.914,24.912-24.914
		C162.123,3.498,173.282,14.653,173.282,28.414z M176.356,80.716c0-12.51-13.093-22.469-28.506-22.469
		c-15.412,0-27.632,10.31-27.632,22.825v34.031h56.138V80.716z"/>
</g>
<g>
	<linearGradient id="SVGID_1_" gradientUnits="userSpaceOnUse" x1="31.5674" y1="115.104" x2="31.5674" y2="3.5005">
		<stop  offset="0" style="stop-color:#012E22"/>
		<stop  offset="0.0732" style="stop-color:#183823"/>
		<stop  offset="0.1711" style="stop-color:#284324"/>
		<stop  offset="0.2852" style="stop-color:#334A24"/>
		<stop  offset="0.4288" style="stop-color:#394E24"/>
		<stop  offset="0.697" style="stop-color:#3B5024"/>
		<stop  offset="0.7307" style="stop-color:#3B5024"/>
		<stop  offset="1" style="stop-color:#3B5024"/>
	</linearGradient>
	<path fill="url(#SVGID_1_)" d="M56.561,28.414c0,13.758-11.158,24.915-24.915,24.915c-13.759,0-24.914-11.156-24.914-24.915
		C6.731,14.656,17.888,3.5,31.646,3.5C45.402,3.498,56.561,14.653,56.561,28.414z M59.636,80.716
		c0-12.51-13.09-22.469-28.503-22.469C15.719,58.248,3.5,68.557,3.5,81.073v34.031h56.136V80.716z"/>
	<g>
		<path fill="#A5CB39" d="M114.922,28.414c0,13.758-11.158,24.915-24.918,24.915c-13.759,0-24.911-11.156-24.911-24.915
			C65.093,14.656,76.246,3.5,90.004,3.5C103.764,3.498,114.922,14.653,114.922,28.414z"/>
		<path fill="#A5CB39" d="M117.995,80.716c0-12.51-13.09-22.469-28.505-22.469c-15.412,0-27.632,10.31-27.632,22.825v34.031h56.137
			V80.716z"/>
	</g>
	<linearGradient id="SVGID_2_" gradientUnits="userSpaceOnUse" x1="148.2881" y1="115.104" x2="148.2881" y2="3.5005">
		<stop  offset="0" style="stop-color:#012E22"/>
		<stop  offset="0.0732" style="stop-color:#183823"/>
		<stop  offset="0.1711" style="stop-color:#284324"/>
		<stop  offset="0.2852" style="stop-color:#334A24"/>
		<stop  offset="0.4288" style="stop-color:#394E24"/>
		<stop  offset="0.697" style="stop-color:#3B5024"/>
		<stop  offset="0.7307" style="stop-color:#3B5024"/>
		<stop  offset="1" style="stop-color:#3B5024"/>
	</linearGradient>
	<path fill="url(#SVGID_2_)" d="M173.282,28.414c0,13.758-11.159,24.915-24.917,24.915c-13.76,0-24.912-11.156-24.912-24.915
		c0-13.758,11.154-24.914,24.912-24.914C162.123,3.498,173.282,14.653,173.282,28.414z M176.356,80.716
		c0-12.51-13.093-22.469-28.506-22.469c-15.412,0-27.632,10.31-27.632,22.825v34.031h56.138V80.716z"/>
</g>
<g>
	<path id="tie_shadow_3_" fill="#89A43C" d="M90.597,71.869l3.826-9.496c0.171-0.595-0.429-1.119-1.308-1.187l-10.924-0.291
		c-0.879-0.07-1.279,0.689-0.868,1.667l6.07,8.78c0.366,5.176,1.775,17.124,7.188,27.483l14.48,6.702l-0.126-7.394
		C108.937,98.134,92.048,87.258,90.597,71.869z"/>
	<path id="tie_3_" fill="#012E22" d="M110.23,97.754l-1.168,7.773L96.42,98.447c-5.209-10.357-6.565-22.308-6.917-27.484
		l-5.84-8.782c-0.394-0.975-0.011-1.734,0.837-1.665l10.508,0.292c0.846,0.065,1.42,0.592,1.258,1.188l-3.681,9.491
		C93.982,86.88,110.23,97.754,110.23,97.754z"/>
</g>
</svg>
