<?xml version="1.0" encoding="utf-8"?>
<!-- Generator: Adobe Illustrator 16.0.1, SVG Export Plug-In . SVG Version: 6.00 Build 0)  -->
<!DOCTYPE svg PUBLIC "-//W3C//DTD SVG 1.1//EN" "http://www.w3.org/Graphics/SVG/1.1/DTD/svg11.dtd">
<svg version="1.1" id="Layer_1" xmlns="http://www.w3.org/2000/svg" xmlns:xlink="http://www.w3.org/1999/xlink" x="0px" y="0px"
	 width="244.883px" height="232.628px" viewBox="0 0 244.883 232.628" enable-background="new 0 0 244.883 232.628"
	 xml:space="preserve">
<g>
	<ellipse id="Under_shadow" opacity="0.11" cx="122.441" cy="216.717" rx="122.441" ry="15.911"/>
	<path id="Outline" fill="#384F0E" d="M158.948,224.998c-4.832,0-9.683-1.496-14.424-4.448c-3.141-1.154-20.91-8.856-28.913-37.708
		c-2.079-7.493-5.484-7.493-6.767-7.493c-8.152,0-21.509,12.676-31.261,21.931c-5.141,4.879-9.59,9.103-12.867,11.184
		c-1.712,1.301-17.577,13.075-30.448,13.075c-3.761,0-6.998-0.983-9.621-2.921c-6.147-4.544-9.676-11.321-9.682-18.595
		c-0.007-8.848,4.881-17.348,13.764-23.937c2.467-1.831,5.496-3.835,8.702-5.957c18.291-12.104,43.341-28.682,36.545-55.464
		c-2.419-9.534-10.099-29.706-10.176-29.91l-0.043-0.12c-1.881-5.573-3.197-10.63-4.021-15.461
		c-1.023-6.692-3.287-29.746,10.162-47.812C78.539,9.754,91.88,2.612,109.553,0.136l0.323-0.03C111.62,0.036,113.351,0,115.018,0
		c44.326,0,50.114,24.616,52.585,35.127c0.248,1.056,0.463,1.967,0.666,2.624c3.382,10.963-1.314,42.744-1.86,46.332l-0.424,2.778
		h-0.211c-0.722,6.187-1.621,12.515-2.678,18.854c-4.931,29.596,4.802,36.55,13.387,42.684c1.537,1.1,2.99,2.138,4.373,3.29
		c2.437,2.03,8.114,5.196,14.688,8.864c17.465,9.746,41.386,23.09,44.615,36.812c1.33,5.65-0.12,11.682-3.977,16.55
		c-4.136,5.223-10.412,8.218-17.219,8.22c-0.001,0-0.002,0-0.003,0c-7.224-0.003-21.479-3.561-35.788-27.376
		c-14.554-24.22-22.278-25.446-23.68-25.446c-0.508,0-0.833,0.125-0.965,0.373c-0.119,0.222-0.079,0.459-0.044,0.512
		c4.613,1.294,18.403,13.535,22.545,26.131c2.419,7.354,1.447,14.14-2.812,19.622C177.847,216.401,170.571,224.998,158.948,224.998z
		 M108.845,168.806c4.408,0,10.253,2.132,13.07,12.286c7.668,27.645,24.845,33.316,25.017,33.371l0.415,0.13l0.365,0.232
		c3.779,2.409,7.56,3.63,11.236,3.63c8.177,0,13.702-6.071,14.15-6.579c2.78-3.619,3.41-7.823,1.921-12.851
		c-3.269-11.045-15.706-21.636-18.301-22.538c-3.21-0.903-5.218-4.049-4.744-7.469c0.508-3.68,3.601-6.249,7.519-6.249
		c7.909,0,18.036,9.896,29.287,28.618c12.651,21.057,24.34,24.201,30.181,24.204c0.001,0,0.002,0,0.003,0
		c4.796,0,9.203-2.092,12.092-5.739c2.569-3.243,3.592-7.352,2.735-10.989c-2.568-10.913-25.958-23.963-41.435-32.598
		c-7.144-3.984-12.783-7.132-15.689-9.553c-1.196-0.996-2.552-1.965-3.988-2.992c-9.131-6.522-21.638-15.46-16.034-49.082
		c1.202-7.218,2.197-14.419,2.954-21.402l0.318-2.917h0.427c1.521-10.93,3.948-33.267,1.674-40.64
		c-0.27-0.87-0.507-1.883-0.783-3.055c-2.295-9.764-7.072-30.083-46.217-30.083c-1.528,0-3.113,0.031-4.717,0.094
		C94.505,8.882,82.678,15.15,75.146,25.268c-11.935,16.033-9.869,36.86-8.952,42.862c0.754,4.417,1.981,9.132,3.742,14.354
		c0.557,1.463,7.913,20.84,10.382,30.572c7.938,31.282-20.474,50.086-39.275,62.528c-3.131,2.07-6.088,4.027-8.415,5.754
		c-7.176,5.324-11.125,11.957-11.12,18.678c0.004,5.255,2.5,9.992,7.029,13.339c1.494,1.104,3.369,1.642,5.732,1.642
		c9.235,0,22.32-8.527,26.583-11.814l0.267-0.185c2.727-1.699,7.212-5.956,11.961-10.465
		C84.22,181.963,98.083,168.806,108.845,168.806z"/>
	<path id="Body" fill="#B5CE2F" d="M236.975,198.115c-4.086-17.363-49.021-36.254-58.214-43.913
		c-9.189-7.662-25.017-12.257-18.891-49.025c1.265-7.585,2.241-14.775,2.981-21.586h0.322c0,0,5.228-34.312,1.968-44.875
		c-2.453-7.955-3.877-37.404-55.135-35.341C58.975,10.529,61,55.799,62.961,68.625c0.891,5.222,2.138,10.447,3.896,14.965
		c0,0,7.799,20.454,10.291,30.27c8.682,34.213-30.639,53.104-46.468,64.853c-15.832,11.743-15.832,28.592-4.086,37.273
		s36.256-10.212,36.256-10.212c12.233-7.625,47.682-53.489,55.914-23.808c8.233,29.68,27.191,35.618,27.191,35.618
		c17.426,11.106,29.68-3.641,29.68-3.641c12.641-16.275-13.346-39.283-17.999-40.596c-7.469-2.104,2.107-23.935,28.342,19.726
		C212.209,236.731,241.062,215.477,236.975,198.115z"/>
	<radialGradient id="Light_on_body_1_" cx="157.2578" cy="23.0068" r="109.2919" gradientUnits="userSpaceOnUse">
		<stop  offset="0" style="stop-color:#EEE824"/>
		<stop  offset="1" style="stop-color:#EEE824;stop-opacity:0"/>
	</radialGradient>
	<path id="Light_on_body" opacity="0.3" fill="url(#Light_on_body_1_)" d="M236.975,198.115
		c-4.086-17.363-49.021-36.254-58.214-43.913c-9.189-7.662-25.017-12.257-18.891-49.025c1.265-7.585,2.241-14.775,2.981-21.586
		h0.322c0,0,5.228-34.312,1.968-44.875c-2.453-7.955-3.877-37.404-55.135-35.341C58.975,10.529,61,55.799,62.961,68.625
		c0.891,5.222,2.138,10.447,3.896,14.965c0,0,7.799,20.454,10.291,30.27c8.682,34.213-30.639,53.104-46.468,64.853
		c-15.832,11.743-15.832,28.592-4.086,37.273s36.256-10.212,36.256-10.212c12.233-7.625,47.682-53.489,55.914-23.808
		c8.233,29.68,27.191,35.618,27.191,35.618c17.426,11.106,29.68-3.641,29.68-3.641c12.641-16.275-13.346-39.283-17.999-40.596
		c-7.469-2.104,2.107-23.935,28.342,19.726C212.209,236.731,241.062,215.477,236.975,198.115z"/>
	<path id="smile_3_" fill="#002E21" d="M109.925,90.503c3.226,3.415,6.994,6.679,10.92,9.48c3.952,2.797,8.202,5.225,12.77,6.684
		c4.531,1.457,9.519,1.812,14.014-0.002c4.511-1.766,8.124-5.534,10.729-9.78c-2.176,4.47-5.42,8.716-10.109,11.132
		c-2.315,1.206-4.915,1.905-7.543,2.107c-2.63,0.211-5.277-0.042-7.838-0.579c-5.134-1.096-9.928-3.25-14.417-5.798
		c-4.501-2.598-8.671-5.516-12.694-9.004c-1.243-1.076-1.378-2.958-0.3-4.2c1.078-1.245,2.958-1.378,4.202-0.3
		c0.074,0.062,0.146,0.13,0.212,0.202L109.925,90.503z"/>
	<g id="Shadows">
		<path id="Right_Leg_shadow" opacity="0.35" fill="#384F0E" d="M235.635,207.149c-1.018,0.36-1.907,0.622-2.623,0.762
			c-0.023,0.007-2.587,0.681-6.698,0.681c-8.59,0-25.23-2.98-40.13-22.9c-0.52-0.837-12.878-20.522-25.246-20.522
			c-0.452,0-0.903,0.023-1.342,0.077c0,0-2.628,0.812-2.804,1.552c-0.015,0.056,0.001,0.106,0.016,0.155
			c3.708-2.481,13.429,0.246,29.085,26.305c21.916,36.47,45.655,27.64,50.495,13.622L235.635,207.149z"/>
		<path id="Middle_Leg_shadow" opacity="0.35" fill="#384F0E" d="M145.954,217.584c6.296,4.01,11.911,4.639,16.52,3.818
			c-6.01-0.882-13.223-5.312-22.717-24.854c-10.631-21.886-22.019-25.486-29.982-24.42c3.973,0.376,7.155,3.231,8.988,9.838
			C126.996,211.646,145.954,217.584,145.954,217.584z"/>
		<path id="Left_Leg_shadow_and_body_shadow" opacity="0.35" fill="#384F0E" d="M43.866,209.673
			c-11.498-4.487-11.81-15.266-9.936-21.986c4.385-15.725,56.719-40.782,51.764-85.078c-2.529-22.607-28.855-70.864-0.254-90.993
			l0.001,0C59.785,27.256,61.39,58.35,62.961,68.625c0.891,5.222,2.138,10.447,3.896,14.965c0,0,7.799,20.454,10.291,30.27
			c8.682,34.213-30.639,53.104-46.468,64.853c-15.832,11.743-15.832,28.592-4.086,37.273s36.256-10.212,36.256-10.212
			c7.806-4.866,25.064-25.298,38.673-31.739C87.028,177.635,55.364,214.161,43.866,209.673z"/>
		<path id="tie_shadow_3_" opacity="0.18" fill="#384F0E" d="M135.998,150.831l6.054-15.019c0.268-0.941-0.679-1.772-2.07-1.877
			l-17.276-0.463c-1.392-0.109-2.025,1.095-1.375,2.637l9.604,13.89c0.578,8.187,2.809,27.087,11.371,43.472l22.903,10.601
			l-0.199-11.696C165.009,192.375,138.295,175.176,135.998,150.831z"/>
	</g>
	<path id="tie" fill="#00421C" d="M167.055,191.775l-1.847,12.296l-19.997-11.199c-8.238-16.384-10.385-35.285-10.942-43.472
		l-9.236-13.893c-0.625-1.54-0.019-2.743,1.321-2.637l16.622,0.465c1.336,0.103,2.246,0.934,1.99,1.877l-5.821,15.012
		C141.353,174.574,167.055,191.775,167.055,191.775z"/>
	<g id="eye_8_">
		<path fill="#F5EE6A" d="M158.318,60.968c0,8.693-4.331,15.737-9.673,15.737c-5.341,0-8.398-6.909-8.398-15.602
			c0-8.69,3.058-15.871,8.398-15.871C153.987,45.231,158.318,52.277,158.318,60.968z"/>
		<path fill="#3E6A27" d="M152.883,61.802c0,8.691,1.226,15.397-4.237,14.903c-5.318-0.479-10.508-6.909-10.508-15.602
			c0-8.69,5.167-15.871,10.508-15.871C151.036,45.231,152.883,53.111,152.883,61.802z"/>
		<ellipse fill="#002E21" cx="148.298" cy="61.103" rx="8.051" ry="15.602"/>
		<path fill="#F1F7E9" d="M153.175,50.598c1.086,2.012,1.045,4.133-0.084,4.741c-1.13,0.609-2.922-0.527-4.005-2.537
			s-1.045-4.13,0.085-4.741C150.3,47.455,152.095,48.588,153.175,50.598z"/>
		<path fill="#B5CE2F" d="M142.976,69.162c0,0,2.938,8.853,7.619,5.508C155.274,71.324,148.405,78.086,142.976,69.162z"/>
	</g>
	<g id="eye_7_">
		<path fill="#F5EE6A" d="M136.915,59.135c0,9.248-4.606,16.74-10.29,16.74c-5.68,0-8.934-7.35-8.934-16.596
			c0-9.246,3.254-16.884,8.934-16.884C132.309,42.395,136.915,49.889,136.915,59.135z"/>
		<path fill="#3E6A27" d="M131.135,60.022c0,9.246,1.303,16.38-4.51,15.853c-5.657-0.509-11.179-7.348-11.179-16.596
			c0-9.246,5.499-16.884,11.179-16.884C129.17,42.395,131.135,50.776,131.135,60.022z"/>
		<ellipse fill="#002E21" cx="126.256" cy="59.279" rx="8.565" ry="16.596"/>
		
			<ellipse transform="matrix(0.8806 -0.4739 0.4739 0.8806 -7.9145 67.1435)" fill="#F1F7E9" cx="129.27" cy="49.276" rx="2.471" ry="4.396"/>
		<path fill="#B5CE2F" d="M120.042,66.532c0,0,3.311,9.973,8.583,6.203C133.898,68.966,126.159,76.583,120.042,66.532z"/>
	</g>
</g>
</svg>
