<?xml version="1.0" encoding="utf-8"?>
<!-- Generator: Adobe Illustrator 16.0.1, SVG Export Plug-In . SVG Version: 6.00 Build 0)  -->
<!DOCTYPE svg PUBLIC "-//W3C//DTD SVG 1.1//EN" "http://www.w3.org/Graphics/SVG/1.1/DTD/svg11.dtd">
<svg version="1.1" id="Layer_1" xmlns="http://www.w3.org/2000/svg" xmlns:xlink="http://www.w3.org/1999/xlink" x="0px" y="0px"
	 width="244.883px" height="232.628px" viewBox="0 0 244.883 232.628" enable-background="new 0 0 244.883 232.628"
	 xml:space="preserve">
<g>
	<path id="Under_shadow" opacity="0.11" fill="#231F20" d="M244.171,215.716c0,8.789-54.817,15.912-122.44,15.912
		c-67.623,0-122.442-7.123-122.442-15.912c0-8.785,54.82-15.91,122.442-15.91C189.354,199.806,244.171,206.931,244.171,215.716z"/>
	<path id="Outline" fill="#384F0E" d="M158.236,223.998c-4.832,0-9.683-1.496-14.424-4.449c-3.141-1.154-20.91-8.855-28.913-37.707
		c-2.079-7.494-5.484-7.494-6.767-7.494c-8.152,0-21.509,12.676-31.261,21.932c-5.141,4.879-9.59,9.102-12.867,11.184
		c-1.712,1.301-17.577,13.074-30.448,13.074c-3.761,0-6.998-0.982-9.621-2.92c-6.147-4.545-9.676-11.322-9.682-18.596
		c-0.007-8.848,4.881-17.348,13.764-23.936c2.467-1.832,5.496-3.836,8.702-5.957c18.291-12.105,43.341-28.682,36.545-55.464
		c-2.419-9.534-10.099-29.706-10.176-29.91l-0.043-0.12c-1.881-5.573-3.197-10.63-4.021-15.461
		c-1.023-6.692-3.287-29.746,10.162-47.812c8.641-11.607,21.982-18.75,39.655-21.226l0.323-0.03C110.908-0.965,112.639-1,114.306-1
		c44.326,0,50.114,24.616,52.585,35.127c0.248,1.056,0.463,1.967,0.666,2.624c3.382,10.963-1.314,42.744-1.86,46.332l-0.424,2.778
		h-0.211c-0.722,6.187-1.621,12.515-2.678,18.854c-4.931,29.595,4.802,36.55,13.387,42.683c1.537,1.1,2.99,2.139,4.373,3.291
		c2.437,2.029,8.114,5.195,14.688,8.863c17.465,9.746,41.386,23.09,44.615,36.812c1.33,5.65-0.12,11.682-3.977,16.549
		c-4.136,5.223-10.412,8.219-17.219,8.221c-0.001,0-0.002,0-0.003,0c-7.224-0.004-21.479-3.561-35.788-27.377
		c-14.554-24.219-22.278-25.445-23.68-25.445c-0.508,0-0.833,0.125-0.965,0.373c-0.119,0.221-0.079,0.459-0.044,0.512
		c4.613,1.293,18.403,13.535,22.545,26.131c2.419,7.354,1.447,14.139-2.812,19.621C177.135,215.4,169.859,223.998,158.236,223.998z
		 M108.133,167.806c4.408,0,10.253,2.131,13.07,12.285c7.668,27.645,24.845,33.316,25.017,33.371l0.415,0.131l0.365,0.232
		c3.779,2.408,7.56,3.629,11.236,3.629c8.177,0,13.702-6.07,14.15-6.578c2.78-3.619,3.41-7.824,1.921-12.852
		c-3.269-11.045-15.706-21.635-18.301-22.537c-3.21-0.904-5.218-4.049-4.744-7.469c0.508-3.68,3.601-6.25,7.519-6.25
		c7.909,0,18.036,9.896,29.287,28.619c12.651,21.057,24.34,24.201,30.181,24.203c0.001,0,0.002,0,0.003,0
		c4.796,0,9.203-2.092,12.092-5.738c2.569-3.244,3.592-7.352,2.735-10.99c-2.568-10.912-25.958-23.963-41.435-32.598
		c-7.144-3.984-12.783-7.131-15.689-9.553c-1.196-0.996-2.552-1.965-3.988-2.992c-9.131-6.521-21.638-15.459-16.034-49.082
		c1.202-7.218,2.197-14.419,2.954-21.402l0.318-2.917h0.427c1.521-10.93,3.948-33.267,1.674-40.64
		c-0.27-0.87-0.507-1.883-0.783-3.055c-2.295-9.764-7.072-30.083-46.217-30.083c-1.528,0-3.113,0.031-4.717,0.094
		c-15.796,2.247-27.623,8.514-35.155,18.632C62.5,40.3,64.565,61.128,65.482,67.129c0.754,4.417,1.981,9.132,3.742,14.354
		c0.557,1.463,7.913,20.84,10.382,30.572c7.938,31.282-20.474,50.086-39.275,62.528c-3.131,2.07-6.088,4.027-8.415,5.754
		c-7.176,5.324-11.125,11.957-11.12,18.678c0.004,5.256,2.5,9.992,7.029,13.34c1.494,1.104,3.369,1.641,5.732,1.641
		c9.235,0,22.32-8.527,26.583-11.814l0.267-0.184c2.727-1.699,7.212-5.957,11.961-10.465
		C83.508,180.962,97.371,167.806,108.133,167.806z"/>
	<path id="Body" fill="#B5CE2F" d="M236.263,197.115c-4.086-17.363-49.021-36.254-58.214-43.914
		c-9.189-7.662-25.017-12.256-18.891-49.025c1.265-7.585,2.241-14.775,2.981-21.586h0.322c0,0,5.228-34.312,1.968-44.875
		c-2.453-7.955-3.877-37.404-55.135-35.341C58.263,9.529,60.289,54.798,62.249,67.625c0.891,5.222,2.138,10.447,3.896,14.965
		c0,0,7.799,20.454,10.291,30.27c8.682,34.212-30.639,53.105-46.468,64.853c-15.832,11.742-15.832,28.592-4.086,37.273
		s36.256-10.213,36.256-10.213c12.233-7.625,47.682-53.488,55.914-23.807c8.233,29.68,27.191,35.617,27.191,35.617
		c17.426,11.107,29.68-3.641,29.68-3.641c12.641-16.275-13.346-39.283-17.999-40.596c-7.469-2.104,2.107-23.934,28.342,19.727
		C211.497,235.73,240.35,214.476,236.263,197.115z"/>
	<radialGradient id="Light_on_body_1_" cx="156.5459" cy="22.0063" r="109.2921" gradientUnits="userSpaceOnUse">
		<stop  offset="0" style="stop-color:#EEE824"/>
		<stop  offset="1" style="stop-color:#EEE824;stop-opacity:0"/>
	</radialGradient>
	<path id="Light_on_body" opacity="0.3" fill="url(#Light_on_body_1_)" d="M236.263,197.115
		c-4.086-17.363-49.021-36.254-58.214-43.914c-9.189-7.662-25.017-12.256-18.891-49.025c1.265-7.585,2.241-14.775,2.981-21.586
		h0.322c0,0,5.228-34.312,1.968-44.875c-2.453-7.955-3.877-37.404-55.135-35.341C58.263,9.529,60.289,54.798,62.249,67.625
		c0.891,5.222,2.138,10.447,3.896,14.965c0,0,7.799,20.454,10.291,30.27c8.682,34.212-30.639,53.105-46.468,64.853
		c-15.832,11.742-15.832,28.592-4.086,37.273s36.256-10.213,36.256-10.213c12.233-7.625,47.682-53.488,55.914-23.807
		c8.233,29.68,27.191,35.617,27.191,35.617c17.426,11.107,29.68-3.641,29.68-3.641c12.641-16.275-13.346-39.283-17.999-40.596
		c-7.469-2.104,2.107-23.934,28.342,19.727C211.497,235.73,240.35,214.476,236.263,197.115z"/>
	<path id="smile_3_" fill="#002E21" d="M109.213,89.503c3.226,3.415,6.994,6.679,10.92,9.48c3.952,2.797,8.202,5.225,12.77,6.684
		c4.531,1.457,9.519,1.812,14.014-0.002c4.511-1.766,8.124-5.534,10.729-9.78c-2.176,4.47-5.42,8.716-10.109,11.132
		c-2.315,1.206-4.915,1.905-7.543,2.107c-2.63,0.211-5.277-0.042-7.838-0.579c-5.134-1.096-9.928-3.25-14.417-5.798
		c-4.501-2.598-8.671-5.516-12.694-9.004c-1.243-1.076-1.378-2.958-0.3-4.2c1.078-1.245,2.958-1.378,4.202-0.3
		c0.074,0.062,0.146,0.13,0.212,0.202L109.213,89.503z"/>
	<g id="Shadows">
		<path id="Right_Leg_shadow" fill="#8BA400" d="M234.923,206.148c-1.018,0.361-1.907,0.623-2.623,0.762
			c-0.023,0.008-2.587,0.682-6.698,0.682c-8.59,0-25.23-2.98-40.13-22.9c-0.52-0.838-12.878-20.523-25.246-20.523
			c-0.452,0-0.903,0.023-1.342,0.078c0,0-2.628,0.812-2.804,1.551c-0.015,0.057,0.001,0.107,0.016,0.156
			c3.708-2.482,13.429,0.246,29.085,26.305c21.916,36.469,45.655,27.639,50.495,13.621L234.923,206.148z"/>
		<path id="Middle_Leg_shadow" fill="#8BA400" d="M145.242,216.583c6.296,4.01,11.911,4.639,16.52,3.818
			c-6.01-0.881-13.223-5.312-22.717-24.854c-10.631-21.887-22.019-25.486-29.982-24.42c3.973,0.375,7.155,3.23,8.988,9.838
			C126.284,210.646,145.242,216.583,145.242,216.583z"/>
		<path id="Left_Leg_shadow_and_body_shadow" fill="#8BA400" d="M43.154,208.673c-11.498-4.488-11.81-15.266-9.936-21.986
			c4.385-15.725,56.719-40.783,51.764-85.079c-2.529-22.607-28.855-70.864-0.254-90.993l0.001,0
			c-25.658,15.641-24.052,46.734-22.481,57.01c0.891,5.222,2.138,10.447,3.896,14.965c0,0,7.799,20.454,10.291,30.27
			c8.682,34.212-30.639,53.105-46.468,64.853c-15.832,11.742-15.832,28.592-4.086,37.273s36.256-10.213,36.256-10.213
			c7.806-4.865,25.064-25.297,38.673-31.738C86.316,176.634,54.652,213.16,43.154,208.673z"/>
		<path id="tie_shadow_3_" opacity="0.18" fill="#384F0E" d="M135.286,149.83l6.054-15.018c0.268-0.941-0.679-1.773-2.07-1.877
			l-17.276-0.463c-1.392-0.109-2.025,1.094-1.375,2.637l9.604,13.889c0.578,8.188,2.809,27.088,11.371,43.473l22.903,10.6
			l-0.199-11.695C164.297,191.375,137.583,174.175,135.286,149.83z"/>
	</g>
	<path id="tie" fill="#00421C" d="M166.343,190.775l-1.847,12.295l-19.997-11.199c-8.238-16.383-10.385-35.285-10.942-43.471
		l-9.235-13.893c-0.625-1.541-0.019-2.744,1.321-2.637l16.622,0.465c1.336,0.102,2.246,0.934,1.99,1.877l-5.821,15.012
		C140.641,173.574,166.343,190.775,166.343,190.775z"/>
	<g id="eye_8_">
		<path fill="#F5EE6A" d="M157.606,59.967c0,8.693-4.331,15.737-9.673,15.737c-5.341,0-8.398-6.909-8.398-15.602
			c0-8.69,3.058-15.871,8.398-15.871C153.275,44.231,157.606,51.277,157.606,59.967z"/>
		<path fill="#3E6A27" d="M152.171,60.801c0,8.691,1.226,15.397-4.237,14.903c-5.318-0.479-10.508-6.909-10.508-15.602
			c0-8.69,5.167-15.871,10.508-15.871C150.324,44.231,152.171,52.111,152.171,60.801z"/>
		<ellipse fill="#002E21" cx="147.586" cy="60.102" rx="8.051" ry="15.602"/>
		<path fill="#F4FAED" d="M152.463,49.597c1.086,2.012,1.045,4.133-0.084,4.741c-1.13,0.609-2.922-0.527-4.005-2.537
			s-1.045-4.13,0.085-4.741C149.588,46.454,151.383,47.588,152.463,49.597z"/>
		<path fill="#B5CE2F" d="M142.264,68.161c0,0,2.938,8.853,7.619,5.508C154.562,70.324,147.693,77.086,142.264,68.161z"/>
	</g>
	<g id="eye_7_">
		<path fill="#F5EE6A" d="M136.203,58.135c0,9.248-4.606,16.74-10.29,16.74c-5.68,0-8.934-7.35-8.934-16.596
			c0-9.246,3.254-16.884,8.934-16.884C131.597,41.395,136.203,48.889,136.203,58.135z"/>
		<path fill="#3E6A27" d="M130.423,59.022c0,9.246,1.303,16.38-4.51,15.853c-5.657-0.509-11.179-7.348-11.179-16.596
			c0-9.246,5.499-16.884,11.179-16.884C128.458,41.395,130.423,49.776,130.423,59.022z"/>
		<ellipse fill="#002E21" cx="125.544" cy="58.278" rx="8.565" ry="16.596"/>
		
			<ellipse transform="matrix(0.8806 -0.4739 0.4739 0.8806 -7.5254 66.6867)" fill="#F4FAED" cx="128.558" cy="48.275" rx="2.471" ry="4.396"/>
		<path fill="#B5CE2F" d="M119.33,65.531c0,0,3.311,9.973,8.583,6.203C133.187,67.966,125.447,75.583,119.33,65.531z"/>
	</g>
</g>
</svg>
