<?xml version="1.0" encoding="utf-8"?>
<!-- Generator: Adobe Illustrator 16.0.1, SVG Export Plug-In . SVG Version: 6.00 Build 0)  -->
<!DOCTYPE svg PUBLIC "-//W3C//DTD SVG 1.1//EN" "http://www.w3.org/Graphics/SVG/1.1/DTD/svg11.dtd">
<svg version="1.1" id="Layer_1" xmlns="http://www.w3.org/2000/svg" xmlns:xlink="http://www.w3.org/1999/xlink" x="0px" y="0px"
	 width="244.883px" height="232.628px" viewBox="0 0 244.883 232.628" enable-background="new 0 0 244.883 232.628"
	 xml:space="preserve">
<g>
	<ellipse id="Under_shadow" opacity="0.11" enable-background="new    " cx="122.441" cy="216.717" rx="122.441" ry="15.911"/>
	<path id="Outline" fill="#384F0E" d="M158.948,224.998c-4.832,0-9.683-1.496-14.425-4.447c-3.141-1.154-20.91-8.856-28.913-37.709
		c-2.079-7.492-5.484-7.492-6.767-7.492c-8.152,0-21.509,12.676-31.261,21.932c-5.141,4.879-9.59,9.102-12.867,11.184
		c-1.712,1.301-17.577,13.074-30.448,13.074c-3.761,0-6.998-0.982-9.621-2.92c-6.147-4.545-9.676-11.322-9.682-18.596
		c-0.007-8.848,4.881-17.348,13.764-23.938c2.467-1.83,5.496-3.834,8.702-5.957c18.291-12.104,43.341-28.682,36.545-55.463
		c-2.419-9.534-10.099-29.706-10.176-29.91l-0.043-0.12c-1.881-5.573-3.197-10.63-4.021-15.461
		c-1.023-6.692-3.287-29.746,10.162-47.812C78.539,9.754,91.88,2.612,109.553,0.136l0.323-0.03C111.62,0.036,113.351,0,115.018,0
		c44.326,0,50.114,24.616,52.585,35.127c0.248,1.056,0.463,1.967,0.666,2.624c3.381,10.963-1.314,42.744-1.86,46.332l-0.425,2.778
		h-0.211c-0.722,6.187-1.621,12.515-2.678,18.854c-4.931,29.596,4.803,36.55,13.387,42.684c1.537,1.101,2.99,2.138,4.373,3.29
		c2.438,2.029,8.115,5.195,14.688,8.863c17.465,9.746,41.386,23.091,44.615,36.812c1.33,5.65-0.12,11.682-3.978,16.551
		c-4.136,5.223-10.412,8.217-17.219,8.219c-0.001,0-0.002,0-0.003,0c-7.224-0.002-21.479-3.561-35.788-27.375
		c-14.554-24.221-22.277-25.446-23.68-25.446c-0.508,0-0.833,0.125-0.965,0.373c-0.119,0.222-0.079,0.459-0.045,0.513
		c4.613,1.293,18.404,13.534,22.545,26.131c2.42,7.354,1.447,14.139-2.812,19.621C177.848,216.401,170.57,224.998,158.948,224.998z
		 M108.845,168.806c4.408,0,10.253,2.132,13.07,12.285c7.668,27.646,24.845,33.316,25.017,33.371l0.416,0.131l0.364,0.232
		c3.779,2.408,7.56,3.629,11.236,3.629c8.177,0,13.702-6.07,14.149-6.578c2.78-3.619,3.41-7.824,1.922-12.852
		c-3.27-11.045-15.707-21.636-18.302-22.538c-3.21-0.903-5.218-4.049-4.743-7.469c0.508-3.681,3.601-6.249,7.519-6.249
		c7.909,0,18.036,9.896,29.286,28.618c12.652,21.057,24.341,24.2,30.182,24.204c0.001,0,0.002,0,0.003,0
		c4.796,0,9.203-2.092,12.093-5.739c2.568-3.243,3.592-7.353,2.734-10.989c-2.568-10.912-25.958-23.963-41.436-32.598
		c-7.144-3.984-12.782-7.133-15.688-9.553c-1.196-0.996-2.552-1.965-3.987-2.992c-9.132-6.521-21.639-15.461-16.035-49.082
		c1.203-7.218,2.197-14.419,2.955-21.402l0.317-2.917h0.427c1.521-10.93,3.948-33.267,1.674-40.64
		c-0.27-0.87-0.507-1.883-0.783-3.055c-2.295-9.764-7.071-30.083-46.216-30.083c-1.528,0-3.113,0.031-4.717,0.094
		C94.505,8.882,82.678,15.15,75.146,25.268c-11.935,16.033-9.869,36.86-8.952,42.862c0.754,4.417,1.981,9.132,3.742,14.354
		c0.557,1.463,7.913,20.84,10.382,30.572c7.938,31.281-20.474,50.086-39.275,62.527c-3.131,2.07-6.088,4.027-8.415,5.754
		c-7.176,5.324-11.125,11.957-11.12,18.679c0.004,5.255,2.5,9.991,7.029,13.339c1.494,1.104,3.369,1.643,5.732,1.643
		c9.235,0,22.32-8.527,26.583-11.814l0.267-0.186c2.727-1.699,7.212-5.955,11.961-10.465
		C84.22,181.962,98.083,168.806,108.845,168.806z"/>
	<path id="Body" fill="#B5CE2F" d="M236.975,198.115c-4.086-17.363-49.021-36.254-58.213-43.912
		c-9.189-7.662-25.018-12.258-18.892-49.026c1.265-7.585,2.241-14.775,2.981-21.586h0.321c0,0,5.228-34.312,1.968-44.875
		c-2.453-7.955-3.877-37.404-55.135-35.341C58.975,10.529,61,55.799,62.961,68.625c0.891,5.222,2.138,10.447,3.896,14.965
		c0,0,7.799,20.454,10.291,30.27c8.682,34.214-30.639,53.104-46.468,64.853c-15.832,11.744-15.832,28.593-4.086,37.273
		c11.746,8.682,36.256-10.212,36.256-10.212c12.233-7.625,47.682-53.489,55.914-23.808c8.233,29.68,27.191,35.617,27.191,35.617
		c17.426,11.106,29.68-3.641,29.68-3.641c12.641-16.275-13.346-39.283-17.998-40.596c-7.47-2.104,2.106-23.936,28.342,19.727
		C212.209,236.731,241.062,215.477,236.975,198.115z"/>
	
		<radialGradient id="Light_on_body_1_" cx="157.2578" cy="210.6206" r="109.2922" gradientTransform="matrix(1 0 0 -1 0 233.6279)" gradientUnits="userSpaceOnUse">
		<stop  offset="0" style="stop-color:#EEE824"/>
		<stop  offset="1" style="stop-color:#EEE824;stop-opacity:0"/>
	</radialGradient>
	<path id="Light_on_body" opacity="0.3" fill="url(#Light_on_body_1_)" enable-background="new    " d="M236.975,198.115
		c-4.086-17.363-49.021-36.254-58.213-43.912c-9.189-7.662-25.018-12.258-18.892-49.026c1.265-7.585,2.241-14.775,2.981-21.586
		h0.321c0,0,5.228-34.312,1.968-44.875c-2.453-7.955-3.877-37.404-55.135-35.341C58.975,10.529,61,55.799,62.961,68.625
		c0.891,5.222,2.138,10.447,3.896,14.965c0,0,7.799,20.454,10.291,30.27c8.682,34.214-30.639,53.104-46.468,64.853
		c-15.832,11.744-15.832,28.593-4.086,37.273c11.746,8.682,36.256-10.212,36.256-10.212c12.233-7.625,47.682-53.489,55.914-23.808
		c8.233,29.68,27.191,35.617,27.191,35.617c17.426,11.106,29.68-3.641,29.68-3.641c12.641-16.275-13.346-39.283-17.998-40.596
		c-7.47-2.104,2.106-23.936,28.342,19.727C212.209,236.731,241.062,215.477,236.975,198.115z"/>
	<path id="smile_3_" fill="#002E21" d="M109.925,90.503c3.226,3.415,6.994,6.679,10.92,9.48c3.952,2.797,8.202,5.225,12.77,6.684
		c4.531,1.457,9.519,1.812,14.014-0.002c4.512-1.766,8.124-5.534,10.729-9.78c-2.176,4.47-5.42,8.716-10.108,11.132
		c-2.315,1.206-4.915,1.905-7.543,2.107c-2.63,0.211-5.276-0.042-7.838-0.579c-5.134-1.096-9.928-3.25-14.417-5.798
		c-4.501-2.598-8.671-5.516-12.694-9.004c-1.243-1.076-1.378-2.958-0.3-4.2c1.078-1.245,2.958-1.378,4.202-0.3
		c0.074,0.062,0.146,0.13,0.212,0.202L109.925,90.503z"/>
	<g id="Shadows">
		<path id="Right_Leg_shadow" fill="#849B2B" enable-background="new    " d="M235.635,207.149c-1.018,0.36-1.906,0.622-2.623,0.763
			c-0.023,0.006-2.587,0.68-6.697,0.68c-8.59,0-25.23-2.979-40.131-22.899c-0.52-0.837-12.877-20.522-25.246-20.522
			c-0.451,0-0.902,0.023-1.342,0.078c0,0-2.628,0.812-2.804,1.551c-0.015,0.057,0.001,0.107,0.017,0.156
			c3.707-2.481,13.428,0.246,29.084,26.305c21.916,36.47,45.655,27.64,50.496,13.621L235.635,207.149z"/>
		<path id="Middle_Leg_shadow" fill="#849B2B" enable-background="new    " d="M145.954,217.583
			c6.296,4.01,11.911,4.64,16.521,3.818c-6.011-0.882-13.224-5.312-22.718-24.854c-10.631-21.887-22.019-25.486-29.982-24.42
			c3.973,0.375,7.155,3.23,8.988,9.838C126.996,211.646,145.954,217.583,145.954,217.583z"/>
		<path id="Left_Leg_shadow_and_body_shadow" fill="#849B2B" enable-background="new    " d="M43.866,209.673
			c-11.498-4.487-11.81-15.266-9.936-21.986c4.385-15.725,56.719-40.781,51.764-85.078c-2.529-22.607-28.855-70.864-0.254-90.993
			h0.001C59.785,27.256,61.39,58.35,62.961,68.625c0.891,5.222,2.138,10.447,3.896,14.965c0,0,7.799,20.454,10.291,30.27
			c8.682,34.214-30.639,53.104-46.468,64.853c-15.832,11.744-15.832,28.593-4.086,37.273c11.746,8.682,36.256-10.212,36.256-10.212
			c7.806-4.866,25.064-25.298,38.673-31.739C87.028,177.634,55.364,214.162,43.866,209.673z"/>
		<path id="tie_shadow_3_" opacity="0.18" fill="#384F0E" enable-background="new    " d="M135.998,150.832l6.054-15.02
			c0.269-0.941-0.679-1.771-2.069-1.877l-17.276-0.463c-1.392-0.109-2.025,1.095-1.375,2.637L130.936,150
			c0.578,8.187,2.809,27.086,11.371,43.472l22.902,10.601l-0.199-11.695C165.009,192.375,138.295,175.175,135.998,150.832z"/>
	</g>
	<path id="tie" fill="#00421C" d="M167.055,191.775l-1.847,12.296l-19.997-11.198c-8.238-16.385-10.385-35.285-10.941-43.473
		l-9.236-13.893c-0.625-1.541-0.02-2.743,1.32-2.637l16.623,0.465c1.336,0.103,2.246,0.934,1.989,1.877l-5.821,15.012
		C141.354,174.574,167.055,191.775,167.055,191.775z"/>
	<g id="eye_8_">
		<path fill="#F5EE6A" d="M158.318,60.968c0,8.693-4.332,15.737-9.674,15.737c-5.34,0-8.397-6.909-8.397-15.602
			c0-8.69,3.058-15.871,8.397-15.871C153.986,45.231,158.318,52.277,158.318,60.968z"/>
		<path fill="#3E6A27" d="M152.883,61.802c0,8.691,1.227,15.397-4.236,14.903c-5.318-0.479-10.508-6.909-10.508-15.602
			c0-8.69,5.166-15.871,10.508-15.871C151.036,45.231,152.883,53.111,152.883,61.802z"/>
		<ellipse fill="#002E21" cx="148.298" cy="61.103" rx="8.052" ry="15.602"/>
		<path fill="#F1F7E9" d="M153.175,50.598c1.087,2.012,1.046,4.133-0.084,4.741c-1.13,0.609-2.922-0.527-4.005-2.537
			c-1.083-2.01-1.045-4.13,0.085-4.741C150.3,47.455,152.096,48.588,153.175,50.598z"/>
		<path fill="#B5CE2F" d="M142.977,69.162c0,0,2.938,8.853,7.619,5.508C155.273,71.324,148.404,78.086,142.977,69.162z"/>
	</g>
	<g id="eye_7_">
		<path fill="#F5EE6A" d="M136.915,59.135c0,9.248-4.606,16.74-10.29,16.74c-5.68,0-8.934-7.35-8.934-16.596
			c0-9.246,3.254-16.884,8.934-16.884C132.309,42.395,136.915,49.889,136.915,59.135z"/>
		<path fill="#3E6A27" d="M131.135,60.022c0,9.246,1.303,16.38-4.51,15.853c-5.657-0.509-11.179-7.348-11.179-16.596
			c0-9.246,5.499-16.884,11.179-16.884C129.17,42.395,131.135,50.776,131.135,60.022z"/>
		<ellipse fill="#002E21" cx="126.256" cy="59.279" rx="8.564" ry="16.596"/>
		
			<ellipse transform="matrix(-0.4738 -0.8806 0.8806 -0.4738 147.1362 186.4619)" fill="#F1F7E9" cx="129.272" cy="49.275" rx="4.396" ry="2.472"/>
		<path fill="#B5CE2F" d="M120.042,66.532c0,0,3.312,9.973,8.583,6.203C133.898,68.966,126.159,76.583,120.042,66.532z"/>
	</g>
</g>
</svg>
