<?xml version="1.0" encoding="utf-8"?>
<!-- Generator: Adobe Illustrator 16.0.0, SVG Export Plug-In . SVG Version: 6.00 Build 0)  -->
<!DOCTYPE svg PUBLIC "-//W3C//DTD SVG 1.1//EN" "http://www.w3.org/Graphics/SVG/1.1/DTD/svg11.dtd">
<svg version="1.1" id="Layer_1" xmlns="http://www.w3.org/2000/svg" xmlns:xlink="http://www.w3.org/1999/xlink" x="0px" y="0px"
	 width="53px" height="100px" viewBox="0 0 53 100" enable-background="new 0 0 53 100" xml:space="preserve">
<path fill="#384F0E" d="M49.689,83.33H3.32V16.67h46.37V83.33z M26.5,96.67c-2.74,0-4.97-2.24-4.97-5c0-2.77,2.23-5,4.97-5
	c2.75,0,4.971,2.23,4.971,5C31.471,94.43,29.25,96.67,26.5,96.67z M21.54,6.67h9.931c0.909,0,1.659,0.74,1.659,1.66
	S32.38,10,31.471,10H21.54c-0.92,0-1.66-0.75-1.66-1.67S20.62,6.67,21.54,6.67z M44.721,0H8.28C3.73,0,0,3.75,0,8.33v83.34
	C0,96.25,3.73,100,8.28,100h36.441C49.27,100,53,96.25,53,91.67V8.33C53,3.75,49.27,0,44.721,0z"/>
</svg>
