<?xml version="1.0" encoding="utf-8"?>
<!-- Generator: Adobe Illustrator 16.0.1, SVG Export Plug-In . SVG Version: 6.00 Build 0)  -->
<!DOCTYPE svg PUBLIC "-//W3C//DTD SVG 1.1//EN" "http://www.w3.org/Graphics/SVG/1.1/DTD/svg11.dtd">
<svg version="1.1" id="Layer_1" xmlns="http://www.w3.org/2000/svg" xmlns:xlink="http://www.w3.org/1999/xlink" x="0px" y="0px"
	 width="204.75px" height="194.153px" viewBox="0.002 0 204.75 194.153" enable-background="new 0.002 0 204.75 194.153"
	 xml:space="preserve">
<g>
	<g>
		<path fill="none" stroke="#A4C939" stroke-width="3" stroke-linecap="round" stroke-linejoin="round" stroke-miterlimit="10" d="
			M203.252,173.251v10.434c0,0.27-0.213,0.48-0.478,0.48h-0.365c-0.382,4.704-4.302,8.411-9.119,8.411h-0.784
			c-0.4,0.058-0.821,0.077-1.244,0.077H11.996c-5.77,0-10.494-4.741-10.494-10.494V12.016C1.502,6.241,6.226,1.5,11.996,1.5h107.61
			c5.772,0,10.491,4.741,10.491,10.516v114.257h22.446v-0.099c0-0.265,0.233-0.477,0.5-0.477H157c0.268,0,0.477,0.212,0.477,0.477
			v0.099h7.188v-0.099c0-0.265,0.214-0.477,0.478-0.477h4.057c0.264,0,0.478,0.212,0.478,0.477v0.099h7.285v-0.099
			c0-0.265,0.228-0.477,0.497-0.477h5.735c0.246,0,0.477,0.212,0.477,0.477v0.099h7.589c0.366,0,0.711,0.02,1.073,0.055h0.955
			c5.066,0,9.157,4.093,9.157,9.162v37.283h0.328C203.039,172.773,203.252,172.982,203.252,173.251z"/>
	</g>
</g>
<g>
	<g>
		<circle fill="#A5CB39" cx="65.478" cy="182.293" r="6.666"/>
		<rect x="10.191" y="21.75" fill="#A5CB39" width="111.21" height="150.656"/>
		
			<linearGradient id="SVGID_1_" gradientUnits="userSpaceOnUse" x1="245.7932" y1="-272.3372" x2="245.7932" y2="-81.1975" gradientTransform="matrix(1 0 0 -1 -180 -79.6909)">
			<stop  offset="0" style="stop-color:#012E22"/>
			<stop  offset="0.0732" style="stop-color:#183823"/>
			<stop  offset="0.1711" style="stop-color:#284324"/>
			<stop  offset="0.2852" style="stop-color:#334A24"/>
			<stop  offset="0.4288" style="stop-color:#394E24"/>
			<stop  offset="0.697" style="stop-color:#3B5024"/>
			<stop  offset="0.7307" style="stop-color:#3B5024"/>
			<stop  offset="1" style="stop-color:#3B5024"/>
		</linearGradient>
		<path fill="url(#SVGID_1_)" d="M119.591,1.507c5.774,0,10.497,4.726,10.497,10.502v170.139c0,5.773-4.723,10.499-10.497,10.499
			H11.996c-5.776,0-10.498-4.726-10.498-10.499V12.009c0-5.778,4.728-10.502,10.498-10.502H119.591z M10.191,21.75v150.656h111.206
			V21.75H10.191z M72.008,182.006c0-3.592-2.91-6.483-6.49-6.483c-3.557,0-6.488,2.892-6.488,6.483c0,3.579,2.931,6.481,6.488,6.481
			C69.096,188.488,72.008,185.585,72.008,182.006z"/>
		<path fill="#3B5024" d="M67.422,178.787h-3.892c-0.848,0-1.533,0.684-1.533,1.531v3.947c0,0.848,0.686,1.533,1.533,1.533h3.892
			c0.848,0,1.535-0.686,1.535-1.533v-3.947C68.954,179.471,68.27,178.787,67.422,178.787z M68.366,183.887
			c0,0.691-0.557,1.245-1.248,1.245H63.97c-0.686,0-1.243-0.554-1.243-1.245v-3.195c0-0.683,0.558-1.24,1.243-1.24h3.148
			c0.691,0,1.248,0.558,1.248,1.24V183.887z"/>
		<g>
			<path fill="#A5CB39" d="M65.794,13.619c-1.047,0-1.895-0.848-1.895-1.893l0,0c0-1.045,0.848-1.895,1.895-1.895l0,0
				c1.05,0,1.897,0.849,1.897,1.895l0,0C67.692,12.77,66.844,13.619,65.794,13.619"/>
			<path fill="#3B5024" d="M65.104,11.725c0-0.384,0.31-0.694,0.69-0.694l0,0c0.384,0,0.694,0.31,0.694,0.694l0,0
				c0,0.382-0.311,0.691-0.694,0.691l0,0C65.413,12.416,65.104,12.107,65.104,11.725L65.104,11.725z"/>
		</g>
	</g>
	<g>
		<path fill="#A5CB39" d="M70.772,192.649c-1.542,0-2.949-0.282-4.246-0.862c-1.292-0.566-2.405-1.326-3.353-2.281
			c-0.956-0.94-1.708-2.087-2.27-3.412c-0.591-1.342-0.862-2.724-0.862-4.175v-44.923c0-2.971,1.041-5.502,3.132-7.591
			c2.084-2.099,4.628-3.144,7.599-3.144h120.483c1.436,0,2.834,0.284,4.175,0.853c1.325,0.579,2.472,1.341,3.413,2.291
			c0.952,0.942,1.703,2.065,2.281,3.36c0.579,1.291,0.863,2.713,0.863,4.23v44.921c0,2.972-1.058,5.5-3.145,7.587
			c-2.088,2.101-4.627,3.144-7.588,3.144H70.772V192.649z"/>
		<circle fill="#3B5024" cx="196.641" cy="160.829" r="0.442"/>
		
			<linearGradient id="SVGID_2_" gradientUnits="userSpaceOnUse" x1="113.6272" y1="1147.8752" x2="113.6272" y2="1292.3625" gradientTransform="matrix(0 1 1 0 -1089.1055 45.5039)">
			<stop  offset="0" style="stop-color:#012E22"/>
			<stop  offset="0.0732" style="stop-color:#183823"/>
			<stop  offset="0.1711" style="stop-color:#284324"/>
			<stop  offset="0.2852" style="stop-color:#334A24"/>
			<stop  offset="0.4288" style="stop-color:#394E24"/>
			<stop  offset="0.697" style="stop-color:#3B5024"/>
			<stop  offset="0.7307" style="stop-color:#3B5024"/>
			<stop  offset="1" style="stop-color:#3B5024"/>
		</linearGradient>
		<path fill="url(#SVGID_2_)" d="M202.406,184.165h0.369c0.265,0,0.482-0.216,0.482-0.482v-10.429c0-0.268-0.218-0.481-0.482-0.481
			h-0.334v-37.295c0-5.053-4.093-9.144-9.144-9.144h-9.636v-0.163c0-0.265-0.216-0.481-0.48-0.481h-5.731
			c-0.265,0-0.482,0.217-0.482,0.481v0.163h-7.293v-0.163c0-0.265-0.216-0.481-0.481-0.481h-4.049c-0.263,0-0.479,0.217-0.479,0.481
			v0.163h-7.183v-0.163c0-0.265-0.216-0.481-0.48-0.481h-3.972c-0.263,0-0.479,0.217-0.479,0.481v0.163H67.912
			c-5.05,0-9.142,4.093-9.142,9.144v47.952c0,5.05,4.092,9.144,9.142,9.144h125.385
			C198.096,192.573,202.031,188.874,202.406,184.165z M197.964,160.828c0,0.733-0.591,1.324-1.323,1.324
			c-0.729,0-1.321-0.591-1.321-1.324c0-0.731,0.593-1.321,1.321-1.321C197.374,159.507,197.964,160.098,197.964,160.828z
			 M191.417,154.321c0.62,0,1.127,0.501,1.127,1.12v10.735c0,0.619-0.502,1.122-1.127,1.122h-0.485c-0.614,0-1.12-0.503-1.12-1.122
			v-10.735c0-0.619,0.506-1.12,1.12-1.12H191.417z M61.568,159.505c0-3.604,2.923-6.527,6.526-6.527c3.607,0,6.53,2.924,6.53,6.527
			c0,3.604-2.923,6.527-6.53,6.527C64.49,166.036,61.568,163.112,61.568,159.505z M78.333,188.969v-59.034h105.134v59.036H78.333
			V188.969z"/>
		
			<linearGradient id="SVGID_3_" gradientUnits="userSpaceOnUse" x1="147.0696" y1="1220.1194" x2="80.1858" y2="1220.1194" gradientTransform="matrix(0 1 1 0 -1089.1055 45.5039)">
			<stop  offset="0" style="stop-color:#012E22"/>
			<stop  offset="0.0732" style="stop-color:#183823"/>
			<stop  offset="0.1711" style="stop-color:#284324"/>
			<stop  offset="0.2852" style="stop-color:#334A24"/>
			<stop  offset="0.4288" style="stop-color:#394E24"/>
			<stop  offset="0.697" style="stop-color:#3B5024"/>
			<stop  offset="0.7307" style="stop-color:#3B5024"/>
			<stop  offset="1" style="stop-color:#3B5024"/>
		</linearGradient>
		<path fill="url(#SVGID_3_)" d="M202.406,184.165h0.369c0.265,0,0.482-0.216,0.482-0.482v-10.429c0-0.268-0.218-0.481-0.482-0.481
			h-0.334v-37.295c0-5.053-4.093-9.144-9.144-9.144h-9.636v-0.163c0-0.265-0.216-0.481-0.48-0.481h-5.731
			c-0.265,0-0.482,0.217-0.482,0.481v0.163h-7.293v-0.163c0-0.265-0.216-0.481-0.481-0.481h-4.049c-0.263,0-0.479,0.217-0.479,0.481
			v0.163h-7.183v-0.163c0-0.265-0.216-0.481-0.48-0.481h-3.972c-0.263,0-0.479,0.217-0.479,0.481v0.163H67.912
			c-5.05,0-9.142,4.093-9.142,9.144v47.952c0,5.05,4.092,9.144,9.142,9.144h125.385
			C198.096,192.573,202.031,188.874,202.406,184.165z M197.964,160.828c0,0.733-0.591,1.324-1.323,1.324
			c-0.729,0-1.321-0.591-1.321-1.324c0-0.731,0.593-1.321,1.321-1.321C197.374,159.507,197.964,160.098,197.964,160.828z
			 M191.417,154.321c0.62,0,1.127,0.501,1.127,1.12v10.735c0,0.619-0.502,1.122-1.127,1.122h-0.485c-0.614,0-1.12-0.503-1.12-1.122
			v-10.735c0-0.619,0.506-1.12,1.12-1.12H191.417z M61.568,159.505c0-3.604,2.923-6.527,6.526-6.527c3.607,0,6.53,2.924,6.53,6.527
			c0,3.604-2.923,6.527-6.53,6.527C64.49,166.036,61.568,163.112,61.568,159.505z M78.333,188.969v-59.034h105.134v59.036H78.333
			V188.969z"/>
		<path fill="#3B5024" d="M70.473,160.879v-2.849c0-0.62-0.501-1.122-1.125-1.122H66.46c-0.619,0-1.123,0.502-1.123,1.122v2.849
			c0,0.62,0.504,1.123,1.123,1.123h2.888C69.972,162,70.473,161.499,70.473,160.879z M66.739,161.57c-0.504,0-0.91-0.406-0.91-0.911
			v-2.305c0-0.503,0.406-0.909,0.91-0.909h2.338c0.502,0,0.908,0.406,0.908,0.909v2.305c0,0.505-0.406,0.911-0.908,0.911H66.739z"/>
	</g>
</g>
<path id="smile_2_" fill="#012E22" d="M31.785,73.604c5.193,5.504,11.267,10.762,17.595,15.279
	c6.366,4.506,13.215,8.417,20.575,10.769c7.303,2.349,15.336,2.92,22.582-0.005c7.269-2.845,13.089-8.918,17.288-15.761
	c-3.505,7.206-8.734,14.046-16.288,17.942c-3.733,1.938-7.924,3.068-12.157,3.392c-4.237,0.34-8.505-0.066-12.629-0.934
	c-8.274-1.763-15.999-5.237-23.235-9.342c-7.252-4.186-13.969-8.889-20.451-14.51c-2.005-1.734-2.223-4.769-0.485-6.771
	c1.737-2.004,4.767-2.216,6.771-0.479c0.121,0.1,0.235,0.207,0.343,0.323L31.785,73.604z"/>
</svg>
