<?xml version="1.0" encoding="utf-8"?>
<!-- Generator: Adobe Illustrator 16.0.3, SVG Export Plug-In . SVG Version: 6.00 Build 0)  -->
<!DOCTYPE svg PUBLIC "-//W3C//DTD SVG 1.1//EN" "http://www.w3.org/Graphics/SVG/1.1/DTD/svg11.dtd">
<svg version="1.1" id="Layer_1" xmlns="http://www.w3.org/2000/svg" xmlns:xlink="http://www.w3.org/1999/xlink" x="0px" y="0px"
	 width="27.765px" height="33.194px" viewBox="0 0 27.765 33.194" enable-background="new 0 0 27.765 33.194" xml:space="preserve">
<path fill="#A6CB39" d="M11.456,3.86c3.878-0.252,10.224,1.893,9.046,8.433c-1.184,6.542-3.57,12.739-9.123,13.511
	c-5.551,0.758-11.228-6.961-8.451-13.886C4.776,7.31,7.573,4.125,11.456,3.86z"/>
<path fill="#8AA53C" d="M6.78,31.18c7.416,4.494,15.068,0.84,18.082-4.783c3.02-5.623,5.186-17.392-1.436-22.821
	C16.797-1.852,9.864-0.589,5.903,3.946C-3.398,14.601-0.635,26.692,6.78,31.18z M11.456,3.86c3.878-0.252,10.224,1.893,9.046,8.433
	c-1.184,6.542-3.57,12.739-9.123,13.511c-5.551,0.758-11.228-6.961-8.451-13.886C4.776,7.31,7.573,4.125,11.456,3.86z"/>
</svg>
