<?xml version="1.0" encoding="utf-8"?>
<!-- Generator: Adobe Illustrator 16.0.3, SVG Export Plug-In . SVG Version: 6.00 Build 0)  -->
<!DOCTYPE svg PUBLIC "-//W3C//DTD SVG 1.1//EN" "http://www.w3.org/Graphics/SVG/1.1/DTD/svg11.dtd">
<svg version="1.1" id="Layer_1" xmlns="http://www.w3.org/2000/svg" xmlns:xlink="http://www.w3.org/1999/xlink" x="0px" y="0px"
	 width="30.636px" height="31.238px" viewBox="0 0 30.636 31.238" enable-background="new 0 0 30.636 31.238" xml:space="preserve">
<path fill="#A6CB39" d="M27.057,21.423c-2.204,3.201-7.819,6.854-12.224,1.878C10.431,18.318,7.045,12.605,9.881,7.77
	c2.844-4.827,12.418-4.501,16.134,1.968C28.486,14.042,29.255,18.211,27.057,21.423z"/>
<path fill="#8AA53C" d="M8.508,0.828C0.386,3.865-1.486,12.135,1.061,17.986C3.604,23.84,11.5,32.83,19.863,30.996
	c8.368-1.839,11.671-8.065,10.566-13.985C27.829,3.108,16.625-2.212,8.508,0.828z M27.057,21.423
	c-2.204,3.201-7.819,6.854-12.224,1.878C10.431,18.318,7.045,12.605,9.881,7.77c2.844-4.827,12.418-4.501,16.134,1.968
	C28.486,14.042,29.255,18.211,27.057,21.423z"/>
</svg>
