<?xml version="1.0" encoding="utf-8"?>
<!-- Generator: Adobe Illustrator 16.0.1, SVG Export Plug-In . SVG Version: 6.00 Build 0)  -->
<!DOCTYPE svg PUBLIC "-//W3C//DTD SVG 1.1//EN" "http://www.w3.org/Graphics/SVG/1.1/DTD/svg11.dtd">
<svg version="1.1" id="Layer_1" xmlns="http://www.w3.org/2000/svg" xmlns:xlink="http://www.w3.org/1999/xlink" x="0px" y="0px"
	 width="206.366px" height="116.988px" viewBox="0 0 206.366 116.988" enable-background="new 0 0 206.366 116.988"
	 xml:space="preserve">
<g>
	<g>
		<path fill="none" stroke="#A4C939" stroke-width="3" stroke-linecap="round" stroke-linejoin="round" stroke-miterlimit="10" d="
			M204.866,105.354v6.825c0,1.825-1.483,3.309-3.307,3.309H4.809c-0.92,0-1.742-0.371-2.34-0.969
			c-0.597-0.598-0.969-1.42-0.969-2.34v-6.842h22.979V6.729c0-2.887,2.324-5.229,5.197-5.229h146.953
			c2.871,0,5.195,2.342,5.195,5.229v98.625H204.866z"/>
	</g>
</g>
<g>
	<linearGradient id="SVGID_1_" gradientUnits="userSpaceOnUse" x1="103.1836" y1="115.4834" x2="103.1836" y2="1.5098">
		<stop  offset="0" style="stop-color:#012E22"/>
		<stop  offset="0.0732" style="stop-color:#183823"/>
		<stop  offset="0.1711" style="stop-color:#284324"/>
		<stop  offset="0.2852" style="stop-color:#334A24"/>
		<stop  offset="0.4288" style="stop-color:#394E24"/>
		<stop  offset="0.697" style="stop-color:#3B5024"/>
		<stop  offset="0.7307" style="stop-color:#3B5024"/>
		<stop  offset="1" style="stop-color:#3B5024"/>
	</linearGradient>
	<path fill="url(#SVGID_1_)" d="M181.825,105.352v-6.81V6.734c0-2.89-2.325-5.225-5.2-5.225H29.67c-2.871,0-5.199,2.335-5.199,5.225
		v91.804c0,0.004,0,0.004,0,0.004v6.802H1.502v6.836l0,0c0,1.821,1.482,3.304,3.305,3.304H201.56c1.824,0,3.306-1.482,3.306-3.304
		v-6.828H181.825z M175.533,99.153H30.453V7.958h145.08V99.153z"/>
	<rect x="30.643" y="7.958" fill="#A5CB39" width="145.08" height="91.196"/>
	<path fill="#A5CB39" d="M118.213,105.431L118.213,105.431c0,1.388-1.122,2.51-2.506,2.51H90.659c-1.385,0-2.506-1.122-2.506-2.51
		l0,0H118.213z"/>
	<path fill="#A5CB39" d="M104.782,4.99c0,0.884-0.716,1.599-1.6,1.599l0,0c-0.884,0-1.599-0.715-1.599-1.599l0,0
		c0-0.884,0.715-1.599,1.599-1.599l0,0C104.066,3.392,104.782,4.106,104.782,4.99L104.782,4.99z"/>
	<path fill="#3B5024" d="M102.598,4.99c0-0.322,0.263-0.583,0.585-0.583l0,0c0.323,0,0.585,0.261,0.585,0.583l0,0
		c0,0.324-0.262,0.585-0.585,0.585l0,0C102.86,5.576,102.598,5.314,102.598,4.99L102.598,4.99z"/>
</g>
</svg>
