<?xml version="1.0" standalone="no"?>
<!DOCTYPE svg PUBLIC "-//W3C//DTD SVG 1.1//EN" "http://www.w3.org/Graphics/SVG/1.1/DTD/svg11.dtd" >
<svg xmlns="http://www.w3.org/2000/svg">
<metadata></metadata>
<defs>
<font id="geogrotesque_rgregular" horiz-adv-x="1073" >
<font-face units-per-em="2048" ascent="1536" descent="-512" />
<missing-glyph horiz-adv-x="458" />
<glyph unicode="&#xfb01;" horiz-adv-x="1120" d="M57 922v49q0 27 29 30l111 7h18v159q0 265 381 265h293q29 0 29 -31v-60q0 -17 -7 -23.5t-22 -6.5h-293q-129 0 -184.5 -40.5t-55.5 -117.5v-145h572q17 0 23.5 -7t6.5 -24v-946q0 -16 -6 -23.5t-22 -7.5h-84q-29 0 -29 31v860h-461v-860q0 -31 -28 -31h-84q-29 0 -29 31 v860h-129q-29 0 -29 31z" />
<glyph unicode="&#xfb02;" horiz-adv-x="1120" d="M57 922v49q0 27 29 30l111 7h18v159q0 265 381 265h332q17 0 23.5 -7t6.5 -24v-1370q0 -16 -6 -23.5t-22 -7.5h-84q-29 0 -29 31v1280h-221q-129 0 -184.5 -40.5t-55.5 -117.5v-145h224q30 0 30 -29v-57q0 -31 -30 -31h-224v-860q0 -31 -28 -31h-84q-29 0 -29 31v860 h-129q-29 0 -29 31z" />
<glyph unicode="&#xfb03;" horiz-adv-x="1732" d="M66 922v49q0 27 28 30l113 7h16v168q0 264 383 264h12q31 0 31 -31v-59q0 -31 -31 -31h-12q-130 0 -184.5 -40.5t-54.5 -117.5v-153h458v159q0 265 383 265h291q17 0 24 -7t7 -24v-60q0 -17 -7 -23.5t-24 -6.5h-291q-130 0 -184.5 -40.5t-54.5 -117.5v-145h569 q33 0 33 -31v-946q0 -31 -29 -31h-84q-31 0 -31 31v860h-458v-860q0 -31 -31 -31h-82q-31 0 -31 31v860h-458v-860q0 -31 -29 -31h-84q-31 0 -31 31v860h-129q-28 0 -28 31z" />
<glyph unicode="&#xfb04;" horiz-adv-x="1732" d="M66 922v49q0 27 30 30l111 7h18v168q0 264 381 264h12q17 0 24 -7t7 -24v-59q0 -17 -7 -24t-24 -7h-12q-130 0 -184.5 -40.5t-54.5 -117.5v-153h458v159q0 265 385 265h328q33 0 33 -31v-1370q0 -31 -29 -31h-82q-30 0 -30 31v1280h-220q-131 0 -186 -40.5t-55 -117.5 v-145h223q31 0 31 -29v-57q0 -31 -31 -31h-223v-860q0 -31 -31 -31h-82q-31 0 -31 31v860h-458v-860q0 -31 -29 -31h-84q-29 0 -29 31v860h-129q-30 0 -30 31z" />
<glyph horiz-adv-x="2048" />
<glyph horiz-adv-x="2048" />
<glyph unicode="&#xd;" horiz-adv-x="2048" />
<glyph unicode=" "  horiz-adv-x="458" />
<glyph unicode="&#x09;" horiz-adv-x="458" />
<glyph unicode="&#xa0;" horiz-adv-x="458" />
<glyph unicode="!" horiz-adv-x="520" d="M186 31v159q0 31 31 31h86q29 0 29 -31v-159q0 -31 -29 -31h-86q-17 0 -24 7t-7 24zM186 799v563q0 31 29 31h90q29 0 29 -31v-563l-15 -437q0 -30 -28 -30h-62q-28 0 -28 30z" />
<glyph unicode="&#x22;" horiz-adv-x="751" d="M162 1362q0 31 31 31h81q29 0 29 -31l-12 -350q0 -31 -29 -31h-57q-17 0 -24 7t-7 24zM446 1362q0 31 31 31h82q31 0 31 -31l-12 -350q0 -17 -7 -24t-24 -7h-58q-15 0 -21.5 7t-6.5 24z" />
<glyph unicode="#" horiz-adv-x="1337" d="M170 479v45q0 29 29 29h168l61 223h-143q-31 0 -31 31v47q0 29 31 29h174l55 196q10 31 37 31h61q31 0 23 -31l-55 -196h311l55 196q10 31 37 31h61q31 0 23 -31l-55 -196h125q30 0 30 -29v-47q0 -31 -30 -31h-156l-61 -223h133q28 0 28 -29v-45q0 -30 -28 -30h-164 l-53 -193q-10 -33 -35 -33h-64q-32 0 -22 33l55 193h-313l-54 -193q-10 -33 -36 -33h-62q-32 0 -22 33l53 193h-137q-29 0 -29 30zM485 553h314l63 223h-313z" />
<glyph unicode="$" horiz-adv-x="1083" d="M168 406v55q0 28 29 28h75q27 0 27 -28v-49q0 -62 61 -95.5t179 -33.5q116 0 178.5 33.5t62.5 95.5v75q0 43 -31.5 69.5t-89.5 45.5l-315 105q-62 21 -110 74t-48 124v80q0 93 70 157t221 75v145q0 31 31 31h84q29 0 29 -31v-148q141 -14 208.5 -77t67.5 -152v-59 q0 -27 -29 -27h-75q-27 0 -27 27v59q0 127 -227 127q-224 0 -224 -127v-53q0 -43 32 -71.5t73 -41.5l315 -102q80 -26 128 -76t48 -119v-116q0 -89 -72.5 -151.5t-217.5 -76.5v-147q0 -31 -29 -31h-84q-31 0 -31 31v145q-155 10 -232 74t-77 156z" />
<glyph unicode="%" horiz-adv-x="1589" d="M170 989v223q0 195 276 195q277 0 277 -195v-223q0 -194 -277 -194q-276 0 -276 194zM289 993q0 -100 157 -100q158 0 158 100v215q0 101 -158 101q-157 0 -157 -101v-215zM416 11q-4 11 2 20l622 1331q16 31 43 31h70q14 0 18.5 -9.5t-2.5 -21.5l-620 -1331 q-13 -31 -43 -31h-74q-12 0 -16 11zM866 176v223q0 195 279 195q276 0 276 -195v-223q0 -194 -276 -194q-279 0 -279 194zM987 182q0 -102 158 -102q155 0 155 102v213q0 101 -155 101q-158 0 -158 -101v-213z" />
<glyph unicode="&#x26;" horiz-adv-x="1376" d="M176 276v226q0 96 41 153.5t150 83.5q-99 25 -138 80.5t-39 147.5v149q0 66 18.5 116t62.5 91.5t125.5 63.5t199.5 22t200.5 -22.5t126.5 -65t62.5 -93t18.5 -116.5v-45q0 -29 -31 -29h-84q-29 0 -29 29v27q0 96 -58.5 145t-205.5 49t-204.5 -49t-57.5 -145v-107 q0 -98 57 -144t211 -46h660q30 0 30 -31v-61q0 -29 -30 -29h-154v-395q0 -64 -24.5 -116t-77 -93.5t-145.5 -64.5t-220 -23t-219.5 22t-145 63t-76.5 92t-24 115zM319 299q0 -195 324 -195q165 0 244.5 51t79.5 144v377h-379q-154 0 -211.5 -46.5t-57.5 -144.5v-186z" />
<glyph unicode="'" horiz-adv-x="464" d="M162 1362q0 31 31 31h81q29 0 29 -31l-12 -350q0 -31 -29 -31h-57q-17 0 -24 7t-7 24z" />
<glyph unicode="(" horiz-adv-x="724" d="M176 -182v1368q0 264 383 264h12q31 0 31 -31v-59q0 -31 -31 -31h-12q-129 0 -182 -40.5t-53 -117.5v-1339q0 -77 53 -117.5t182 -40.5h12q31 0 31 -30v-60q0 -30 -31 -30h-12q-383 0 -383 264z" />
<glyph unicode=")" horiz-adv-x="724" d="M123 -356q0 17 7 23.5t24 6.5h10q130 0 183.5 40.5t53.5 117.5v1339q0 77 -53.5 117.5t-183.5 40.5h-10q-17 0 -24 7t-7 24v59q0 17 7 24t24 7h10q383 0 383 -264v-1368q0 -264 -383 -264h-10q-17 0 -24 6.5t-7 23.5v60z" />
<glyph unicode="*" horiz-adv-x="1044" d="M187.5 1223.5q-2.5 8.5 5.5 23.5l20 41q15 27 41 10l229 -147l-10 272q0 31 29 31h45q28 0 28 -31l-12 -272l228 147q30 18 43 -10l18 -41q7 -13 4.5 -21.5t-16.5 -17.5l-230 -129l230 -125q24 -14 12 -41l-18 -39q-13 -28 -43 -10l-226 146l10 -262q0 -17 -6.5 -24 t-21.5 -7h-45q-29 0 -29 31l8 264l-227 -148q-26 -17 -41 13l-20 36q-15 26 12 41l229 125l-229 129q-15 7 -17.5 15.5z" />
<glyph unicode="+" horiz-adv-x="1185" d="M162 664v61q0 17 7 24t24 7h337v338q0 32 29 32h62q28 0 28 -32v-338h344q31 0 31 -31v-61q0 -31 -31 -31h-344v-340q0 -29 -28 -29h-62q-29 0 -29 29v340h-337q-31 0 -31 31z" />
<glyph unicode="," horiz-adv-x="450" d="M33.5 -88q3.5 8 19.5 14q57 25 79 57.5t22 82.5v124q0 31 28 31h88q29 0 29 -31v-131q0 -187 -207 -249q-28 -9 -37 18l-20 59q-5 17 -1.5 25z" />
<glyph unicode="-" horiz-adv-x="933" d="M162 563v60q0 28 31 28h548q31 0 31 -28v-60q0 -31 -31 -31h-548q-31 0 -31 31z" />
<glyph unicode="." horiz-adv-x="452" d="M154 31v159q0 31 30 31h86q29 0 29 -31v-159q0 -31 -29 -31h-86q-17 0 -23.5 7t-6.5 24z" />
<glyph unicode="/" horiz-adv-x="755" d="M82 -272l442 1673q9 31 35 31h92q32 0 23 -31l-441 -1673q-5 -16 -12.5 -23.5t-23.5 -7.5h-93q-14 0 -20 9t-2 22z" />
<glyph unicode="0" horiz-adv-x="1110" d="M133 283v827q0 65 20 116.5t66 94t131 65.5t205 23q424 0 424 -299v-827q0 -299 -424 -299q-120 0 -205 23t-131 65.5t-66 94t-20 116.5zM279 305q0 -96 61 -146t215 -50q153 0 214.5 50t61.5 146v782q0 96 -61.5 146.5t-214.5 50.5q-154 0 -215 -50t-61 -147v-782z" />
<glyph unicode="1" horiz-adv-x="1110" d="M150 31v65q0 29 30 29h328v1114l-326 -76q-14 -3 -22 3.5t-8 21.5v69q0 28 30 35l443 107q28 5 28 -27v-1247h324q31 0 31 -29v-65q0 -31 -31 -31h-797q-30 0 -30 31z" />
<glyph unicode="2" horiz-adv-x="1110" d="M150 993v117q0 52 11 94.5t39.5 81.5t74 65.5t119 42t169.5 15.5q120 0 205 -23t130.5 -65.5t65 -93.5t19.5 -117v-227q0 -58 -19 -105t-49 -76t-58.5 -45.5t-57.5 -25.5l-348 -111q-136 -39 -136 -135v-260h643q31 0 31 -29v-65q0 -31 -31 -31h-759q-29 0 -29 31v395 q0 36 13 65.5t30 48t43 34t43 22.5t39 14l381 127q18 6 35.5 15t38 25.5t33 43.5t12.5 60v206q0 98 -60.5 148.5t-214.5 50.5q-151 0 -211.5 -50.5t-60.5 -148.5v-94q0 -32 -29 -32h-82q-17 0 -23.5 7t-6.5 25z" />
<glyph unicode="3" horiz-adv-x="1110" d="M127 281v45q0 28 29 28h84q28 0 28 -28v-27q0 -95 63.5 -145t213.5 -50q149 0 211.5 50t62.5 145v186q0 48 -11.5 81.5t-41 59t-82.5 38t-133 12.5h-182q-31 0 -31 29v61q0 17 7 24t24 7h170q153 0 209.5 46t56.5 144v107q0 96 -57.5 145t-204.5 49t-205.5 -49 t-58.5 -145v-27q0 -29 -29 -29h-84q-29 0 -29 29v45q0 66 18.5 116.5t62.5 93t126.5 65t200.5 22.5t199 -22t124.5 -63.5t61.5 -91.5t18 -116v-149q0 -93 -38 -148t-138 -80q109 -26 150 -83.5t41 -153.5v-226q0 -65 -20 -115.5t-65.5 -91.5t-129 -63t-201.5 -22 q-420 0 -420 297z" />
<glyph unicode="4" horiz-adv-x="1110" d="M96 471v59q0 15 6 33l287 799q12 31 37 31h86q33 0 23 -31l-287 -797h545v797q0 31 30 31h88q29 0 29 -31v-1331q0 -31 -29 -31h-88q-30 0 -30 31v409h-666q-31 0 -31 31z" />
<glyph unicode="5" horiz-adv-x="1110" d="M152 279v45q0 17 6.5 23.5t23.5 6.5h82q31 0 31 -30v-25q0 -99 55.5 -147t206.5 -48q103 0 161.5 24.5t78.5 65t20 105.5v258q0 172 -266 172h-336q-29 0 -29 31v602q0 31 29 31h684q31 0 31 -31v-64q0 -30 -31 -30h-567v-418h221q204 0 308 -73t104 -202v-296 q0 -66 -18 -116.5t-61.5 -93t-126 -65t-202.5 -22.5q-119 0 -201 22.5t-125 65t-61 93t-18 116.5z" />
<glyph unicode="6" horiz-adv-x="1110" d="M145 283v837q0 289 410 289q406 0 406 -289v-37q0 -30 -31 -30h-82q-17 0 -23 7t-6 23v19q0 85 -58 135.5t-206 50.5q-77 0 -131 -14.5t-82.5 -41t-40.5 -58t-12 -72.5v-375q72 102 286 102q400 0 400 -299v-247q0 -52 -11 -94.5t-40 -81.5t-75 -65.5t-119.5 -42 t-170.5 -15.5q-96 0 -169.5 15.5t-119 42t-74.5 65.5t-40 81.5t-11 94.5zM289 301q0 -97 59 -147t211 -50q79 0 133.5 13.5t84 40.5t42 61.5t12.5 81.5v211q0 47 -12.5 81.5t-42 61.5t-84 40.5t-133.5 13.5q-146 0 -208 -46.5t-62 -134.5v-227z" />
<glyph unicode="7" horiz-adv-x="1110" d="M106 1298v64q0 31 33 31h840q29 0 29 -31v-62q0 -5 -7 -26l-524 -1243q-12 -31 -37 -31h-100q-35 0 -23 31l525 1237h-703q-18 0 -25.5 6.5t-7.5 23.5z" />
<glyph unicode="8" horiz-adv-x="1110" d="M141 283v221q0 92 45.5 151.5t155.5 85.5q-103 25 -143.5 83.5t-40.5 152.5v133q0 53 9 94.5t35 81t69.5 65.5t115 42t168.5 16t168.5 -16t115 -42t69.5 -65.5t35 -81t9 -94.5v-133q0 -94 -41 -152.5t-145 -83.5q110 -26 156.5 -85.5t46.5 -151.5v-221 q0 -66 -18.5 -116.5t-63 -93.5t-128.5 -66t-204 -23t-204 23t-128.5 66t-63 93.5t-18.5 116.5zM287 301q0 -98 57.5 -147.5t210.5 -49.5q152 0 211 50t59 147v182q0 48 -12 82.5t-42 61t-83.5 40t-132.5 13.5q-80 0 -133.5 -13.5t-82.5 -40.5t-40.5 -61t-11.5 -82v-182z M301 997q0 -49 10 -82.5t36.5 -61t78 -41t129.5 -13.5t129.5 13.5t78.5 41t37.5 61t10.5 82.5v95q0 48 -10.5 81.5t-37.5 60.5t-78.5 40.5t-129.5 13.5t-129.5 -13.5t-78 -40.5t-36.5 -60.5t-10 -81.5v-95z" />
<glyph unicode="9" horiz-adv-x="1110" d="M135 862v248q0 66 18.5 116.5t63.5 93.5t129 66t205 23q120 0 204 -23t128.5 -66t63 -93.5t18.5 -116.5v-838q0 -288 -410 -288q-403 0 -403 288v37q0 31 28 31h84q29 0 29 -31v-18q0 -40 11 -71t38.5 -58.5t81.5 -42.5t131 -15q78 0 131.5 14.5t81.5 41.5t39.5 58.5 t11.5 72.5v373q-71 -101 -287 -101q-397 0 -397 299zM279 881q0 -47 12.5 -81.5t42 -61.5t84 -40.5t133.5 -13.5q147 0 207.5 47t60.5 139v222q0 47 -12 81t-41 61t-82.5 40.5t-132.5 13.5t-133.5 -13.5t-84 -40.5t-42 -61t-12.5 -81v-211z" />
<glyph unicode=":" horiz-adv-x="452" d="M154 31v159q0 31 30 31h86q29 0 29 -31v-159q0 -31 -29 -31h-86q-30 0 -30 31zM154 819v162q0 31 30 31h86q29 0 29 -31v-162q0 -28 -29 -28h-86q-30 0 -30 28z" />
<glyph unicode=";" horiz-adv-x="552" d="M135 -113q-10 26 19 39q59 27 80.5 58.5t21.5 81.5v124q0 31 31 31h84q28 0 28 -31v-131q0 -184 -204 -249q-28 -9 -39 18zM256 819v162q0 31 31 31h84q28 0 28 -31v-162q0 -28 -28 -28h-84q-17 0 -24 6.5t-7 21.5z" />
<glyph unicode="&#x3c;" horiz-adv-x="1103" d="M162 651v92q0 19 28 33l721 326q13 6 22 -2t9 -25v-82q0 -12 -7 -18.5t-24 -13.5l-608 -265l608 -264q16 -7 23.5 -14t7.5 -19v-82q0 -38 -31 -26l-721 325q-21 11 -25 19q-3 7 -3 16z" />
<glyph unicode="=" horiz-adv-x="1204" d="M162 465v61q0 29 31 29h819q17 0 23.5 -7t6.5 -22v-61q0 -15 -6.5 -22t-23.5 -7h-819q-31 0 -31 29zM162 831v62q0 29 31 29h819q17 0 23.5 -7t6.5 -22v-62q0 -17 -6.5 -23.5t-23.5 -6.5h-819q-31 0 -31 30z" />
<glyph unicode="&#x3e;" horiz-adv-x="1103" d="M162 315v82q0 16 7 23t24 14l608 262l-608 262q-16 7 -23.5 14t-7.5 21v84q0 18 8 25.5t23 1.5l720 -326q29 -14 29 -35v-92q0 -11 -4.5 -18.5t-9 -10.5t-15.5 -8l-720 -325q-31 -12 -31 26z" />
<glyph unicode="?" horiz-adv-x="1161" d="M154 993v117q0 299 426 299q424 0 428 -299v-156q0 -182 -170 -266l-109 -53q-102 -50 -102 -146v-127q0 -30 -29 -30h-88q-29 0 -29 30v160q0 43 13 78t37 58.5t42 35.5t43 25l144 74q102 56 102 157v137q0 97 -64.5 148t-217.5 51q-155 0 -220 -51t-65 -148v-94 q0 -32 -29 -32h-82q-17 0 -23.5 7t-6.5 25zM481 31v159q0 31 29 31h88q29 0 29 -31v-159q0 -31 -29 -31h-88q-29 0 -29 31z" />
<glyph unicode="@" horiz-adv-x="1744" d="M186 113v807q0 62 16 111t61.5 96.5t120 79.5t198.5 51.5t290 19.5t290.5 -19.5t199.5 -51.5t120.5 -79.5t62 -97t16.5 -110.5v-582q0 -270 -267 -270q-182 0 -229 131q-160 -131 -330 -131q-239 0 -239 217q0 29 2 45l34 346q26 262 277 262q145 0 291 -115l10 70 q3 16 10.5 22.5t24.5 6.5h72q27 0 24 -29l-53 -531q-18 -186 115 -186q66 0 92 46.5t26 131.5v559q0 59 -25 101.5t-84.5 77t-169.5 52t-270 17.5q-159 0 -268.5 -17.5t-169.5 -52t-85 -77.5t-25 -101v-796q0 -58 25 -100.5t84.5 -77t169.5 -52.5t269 -18h377q31 0 31 -29 v-59q0 -31 -31 -31h-377q-166 0 -290 20t-198.5 52.5t-120 81t-61.5 98t-16 111.5zM635 330q0 -59 37 -94t116 -35q114 0 256 96v31l41 379q-24 20 -40 32t-48.5 32t-70.5 30t-80 10q-163 0 -178 -160l-29 -278q-4 -40 -4 -43z" />
<glyph unicode="A" horiz-adv-x="1077" d="M49 31l408 1331q9 31 39 31h88q28 0 37 -31l409 -1331q2 -7 2 -12q0 -19 -26 -19h-88q-28 0 -37 31l-113 364h-469l-111 -364q-9 -31 -34 -31h-82q-25 0 -25 19q0 5 2 12zM334 512h403l-149 479q-18 61 -51 248q-21 -148 -52 -244z" />
<glyph unicode="B" horiz-adv-x="1191" d="M186 31v1331q0 31 29 31h352q443 0 443 -287v-135q0 -180 -185 -242q242 -54 242 -252v-182q0 -295 -444 -295h-408q-29 0 -29 31zM330 121h293q299 0 299 196v152q0 190 -299 190h-293v-538zM330 774h258q143 0 210.5 52.5t67.5 146.5v110q0 94 -70.5 141.5t-228.5 47.5 h-237v-498z" />
<glyph unicode="C" horiz-adv-x="1130" d="M162 283v827q0 299 432 299t432 -299v-104q0 -33 -29 -33h-82q-17 0 -23.5 7.5t-6.5 25.5v81q0 95 -67 146t-222 51t-222 -51t-67 -146v-782q0 -95 67 -145.5t222 -50.5t222 50.5t67 145.5v109q0 30 30 30h82q29 0 29 -30v-131q0 -299 -432 -299t-432 299z" />
<glyph unicode="D" horiz-adv-x="1232" d="M186 31v1331q0 31 27 31h414q123 0 211.5 -23t138 -65.5t72 -94t22.5 -116.5v-795q0 -65 -22.5 -116.5t-72 -94t-138 -65.5t-211.5 -23h-416q-25 0 -25 31zM330 125h297q299 0 299 197v749q0 197 -299 197h-297v-1143z" />
<glyph unicode="E" d="M186 31v1331q0 31 29 31h698q31 0 31 -31v-64q0 -30 -31 -30h-583v-477h547q17 0 23.5 -7t6.5 -24v-60q0 -17 -6.5 -23.5t-23.5 -6.5h-547v-545h608q31 0 31 -29v-65q0 -31 -31 -31h-725q-27 0 -27 31z" />
<glyph unicode="F" horiz-adv-x="1081" d="M186 31v1331q0 31 29 31h752q30 0 30 -31v-64q0 -30 -30 -30h-637v-480h600q28 0 28 -30v-66q0 -30 -28 -30h-600v-631q0 -31 -29 -31h-86q-29 0 -29 31z" />
<glyph unicode="G" horiz-adv-x="1161" d="M162 283v827q0 299 432 299t432 -299v-98q0 -29 -29 -29h-82q-17 0 -23.5 7t-6.5 22v75q0 95 -67 146t-222 51t-222 -51t-67 -146v-782q0 -95 67 -145.5t222 -50.5q154 0 221.5 50t67.5 144v242h-275q-28 0 -28 30v66q0 29 28 29h385q31 0 31 -29v-358q0 -299 -432 -299 t-432 299z" />
<glyph unicode="H" horiz-adv-x="1257" d="M186 31v1331q0 31 29 31h86q29 0 29 -31v-563h596v563q0 31 28 31h88q29 0 29 -31v-1331q0 -31 -29 -31h-88q-28 0 -28 31v645h-596v-645q0 -31 -29 -31h-86q-29 0 -29 31z" />
<glyph unicode="I" horiz-adv-x="516" d="M186 31v1331q0 31 29 31h86q29 0 29 -31v-1331q0 -31 -29 -31h-86q-29 0 -29 31z" />
<glyph unicode="J" horiz-adv-x="1015" d="M61 283v92q0 33 31 33h84q29 0 29 -33v-70q0 -96 55 -146t193 -50t191.5 49.5t53.5 146.5v1057q0 31 29 31h86q31 0 31 -31v-1079q0 -66 -18 -116.5t-60 -93.5t-121 -66t-192 -23q-112 0 -191 23t-121.5 65.5t-61 94t-18.5 116.5z" />
<glyph unicode="K" horiz-adv-x="1124" d="M184 31v1331q0 31 31 31h86q29 0 29 -31v-610h63l473 612q22 29 52 29h94q15 0 19.5 -8.5t-5.5 -22.5l-510 -655l567 -676q6 -7 6 -14q1 -3 -1 -7q-4 -10 -19 -10h-115q-24 0 -47 31l-514 610h-63v-610q0 -31 -29 -31h-86q-31 0 -31 31z" />
<glyph unicode="L" horiz-adv-x="1003" d="M186 31v1331q0 31 29 31h88q29 0 29 -31v-1237h573q29 0 29 -29v-65q0 -31 -29 -31h-694q-25 0 -25 31z" />
<glyph unicode="M" horiz-adv-x="1486" d="M184 31v1331q0 31 31 31h78q19 0 26 -17l388 -905q26 -63 36 -104q12 37 39 102l379 907q6 17 29 17h82q31 0 31 -31v-1331q0 -31 -31 -31h-82q-31 0 -31 31v1056q-15 -64 -41 -126l-297 -717q-12 -31 -41 -31h-75q-27 0 -39 31l-310 735q-14 32 -34 106v-1054 q0 -31 -29 -31h-78q-31 0 -31 31z" />
<glyph unicode="N" horiz-adv-x="1255" d="M184 31v1331q0 31 31 31h78q17 0 24 -13l555 -977l62 -122v1081q0 31 29 31h77q29 0 29 -31v-1331q0 -31 -29 -31h-77q-21 0 -29 14l-543 963q-58 101 -69 133v-1079q0 -31 -29 -31h-78q-31 0 -31 31z" />
<glyph unicode="O" horiz-adv-x="1210" d="M162 283v827q0 65 22.5 116.5t72 94t137.5 65.5t210 23q123 0 212 -23t138.5 -65.5t72 -94t22.5 -116.5v-827q0 -65 -22.5 -116.5t-72 -94t-138.5 -65.5t-212 -23q-122 0 -210 23t-137.5 65.5t-72 94t-22.5 116.5zM307 305q0 -196 297 -196q299 0 299 196v782 q0 197 -299 197q-297 0 -297 -197v-782z" />
<glyph unicode="P" horiz-adv-x="1159" d="M186 31v1331q0 31 27 31h405q123 0 212 -23t138.5 -65.5t72 -94t22.5 -116.5v-256q0 -65 -22.5 -117t-72 -94.5t-138.5 -66t-212 -23.5h-288v-506q0 -31 -29 -31h-86q-29 0 -29 31zM330 662h288q300 0 300 198v211q0 197 -300 197h-288v-606z" />
<glyph unicode="Q" horiz-adv-x="1208" d="M162 283v827q0 65 22.5 116.5t72 94t137.5 65.5t210 23q123 0 212 -23t138.5 -65.5t72 -94t22.5 -116.5v-827q0 -113 -72 -190t-234 -99l275 -252q24 -21 4 -43l-45 -47q-9 -12 -20 -12q-10 0 -21 10l-363 334q-219 6 -315 86.5t-96 212.5zM307 303q0 -199 297 -199 q299 0 299 199v787q0 198 -299 198q-297 0 -297 -198v-787z" />
<glyph unicode="R" horiz-adv-x="1208" d="M186 31v1331q0 31 27 31h405q123 0 212 -23t138.5 -65.5t72 -94t22.5 -116.5v-230q0 -223 -254 -278l266 -555q2 -5 2 -10q-1 -7 -5 -12q-8 -9 -25 -9h-86q-5 0 -8.5 0.5t-7 2.5t-5.5 3.5t-4.5 5t-3.5 5t-4 7t-4 7.5l-254 536h-52h-288v-536q0 -31 -29 -31h-86 q-29 0 -29 31zM330 690h288q300 0 300 199v182q0 197 -300 197h-288v-578z" />
<glyph unicode="S" horiz-adv-x="1157" d="M145 283v112q0 31 29 31h84q29 0 29 -31v-94q0 -195 295 -195q157 0 227 50.5t70 144.5v127q0 31 -10.5 57t-26 43.5t-40 33.5t-44.5 25.5t-49 20.5l-367 142q-73 28 -125.5 92.5t-52.5 152.5v115q0 299 422 299q118 0 203.5 -23t132.5 -65.5t68.5 -94t21.5 -116.5v-96 q0 -31 -31 -31h-84q-29 0 -29 31v78q0 95 -64 144.5t-216 49.5q-154 0 -218.5 -49.5t-64.5 -144.5v-62q0 -113 119 -160l385 -145q94 -35 153.5 -100.5t59.5 -165.5v-176q0 -65 -22.5 -116.5t-71.5 -94t-136.5 -65.5t-207.5 -23t-207.5 23t-137 65.5t-72 94.5t-22.5 116z " />
<glyph unicode="T" horiz-adv-x="989" d="M37 1298v64q0 17 7 24t24 7h852q30 0 30 -31v-64q0 -30 -30 -30h-353v-1237q0 -31 -28 -31h-88q-31 0 -31 31v1237h-352q-17 0 -24 6.5t-7 23.5z" />
<glyph unicode="U" horiz-adv-x="1232" d="M174 283v1079q0 31 29 31h88q28 0 28 -31v-1057q0 -196 295 -196q301 0 301 196v1057q0 31 29 31h86q29 0 29 -31v-1079q0 -65 -22.5 -116.5t-72 -94t-138.5 -65.5t-212 -23q-122 0 -210 23t-137 65.5t-71 94t-22 116.5z" />
<glyph unicode="V" horiz-adv-x="1077" d="M49 1362q-2 7 -2 12q0 19 25 19h94q26 0 35 -31l293 -961q9 -31 19.5 -79t19 -91.5t8.5 -44.5q31 155 49 211l295 965q9 31 35 31h86q26 0 26 -19q0 -5 -2 -12l-409 -1331q-9 -31 -37 -31h-88q-30 0 -39 31z" />
<glyph unicode="W" horiz-adv-x="1640" d="M47 1362q-2 6 -2 12q0 19 27 19h88q26 0 35 -31l243 -963l33 -151q10 63 33 151l246 963q5 16 12.5 23.5t23.5 7.5h82q26 0 35 -31l244 -963q27 -117 33 -161q0 41 32 161l246 963q9 31 37 31h76q24 0 24 -19q0 -5 -2 -12l-338 -1331q-9 -31 -36 -31h-86q-28 0 -37 31 l-248 979q-15 57 -27 141q-12 -73 -28 -143l-248 -977q-9 -31 -39 -31h-86q-26 0 -35 31z" />
<glyph unicode="X" horiz-adv-x="1130" d="M82 11q-1 3 -2 7q0 8 6 17l393 676l-383 649q-8 12 -4.5 22.5t17.5 10.5h102q26 0 45 -31l315 -531l301 531q17 31 43 31h95q31 0 14 -31l-381 -655l399 -676q5 -8 5 -15q0 -2 -1 -6q-4 -10 -20 -10h-100q-26 0 -45 31l-326 549l-315 -549q-19 -31 -43 -31h-97 q-14 0 -18 11z" />
<glyph unicode="Y" horiz-adv-x="1058" d="M42 1385q5 8 21 8h99q23 0 37 -31l301 -594q8 -17 15 -35.5t11 -30t4 -12.5q0 13 31 78l311 594q16 31 37 31h86q16 0 22 -8q3 -4 3 -9q0 -6 -4 -14l-412 -795v-536q0 -31 -31 -31h-86q-30 0 -30 31v520l-414 811q-4 8 -4 15q0 4 3 8z" />
<glyph unicode="Z" horiz-adv-x="1030" d="M104 31v65q0 14 5 21l628 1151h-567q-31 0 -31 30v64q0 31 31 31h715q17 0 23.5 -7t6.5 -24v-64q0 -13 -6 -22l-630 -1151h639q30 0 30 -29v-65q0 -31 -30 -31h-785q-29 0 -29 31z" />
<glyph unicode="[" horiz-adv-x="749" d="M176 -401v1802q0 31 31 31h383q15 0 21.5 -7t6.5 -24v-64q0 -17 -6.5 -23.5t-21.5 -6.5h-266v-1614h266q15 0 21.5 -7t6.5 -24v-63q0 -17 -6.5 -24t-21.5 -7h-383q-31 0 -31 31z" />
<glyph unicode="\" horiz-adv-x="755" d="M82 1401q-9 31 22 31h93q16 0 23.5 -7.5t12.5 -23.5l441 -1673q4 -13 -2.5 -22t-20.5 -9h-92q-29 0 -35 31z" />
<glyph unicode="]" horiz-adv-x="749" d="M131 -338q0 17 7 24t24 7h264v1614h-264q-17 0 -24 6.5t-7 23.5v64q0 17 7 24t24 7h381q15 0 21.5 -7t6.5 -24v-1802q0 -17 -6.5 -24t-21.5 -7h-381q-17 0 -24 7t-7 24v63z" />
<glyph unicode="^" horiz-adv-x="1140" d="M164 643l325 721q1 1 2 3q11 22 23 25l8 1h92q14 0 21 -7t14 -22l326 -721q6 -15 -1.5 -24t-23.5 -9h-84q-12 0 -18.5 7.5t-13.5 25.5l-267 606l-262 -606q-7 -17 -14 -25t-19 -8h-82q-16 0 -24 9.5t-2 23.5z" />
<glyph unicode="_" horiz-adv-x="886" d="M47 -203q0 29 29 29h735q31 0 31 -29v-61q0 -29 -31 -29h-735q-29 0 -29 29v61z" />
<glyph unicode="`" horiz-adv-x="677" d="M186.5 1440.5q3.5 9.5 20.5 9.5h90q11 0 19 -4.5t11.5 -9.5l10.5 -15l137 -229q8 -14 3.5 -21.5t-17.5 -7.5h-70q-23 0 -37 19l-161 237q-10 12 -6.5 21.5z" />
<glyph unicode="a" horiz-adv-x="1034" d="M127 225v103q0 105 69 173t197 68h352v185q0 76 -51.5 116.5t-179.5 40.5q-129 0 -181 -39t-52 -114v-25q0 -33 -31 -33h-74q-29 0 -29 33v35q0 260 369 260q200 0 284.5 -68t84.5 -192v-737q0 -31 -29 -31h-74q-16 0 -22 7.5t-8 23.5l-4 73q-151 -120 -338 -120 q-137 0 -210 68t-73 173zM264 244q0 -142 178 -142q157 0 303 115v240h-325q-156 0 -156 -148v-65z" />
<glyph unicode="b" d="M162 31v1370q0 31 31 31h81q29 0 29 -31v-494q159 121 348 121q142 0 212.5 -70t70.5 -192v-520q0 -122 -70.5 -192t-212.5 -70q-202 0 -350 122l-4 -75q-2 -16 -8.5 -23.5t-22.5 -7.5h-73q-31 0 -31 31zM303 227q153 -114 309 -114q94 0 137.5 42t43.5 111v479 q0 69 -43.5 111.5t-137.5 42.5q-160 0 -309 -117v-555z" />
<glyph unicode="c" horiz-adv-x="980" d="M139 248v516q0 127 86.5 195.5t286.5 68.5t286.5 -68.5t86.5 -195.5v-39q0 -31 -31 -31h-76q-30 0 -30 31v31q0 76 -52.5 115.5t-181.5 39.5t-181 -39.5t-52 -115.5v-498q0 -78 52 -118t181 -40t181.5 40t52.5 118v45q0 17 6.5 24t23.5 7h76q17 0 24 -7t7 -24v-55 q0 -126 -87 -195t-288 -69q-200 0 -285.5 68.5t-85.5 195.5z" />
<glyph unicode="d" d="M139 246v520q0 122 71 192t214 70q182 0 346 -121v494q0 31 29 31h82q30 0 30 -31v-1370q0 -31 -30 -31h-74q-16 0 -22.5 7.5t-8.5 23.5l-4 75q-153 -122 -348 -122q-143 0 -214 70t-71 192zM281 266q0 -68 43.5 -110.5t136.5 -42.5q156 0 309 114v555q-149 117 -309 117 q-93 0 -136.5 -42.5t-43.5 -111.5v-479z" />
<glyph unicode="e" horiz-adv-x="1007" d="M139 248v516q0 127 87.5 195.5t289.5 68.5q200 0 285.5 -68.5t85.5 -195.5v-252q0 -29 -29 -29h-579v-227q0 -77 52 -117.5t185 -40.5t185.5 40.5t52.5 117.5v35q0 28 28 28h74q31 0 31 -28v-43q0 -127 -86.5 -195.5t-288.5 -68.5q-200 0 -286.5 68.5t-86.5 195.5z M279 592h475v164q0 157 -238 157q-130 0 -183.5 -41t-53.5 -116v-164z" />
<glyph unicode="f" horiz-adv-x="659" d="M57 922v49q0 27 29 30l111 7h16v176q0 262 383 262h12q31 0 31 -29v-61q0 -31 -31 -31h-12q-130 0 -185 -40.5t-55 -115.5v-161h224q30 0 30 -29v-57q0 -31 -30 -31h-224v-860q0 -31 -30 -31h-82q-31 0 -31 31v860h-127q-29 0 -29 31z" />
<glyph unicode="g" d="M139 246v520q0 122 71 192t214 70q196 0 348 -125l4 78q2 16 8.5 23.5t22.5 7.5h74q30 0 30 -31v-1139q0 -264 -383 -264h-278q-31 0 -31 29v61q0 29 31 29h278q242 0 242 158v247q-160 -118 -346 -118q-143 0 -214 70t-71 192zM281 266q0 -68 43.5 -110.5t136.5 -42.5 q156 0 309 114v555q-149 117 -309 117q-93 0 -136.5 -42.5t-43.5 -111.5v-479z" />
<glyph unicode="h" horiz-adv-x="1083" d="M162 31v1370q0 31 31 31h81q29 0 29 -31v-494q146 121 348 121q138 0 210.5 -69.5t72.5 -182.5v-745q0 -31 -29 -31h-82q-30 0 -30 31v714q0 156 -181 156q-163 0 -309 -115v-755q0 -31 -29 -31h-81q-31 0 -31 31z" />
<glyph unicode="i" horiz-adv-x="466" d="M162 31v950q0 31 31 31h81q29 0 29 -31v-950q0 -31 -29 -31h-81q-31 0 -31 31zM162 1210v191q0 31 31 31h81q29 0 29 -31v-191q0 -30 -29 -30h-81q-31 0 -31 30z" />
<glyph unicode="j" horiz-adv-x="464" d="M-121 -332q0 29 29 29h14q130 0 185 41t55 117v1126q0 31 28 31h84q29 0 29 -31v-1139q0 -264 -381 -264h-14q-29 0 -29 29v61zM162 1210v191q0 31 28 31h84q29 0 29 -31v-191q0 -30 -29 -30h-84q-28 0 -28 30z" />
<glyph unicode="k" horiz-adv-x="940" d="M162 31v1370q0 31 28 31h84q29 0 29 -31v-778h68l348 358q27 31 49 31h92q17 0 21 -9.5t-7 -21.5l-387 -408l435 -542q6 -7 6 -14q0 -3 -2 -7q-4 -10 -19 -10h-92q-25 0 -49 31l-393 483h-70v-483q0 -31 -29 -31h-84q-28 0 -28 31z" />
<glyph unicode="l" horiz-adv-x="466" d="M162 31v1370q0 31 31 31h81q29 0 29 -31v-1370q0 -31 -29 -31h-81q-31 0 -31 31z" />
<glyph unicode="m" horiz-adv-x="1691" d="M162 31v950q0 31 31 31h73q31 0 31 -31l2 -76q144 123 340 123q100 0 165.5 -37t94.5 -102q31 26 52.5 41.5t69 42.5t107.5 41t129 14q138 0 211.5 -69.5t73.5 -182.5v-745q0 -31 -31 -31h-81q-31 0 -31 31v714q0 156 -180 156q-174 0 -299 -119q2 -10 2 -37v-714 q0 -31 -29 -31h-82q-31 0 -31 31v714q0 156 -180 156q-163 0 -297 -115v-755q0 -31 -29 -31h-81q-31 0 -31 31z" />
<glyph unicode="n" horiz-adv-x="1083" d="M162 31v950q0 31 31 31h73q16 0 22.5 -7.5t8.5 -23.5l4 -78q57 49 145.5 87t204.5 38q138 0 210.5 -69.5t72.5 -182.5v-745q0 -31 -29 -31h-82q-30 0 -30 31v714q0 156 -181 156q-163 0 -309 -115v-755q0 -31 -29 -31h-81q-31 0 -31 31z" />
<glyph unicode="o" horiz-adv-x="1050" d="M139 248v516q0 264 385 264q387 0 387 -264v-516q0 -264 -387 -264q-385 0 -385 264zM281 258q0 -158 243 -158q246 0 246 158v496q0 76 -57.5 116.5t-188.5 40.5q-129 0 -186 -40.5t-57 -116.5v-496z" />
<glyph unicode="p" d="M162 -393v1374q0 31 31 31h73q16 0 22.5 -7.5t8.5 -23.5l4 -78q152 125 350 125q142 0 212.5 -70t70.5 -192v-520q0 -122 -70.5 -192t-212.5 -70q-193 0 -348 118v-495q0 -29 -29 -29h-81q-31 0 -31 29zM303 227q153 -114 309 -114q94 0 137.5 42t43.5 111v479 q0 69 -43.5 111.5t-137.5 42.5q-160 0 -309 -117v-555z" />
<glyph unicode="q" d="M139 246v520q0 122 71 192t214 70q191 0 348 -125l4 78q2 16 8.5 23.5t22.5 7.5h74q30 0 30 -31v-1374q0 -15 -6.5 -22t-23.5 -7h-82q-17 0 -23 6.5t-6 22.5v495q-160 -118 -346 -118q-143 0 -214 70t-71 192zM281 266q0 -68 43.5 -110.5t136.5 -42.5q156 0 309 114v555 q-149 117 -309 117q-93 0 -136.5 -42.5t-43.5 -111.5v-479z" />
<glyph unicode="r" horiz-adv-x="706" d="M162 31v950q0 31 31 31h73q16 0 22.5 -7.5t8.5 -23.5l6 -100q60 56 147 101.5t187 45.5q33 0 33 -31v-67q0 -31 -33 -31q-101 -4 -190 -47.5t-144 -89.5v-731q0 -31 -29 -31h-81q-31 0 -31 31z" />
<glyph unicode="s" horiz-adv-x="952" d="M113 215v55q0 29 28 29h76q27 0 27 -29v-49q0 -62 61 -95.5t178 -33.5t179.5 33.5t62.5 95.5v76q0 43 -31.5 69.5t-89.5 45.5l-315 104q-62 21 -110 74.5t-48 124.5v80q0 102 85 167.5t269 65.5q183 0 270 -66t87 -167v-60q0 -26 -29 -26h-76q-26 0 -26 26v60 q0 61 -57 94t-171 33q-223 0 -223 -127v-54q0 -43 31.5 -71t73.5 -41l315 -103q81 -26 128.5 -75.5t47.5 -118.5v-117q0 -100 -93.5 -165.5t-279.5 -65.5q-187 0 -278.5 65.5t-91.5 165.5z" />
<glyph unicode="t" horiz-adv-x="710" d="M53 922v49q0 27 29 30l106 7h17v217q0 30 31 30h83q29 0 29 -30v-217h230q30 0 30 -29v-57q0 -31 -30 -31h-230v-612q0 -77 54 -117.5t184 -40.5h35q30 0 30 -31v-59q0 -31 -30 -31h-54q-104 0 -175 17.5t-111.5 53t-58 82t-17.5 111.5v627h-123q-29 0 -29 31z" />
<glyph unicode="u" horiz-adv-x="1071" d="M150 233v748q0 31 28 31h84q29 0 29 -31v-715q0 -155 182 -155q159 0 295 112v758q0 31 29 31h84q28 0 28 -31v-950q0 -17 -6.5 -24t-21.5 -7h-76q-17 0 -23 6.5t-8 24.5l-4 73q-140 -120 -336 -120q-138 0 -211 68t-73 181z" />
<glyph unicode="v" horiz-adv-x="884" d="M37 981q-1 5 -1 9q0 8 4 13q8 9 23 9h89q24 0 34 -31l230 -678q19 -66 28 -127q18 89 31 125l234 680q10 31 34 31h78q17 0 25 -8q4 -5 4 -13q0 -5 -2 -10l-330 -952q-5 -16 -12 -22.5t-21 -6.5h-94q-13 0 -19.5 6.5t-11.5 22.5z" />
<glyph unicode="w" horiz-adv-x="1343" d="M37 981q-2 5 -2 10q-1 9 5 13q8 8 26 8h81q26 0 33 -31l193 -713q3 -15 7 -34.5t6 -32.5t3 -15q0 4 21 82l196 713q10 31 35 31h88q26 0 33 -31l184 -713l19 -80q0 12 20 80l191 713q10 31 34 31h70q15 0 22 -9q4 -6 4 -13q0 -4 -1 -9l-267 -952q-5 -16 -11 -22.5 t-19 -6.5h-99q-26 0 -32 29l-181 692q-3 11 -20 96l-25 -98l-196 -690q-10 -29 -33 -29h-94q-14 0 -21 6.5t-12 22.5z" />
<glyph unicode="x" horiz-adv-x="950" d="M60 10q-2 4 -2 7q0 6 5 14l328 483l-317 467q-9 12 -5 21.5t19 9.5h94q22 0 45 -31l254 -369l244 369q19 31 45 31h82q15 0 19 -9.5t-5 -21.5l-317 -471l330 -479q5 -7 5 -14q0 -3 -2 -7q-5 -10 -20 -10h-92q-26 0 -45 31l-264 381l-254 -381q-19 -31 -45 -31h-82 q-15 0 -20 10z" />
<glyph unicode="y" horiz-adv-x="884" d="M37 981q-1 5 -1 9q0 7 4 13q8 9 23 9h84q25 0 35 -31l232 -680q8 -25 14.5 -54.5t10 -48.5t3.5 -20q19 76 33 119l234 684q10 31 34 31h78q17 0 25 -8q4 -6 4 -13q0 -4 -2 -10l-469 -1374q-12 -31 -35 -31h-63q-15 0 -22 9t-3 22l123 385z" />
<glyph unicode="z" horiz-adv-x="929" d="M96 31v57q0 13 8 25l519 780h-469q-31 0 -31 31v59q0 29 31 29h614q31 0 31 -29v-57q0 -16 -6 -25l-523 -782h527q30 0 30 -31v-57q0 -31 -30 -31h-670q-31 0 -31 31z" />
<glyph unicode="{" horiz-adv-x="917" d="M115 479v60q0 30 30 30h2q119 0 170.5 41t51.5 117v459q0 264 381 264h14q29 0 29 -31v-59q0 -31 -29 -31h-14q-128 0 -182 -40.5t-54 -117.5v-458q0 -163 -166 -203q166 -43 166 -205v-473q0 -77 54 -117.5t182 -40.5h14q15 0 22 -6.5t7 -23.5v-60q0 -17 -7 -23.5 t-22 -6.5h-14q-381 0 -381 264v475q0 75 -51.5 115.5t-170.5 40.5h-2q-30 0 -30 30z" />
<glyph unicode="|" horiz-adv-x="516" d="M186 -401v1802q0 31 29 31h88q29 0 29 -31v-1802q0 -31 -29 -31h-88q-29 0 -29 31z" />
<glyph unicode="}" horiz-adv-x="917" d="M123 -356q0 30 31 30h12q129 0 182 40.5t53 117.5v473q0 162 168 205q-168 40 -168 203v458q0 77 -53 117.5t-182 40.5h-12q-31 0 -31 31v59q0 31 31 31h12q383 0 383 -264v-459q0 -77 51 -117.5t170 -40.5h2q15 0 22 -6.5t7 -23.5v-60q0 -17 -7 -23.5t-22 -6.5h-2 q-119 0 -170 -40.5t-51 -115.5v-475q0 -264 -383 -264h-12q-31 0 -31 30v60z" />
<glyph unicode="~" horiz-adv-x="995" d="M162 473l4 57q6 91 46 134t99 43q41 0 101 -29l176 -92q60 -29 86 -29q31 0 43 21t12 77v17q0 26 33 26h45q17 0 23 -7.5t4 -26.5l-5 -56q-7 -94 -45.5 -135t-95.5 -41q-53 0 -113 31l-180 92q-45 25 -71 25q-32 0 -42 -18t-16 -77l-2 -18q-3 -27 -33 -27h-43 q-14 0 -21 9.5t-5 23.5z" />
<glyph unicode="&#xa1;" horiz-adv-x="520" d="M186 213l15 436q0 31 28 31h62q28 0 28 -31l15 -436v-563q0 -31 -29 -31h-90q-29 0 -29 31v563zM188 821v160q0 31 29 31h86q17 0 24 -7t7 -24v-160q0 -30 -31 -30h-86q-29 0 -29 30z" />
<glyph unicode="&#xa2;" horiz-adv-x="1083" d="M170 438v516q0 114 70 181.5t231 78.5v148q0 31 31 31h84q28 0 28 -31v-148q161 -11 231 -78.5t70 -181.5v-39q0 -30 -30 -30h-76q-31 0 -31 30v31q0 76 -52 116t-181 40t-181.5 -40t-52.5 -116v-497q0 -77 52.5 -117.5t181.5 -40.5t181 40t52 118v45q0 17 7 23.5t24 6.5 h76q17 0 23.5 -6.5t6.5 -23.5v-56q0 -238 -301 -262v-145q0 -31 -28 -31h-84q-31 0 -31 31v145q-162 11 -231.5 78.5t-69.5 183.5z" />
<glyph unicode="&#xa3;" horiz-adv-x="1355" d="M170 31v61q0 29 29 29h120v516h-120q-29 0 -29 31v61q0 29 29 29h120v364q0 66 17.5 115t60.5 89.5t125 61.5t201 21q97 0 169 -14.5t116.5 -39t72 -62t37.5 -78.5t10 -93v-59q0 -31 -28 -31h-82q-29 0 -29 31v37q0 63 -21 101.5t-80.5 60.5t-164.5 22q-78 0 -129 -11.5 t-79 -36.5t-39 -57t-11 -79v-342h313q31 0 31 -29v-61q0 -31 -31 -31h-313v-516h412q82 0 127 49.5t45 175.5v12q0 33 28 33h78q31 0 31 -33v-12q0 -102 -20.5 -172t-59.5 -107t-85.5 -52t-109.5 -15h-712q-29 0 -29 31z" />
<glyph unicode="&#xa4;" horiz-adv-x="1134" d="M49 553v35q0 30 31 30h94v156h-94q-31 0 -31 31v37q0 28 31 28h94v240q0 299 432 299t432 -299v-104q0 -33 -28 -33h-82q-31 0 -31 33v81q0 95 -67 146t-222 51t-222 -51t-67 -146v-217h320q31 0 31 -28v-37q0 -31 -31 -31h-320v-156h320q31 0 31 -30v-35q0 -31 -31 -31 h-320v-217q0 -95 67 -145.5t222 -50.5t222 50.5t67 145.5v109q0 30 31 30h82q28 0 28 -30v-131q0 -299 -432 -299t-432 299v239h-94q-31 0 -31 31z" />
<glyph unicode="&#xa5;" horiz-adv-x="1323" d="M175 1385q6 8 22 8h98q23 0 37 -31l301 -594q8 -17 15 -35.5t11.5 -30t4.5 -12.5q0 3 11 32t19 46l312 594q5 10 8.5 15.5t11 10.5t16.5 5h86q16 0 22 -8t-1 -23l-246 -475h146q17 0 23.5 -7t6.5 -22v-37q0 -30 -30 -30h-197l-80 -156h277q17 0 23.5 -7t6.5 -22v-37 q0 -17 -6.5 -23.5t-23.5 -6.5h-312v-508q0 -31 -30 -31h-86q-31 0 -31 31v508h-314q-15 0 -21.5 6.5t-6.5 23.5v37q0 29 28 29h271l-80 156h-191q-28 0 -28 30v37q0 29 28 29h142l-242 475q-7 15 -1 23z" />
<glyph unicode="&#xa6;" horiz-adv-x="466" d="M162 287q0 30 31 30h81q29 0 29 -30v-688q0 -31 -29 -31h-81q-31 0 -31 31v688zM162 674v688q0 31 31 31h81q29 0 29 -31v-688q0 -31 -29 -31h-81q-31 0 -31 31z" />
<glyph unicode="&#xa7;" horiz-adv-x="1124" d="M186 -145q0 17 7 23.5t22 6.5h74q17 0 23.5 -6.5t6.5 -23.5v-33q0 -75 55 -115.5t185 -40.5t185 40.5t55 117.5v166q0 28 -14 50t-40 36.5t-42 21t-39 13.5l-277 79q-67 19 -124.5 77.5t-57.5 148.5v207q0 17 6.5 23.5t21.5 6.5h76q15 0 22 -6.5t7 -23.5v-195 q0 -54 38 -86t79 -43l288 -84q24 -7 47.5 -17t51.5 -28.5t49 -41t35 -57.5t14 -75v-162q0 -266 -379 -266q-201 0 -288 67.5t-87 192.5v27zM186 981v164q0 264 377 264q201 0 289 -67t88 -193v-25q0 -17 -7 -23.5t-24 -6.5h-73q-15 0 -22 6.5t-7 23.5v31q0 76 -54.5 115 t-185.5 39q-130 0 -185.5 -39.5t-55.5 -114.5v-166q0 -28 14.5 -50t41 -36.5t42 -21t39.5 -13.5l274 -82q30 -8 59.5 -25.5t58.5 -44t47 -67.5t18 -88v-207q0 -30 -29 -30h-74q-29 0 -29 30v195q0 54 -37.5 86t-78.5 43l-289 86q-32 9 -61.5 23.5t-62.5 39t-53 64.5t-20 90z " />
<glyph unicode="&#xa8;" horiz-adv-x="663" d="M166 1210v199q0 31 31 31h51q28 0 28 -31v-199q0 -28 -28 -28h-51q-31 0 -31 28zM387 1210v199q0 31 29 31h51q29 0 29 -31v-199q0 -28 -29 -28h-51q-29 0 -29 28z" />
<glyph unicode="&#xa9;" horiz-adv-x="1490" d="M186 350v692q0 62 11.5 111t47.5 99t96 82.5t162.5 53.5t241.5 21q116 0 207 -13.5t151 -40t101 -59t62.5 -76t30 -85.5t8.5 -93v-692q0 -51 -8.5 -93t-30 -85.5t-62.5 -75.5t-101 -58.5t-151 -40t-207 -13.5q-139 0 -241.5 20.5t-162.5 53.5t-96 82.5t-47.5 98.5 t-11.5 111zM293 334q0 -58 22 -102t72 -79.5t140 -54t218 -18.5q102 0 180.5 12.5t129.5 34.5t83.5 54.5t46 69.5t13.5 83v727q0 57 -22.5 101.5t-73 79.5t-140.5 54t-217 19q-128 0 -218 -19t-140 -54.5t-72 -80t-22 -102.5v-725zM451 520v350q0 62 13 106.5t44.5 79.5 t90.5 52.5t146 17.5q88 0 147 -17.5t91 -52.5t44.5 -79.5t12.5 -106.5v-30q0 -17 -6.5 -24t-21.5 -7h-68q-17 0 -24 7t-7 24v28q0 79 -34 117.5t-134 38.5q-99 0 -132 -38t-33 -118v-344q0 -81 32.5 -119t132.5 -38t134 38.5t34 118.5v43q0 33 31 33h68q28 0 28 -33v-47 q0 -62 -12.5 -106.5t-44.5 -79.5t-91 -52.5t-147 -17.5q-87 0 -146 17.5t-90.5 52.5t-44.5 79.5t-13 106.5z" />
<glyph unicode="&#xaa;" horiz-adv-x="720" d="M125 928v59q0 64 44 106t124 42h196v112q0 82 -122 82q-125 0 -125 -82v-16q0 -21 -21 -21h-61q-21 0 -21 21v20q0 158 230 158q227 0 227 -162v-434q0 -22 -21 -22h-57q-12 0 -16 5t-6 17l-4 39q-87 -72 -195 -72q-86 0 -129 41t-43 107zM231 942q0 -80 95 -80 q52 0 95.5 21t67.5 43v133h-176q-40 0 -61 -21.5t-21 -56.5v-39z" />
<glyph unicode="&#xab;" horiz-adv-x="1189" d="M164 461v84q0 17 26 39l379 284q11 10 21 5.5t10 -21.5v-88q0 -11 -5.5 -20t-9.5 -12.5t-16 -12.5l-290 -217l290 -215q31 -23 31 -47v-88q0 -14 -11 -19.5t-20 2.5l-379 285q-26 22 -26 41zM590 461v84q0 17 26 39l379 284q11 10 21 5.5t10 -21.5v-88q0 -11 -5.5 -20 t-9.5 -12.5t-16 -12.5l-290 -217l290 -215q31 -23 31 -47v-88q0 -14 -11 -19.5t-20 2.5l-379 285q-26 22 -26 41z" />
<glyph unicode="&#xac;" horiz-adv-x="776" d="M156 643q0 95 67 163t162 68q96 0 163.5 -67.5t67.5 -163.5q0 -95 -67 -162t-164 -67q-95 0 -162 67t-67 162z" />
<glyph unicode="&#xad;" horiz-adv-x="933" d="M162 563v60q0 28 31 28h548q31 0 31 -28v-60q0 -31 -31 -31h-548q-31 0 -31 31z" />
<glyph unicode="&#xae;" horiz-adv-x="1273" d="M186 760v366q0 283 453 283q114 0 199 -18.5t132 -46t75 -68t36.5 -75t8.5 -75.5v-366q0 -41 -8.5 -75.5t-36.5 -75t-75 -68t-132 -46t-199 -18.5q-453 0 -453 283zM285 752q0 -187 354 -187q352 0 352 185v385q0 184 -352 184q-354 0 -354 -184v-383zM438 686v502 q0 22 23 22h201q112 0 157 -43t45 -108v-47q0 -103 -98 -135l80 -191q3 -9 -3 -15.5t-18 -6.5h-59q-17 0 -23 22l-75 176h-6h-123v-176q0 -22 -21 -22h-59q-21 0 -21 22zM539 938h112q54 0 82.5 22.5t28.5 55.5v37q0 36 -28 58t-83 22h-112v-195z" />
<glyph unicode="&#xaf;" horiz-adv-x="851" d="M139 1253v52q0 28 29 28h516q31 0 31 -28v-52q0 -30 -31 -30h-516q-15 0 -22 6.5t-7 23.5z" />
<glyph unicode="&#xb0;" horiz-adv-x="829" d="M131 1014v198q0 94 64.5 144.5t220.5 50.5q154 0 218 -50.5t64 -144.5v-198q0 -94 -64 -144.5t-218 -50.5q-156 0 -220.5 50.5t-64.5 144.5zM254 1020q0 -102 162 -102t162 102v188q0 101 -162 101t-162 -101v-188z" />
<glyph unicode="&#xb1;" horiz-adv-x="1185" d="M162 223v60q0 17 7 23.5t24 6.5h800q31 0 31 -30v-60q0 -30 -31 -30h-800q-17 0 -24 6.5t-7 23.5zM162 750v61q0 29 31 29h337v250q0 30 29 30h62q28 0 28 -30v-250h344q31 0 31 -29v-61q0 -31 -31 -31h-344v-252q0 -31 -28 -31h-62q-29 0 -29 31v252h-337q-17 0 -24 7 t-7 24z" />
<glyph unicode="&#xb2;" horiz-adv-x="765" d="M121 1153v70q0 186 258 186q262 0 262 -186v-125q0 -69 -34.5 -107.5t-76.5 -52.5l-217 -78q-67 -19 -67 -61v-144h379q22 0 22 -22v-47q0 -23 -22 -23h-469q-21 0 -21 23v231q0 26 9 46t26 32.5t29 19t32 13.5l234 84q67 21 67 80v116q0 109 -153 109q-81 0 -114.5 -28 t-33.5 -81v-55q0 -25 -22 -25h-66q-22 0 -22 25z" />
<glyph unicode="&#xb3;" horiz-adv-x="763" d="M121 737v31q0 20 22 20h66q22 0 22 -20v-14q0 -54 35 -81.5t115 -27.5q81 0 116 27.5t35 81.5v98q0 55 -32 80.5t-115 25.5h-104q-25 0 -25 23v45q0 23 25 23h94q84 0 115.5 25.5t31.5 80.5v57q0 55 -31 82t-110 27q-81 0 -113 -27.5t-32 -81.5v-14q0 -20 -21 -20h-65 q-23 0 -23 20v31q0 84 56 133t198 49q140 0 197 -49t57 -133v-88q0 -54 -23 -86.5t-80 -46.5q62 -18 86.5 -53.5t24.5 -90.5v-129q0 -180 -260 -180q-262 0 -262 182z" />
<glyph unicode="&#xb4;" horiz-adv-x="677" d="M198 1170.5q-5 7.5 3 21.5l137 229q18 29 41 29h90q17 0 20.5 -9.5t-6.5 -21.5l-161 -237q-14 -19 -37 -19h-68q-14 0 -19 7.5z" />
<glyph unicode="&#xb5;" horiz-adv-x="1071" d="M150 -391v1372q0 31 28 31h84q29 0 29 -31v-715q0 -155 182 -155q159 0 295 112v758q0 31 29 31h84q28 0 28 -31v-950q0 -17 -6.5 -24t-21.5 -7h-76q-17 0 -23 6.5t-8 24.5l-4 73q-140 -120 -336 -120q-93 0 -151 45l8 -420q0 -31 -29 -31h-84q-15 0 -21.5 7t-6.5 24z " />
<glyph unicode="&#xb6;" horiz-adv-x="1320" d="M186 846v278q0 62 18.5 108.5t62 84t123 57t192.5 19.5h209q28 0 28 -29v-1755q0 -31 -31 -31h-86q-17 0 -23.5 7t-6.5 24v969h-90q-113 0 -192.5 19.5t-123 56.5t-62 83.5t-18.5 108.5zM991 -391v1753q0 31 29 31h88q29 0 29 -31v-1753q0 -31 -29 -31h-88q-29 0 -29 31z " />
<glyph unicode="&#xb7;" horiz-adv-x="452" d="M154 463v160q0 30 30 30h86q29 0 29 -30v-160q0 -31 -29 -31h-86q-17 0 -23.5 7t-6.5 24z" />
<glyph unicode="&#xb8;" horiz-adv-x="378" d="M-6 -371q0 29 31 29h217q86 0 86 72q0 71 -86 71h-127q-27 0 -35.5 9.5t-3.5 29.5l45 170q8 30 35 27l39 -6q29 -6 20 -37l-29 -103h76q72 0 121 -38t49 -121t-49.5 -123.5t-120.5 -40.5h-237q-31 0 -31 31v30z" />
<glyph unicode="&#xb9;" horiz-adv-x="768" d="M121 590v47q0 22 22 22h187v635l-187 -39q-9 -3 -14.5 1.5t-5.5 15.5v51q0 20 20 23l279 61q8 2 14 -2.5t6 -18.5v-727h185q12 0 16 -4.5t4 -17.5v-47q0 -14 -4 -18.5t-16 -4.5h-484q-22 0 -22 23z" />
<glyph unicode="&#xba;" horiz-adv-x="733" d="M123 944v301q0 77 59.5 120.5t184.5 43.5q124 0 183.5 -43.5t59.5 -120.5v-301q0 -77 -59.5 -120.5t-183.5 -43.5q-125 0 -184.5 43.5t-59.5 120.5zM233 954q0 -86 134 -86q133 0 133 86v281q0 88 -133 88q-134 0 -134 -88v-281z" />
<glyph unicode="&#xbb;" horiz-adv-x="1189" d="M164 168v88q0 11 5.5 20t9.5 12.5t16 12.5l290 217l-290 215q-31 23 -31 47v88q0 14 11 19.5t20 -2.5l378 -285q27 -22 27 -41v-84q0 -17 -27 -39l-378 -284q-11 -10 -21 -5.5t-10 21.5zM590 168v88q0 11 5.5 20t9.5 12.5t16 12.5l290 217l-290 215q-31 23 -31 47v88 q0 14 11 19.5t20 -2.5l378 -285q27 -22 27 -41v-84q0 -17 -27 -39l-378 -284q-11 -10 -21 -5.5t-10 21.5z" />
<glyph unicode="&#xbc;" horiz-adv-x="1710" d="M121 590v47q0 22 22 22h187v637l-187 -41q-9 -3 -14.5 1.5t-5.5 15.5v51q0 20 20 23l279 61q8 2 14 -2.5t6 -18.5v-727h185q12 0 16 -4.5t4 -17.5v-47q0 -14 -4 -18.5t-16 -4.5h-484q-22 0 -22 23zM635 -78l401 1548q6 23 29 23h72q9 0 14 -6.5t2 -16.5l-403 -1548 q-3 -12 -8 -17t-17 -5h-72q-24 0 -18 22zM1061 276v46q0 8 4 16l164 475q7 23 26 23h70q24 0 16 -23l-159 -467h295v467q0 23 22 23h70q22 0 22 -23v-790q0 -23 -22 -23h-70q-22 0 -22 23v231h-392q-24 0 -24 22z" />
<glyph unicode="&#xbd;" horiz-adv-x="1742" d="M121 590v47q0 22 22 22h187v637l-187 -41q-9 -3 -14.5 1.5t-5.5 15.5v51q0 20 20 23l279 61q8 2 14 -2.5t6 -18.5v-727h185q12 0 16 -4.5t4 -17.5v-47q0 -14 -4 -18.5t-16 -4.5h-484q-22 0 -22 23zM621 -78l403 1548q6 23 27 23h71q11 0 15.5 -6.5t1.5 -16.5l-404 -1548 q-3 -13 -8 -17.5t-16 -4.5h-72q-24 0 -18 22zM1096 590v69q0 187 260 187q262 0 262 -187v-124q0 -69 -34.5 -107.5t-76.5 -52.5l-217 -78q-1 0 -8.5 -2.5t-12 -4.5t-12.5 -6t-13 -8t-10.5 -10t-8 -13.5t-2.5 -16.5v-144h379q11 0 15.5 -4.5t4.5 -17.5v-47q0 -23 -20 -23 h-469q-21 0 -21 23v231q0 26 9 46t26 32.5t29 19t32 13.5l234 84q65 21 65 79v117q0 53 -34.5 81t-116.5 28q-81 0 -114.5 -28t-33.5 -81v-55q0 -25 -22 -25h-66q-24 0 -24 25z" />
<glyph unicode="&#xbe;" horiz-adv-x="1714" d="M121 735v31q0 20 22 20h66q22 0 22 -20v-14q0 -54 35 -81.5t115 -27.5q81 0 116 27.5t35 81.5v98q0 55 -32 80.5t-115 25.5h-104q-25 0 -25 23v45q0 23 25 23h94q84 0 115.5 25.5t31.5 80.5v57q0 55 -31 82t-110 27q-81 0 -113 -27.5t-32 -81.5v-14q0 -20 -21 -20h-65 q-23 0 -23 20v31q0 84 56 133t198 49q140 0 197 -49t57 -133v-88q0 -54 -23 -86.5t-80 -46.5q62 -18 86.5 -53.5t24.5 -90.5v-129q0 -180 -260 -180q-262 0 -262 182zM641 -78l403 1548q6 23 25 23h74q21 0 14 -23l-403 -1548q-3 -12 -8 -17t-15 -5h-74q-22 0 -16 22z M1065 276v46q0 12 2 16l164 475q7 23 29 23h69q11 0 15.5 -6.5t1.5 -16.5l-162 -467h297v467q0 23 22 23h68q13 0 17.5 -5t4.5 -18v-790q0 -13 -4.5 -18t-17.5 -5h-68q-22 0 -22 23v231h-394q-22 0 -22 22z" />
<glyph unicode="&#xbf;" horiz-adv-x="1161" d="M154 57q0 183 170 267l108 53q103 50 103 145v127q0 31 28 31h88q29 0 29 -31v-160q0 -43 -13 -78t-37 -58t-42 -35t-43 -25l-144 -74q-102 -56 -102 -158v-137q0 -97 64.5 -147.5t218.5 -50.5q155 0 219.5 50.5t64.5 147.5v94q0 33 29 33h82q31 0 31 -33v-116 q0 -299 -426 -299q-424 0 -428 299v155zM535 821v160q0 17 6.5 24t21.5 7h88q29 0 29 -31v-160q0 -30 -29 -30h-88q-28 0 -28 30z" />
<glyph unicode="&#xc0;" horiz-adv-x="1077" d="M49 31l408 1331q9 31 39 31h88q28 0 37 -31l409 -1331q9 -31 -24 -31h-88q-28 0 -37 31l-113 364h-469l-111 -364q-9 -31 -34 -31h-82q-32 0 -23 31zM292.5 1788.5q3.5 9.5 20.5 9.5h90q11 0 19 -4.5t11.5 -9.5l10.5 -15l138 -229q8 -15 3.5 -23t-18.5 -8h-69 q-21 0 -37 21l-162 237q-10 12 -6.5 21.5zM334 512h403l-149 479q-18 61 -51 248q-21 -148 -52 -244z" />
<glyph unicode="&#xc1;" horiz-adv-x="1077" d="M49 31l408 1331q9 31 39 31h88q28 0 37 -31l409 -1331q9 -31 -24 -31h-88q-28 0 -37 31l-113 364h-469l-111 -364q-9 -31 -34 -31h-82q-32 0 -23 31zM334 512h403l-149 479q-18 61 -51 248q-21 -148 -52 -244zM492 1540l137 229q18 29 39 29h90q16 0 20 -9.5t-4 -21.5 l-162 -237q-14 -19 -39 -19h-67q-31 0 -14 29z" />
<glyph unicode="&#xc2;" horiz-adv-x="1077" d="M49 31l408 1331q9 31 39 31h88q28 0 37 -31l409 -1331q9 -31 -24 -31h-88q-28 0 -37 31l-113 364h-469l-111 -364q-9 -31 -34 -31h-82q-32 0 -23 31zM303.5 1519.5q-5.5 8.5 3.5 20.5l158 227q23 31 47 31h53q25 0 47 -29l158 -229q9 -12 5 -20.5t-21 -8.5h-66 q-23 0 -41 29l-108 168l-109 -168q-17 -29 -41 -29h-65q-15 0 -20.5 8.5zM334 512h403l-149 479q-18 61 -51 248q-21 -148 -52 -244z" />
<glyph unicode="&#xc3;" horiz-adv-x="1077" d="M49 31l408 1331q9 31 39 31h88q28 0 37 -31l409 -1331q9 -31 -24 -31h-88q-28 0 -37 31l-113 364h-469l-111 -364q-9 -31 -34 -31h-82q-32 0 -23 31zM242 1571l4 55q11 162 147 162q58 0 113 -39l90 -66q50 -36 78 -36q33 0 42 19t11 79v16q0 27 33 27h45q26 0 26 -33 l-2 -51q-3 -86 -43.5 -126t-105.5 -40q-56 0 -111 37l-92 65q-51 37 -76 37q-34 0 -43.5 -19t-11.5 -77v-16q0 -29 -31 -29h-47q-26 0 -26 35zM334 512h403l-149 479q-18 61 -51 248q-21 -148 -52 -244z" />
<glyph unicode="&#xc4;" horiz-adv-x="1077" d="M49 31l408 1331q9 31 39 31h88q28 0 37 -31l409 -1331q9 -31 -24 -31h-88q-28 0 -37 31l-113 364h-469l-111 -364q-9 -31 -34 -31h-82q-32 0 -23 31zM334 512h403l-149 479q-18 61 -51 248q-21 -148 -52 -244zM375 1554v199q0 29 31 29h49q17 0 22.5 -6.5t5.5 -22.5v-199 q0 -18 -5.5 -24t-22.5 -6h-49q-17 0 -24 6.5t-7 23.5zM594 1554v199q0 29 31 29h49q31 0 31 -29v-199q0 -17 -7 -23.5t-24 -6.5h-49q-17 0 -24 6.5t-7 23.5z" />
<glyph unicode="&#xc5;" horiz-adv-x="1077" d="M49 31l408 1331q9 31 39 31h88q28 0 37 -31l409 -1331q9 -31 -24 -31h-88q-28 0 -37 31l-113 364h-469l-111 -364q-9 -31 -34 -31h-82q-32 0 -23 31zM334 512h403l-149 479q-18 61 -51 248q-21 -148 -52 -244zM344 1628v35q0 68 49 111t146 43t145.5 -43t48.5 -111v-35 q0 -68 -48.5 -110.5t-145.5 -42.5q-98 0 -146.5 42.5t-48.5 110.5zM434 1638q0 -86 105 -86q54 0 80 23.5t26 62.5v15q0 39 -26 62.5t-80 23.5q-105 0 -105 -86v-15z" />
<glyph unicode="&#xc6;" horiz-adv-x="1718" d="M50.5 8q-7.5 8 0.5 23l776 1331q21 31 43 31h689q30 0 30 -29v-61q0 -31 -30 -31h-584v-484h547q17 0 23.5 -6.5t6.5 -21.5v-58q0 -17 -6.5 -23.5t-23.5 -6.5h-547v-551h608q31 0 31 -29v-61q0 -31 -31 -31h-711q-18 0 -26 6.5t-8 24.5v364h-437l-208 -364 q-19 -31 -37 -31h-82q-16 0 -23.5 8zM471 512h367v641q-46 -86 -70 -125z" />
<glyph unicode="&#xc7;" horiz-adv-x="1130" d="M162 283v827q0 299 432 299t432 -299v-104q0 -33 -29 -33h-82q-17 0 -23.5 7.5t-6.5 25.5v81q0 95 -67 146t-222 51t-222 -51t-67 -146v-782q0 -95 67 -145.5t222 -50.5t222 50.5t67 145.5v109q0 30 30 30h82q29 0 29 -30v-131q0 -299 -432 -299h-6l-25 -93h76 q72 0 121 -38t49 -121t-49.5 -123.5t-120.5 -40.5h-238q-30 0 -30 31v30q0 29 30 29h217q87 0 87 72q0 71 -87 71h-126q-27 0 -35.5 9.5t-3.5 29.5l39 150q-330 32 -330 293z" />
<glyph unicode="&#xc8;" d="M186 31v1331q0 31 29 31h698q31 0 31 -31v-64q0 -30 -31 -30h-583v-477h547q17 0 23.5 -7t6.5 -24v-60q0 -17 -6.5 -23.5t-23.5 -6.5h-547v-545h608q31 0 31 -29v-65q0 -31 -31 -31h-725q-27 0 -27 31zM358.5 1788.5q3.5 9.5 20.5 9.5h90q11 0 19 -4.5t11.5 -9.5 l10.5 -15l137 -229q8 -15 4 -23t-18 -8h-70q-21 0 -37 21l-161 237q-10 12 -6.5 21.5z" />
<glyph unicode="&#xc9;" d="M186 31v1331q0 31 29 31h698q31 0 31 -31v-64q0 -30 -31 -30h-583v-477h547q17 0 23.5 -7t6.5 -24v-60q0 -17 -6.5 -23.5t-23.5 -6.5h-547v-545h608q31 0 31 -29v-65q0 -31 -31 -31h-725q-27 0 -27 31zM494 1540l137 229q18 29 39 29h90q16 0 20 -9.5t-4 -21.5l-162 -237 q-14 -19 -39 -19h-67q-31 0 -14 29z" />
<glyph unicode="&#xca;" d="M186 31v1331q0 31 29 31h698q31 0 31 -31v-64q0 -30 -31 -30h-583v-477h547q17 0 23.5 -7t6.5 -24v-60q0 -17 -6.5 -23.5t-23.5 -6.5h-547v-545h608q31 0 31 -29v-65q0 -31 -31 -31h-725q-27 0 -27 31zM301.5 1519.5q-5.5 8.5 3.5 20.5l158 227q23 31 47 31h53 q25 0 47 -29l158 -229q9 -12 5 -20.5t-21 -8.5h-66q-23 0 -41 29l-108 168l-109 -168q-17 -29 -41 -29h-65q-15 0 -20.5 8.5z" />
<glyph unicode="&#xcb;" d="M186 31v1331q0 31 29 31h698q31 0 31 -31v-64q0 -30 -31 -30h-583v-477h547q17 0 23.5 -7t6.5 -24v-60q0 -17 -6.5 -23.5t-23.5 -6.5h-547v-545h608q31 0 31 -29v-65q0 -31 -31 -31h-725q-27 0 -27 31zM401 1554v199q0 29 31 29h49q17 0 23 -6.5t6 -22.5v-199 q0 -17 -6 -23.5t-23 -6.5h-49q-17 0 -24 6.5t-7 23.5zM621 1554v199q0 15 6.5 22t23.5 7h49q31 0 31 -29v-199q0 -17 -7 -23.5t-24 -6.5h-49q-17 0 -23.5 6.5t-6.5 23.5z" />
<glyph unicode="&#xcc;" horiz-adv-x="516" d="M16.5 1788.5q3.5 9.5 20.5 9.5h90q11 0 19 -4.5t11.5 -9.5l10.5 -15l137 -229q8 -15 4 -23t-18 -8h-70q-21 0 -37 21l-161 237q-10 12 -6.5 21.5zM186 31v1331q0 31 29 31h86q29 0 29 -31v-1331q0 -31 -29 -31h-86q-29 0 -29 31z" />
<glyph unicode="&#xcd;" horiz-adv-x="516" d="M186 31v1331q0 31 29 31h86q29 0 29 -31v-1331q0 -31 -29 -31h-86q-29 0 -29 31zM203 1540l137 229q18 29 39 29h90q16 0 20 -9.5t-4 -21.5l-161 -237q-14 -19 -39 -19h-68q-31 0 -14 29z" />
<glyph unicode="&#xce;" horiz-adv-x="516" d="M23 1519.5q-5 8.5 4 20.5l157 227q23 31 47 31h54q25 0 47 -29l157 -229q9 -12 5 -20.5t-21 -8.5h-65q-23 0 -41 29l-109 168l-108 -168q-17 -29 -41 -29h-66q-15 0 -20 8.5zM186 31v1331q0 31 29 31h86q29 0 29 -31v-1331q0 -31 -29 -31h-86q-29 0 -29 31z" />
<glyph unicode="&#xcf;" horiz-adv-x="516" d="M94 1554v199q0 29 31 29h49q17 0 23 -6.5t6 -22.5v-199q0 -17 -6 -23.5t-23 -6.5h-49q-17 0 -24 6.5t-7 23.5zM186 31v1331q0 31 29 31h86q29 0 29 -31v-1331q0 -31 -29 -31h-86q-29 0 -29 31zM313 1554v199q0 29 31 29h49q31 0 31 -29v-199q0 -17 -7 -23.5t-24 -6.5h-49 q-17 0 -24 6.5t-7 23.5z" />
<glyph unicode="&#xd0;" horiz-adv-x="1232" d="M20 678v53q0 29 31 29h135v602q0 31 27 31h414q123 0 211.5 -23t138 -65.5t72 -94t22.5 -116.5v-795q0 -65 -22.5 -116.5t-72 -94t-138 -65.5t-211.5 -23h-416q-25 0 -25 31v618h-135q-31 0 -31 29zM330 125h297q299 0 299 197v749q0 197 -299 197h-297v-508h270 q31 0 31 -29v-53q0 -29 -31 -29h-270v-524z" />
<glyph unicode="&#xd1;" horiz-adv-x="1255" d="M184 31v1331q0 31 31 31h78q17 0 24 -13l555 -977l62 -122v1081q0 31 29 31h77q29 0 29 -31v-1331q0 -31 -29 -31h-77q-21 0 -29 14l-543 963q-63 106 -69 131v-1077q0 -31 -29 -31h-78q-31 0 -31 31zM332 1571l4 55q11 162 147 162q58 0 113 -39l90 -66q50 -36 78 -36 q33 0 42 19t11 79v16q0 27 33 27h45q27 0 27 -33l-2 -51q-3 -86 -44 -126t-106 -40q-56 0 -111 37l-92 65q-51 37 -75 37q-34 0 -44 -19t-12 -77v-16q0 -17 -7 -23t-23 -6h-48q-26 0 -26 35z" />
<glyph unicode="&#xd2;" horiz-adv-x="1210" d="M162 283v827q0 65 22.5 116.5t72 94t137.5 65.5t210 23q123 0 212 -23t138.5 -65.5t72 -94t22.5 -116.5v-827q0 -65 -22.5 -116.5t-72 -94t-138.5 -65.5t-212 -23q-122 0 -210 23t-137.5 65.5t-72 94t-22.5 116.5zM307 305q0 -196 297 -196q299 0 299 196v782 q0 197 -299 197q-297 0 -297 -197v-782zM364.5 1788.5q3.5 9.5 20.5 9.5h90q11 0 19 -4.5t11.5 -9.5l10.5 -15l137 -229q8 -15 4 -23t-18 -8h-70q-21 0 -37 21l-161 237q-10 12 -6.5 21.5z" />
<glyph unicode="&#xd3;" horiz-adv-x="1210" d="M162 283v827q0 65 22.5 116.5t72 94t137.5 65.5t210 23q123 0 212 -23t138.5 -65.5t72 -94t22.5 -116.5v-827q0 -65 -22.5 -116.5t-72 -94t-138.5 -65.5t-212 -23q-122 0 -210 23t-137.5 65.5t-72 94t-22.5 116.5zM307 305q0 -196 297 -196q299 0 299 196v782 q0 197 -299 197q-297 0 -297 -197v-782zM535 1540l137 229q18 29 39 29h90q16 0 20 -9.5t-4 -21.5l-162 -237q-14 -19 -39 -19h-67q-31 0 -14 29z" />
<glyph unicode="&#xd4;" horiz-adv-x="1210" d="M162 283v827q0 65 22.5 116.5t72 94t137.5 65.5t210 23q123 0 212 -23t138.5 -65.5t72 -94t22.5 -116.5v-827q0 -65 -22.5 -116.5t-72 -94t-138.5 -65.5t-212 -23q-122 0 -210 23t-137.5 65.5t-72 94t-22.5 116.5zM307 305q0 -196 297 -196q299 0 299 196v782 q0 197 -299 197q-297 0 -297 -197v-782zM369 1519.5q-5 8.5 4 20.5l157 227q23 31 48 31h53q25 0 47 -29l158 -229q9 -12 4.5 -20.5t-21.5 -8.5h-65q-23 0 -41 29l-109 168l-108 -168q-17 -29 -41 -29h-66q-15 0 -20 8.5z" />
<glyph unicode="&#xd5;" horiz-adv-x="1210" d="M162 283v827q0 65 22.5 116.5t72 94t137.5 65.5t210 23q123 0 212 -23t138.5 -65.5t72 -94t22.5 -116.5v-827q0 -65 -22.5 -116.5t-72 -94t-138.5 -65.5t-212 -23q-122 0 -210 23t-137.5 65.5t-72 94t-22.5 116.5zM307 305q0 -196 297 -196q299 0 299 196v782 q0 197 -299 197q-297 0 -297 -197v-782zM309 1571l4 55q11 162 148 162q57 0 112 -39l91 -66q50 -36 77 -36q33 0 42.5 19.5t11.5 78.5v16q0 27 32 27h45q27 0 27 -33l-2 -51q-3 -86 -43.5 -126t-105.5 -40q-56 0 -111 37l-92 65q-51 37 -76 37q-34 0 -43.5 -19t-11.5 -77 v-16q0 -29 -31 -29h-47q-27 0 -27 35z" />
<glyph unicode="&#xd6;" horiz-adv-x="1210" d="M162 283v827q0 65 22.5 116.5t72 94t137.5 65.5t210 23q123 0 212 -23t138.5 -65.5t72 -94t22.5 -116.5v-827q0 -65 -22.5 -116.5t-72 -94t-138.5 -65.5t-212 -23q-122 0 -210 23t-137.5 65.5t-72 94t-22.5 116.5zM307 305q0 -196 297 -196q299 0 299 196v782 q0 197 -299 197q-297 0 -297 -197v-782zM440 1554v199q0 29 31 29h49q17 0 23 -6.5t6 -22.5v-199q0 -17 -6 -23.5t-23 -6.5h-49q-17 0 -24 6.5t-7 23.5zM659 1554v199q0 29 31 29h49q31 0 31 -29v-199q0 -17 -7 -23.5t-24 -6.5h-49q-17 0 -24 6.5t-7 23.5z" />
<glyph unicode="&#xd7;" horiz-adv-x="1114" d="M170 506q-14 28 10 41l295 168l-172 297q-15 27 10 41l52 30q25 15 41 -12l172 -295l296 170q13 8 21.5 5.5t17.5 -15.5l31 -51q15 -27 -12 -43l-295 -172l170 -293q13 -24 -12 -41l-52 -31q-23 -15 -38 12l-170 293l-295 -170q-27 -16 -43 13z" />
<glyph unicode="&#xd8;" horiz-adv-x="1210" d="M162 281v825q0 65 22.5 116.5t72 94t137.5 65.5t210 23q177 0 289 -51l25 49q22 45 51 45h26q31 0 9 -45l-46 -90q91 -73 91 -207v-825q0 -65 -22.5 -117t-72 -94.5t-138.5 -66t-212 -23.5q-184 0 -293 53l-24 -47q-8 -15 -13 -22.5t-14.5 -15t-21.5 -7.5h-27 q-32 0 -10 45l45 90q-84 76 -84 205zM307 303q0 -43 15 -78l507 1006q-73 51 -225 51q-297 0 -297 -199v-780zM375 160q75 -56 229 -56q299 0 299 199v780q0 47 -18 84z" />
<glyph unicode="&#xd9;" horiz-adv-x="1232" d="M174 283v1079q0 31 29 31h88q28 0 28 -31v-1057q0 -196 295 -196q301 0 301 196v1057q0 31 29 31h86q29 0 29 -31v-1079q0 -65 -22.5 -116.5t-72 -94t-138.5 -65.5t-212 -23q-122 0 -210 23t-137 65.5t-71 94t-22 116.5zM385 1788.5q4 9.5 21 9.5h90q11 0 19 -4.5 t11.5 -9.5l10.5 -15l137 -229q8 -15 3.5 -23t-18.5 -8h-69q-21 0 -37 21l-162 237q-10 12 -6 21.5z" />
<glyph unicode="&#xda;" horiz-adv-x="1232" d="M174 283v1079q0 31 29 31h88q28 0 28 -31v-1057q0 -196 295 -196q301 0 301 196v1057q0 31 29 31h86q29 0 29 -31v-1079q0 -65 -22.5 -116.5t-72 -94t-138.5 -65.5t-212 -23q-122 0 -210 23t-137 65.5t-71 94t-22 116.5zM559 1540l137 229q18 29 39 29h90q17 0 21 -9.5 t-4 -21.5l-162 -237q-14 -19 -39 -19h-68q-31 0 -14 29z" />
<glyph unicode="&#xdb;" horiz-adv-x="1232" d="M174 283v1079q0 31 29 31h88q28 0 28 -31v-1057q0 -196 295 -196q301 0 301 196v1057q0 31 29 31h86q29 0 29 -31v-1079q0 -65 -22.5 -116.5t-72 -94t-138.5 -65.5t-212 -23q-122 0 -210 23t-137 65.5t-71 94t-22 116.5zM381 1519.5q-5 8.5 4 20.5l158 227q23 31 47 31 h53q25 0 47 -29l158 -229q9 -12 4.5 -20.5t-21.5 -8.5h-65q-23 0 -41 29l-109 168l-108 -168q-17 -29 -41 -29h-66q-15 0 -20 8.5z" />
<glyph unicode="&#xdc;" horiz-adv-x="1232" d="M174 283v1079q0 31 29 31h88q28 0 28 -31v-1057q0 -196 295 -196q301 0 301 196v1057q0 31 29 31h86q29 0 29 -31v-1079q0 -65 -22.5 -116.5t-72 -94t-138.5 -65.5t-212 -23q-122 0 -210 23t-137 65.5t-71 94t-22 116.5zM453 1554v199q0 15 6.5 22t23.5 7h49 q17 0 23 -6.5t6 -22.5v-199q0 -17 -6 -23.5t-23 -6.5h-49q-17 0 -23.5 6.5t-6.5 23.5zM672 1554v199q0 15 6.5 22t23.5 7h50q17 0 23.5 -7t6.5 -22v-199q0 -17 -6.5 -23.5t-23.5 -6.5h-50q-17 0 -23.5 6.5t-6.5 23.5z" />
<glyph unicode="&#xdd;" horiz-adv-x="1058" d="M41.5 1385q5.5 8 21.5 8h99q23 0 37 -31l301 -594q8 -17 15 -35.5t11 -30t4 -12.5q0 13 31 78l311 594q16 31 37 31h86q16 0 22 -8t-1 -23l-412 -795v-536q0 -31 -31 -31h-86q-30 0 -30 31v520l-414 811q-7 15 -1.5 23zM489 1540l138 229q18 29 39 29h90q16 0 20 -9.5 t-4 -21.5l-162 -237q-14 -19 -39 -19h-67q-32 0 -15 29z" />
<glyph unicode="&#xde;" horiz-adv-x="1159" d="M184 31v1331q0 31 31 31h86q29 0 29 -31v-350h288q123 0 212 -23t138.5 -65.5t72 -94t22.5 -116.5v-209q0 -64 -22.5 -115.5t-72 -93.5t-138.5 -65t-212 -23h-288v-176q0 -31 -29 -31h-86q-31 0 -31 31zM330 328h288q300 0 300 198v164q0 199 -300 199h-288v-561z" />
<glyph unicode="&#xdf;" horiz-adv-x="1234" d="M57 922v49q0 27 29 30l111 7h16v178q0 264 399 264q398 0 398 -264v-76q0 -127 -156 -178l-129 -41q-25 -7 -37.5 -12t-32 -15.5t-28.5 -26t-9 -36.5v-10q0 -72 111 -115l244 -94q29 -11 55.5 -25.5t59.5 -39.5t53 -62t20 -80v-131q0 -60 -16 -105t-53.5 -81.5t-106 -55 t-166.5 -18.5q-79 0 -137 12t-94 33t-58 54t-30 70t-8 87v20q0 33 28 33h60q28 0 28 -33v-24q0 -76 45.5 -115t165.5 -39q119 0 165 39.5t46 114.5v114q0 15 -4 28t-9 22t-15.5 18.5t-17.5 15t-21.5 12.5t-20.5 9.5t-21 8.5t-18 7l-233 92q-33 13 -57 26.5t-53.5 37.5 t-45.5 61t-16 84v33q0 38 15 69.5t40.5 51.5t48.5 31.5t49 19.5l113 35q115 32 115 118v46q0 161 -261 161q-262 0 -262 -161v-1145q0 -31 -30 -31h-82q-31 0 -31 31v860h-127q-29 0 -29 31z" />
<glyph unicode="&#xe0;" horiz-adv-x="1034" d="M127 225v103q0 105 69 173t197 68h352v185q0 76 -51.5 116.5t-179.5 40.5q-129 0 -181 -39t-52 -114v-25q0 -33 -31 -33h-74q-29 0 -29 33v35q0 260 369 260q200 0 284.5 -68t84.5 -192v-737q0 -31 -29 -31h-74q-16 0 -22 7.5t-8 23.5l-4 73q-151 -120 -338 -120 q-137 0 -210 68t-73 173zM264 244q0 -142 178 -142q157 0 303 115v240h-325q-156 0 -156 -148v-65zM321.5 1440.5q3.5 9.5 20.5 9.5h90q11 0 19 -4.5t11.5 -9.5l10.5 -15l137 -229q8 -14 3.5 -21.5t-17.5 -7.5h-70q-23 0 -37 19l-161 237q-10 12 -6.5 21.5z" />
<glyph unicode="&#xe1;" horiz-adv-x="1034" d="M127 225v103q0 105 69 173t197 68h352v185q0 76 -51.5 116.5t-179.5 40.5q-129 0 -181 -39t-52 -114v-25q0 -33 -31 -33h-74q-29 0 -29 33v35q0 260 369 260q200 0 284.5 -68t84.5 -192v-737q0 -31 -29 -31h-74q-16 0 -22 7.5t-8 23.5l-4 73q-151 -120 -338 -120 q-137 0 -210 68t-73 173zM264 244q0 -142 178 -142q157 0 303 115v240h-325q-156 0 -156 -148v-65zM417 1170.5q-5 7.5 3 21.5l137 229q18 29 41 29h90q17 0 20.5 -9.5t-6.5 -21.5l-161 -237q-14 -19 -37 -19h-68q-14 0 -19 7.5z" />
<glyph unicode="&#xe2;" horiz-adv-x="1034" d="M127 225v103q0 105 69 173t197 68h352v185q0 76 -51.5 116.5t-179.5 40.5q-129 0 -181 -39t-52 -114v-25q0 -33 -31 -33h-74q-29 0 -29 33v35q0 260 369 260q200 0 284.5 -68t84.5 -192v-737q0 -31 -29 -31h-74q-16 0 -22 7.5t-8 23.5l-4 73q-151 -120 -338 -120 q-137 0 -210 68t-73 173zM264 244q0 -142 178 -142q157 0 303 115v240h-325q-156 0 -156 -148v-65zM282 1171.5q-4 8.5 5 20.5l155 227q23 31 47 31h54q25 0 47 -29l160 -229q8 -12 3 -20.5t-20 -8.5h-65q-23 0 -41 29l-109 168l-108 -168q-17 -29 -41 -29h-66 q-17 0 -21 8.5z" />
<glyph unicode="&#xe3;" horiz-adv-x="1034" d="M127 225v103q0 105 69 173t197 68h352v185q0 76 -51.5 116.5t-179.5 40.5q-129 0 -181 -39t-52 -114v-25q0 -33 -31 -33h-74q-29 0 -29 33v35q0 260 369 260q200 0 284.5 -68t84.5 -192v-737q0 -31 -29 -31h-74q-16 0 -22 7.5t-8 23.5l-4 73q-151 -120 -338 -120 q-137 0 -210 68t-73 173zM223 1210l4 56q11 161 148 161q59 0 112 -38l91 -66q51 -37 77 -37q33 0 42.5 19.5t11.5 78.5v17q0 26 32 26h45q27 0 27 -32l-2 -52q-3 -86 -43.5 -125.5t-105.5 -39.5q-58 0 -111 36l-92 66q-51 37 -76 37q-34 0 -43.5 -19t-11.5 -77v-17 q0 -16 -7.5 -22t-23.5 -6h-47q-27 0 -27 34zM264 244q0 -142 178 -142q157 0 303 115v240h-325q-156 0 -156 -148v-65z" />
<glyph unicode="&#xe4;" horiz-adv-x="1034" d="M127 225v103q0 105 69 173t197 68h352v185q0 76 -51.5 116.5t-179.5 40.5q-129 0 -181 -39t-52 -114v-25q0 -33 -31 -33h-74q-29 0 -29 33v35q0 260 369 260q200 0 284.5 -68t84.5 -192v-737q0 -31 -29 -31h-74q-16 0 -22 7.5t-8 23.5l-4 73q-151 -120 -338 -120 q-137 0 -210 68t-73 173zM264 244q0 -142 178 -142q157 0 303 115v240h-325q-156 0 -156 -148v-65zM350 1210v199q0 31 31 31h51q29 0 29 -31v-199q0 -28 -29 -28h-51q-31 0 -31 28zM571 1210v199q0 31 29 31h51q29 0 29 -31v-199q0 -28 -29 -28h-51q-29 0 -29 28z" />
<glyph unicode="&#xe5;" horiz-adv-x="1034" d="M127 225v103q0 105 69 173t197 68h352v185q0 76 -51.5 116.5t-179.5 40.5q-129 0 -181 -39t-52 -114v-25q0 -33 -31 -33h-74q-29 0 -29 33v35q0 260 369 260q200 0 284.5 -68t84.5 -192v-737q0 -31 -29 -31h-74q-16 0 -22 7.5t-8 23.5l-4 73q-151 -120 -338 -120 q-137 0 -210 68t-73 173zM264 244q0 -142 178 -142q157 0 303 115v240h-325q-156 0 -156 -148v-65zM332 1278v51q0 66 47 106t141 40q96 0 143.5 -40t47.5 -106v-51q0 -66 -47.5 -104.5t-143.5 -38.5q-95 0 -141.5 38.5t-46.5 104.5zM414 1292q0 -84 106 -84q107 0 107 84 v23q0 84 -107 84q-106 0 -106 -84v-23z" />
<glyph unicode="&#xe6;" horiz-adv-x="1613" d="M125 225v86q0 105 71 173.5t197 68.5h350v219q0 71 -53 110.5t-178 39.5q-129 0 -181 -40t-52 -118v-31q0 -31 -29 -31h-74q-17 0 -24 7t-7 24v35q0 125 86 192.5t285 67.5q232 0 297 -117q77 117 307 117q200 0 286.5 -68.5t86.5 -195.5v-246q0 -29 -29 -29h-581v-243 q0 -75 53.5 -114.5t183.5 -39.5t185 42t55 118v37q0 30 29 30h71q29 0 29 -30v-43q0 -126 -84.5 -194t-284.5 -68q-280 0 -346 141q-174 -141 -364 -141q-141 0 -213 67.5t-72 173.5zM264 242q0 -67 46 -106.5t132 -39.5q51 0 99.5 13.5t91 39t61.5 39.5t49 39v226h-327 q-75 0 -113.5 -41t-38.5 -107v-63zM883 590h477v170q0 76 -55 118t-185 42q-129 0 -183 -42t-54 -118v-170z" />
<glyph unicode="&#xe7;" horiz-adv-x="980" d="M139 248v516q0 127 86.5 195.5t286.5 68.5t286.5 -68.5t86.5 -195.5v-39q0 -31 -31 -31h-76q-30 0 -30 31v31q0 76 -52.5 115.5t-181.5 39.5t-181 -39.5t-52 -115.5v-498q0 -78 52 -118t181 -40t181.5 40t52.5 118v45q0 17 6.5 24t23.5 7h76q17 0 24 -7t7 -24v-55 q0 -126 -87 -195t-288 -69h-8l-25 -93h76q72 0 121 -38t49 -121t-49.5 -123.5t-120.5 -40.5h-238q-30 0 -30 31v30q0 29 30 29h217q86 0 86 72q0 71 -86 71h-126q-27 0 -35.5 9.5t-3.5 29.5l39 150q-142 16 -204.5 82.5t-62.5 175.5z" />
<glyph unicode="&#xe8;" horiz-adv-x="1007" d="M139 248v516q0 127 87.5 195.5t289.5 68.5q200 0 285.5 -68.5t85.5 -195.5v-252q0 -29 -29 -29h-579v-227q0 -77 52 -117.5t185 -40.5t185.5 40.5t52.5 117.5v35q0 28 28 28h74q31 0 31 -28v-43q0 -127 -86.5 -195.5t-288.5 -68.5q-200 0 -286.5 68.5t-86.5 195.5z M279 592h475v164q0 157 -238 157q-130 0 -183.5 -41t-53.5 -116v-164zM290.5 1440.5q3.5 9.5 20.5 9.5h90q11 0 19 -4.5t11.5 -9.5l10.5 -15l138 -229q8 -14 3 -21.5t-18 -7.5h-69q-23 0 -37 19l-162 237q-10 12 -6.5 21.5z" />
<glyph unicode="&#xe9;" horiz-adv-x="1007" d="M139 248v516q0 127 87.5 195.5t289.5 68.5q200 0 285.5 -68.5t85.5 -195.5v-252q0 -29 -29 -29h-579v-227q0 -77 52 -117.5t185 -40.5t185.5 40.5t52.5 117.5v35q0 28 28 28h74q31 0 31 -28v-43q0 -127 -86.5 -195.5t-288.5 -68.5q-200 0 -286.5 68.5t-86.5 195.5z M279 592h475v164q0 157 -238 157q-130 0 -183.5 -41t-53.5 -116v-164zM431.5 1170.5q-5.5 7.5 2.5 21.5l137 229q18 29 41 29h90q17 0 21 -9.5t-6 -21.5l-162 -237q-14 -19 -37 -19h-67q-14 0 -19.5 7.5z" />
<glyph unicode="&#xea;" horiz-adv-x="1007" d="M139 248v516q0 127 87.5 195.5t289.5 68.5q200 0 285.5 -68.5t85.5 -195.5v-252q0 -29 -29 -29h-579v-227q0 -77 52 -117.5t185 -40.5t185.5 40.5t52.5 117.5v35q0 28 28 28h74q31 0 31 -28v-43q0 -127 -86.5 -195.5t-288.5 -68.5q-200 0 -286.5 68.5t-86.5 195.5z M279 592h475v164q0 157 -238 157q-130 0 -183.5 -41t-53.5 -116v-164zM280 1171.5q-4 8.5 5 20.5l155 227q23 31 47 31h54q25 0 47 -29l160 -229q8 -12 3 -20.5t-20 -8.5h-65q-23 0 -41 29l-109 168l-108 -168q-17 -29 -41 -29h-66q-17 0 -21 8.5z" />
<glyph unicode="&#xeb;" horiz-adv-x="1007" d="M139 248v516q0 127 87.5 195.5t289.5 68.5q200 0 285.5 -68.5t85.5 -195.5v-252q0 -29 -29 -29h-579v-227q0 -77 52 -117.5t185 -40.5t185.5 40.5t52.5 117.5v35q0 28 28 28h74q31 0 31 -28v-43q0 -127 -86.5 -195.5t-288.5 -68.5q-200 0 -286.5 68.5t-86.5 195.5z M279 592h475v164q0 157 -238 157q-130 0 -183.5 -41t-53.5 -116v-164zM348 1210v199q0 31 31 31h51q29 0 29 -31v-199q0 -28 -29 -28h-51q-31 0 -31 28zM569 1210v199q0 31 29 31h51q29 0 29 -31v-199q0 -28 -29 -28h-51q-29 0 -29 28z" />
<glyph unicode="&#xec;" horiz-adv-x="464" d="M-6.5 1440.5q3.5 9.5 20.5 9.5h90q11 0 19 -4.5t11.5 -9.5l10.5 -15l138 -229q8 -14 3 -21.5t-18 -7.5h-69q-23 0 -37 19l-162 237q-10 12 -6.5 21.5zM162 31v950q0 31 28 31h84q29 0 29 -31v-950q0 -31 -29 -31h-84q-28 0 -28 31z" />
<glyph unicode="&#xed;" horiz-adv-x="464" d="M162 31v950q0 31 28 31h84q29 0 29 -31v-950q0 -31 -29 -31h-84q-28 0 -28 31zM173.5 1170.5q-5.5 7.5 2.5 21.5l137 229q18 29 41 29h90q17 0 21 -9.5t-6 -21.5l-162 -237q-14 -19 -37 -19h-67q-14 0 -19.5 7.5z" />
<glyph unicode="&#xee;" horiz-adv-x="464" d="M-1 1171.5q-4 8.5 5 20.5l156 227q23 31 47 31h53q25 0 47 -29l160 -229q8 -12 3.5 -20.5t-19.5 -8.5h-66q-23 0 -41 29l-108 168l-109 -168q-17 -29 -41 -29h-66q-17 0 -21 8.5zM162 31v950q0 31 28 31h84q29 0 29 -31v-950q0 -31 -29 -31h-84q-28 0 -28 31z" />
<glyph unicode="&#xef;" horiz-adv-x="464" d="M70 1210v199q0 31 30 31h52q28 0 28 -31v-199q0 -28 -28 -28h-52q-30 0 -30 28zM162 31v950q0 31 28 31h84q29 0 29 -31v-950q0 -31 -29 -31h-84q-28 0 -28 31zM291 1210v199q0 31 28 31h52q28 0 28 -31v-199q0 -28 -28 -28h-52q-28 0 -28 28z" />
<glyph unicode="&#xf0;" horiz-adv-x="1136" d="M139 246v520q0 122 71 192t214 70q186 0 346 -123v256q0 37 -16 66l-148 -64q-27 -12 -41 11l-10 18q-6 10 -3 21.5t15 17.5l154 67q-56 50 -193 50h-182q-17 0 -24 6.5t-7 23.5v41q0 17 7 24t24 7h182q220 0 308 -88l106 49q26 11 39 -10l12 -21q6 -10 2.5 -21.5 t-16.5 -17.5l-96 -45q20 -44 20 -108v-942q0 -125 -88.5 -193.5t-290.5 -68.5q-385 0 -385 262zM281 256q0 -158 243 -158q246 0 246 158v530q-145 119 -307 119q-94 0 -138 -43.5t-44 -113.5v-492z" />
<glyph unicode="&#xf1;" horiz-adv-x="1085" d="M162 31v950q0 31 31 31h73q16 0 22.5 -7.5t8.5 -23.5l4 -78q57 49 145.5 87t204.5 38q138 0 210.5 -69.5t72.5 -182.5v-745q0 -31 -29 -31h-82q-30 0 -30 31v714q0 156 -181 156q-163 0 -309 -115v-755q0 -31 -29 -31h-81q-31 0 -31 31zM242 1219l4 55q11 162 147 162 q58 0 113 -39l90 -66q51 -37 78 -37q32 0 41.5 19.5t11.5 79.5v16q0 27 33 27h45q26 0 26 -33l-2 -51q-3 -86 -43.5 -126t-105.5 -40q-56 0 -111 37l-92 65q-51 37 -76 37q-34 0 -43.5 -19t-11.5 -77v-17q0 -16 -7.5 -22t-23.5 -6h-47q-26 0 -26 35z" />
<glyph unicode="&#xf2;" horiz-adv-x="1050" d="M139 248v516q0 264 385 264q387 0 387 -264v-516q0 -264 -387 -264q-385 0 -385 264zM281 258q0 -158 243 -158q246 0 246 158v496q0 76 -57.5 116.5t-188.5 40.5q-129 0 -186 -40.5t-57 -116.5v-496zM296.5 1440.5q3.5 9.5 20.5 9.5h91q11 0 19 -4.5t11.5 -9.5l10.5 -15 l137 -229q8 -14 3 -21.5t-18 -7.5h-69q-23 0 -37 19l-162 237q-10 12 -6.5 21.5z" />
<glyph unicode="&#xf3;" horiz-adv-x="1050" d="M139 248v516q0 264 385 264q387 0 387 -264v-516q0 -264 -387 -264q-385 0 -385 264zM281 258q0 -158 243 -158q246 0 246 158v496q0 76 -57.5 116.5t-188.5 40.5q-129 0 -186 -40.5t-57 -116.5v-496zM458 1170.5q-5 7.5 3 21.5l137 229q18 29 41 29h90q17 0 20.5 -9.5 t-6.5 -21.5l-161 -237q-14 -19 -37 -19h-68q-14 0 -19 7.5z" />
<glyph unicode="&#xf4;" horiz-adv-x="1050" d="M139 248v516q0 264 385 264q387 0 387 -264v-516q0 -264 -387 -264q-385 0 -385 264zM281 258q0 -158 243 -158q246 0 246 158v496q0 76 -57.5 116.5t-188.5 40.5q-129 0 -186 -40.5t-57 -116.5v-496zM290 1171.5q-4 8.5 5 20.5l156 227q23 31 47 31h53q25 0 47 -29 l160 -229q8 -12 3 -20.5t-20 -8.5h-65q-23 0 -41 29l-109 168l-108 -168q-17 -29 -41 -29h-66q-17 0 -21 8.5z" />
<glyph unicode="&#xf5;" horiz-adv-x="1050" d="M139 248v516q0 264 385 264q387 0 387 -264v-516q0 -264 -387 -264q-385 0 -385 264zM231 1210l5 56q11 161 147 161q60 0 113 -38l90 -66q51 -37 78 -37q33 0 42 19t11 79v17q0 26 33 26h45q26 0 26 -32l-2 -52q-3 -86 -43.5 -125.5t-105.5 -39.5q-58 0 -111 36l-92 66 q-51 37 -76 37q-34 0 -43.5 -19t-11.5 -77v-17q0 -16 -7.5 -22t-23.5 -6h-47q-27 0 -27 34zM281 258q0 -158 243 -158q246 0 246 158v496q0 76 -57.5 116.5t-188.5 40.5q-129 0 -186 -40.5t-57 -116.5v-496z" />
<glyph unicode="&#xf6;" horiz-adv-x="1050" d="M139 248v516q0 264 385 264q387 0 387 -264v-516q0 -264 -387 -264q-385 0 -385 264zM281 258q0 -158 243 -158q246 0 246 158v496q0 76 -57.5 116.5t-188.5 40.5q-129 0 -186 -40.5t-57 -116.5v-496zM360 1210v199q0 31 31 31h51q29 0 29 -31v-199q0 -28 -29 -28h-51 q-31 0 -31 28zM582 1210v199q0 31 28 31h52q28 0 28 -31v-199q0 -28 -28 -28h-52q-28 0 -28 28z" />
<glyph unicode="&#xf7;" horiz-adv-x="1204" d="M162 625v61q0 17 6.5 23t21.5 6h822q30 0 30 -29v-61q0 -31 -30 -31h-819q-17 0 -24 7t-7 24zM530 236v159q0 31 31 31h86q29 0 29 -31v-159q0 -31 -29 -31h-86q-17 0 -24 7t-7 24zM530 922v159q0 31 31 31h86q29 0 29 -31v-159q0 -31 -29 -31h-86q-17 0 -24 7t-7 24z " />
<glyph unicode="&#xf8;" horiz-adv-x="1050" d="M139 248v516q0 264 385 264q138 0 230 -37l20 37q1 2 4.5 8.5t4.5 8.5t4 7t5 7l5.5 5.5t7 5t8.5 2.5t10 1h31q10 0 15 -3t4 -10t-4 -14t-9 -18l-41 -72q92 -66 92 -192v-516q0 -264 -387 -264q-142 0 -231 36l-19 -32q-14 -26 -23 -35.5t-28 -9.5h-26q-34 0 -9 45l37 67 q-86 66 -86 193zM281 258q0 -45 16 -76l395 701q-61 28 -168 28q-129 0 -186 -40.5t-57 -116.5v-496zM354 131q60 -31 170 -31q246 0 246 158v496q0 44 -20 77z" />
<glyph unicode="&#xf9;" d="M150 233v748q0 31 28 31h84q29 0 29 -31v-715q0 -155 182 -155q159 0 295 112v758q0 31 29 31h84q28 0 28 -31v-950q0 -17 -6.5 -24t-21.5 -7h-76q-17 0 -23 6.5t-8 24.5l-4 73q-140 -120 -336 -120q-138 0 -211 68t-73 181zM317.5 1440.5q3.5 9.5 20.5 9.5h90 q11 0 19 -4.5t11.5 -9.5l10.5 -15l137 -229q8 -14 3.5 -21.5t-17.5 -7.5h-70q-23 0 -37 19l-161 237q-10 12 -6.5 21.5z" />
<glyph unicode="&#xfa;" d="M150 233v748q0 31 28 31h84q29 0 29 -31v-715q0 -155 182 -155q159 0 295 112v758q0 31 29 31h84q28 0 28 -31v-950q0 -17 -6.5 -24t-21.5 -7h-76q-17 0 -23 6.5t-8 24.5l-4 73q-140 -120 -336 -120q-138 0 -211 68t-73 181zM460 1170.5q-5 7.5 3 21.5l137 229 q18 29 41 29h90q17 0 20.5 -9.5t-6.5 -21.5l-161 -237q-14 -19 -37 -19h-68q-14 0 -19 7.5z" />
<glyph unicode="&#xfb;" d="M150 233v748q0 31 28 31h84q29 0 29 -31v-715q0 -155 182 -155q159 0 295 112v758q0 31 29 31h84q28 0 28 -31v-950q0 -17 -6.5 -24t-21.5 -7h-76q-17 0 -23 6.5t-8 24.5l-4 73q-140 -120 -336 -120q-138 0 -211 68t-73 181zM290 1171.5q-4 8.5 5 20.5l156 227 q23 31 47 31h53q25 0 47 -29l160 -229q8 -12 3 -20.5t-20 -8.5h-65q-23 0 -41 29l-109 168l-108 -168q-17 -29 -41 -29h-66q-17 0 -21 8.5z" />
<glyph unicode="&#xfc;" d="M150 233v748q0 31 28 31h84q29 0 29 -31v-715q0 -155 182 -155q159 0 295 112v758q0 31 29 31h84q28 0 28 -31v-950q0 -17 -6.5 -24t-21.5 -7h-76q-17 0 -23 6.5t-8 24.5l-4 73q-140 -120 -336 -120q-138 0 -211 68t-73 181zM369 1210v199q0 31 30 31h52q28 0 28 -31 v-199q0 -28 -28 -28h-52q-30 0 -30 28zM590 1210v199q0 31 28 31h52q28 0 28 -31v-199q0 -28 -28 -28h-52q-28 0 -28 28z" />
<glyph unicode="&#xfd;" horiz-adv-x="884" d="M37 981q-4 13 3.5 22t22.5 9h84q25 0 35 -31l232 -680q8 -25 14.5 -54.5t10 -48.5t3.5 -20q19 76 33 119l234 684q10 31 34 31h78q17 0 24.5 -8.5t2.5 -22.5l-469 -1374q-12 -31 -35 -31h-63q-15 0 -22 9t-3 22l123 385zM386.5 1170.5q-5.5 7.5 2.5 21.5l137 229 q18 29 41 29h90q17 0 21 -9.5t-6 -21.5l-162 -237q-14 -19 -37 -19h-67q-14 0 -19.5 7.5z" />
<glyph unicode="&#xfe;" d="M162 -393v1794q0 31 28 31h84q29 0 29 -31v-496q154 123 346 123q143 0 214 -70t71 -192v-520q0 -123 -71 -192.5t-214 -69.5q-195 0 -346 120v-497q0 -31 -29 -31h-84q-28 0 -28 31zM303 223q142 -117 307 -117q94 0 138.5 44t44.5 114v484q0 70 -44.5 113.5 t-138.5 43.5q-162 0 -307 -119v-563z" />
<glyph unicode="&#xff;" horiz-adv-x="884" d="M37 981q-4 13 3.5 22t22.5 9h84q25 0 35 -31l232 -680q8 -25 14.5 -54.5t10 -48.5t3.5 -20q19 76 33 119l234 684q10 31 34 31h78q17 0 24.5 -8.5t2.5 -22.5l-469 -1374q-12 -31 -35 -31h-63q-15 0 -22 9t-3 22l123 385zM285 1210v199q0 31 30 31h52q28 0 28 -31v-199 q0 -28 -28 -28h-52q-30 0 -30 28zM506 1210v199q0 31 29 31h51q28 0 28 -31v-199q0 -28 -28 -28h-51q-29 0 -29 28z" />
<glyph unicode="&#x152;" horiz-adv-x="1789" d="M162 283v827q0 65 22 116.5t71.5 94t137.5 65.5t211 23q187 0 299 -80v33q0 31 29 31h700q29 0 29 -29v-64q0 -28 -29 -28h-583v-484h546q16 0 23.5 -6t7.5 -22v-60q0 -28 -31 -28h-546v-551h608q16 0 22.5 -6t6.5 -23v-61q0 -31 -29 -31h-725q-29 0 -29 31v32 q-106 -79 -299 -79q-123 0 -211 23t-137.5 65.5t-71.5 94t-22 116.5zM307 305q0 -201 297 -201q292 0 299 191v801q-7 192 -299 192q-297 0 -297 -201v-782z" />
<glyph unicode="&#x153;" horiz-adv-x="1638" d="M139 246v518q0 264 385 264q226 0 307 -94q88 94 316 94q200 0 285.5 -68.5t85.5 -195.5v-246q0 -29 -27 -29h-582v-237q0 -77 54 -118.5t184 -41.5q129 0 183 42t54 118v37q0 30 31 30h70q28 0 28 -30v-43q0 -126 -83 -194t-283 -68q-227 0 -316 92q-82 -92 -307 -92 q-385 0 -385 262zM281 256q0 -158 243 -158q246 0 246 158v500q0 157 -246 157q-243 0 -243 -157v-500zM909 590h475v170q0 76 -54 118t-183 42q-130 0 -184 -41.5t-54 -118.5v-170z" />
<glyph unicode="&#x178;" horiz-adv-x="1058" d="M41.5 1385q5.5 8 21.5 8h99q23 0 37 -31l301 -594q8 -17 15 -35.5t11 -30t4 -12.5q0 13 31 78l311 594q16 31 37 31h86q16 0 22 -8t-1 -23l-412 -795v-536q0 -31 -31 -31h-86q-30 0 -30 31v520l-414 811q-7 15 -1.5 23zM365 1554v199q0 15 6.5 22t23.5 7h49q17 0 23 -6.5 t6 -22.5v-199q0 -17 -6 -23.5t-23 -6.5h-49q-17 0 -23.5 6.5t-6.5 23.5zM584 1554v199q0 15 6.5 22t23.5 7h50q17 0 23.5 -7t6.5 -22v-199q0 -17 -6.5 -23.5t-23.5 -6.5h-50q-17 0 -23.5 6.5t-6.5 23.5z" />
<glyph unicode="&#x2c6;" horiz-adv-x="710" d="M118 1171.5q-4 8.5 5 20.5l156 227q23 31 47 31h53q25 0 47 -29l160 -229q8 -12 3 -20.5t-20 -8.5h-65q-23 0 -41 29l-109 168l-108 -168q-17 -29 -41 -29h-66q-17 0 -21 8.5z" />
<glyph unicode="&#x2dc;" horiz-adv-x="864" d="M135 1210l4 56q11 161 148 161q59 0 112 -38l90 -66q51 -37 78 -37q33 0 42.5 19.5t11.5 78.5v17q0 26 32 26h45q27 0 27 -32l-2 -52q-3 -86 -44 -125.5t-106 -39.5q-57 0 -110 36l-92 66q-51 37 -76 37q-34 0 -43.5 -19t-11.5 -77v-17q0 -16 -7.5 -22t-23.5 -6h-47 q-27 0 -27 34z" />
<glyph unicode="&#x2000;" horiz-adv-x="908" />
<glyph unicode="&#x2001;" horiz-adv-x="1817" />
<glyph unicode="&#x2002;" horiz-adv-x="908" />
<glyph unicode="&#x2003;" horiz-adv-x="1817" />
<glyph unicode="&#x2004;" horiz-adv-x="605" />
<glyph unicode="&#x2005;" horiz-adv-x="454" />
<glyph unicode="&#x2006;" horiz-adv-x="302" />
<glyph unicode="&#x2007;" horiz-adv-x="302" />
<glyph unicode="&#x2008;" horiz-adv-x="227" />
<glyph unicode="&#x2009;" horiz-adv-x="363" />
<glyph unicode="&#x200a;" horiz-adv-x="100" />
<glyph unicode="&#x2010;" horiz-adv-x="933" d="M162 563v60q0 28 31 28h548q31 0 31 -28v-60q0 -31 -31 -31h-548q-31 0 -31 31z" />
<glyph unicode="&#x2011;" horiz-adv-x="933" d="M162 563v60q0 28 31 28h548q31 0 31 -28v-60q0 -31 -31 -31h-548q-31 0 -31 31z" />
<glyph unicode="&#x2012;" horiz-adv-x="933" d="M162 563v60q0 28 31 28h548q31 0 31 -28v-60q0 -31 -31 -31h-548q-31 0 -31 31z" />
<glyph unicode="&#x2013;" horiz-adv-x="1118" d="M162 563v60q0 28 31 28h733q30 0 30 -28v-60q0 -31 -30 -31h-733q-31 0 -31 31z" />
<glyph unicode="&#x2014;" horiz-adv-x="1751" d="M162 563v60q0 28 31 28h1366q30 0 30 -28v-60q0 -31 -30 -31h-1366q-31 0 -31 31z" />
<glyph unicode="&#x2018;" horiz-adv-x="452" d="M139 1112v131q0 188 207 250q28 9 37 -18l20 -60q5 -17 1.5 -25t-19.5 -14q-57 -25 -78.5 -57t-21.5 -82v-125q0 -31 -29 -31h-88q-29 0 -29 31z" />
<glyph unicode="&#x2019;" horiz-adv-x="450" d="M47 1159q-10 28 19 39q57 25 78.5 57t21.5 82v125q0 31 29 31h88q28 0 28 -31v-131q0 -188 -207 -250q-27 -9 -36 19z" />
<glyph unicode="&#x201a;" horiz-adv-x="450" d="M47 -113q-10 28 19 39q57 25 78.5 57.5t21.5 82.5v124q0 31 29 31h88q28 0 28 -31v-131q0 -187 -207 -249q-27 -9 -36 18z" />
<glyph unicode="&#x201c;" horiz-adv-x="774" d="M139 1112v131q0 188 207 250q28 9 37 -18l20 -60q5 -17 1.5 -25t-19.5 -14q-57 -25 -78.5 -57t-21.5 -82v-125q0 -31 -29 -31h-88q-29 0 -29 31zM463 1112v131q0 188 207 250q28 9 37 -18l20 -60q5 -17 1.5 -25t-19.5 -14q-58 -25 -79.5 -57t-21.5 -82v-125 q0 -31 -28 -31h-88q-29 0 -29 31z" />
<glyph unicode="&#x201d;" horiz-adv-x="774" d="M47 1159q-10 28 19 39q57 25 78.5 57t21.5 82v125q0 31 29 31h88q28 0 28 -31v-131q0 -188 -207 -250q-27 -9 -36 19zM369.5 1184q3.5 8 19.5 14q57 25 78.5 57t21.5 82v125q0 31 29 31h88q29 0 29 -31v-131q0 -188 -207 -250q-28 -9 -37 19l-20 59q-5 17 -1.5 25z" />
<glyph unicode="&#x201e;" horiz-adv-x="774" d="M47 -113q-10 28 19 39q57 25 78.5 57.5t21.5 82.5v124q0 31 29 31h88q28 0 28 -31v-131q0 -187 -207 -249q-27 -9 -36 18zM369.5 -88q3.5 8 19.5 14q57 25 78.5 57.5t21.5 82.5v124q0 31 29 31h88q29 0 29 -31v-131q0 -187 -207 -249q-28 -9 -37 18l-20 59q-5 17 -1.5 25 z" />
<glyph unicode="&#x2022;" horiz-adv-x="514" d="M186 406v264q0 17 7 23.5t22 6.5h86q15 0 22 -6.5t7 -23.5v-264q0 -31 -29 -31h-86q-29 0 -29 31z" />
<glyph unicode="&#x2026;" horiz-adv-x="1466" d="M154 31v159q0 31 30 31h86q29 0 29 -31v-159q0 -31 -29 -31h-86q-17 0 -23.5 7t-6.5 24zM662 31v159q0 31 30 31h86q29 0 29 -31v-159q0 -31 -29 -31h-86q-17 0 -23.5 7t-6.5 24zM1167 31v159q0 31 31 31h86q29 0 29 -31v-159q0 -31 -29 -31h-86q-17 0 -24 7t-7 24z" />
<glyph unicode="&#x202f;" horiz-adv-x="363" />
<glyph unicode="&#x2039;" horiz-adv-x="763" d="M164 461v84q0 17 26 39l379 284q11 10 21 5.5t10 -21.5v-88q0 -11 -5.5 -20t-9.5 -12.5t-16 -12.5l-290 -217l290 -215q31 -23 31 -47v-88q0 -14 -11 -19.5t-20 2.5l-379 285q-26 22 -26 41z" />
<glyph unicode="&#x203a;" horiz-adv-x="763" d="M164 152v88q0 24 31 47l290 215l-290 217q-12 9 -16 12.5t-9.5 12.5t-5.5 20v88q0 17 10 21.5t21 -5.5l378 -284q27 -22 27 -39v-84q0 -19 -27 -41l-378 -285q-9 -8 -20 -2.5t-11 19.5z" />
<glyph unicode="&#x205f;" horiz-adv-x="454" />
<glyph unicode="&#x20ac;" horiz-adv-x="1329" d="M170 553v35q0 17 7 23.5t24 6.5h94v156h-94q-17 0 -24 7t-7 24v37q0 15 7 21.5t24 6.5h94v240q0 299 432 299t432 -299v-104q0 -33 -29 -33h-81q-31 0 -31 33v81q0 95 -67 146t-222 51t-222 -51t-67 -146v-217h320q28 0 28 -28v-37q0 -17 -6.5 -24t-21.5 -7h-320v-156 h320q15 0 21.5 -6.5t6.5 -23.5v-35q0 -17 -6.5 -24t-21.5 -7h-320v-217q0 -95 67 -145.5t222 -50.5t222 50.5t67 145.5v109q0 30 31 30h81q29 0 29 -30v-131q0 -299 -432 -299t-432 299v239h-94q-17 0 -24 7t-7 24z" />
<glyph unicode="&#x2122;" horiz-adv-x="1830" d="M184 1315v53q0 25 27 25h555q27 0 27 -25v-53q0 -25 -27 -25h-217v-708q0 -25 -23 -25h-75q-25 0 -25 25v708h-215q-27 0 -27 25zM891 582v786q0 25 22 25h68q17 0 23 -13l241 -506q12 -24 23 -57q1 2 6 15t9 24t7 16l240 508q6 13 22 13h70q25 0 25 -25v-786 q0 -25 -25 -25h-70q-24 0 -24 25v577q-5 -25 -19 -53l-182 -397q-11 -25 -33 -25h-53q-22 0 -33 25l-186 401q-6 11 -18 55v-583q0 -25 -23 -25h-68q-22 0 -22 25z" />
<glyph unicode="&#xe000;" horiz-adv-x="1013" d="M0 0v1014h1014v-1014h-1014z" />
</font>
</defs>
</svg>
